<?xml version="1.0" encoding="utf-8" standalone="no"?>
<!DOCTYPE svg PUBLIC "-//W3C//DTD SVG 1.1//EN"
  "http://www.w3.org/Graphics/SVG/1.1/DTD/svg11.dtd">
<svg xmlns:xlink="http://www.w3.org/1999/xlink" width="460.8pt" height="345.6pt" viewBox="0 0 460.8 345.6" xmlns="http://www.w3.org/2000/svg" version="1.1">
 <metadata>
  <rdf:RDF xmlns:dc="http://purl.org/dc/elements/1.1/" xmlns:cc="http://creativecommons.org/ns#" xmlns:rdf="http://www.w3.org/1999/02/22-rdf-syntax-ns#">
   <cc:Work>
    <dc:type rdf:resource="http://purl.org/dc/dcmitype/StillImage"/>
    <dc:date>2026-01-24T07:22:52.963611</dc:date>
    <dc:format>image/svg+xml</dc:format>
    <dc:creator>
     <cc:Agent>
      <dc:title>Matplotlib v3.10.8, https://matplotlib.org/</dc:title>
     </cc:Agent>
    </dc:creator>
   </cc:Work>
  </rdf:RDF>
 </metadata>
 <defs>
  <style type="text/css">*{stroke-linejoin: round; stroke-linecap: butt}</style>
 </defs>
 <g id="figure_1">
  <g id="patch_1">
   <path d="M 0 345.6 
L 460.8 345.6 
L 460.8 0 
L 0 0 
z
" style="fill: #ffffff"/>
  </g>
  <g id="axes_1">
   <g id="patch_2">
    <path d="M 57.6 307.584 
L 414.72 307.584 
L 414.72 41.472 
L 57.6 41.472 
z
" style="fill: #ffffff"/>
   </g>
   <g id="matplotlib.axis_1">
    <g id="xtick_1">
     <g id="line2d_1">
      <path d="M 57.6 307.584 
L 57.6 41.472 
" clip-path="url(#pa663f3e938)" style="fill: none; stroke: #b0b0b0; stroke-width: 0.8; stroke-linecap: square"/>
     </g>
     <g id="line2d_2">
      <defs>
       <path id="m1ec2b44b7d" d="M 0 0 
L 0 3.5 
" style="stroke: #000000; stroke-width: 0.8"/>
      </defs>
      <g>
       <use xlink:href="#m1ec2b44b7d" x="57.6" y="307.584" style="stroke: #000000; stroke-width: 0.8"/>
      </g>
     </g>
     <g id="text_1">
      <!-- 2 -->
      <g transform="translate(54.41875 322.182437) scale(0.1 -0.1)">
       <defs>
        <path id="DejaVuSans-32" d="M 1228 531 
L 3431 531 
L 3431 0 
L 469 0 
L 469 531 
Q 828 903 1448 1529 
Q 2069 2156 2228 2338 
Q 2531 2678 2651 2914 
Q 2772 3150 2772 3378 
Q 2772 3750 2511 3984 
Q 2250 4219 1831 4219 
Q 1534 4219 1204 4116 
Q 875 4013 500 3803 
L 500 4441 
Q 881 4594 1212 4672 
Q 1544 4750 1819 4750 
Q 2544 4750 2975 4387 
Q 3406 4025 3406 3419 
Q 3406 3131 3298 2873 
Q 3191 2616 2906 2266 
Q 2828 2175 2409 1742 
Q 1991 1309 1228 531 
z
" transform="scale(0.015625)"/>
       </defs>
       <use xlink:href="#DejaVuSans-32"/>
      </g>
     </g>
    </g>
    <g id="xtick_2">
     <g id="line2d_3">
      <path d="M 102.24 307.584 
L 102.24 41.472 
" clip-path="url(#pa663f3e938)" style="fill: none; stroke: #b0b0b0; stroke-width: 0.8; stroke-linecap: square"/>
     </g>
     <g id="line2d_4">
      <g>
       <use xlink:href="#m1ec2b44b7d" x="102.24" y="307.584" style="stroke: #000000; stroke-width: 0.8"/>
      </g>
     </g>
     <g id="text_2">
      <!-- 3 -->
      <g transform="translate(99.05875 322.182437) scale(0.1 -0.1)">
       <defs>
        <path id="DejaVuSans-33" d="M 2597 2516 
Q 3050 2419 3304 2112 
Q 3559 1806 3559 1356 
Q 3559 666 3084 287 
Q 2609 -91 1734 -91 
Q 1441 -91 1130 -33 
Q 819 25 488 141 
L 488 750 
Q 750 597 1062 519 
Q 1375 441 1716 441 
Q 2309 441 2620 675 
Q 2931 909 2931 1356 
Q 2931 1769 2642 2001 
Q 2353 2234 1838 2234 
L 1294 2234 
L 1294 2753 
L 1863 2753 
Q 2328 2753 2575 2939 
Q 2822 3125 2822 3475 
Q 2822 3834 2567 4026 
Q 2313 4219 1838 4219 
Q 1578 4219 1281 4162 
Q 984 4106 628 3988 
L 628 4550 
Q 988 4650 1302 4700 
Q 1616 4750 1894 4750 
Q 2613 4750 3031 4423 
Q 3450 4097 3450 3541 
Q 3450 3153 3228 2886 
Q 3006 2619 2597 2516 
z
" transform="scale(0.015625)"/>
       </defs>
       <use xlink:href="#DejaVuSans-33"/>
      </g>
     </g>
    </g>
    <g id="xtick_3">
     <g id="line2d_5">
      <path d="M 146.88 307.584 
L 146.88 41.472 
" clip-path="url(#pa663f3e938)" style="fill: none; stroke: #b0b0b0; stroke-width: 0.8; stroke-linecap: square"/>
     </g>
     <g id="line2d_6">
      <g>
       <use xlink:href="#m1ec2b44b7d" x="146.88" y="307.584" style="stroke: #000000; stroke-width: 0.8"/>
      </g>
     </g>
     <g id="text_3">
      <!-- 4 -->
      <g transform="translate(143.69875 322.182437) scale(0.1 -0.1)">
       <defs>
        <path id="DejaVuSans-34" d="M 2419 4116 
L 825 1625 
L 2419 1625 
L 2419 4116 
z
M 2253 4666 
L 3047 4666 
L 3047 1625 
L 3713 1625 
L 3713 1100 
L 3047 1100 
L 3047 0 
L 2419 0 
L 2419 1100 
L 313 1100 
L 313 1709 
L 2253 4666 
z
" transform="scale(0.015625)"/>
       </defs>
       <use xlink:href="#DejaVuSans-34"/>
      </g>
     </g>
    </g>
    <g id="xtick_4">
     <g id="line2d_7">
      <path d="M 191.52 307.584 
L 191.52 41.472 
" clip-path="url(#pa663f3e938)" style="fill: none; stroke: #b0b0b0; stroke-width: 0.8; stroke-linecap: square"/>
     </g>
     <g id="line2d_8">
      <g>
       <use xlink:href="#m1ec2b44b7d" x="191.52" y="307.584" style="stroke: #000000; stroke-width: 0.8"/>
      </g>
     </g>
     <g id="text_4">
      <!-- 5 -->
      <g transform="translate(188.33875 322.182437) scale(0.1 -0.1)">
       <defs>
        <path id="DejaVuSans-35" d="M 691 4666 
L 3169 4666 
L 3169 4134 
L 1269 4134 
L 1269 2991 
Q 1406 3038 1543 3061 
Q 1681 3084 1819 3084 
Q 2600 3084 3056 2656 
Q 3513 2228 3513 1497 
Q 3513 744 3044 326 
Q 2575 -91 1722 -91 
Q 1428 -91 1123 -41 
Q 819 9 494 109 
L 494 744 
Q 775 591 1075 516 
Q 1375 441 1709 441 
Q 2250 441 2565 725 
Q 2881 1009 2881 1497 
Q 2881 1984 2565 2268 
Q 2250 2553 1709 2553 
Q 1456 2553 1204 2497 
Q 953 2441 691 2322 
L 691 4666 
z
" transform="scale(0.015625)"/>
       </defs>
       <use xlink:href="#DejaVuSans-35"/>
      </g>
     </g>
    </g>
    <g id="xtick_5">
     <g id="line2d_9">
      <path d="M 236.16 307.584 
L 236.16 41.472 
" clip-path="url(#pa663f3e938)" style="fill: none; stroke: #b0b0b0; stroke-width: 0.8; stroke-linecap: square"/>
     </g>
     <g id="line2d_10">
      <g>
       <use xlink:href="#m1ec2b44b7d" x="236.16" y="307.584" style="stroke: #000000; stroke-width: 0.8"/>
      </g>
     </g>
     <g id="text_5">
      <!-- 6 -->
      <g transform="translate(232.97875 322.182437) scale(0.1 -0.1)">
       <defs>
        <path id="DejaVuSans-36" d="M 2113 2584 
Q 1688 2584 1439 2293 
Q 1191 2003 1191 1497 
Q 1191 994 1439 701 
Q 1688 409 2113 409 
Q 2538 409 2786 701 
Q 3034 994 3034 1497 
Q 3034 2003 2786 2293 
Q 2538 2584 2113 2584 
z
M 3366 4563 
L 3366 3988 
Q 3128 4100 2886 4159 
Q 2644 4219 2406 4219 
Q 1781 4219 1451 3797 
Q 1122 3375 1075 2522 
Q 1259 2794 1537 2939 
Q 1816 3084 2150 3084 
Q 2853 3084 3261 2657 
Q 3669 2231 3669 1497 
Q 3669 778 3244 343 
Q 2819 -91 2113 -91 
Q 1303 -91 875 529 
Q 447 1150 447 2328 
Q 447 3434 972 4092 
Q 1497 4750 2381 4750 
Q 2619 4750 2861 4703 
Q 3103 4656 3366 4563 
z
" transform="scale(0.015625)"/>
       </defs>
       <use xlink:href="#DejaVuSans-36"/>
      </g>
     </g>
    </g>
    <g id="xtick_6">
     <g id="line2d_11">
      <path d="M 280.8 307.584 
L 280.8 41.472 
" clip-path="url(#pa663f3e938)" style="fill: none; stroke: #b0b0b0; stroke-width: 0.8; stroke-linecap: square"/>
     </g>
     <g id="line2d_12">
      <g>
       <use xlink:href="#m1ec2b44b7d" x="280.8" y="307.584" style="stroke: #000000; stroke-width: 0.8"/>
      </g>
     </g>
     <g id="text_6">
      <!-- 7 -->
      <g transform="translate(277.61875 322.182437) scale(0.1 -0.1)">
       <defs>
        <path id="DejaVuSans-37" d="M 525 4666 
L 3525 4666 
L 3525 4397 
L 1831 0 
L 1172 0 
L 2766 4134 
L 525 4134 
L 525 4666 
z
" transform="scale(0.015625)"/>
       </defs>
       <use xlink:href="#DejaVuSans-37"/>
      </g>
     </g>
    </g>
    <g id="xtick_7">
     <g id="line2d_13">
      <path d="M 325.44 307.584 
L 325.44 41.472 
" clip-path="url(#pa663f3e938)" style="fill: none; stroke: #b0b0b0; stroke-width: 0.8; stroke-linecap: square"/>
     </g>
     <g id="line2d_14">
      <g>
       <use xlink:href="#m1ec2b44b7d" x="325.44" y="307.584" style="stroke: #000000; stroke-width: 0.8"/>
      </g>
     </g>
     <g id="text_7">
      <!-- 8 -->
      <g transform="translate(322.25875 322.182437) scale(0.1 -0.1)">
       <defs>
        <path id="DejaVuSans-38" d="M 2034 2216 
Q 1584 2216 1326 1975 
Q 1069 1734 1069 1313 
Q 1069 891 1326 650 
Q 1584 409 2034 409 
Q 2484 409 2743 651 
Q 3003 894 3003 1313 
Q 3003 1734 2745 1975 
Q 2488 2216 2034 2216 
z
M 1403 2484 
Q 997 2584 770 2862 
Q 544 3141 544 3541 
Q 544 4100 942 4425 
Q 1341 4750 2034 4750 
Q 2731 4750 3128 4425 
Q 3525 4100 3525 3541 
Q 3525 3141 3298 2862 
Q 3072 2584 2669 2484 
Q 3125 2378 3379 2068 
Q 3634 1759 3634 1313 
Q 3634 634 3220 271 
Q 2806 -91 2034 -91 
Q 1263 -91 848 271 
Q 434 634 434 1313 
Q 434 1759 690 2068 
Q 947 2378 1403 2484 
z
M 1172 3481 
Q 1172 3119 1398 2916 
Q 1625 2713 2034 2713 
Q 2441 2713 2670 2916 
Q 2900 3119 2900 3481 
Q 2900 3844 2670 4047 
Q 2441 4250 2034 4250 
Q 1625 4250 1398 4047 
Q 1172 3844 1172 3481 
z
" transform="scale(0.015625)"/>
       </defs>
       <use xlink:href="#DejaVuSans-38"/>
      </g>
     </g>
    </g>
    <g id="xtick_8">
     <g id="line2d_15">
      <path d="M 370.08 307.584 
L 370.08 41.472 
" clip-path="url(#pa663f3e938)" style="fill: none; stroke: #b0b0b0; stroke-width: 0.8; stroke-linecap: square"/>
     </g>
     <g id="line2d_16">
      <g>
       <use xlink:href="#m1ec2b44b7d" x="370.08" y="307.584" style="stroke: #000000; stroke-width: 0.8"/>
      </g>
     </g>
     <g id="text_8">
      <!-- 9 -->
      <g transform="translate(366.89875 322.182437) scale(0.1 -0.1)">
       <defs>
        <path id="DejaVuSans-39" d="M 703 97 
L 703 672 
Q 941 559 1184 500 
Q 1428 441 1663 441 
Q 2288 441 2617 861 
Q 2947 1281 2994 2138 
Q 2813 1869 2534 1725 
Q 2256 1581 1919 1581 
Q 1219 1581 811 2004 
Q 403 2428 403 3163 
Q 403 3881 828 4315 
Q 1253 4750 1959 4750 
Q 2769 4750 3195 4129 
Q 3622 3509 3622 2328 
Q 3622 1225 3098 567 
Q 2575 -91 1691 -91 
Q 1453 -91 1209 -44 
Q 966 3 703 97 
z
M 1959 2075 
Q 2384 2075 2632 2365 
Q 2881 2656 2881 3163 
Q 2881 3666 2632 3958 
Q 2384 4250 1959 4250 
Q 1534 4250 1286 3958 
Q 1038 3666 1038 3163 
Q 1038 2656 1286 2365 
Q 1534 2075 1959 2075 
z
" transform="scale(0.015625)"/>
       </defs>
       <use xlink:href="#DejaVuSans-39"/>
      </g>
     </g>
    </g>
    <g id="xtick_9">
     <g id="line2d_17">
      <path d="M 414.72 307.584 
L 414.72 41.472 
" clip-path="url(#pa663f3e938)" style="fill: none; stroke: #b0b0b0; stroke-width: 0.8; stroke-linecap: square"/>
     </g>
     <g id="line2d_18">
      <g>
       <use xlink:href="#m1ec2b44b7d" x="414.72" y="307.584" style="stroke: #000000; stroke-width: 0.8"/>
      </g>
     </g>
     <g id="text_9">
      <!-- 10 -->
      <g transform="translate(408.3575 322.182437) scale(0.1 -0.1)">
       <defs>
        <path id="DejaVuSans-31" d="M 794 531 
L 1825 531 
L 1825 4091 
L 703 3866 
L 703 4441 
L 1819 4666 
L 2450 4666 
L 2450 531 
L 3481 531 
L 3481 0 
L 794 0 
L 794 531 
z
" transform="scale(0.015625)"/>
        <path id="DejaVuSans-30" d="M 2034 4250 
Q 1547 4250 1301 3770 
Q 1056 3291 1056 2328 
Q 1056 1369 1301 889 
Q 1547 409 2034 409 
Q 2525 409 2770 889 
Q 3016 1369 3016 2328 
Q 3016 3291 2770 3770 
Q 2525 4250 2034 4250 
z
M 2034 4750 
Q 2819 4750 3233 4129 
Q 3647 3509 3647 2328 
Q 3647 1150 3233 529 
Q 2819 -91 2034 -91 
Q 1250 -91 836 529 
Q 422 1150 422 2328 
Q 422 3509 836 4129 
Q 1250 4750 2034 4750 
z
" transform="scale(0.015625)"/>
       </defs>
       <use xlink:href="#DejaVuSans-31"/>
       <use xlink:href="#DejaVuSans-30" transform="translate(63.623047 0)"/>
      </g>
     </g>
    </g>
    <g id="text_10">
     <!-- Frequency (GHz) -->
     <g transform="translate(194.581094 335.860562) scale(0.1 -0.1)">
      <defs>
       <path id="DejaVuSans-46" d="M 628 4666 
L 3309 4666 
L 3309 4134 
L 1259 4134 
L 1259 2759 
L 3109 2759 
L 3109 2228 
L 1259 2228 
L 1259 0 
L 628 0 
L 628 4666 
z
" transform="scale(0.015625)"/>
       <path id="DejaVuSans-72" d="M 2631 2963 
Q 2534 3019 2420 3045 
Q 2306 3072 2169 3072 
Q 1681 3072 1420 2755 
Q 1159 2438 1159 1844 
L 1159 0 
L 581 0 
L 581 3500 
L 1159 3500 
L 1159 2956 
Q 1341 3275 1631 3429 
Q 1922 3584 2338 3584 
Q 2397 3584 2469 3576 
Q 2541 3569 2628 3553 
L 2631 2963 
z
" transform="scale(0.015625)"/>
       <path id="DejaVuSans-65" d="M 3597 1894 
L 3597 1613 
L 953 1613 
Q 991 1019 1311 708 
Q 1631 397 2203 397 
Q 2534 397 2845 478 
Q 3156 559 3463 722 
L 3463 178 
Q 3153 47 2828 -22 
Q 2503 -91 2169 -91 
Q 1331 -91 842 396 
Q 353 884 353 1716 
Q 353 2575 817 3079 
Q 1281 3584 2069 3584 
Q 2775 3584 3186 3129 
Q 3597 2675 3597 1894 
z
M 3022 2063 
Q 3016 2534 2758 2815 
Q 2500 3097 2075 3097 
Q 1594 3097 1305 2825 
Q 1016 2553 972 2059 
L 3022 2063 
z
" transform="scale(0.015625)"/>
       <path id="DejaVuSans-71" d="M 947 1747 
Q 947 1113 1208 752 
Q 1469 391 1925 391 
Q 2381 391 2643 752 
Q 2906 1113 2906 1747 
Q 2906 2381 2643 2742 
Q 2381 3103 1925 3103 
Q 1469 3103 1208 2742 
Q 947 2381 947 1747 
z
M 2906 525 
Q 2725 213 2448 61 
Q 2172 -91 1784 -91 
Q 1150 -91 751 415 
Q 353 922 353 1747 
Q 353 2572 751 3078 
Q 1150 3584 1784 3584 
Q 2172 3584 2448 3432 
Q 2725 3281 2906 2969 
L 2906 3500 
L 3481 3500 
L 3481 -1331 
L 2906 -1331 
L 2906 525 
z
" transform="scale(0.015625)"/>
       <path id="DejaVuSans-75" d="M 544 1381 
L 544 3500 
L 1119 3500 
L 1119 1403 
Q 1119 906 1312 657 
Q 1506 409 1894 409 
Q 2359 409 2629 706 
Q 2900 1003 2900 1516 
L 2900 3500 
L 3475 3500 
L 3475 0 
L 2900 0 
L 2900 538 
Q 2691 219 2414 64 
Q 2138 -91 1772 -91 
Q 1169 -91 856 284 
Q 544 659 544 1381 
z
M 1991 3584 
L 1991 3584 
z
" transform="scale(0.015625)"/>
       <path id="DejaVuSans-6e" d="M 3513 2113 
L 3513 0 
L 2938 0 
L 2938 2094 
Q 2938 2591 2744 2837 
Q 2550 3084 2163 3084 
Q 1697 3084 1428 2787 
Q 1159 2491 1159 1978 
L 1159 0 
L 581 0 
L 581 3500 
L 1159 3500 
L 1159 2956 
Q 1366 3272 1645 3428 
Q 1925 3584 2291 3584 
Q 2894 3584 3203 3211 
Q 3513 2838 3513 2113 
z
" transform="scale(0.015625)"/>
       <path id="DejaVuSans-63" d="M 3122 3366 
L 3122 2828 
Q 2878 2963 2633 3030 
Q 2388 3097 2138 3097 
Q 1578 3097 1268 2742 
Q 959 2388 959 1747 
Q 959 1106 1268 751 
Q 1578 397 2138 397 
Q 2388 397 2633 464 
Q 2878 531 3122 666 
L 3122 134 
Q 2881 22 2623 -34 
Q 2366 -91 2075 -91 
Q 1284 -91 818 406 
Q 353 903 353 1747 
Q 353 2603 823 3093 
Q 1294 3584 2113 3584 
Q 2378 3584 2631 3529 
Q 2884 3475 3122 3366 
z
" transform="scale(0.015625)"/>
       <path id="DejaVuSans-79" d="M 2059 -325 
Q 1816 -950 1584 -1140 
Q 1353 -1331 966 -1331 
L 506 -1331 
L 506 -850 
L 844 -850 
Q 1081 -850 1212 -737 
Q 1344 -625 1503 -206 
L 1606 56 
L 191 3500 
L 800 3500 
L 1894 763 
L 2988 3500 
L 3597 3500 
L 2059 -325 
z
" transform="scale(0.015625)"/>
       <path id="DejaVuSans-20" transform="scale(0.015625)"/>
       <path id="DejaVuSans-28" d="M 1984 4856 
Q 1566 4138 1362 3434 
Q 1159 2731 1159 2009 
Q 1159 1288 1364 580 
Q 1569 -128 1984 -844 
L 1484 -844 
Q 1016 -109 783 600 
Q 550 1309 550 2009 
Q 550 2706 781 3412 
Q 1013 4119 1484 4856 
L 1984 4856 
z
" transform="scale(0.015625)"/>
       <path id="DejaVuSans-47" d="M 3809 666 
L 3809 1919 
L 2778 1919 
L 2778 2438 
L 4434 2438 
L 4434 434 
Q 4069 175 3628 42 
Q 3188 -91 2688 -91 
Q 1594 -91 976 548 
Q 359 1188 359 2328 
Q 359 3472 976 4111 
Q 1594 4750 2688 4750 
Q 3144 4750 3555 4637 
Q 3966 4525 4313 4306 
L 4313 3634 
Q 3963 3931 3569 4081 
Q 3175 4231 2741 4231 
Q 1884 4231 1454 3753 
Q 1025 3275 1025 2328 
Q 1025 1384 1454 906 
Q 1884 428 2741 428 
Q 3075 428 3337 486 
Q 3600 544 3809 666 
z
" transform="scale(0.015625)"/>
       <path id="DejaVuSans-48" d="M 628 4666 
L 1259 4666 
L 1259 2753 
L 3553 2753 
L 3553 4666 
L 4184 4666 
L 4184 0 
L 3553 0 
L 3553 2222 
L 1259 2222 
L 1259 0 
L 628 0 
L 628 4666 
z
" transform="scale(0.015625)"/>
       <path id="DejaVuSans-7a" d="M 353 3500 
L 3084 3500 
L 3084 2975 
L 922 459 
L 3084 459 
L 3084 0 
L 275 0 
L 275 525 
L 2438 3041 
L 353 3041 
L 353 3500 
z
" transform="scale(0.015625)"/>
       <path id="DejaVuSans-29" d="M 513 4856 
L 1013 4856 
Q 1481 4119 1714 3412 
Q 1947 2706 1947 2009 
Q 1947 1309 1714 600 
Q 1481 -109 1013 -844 
L 513 -844 
Q 928 -128 1133 580 
Q 1338 1288 1338 2009 
Q 1338 2731 1133 3434 
Q 928 4138 513 4856 
z
" transform="scale(0.015625)"/>
      </defs>
      <use xlink:href="#DejaVuSans-46"/>
      <use xlink:href="#DejaVuSans-72" transform="translate(50.269531 0)"/>
      <use xlink:href="#DejaVuSans-65" transform="translate(89.132812 0)"/>
      <use xlink:href="#DejaVuSans-71" transform="translate(150.65625 0)"/>
      <use xlink:href="#DejaVuSans-75" transform="translate(214.132812 0)"/>
      <use xlink:href="#DejaVuSans-65" transform="translate(277.511719 0)"/>
      <use xlink:href="#DejaVuSans-6e" transform="translate(339.035156 0)"/>
      <use xlink:href="#DejaVuSans-63" transform="translate(402.414062 0)"/>
      <use xlink:href="#DejaVuSans-79" transform="translate(457.394531 0)"/>
      <use xlink:href="#DejaVuSans-20" transform="translate(516.574219 0)"/>
      <use xlink:href="#DejaVuSans-28" transform="translate(548.361328 0)"/>
      <use xlink:href="#DejaVuSans-47" transform="translate(587.375 0)"/>
      <use xlink:href="#DejaVuSans-48" transform="translate(664.865234 0)"/>
      <use xlink:href="#DejaVuSans-7a" transform="translate(740.060547 0)"/>
      <use xlink:href="#DejaVuSans-29" transform="translate(792.550781 0)"/>
     </g>
    </g>
   </g>
   <g id="matplotlib.axis_2">
    <g id="ytick_1">
     <g id="line2d_19">
      <path d="M 57.6 265.091687 
L 414.72 265.091687 
" clip-path="url(#pa663f3e938)" style="fill: none; stroke: #b0b0b0; stroke-width: 0.8; stroke-linecap: square"/>
     </g>
     <g id="line2d_20">
      <defs>
       <path id="m615e65cfd8" d="M 0 0 
L -3.5 0 
" style="stroke: #000000; stroke-width: 0.8"/>
      </defs>
      <g>
       <use xlink:href="#m615e65cfd8" x="57.6" y="265.091687" style="stroke: #000000; stroke-width: 0.8"/>
      </g>
     </g>
     <g id="text_11">
      <!-- −40 -->
      <g transform="translate(29.495313 268.890906) scale(0.1 -0.1)">
       <defs>
        <path id="DejaVuSans-2212" d="M 678 2272 
L 4684 2272 
L 4684 1741 
L 678 1741 
L 678 2272 
z
" transform="scale(0.015625)"/>
       </defs>
       <use xlink:href="#DejaVuSans-2212"/>
       <use xlink:href="#DejaVuSans-34" transform="translate(83.789062 0)"/>
       <use xlink:href="#DejaVuSans-30" transform="translate(147.412109 0)"/>
      </g>
     </g>
    </g>
    <g id="ytick_2">
     <g id="line2d_21">
      <path d="M 57.6 212.156697 
L 414.72 212.156697 
" clip-path="url(#pa663f3e938)" style="fill: none; stroke: #b0b0b0; stroke-width: 0.8; stroke-linecap: square"/>
     </g>
     <g id="line2d_22">
      <g>
       <use xlink:href="#m615e65cfd8" x="57.6" y="212.156697" style="stroke: #000000; stroke-width: 0.8"/>
      </g>
     </g>
     <g id="text_12">
      <!-- −30 -->
      <g transform="translate(29.495313 215.955916) scale(0.1 -0.1)">
       <use xlink:href="#DejaVuSans-2212"/>
       <use xlink:href="#DejaVuSans-33" transform="translate(83.789062 0)"/>
       <use xlink:href="#DejaVuSans-30" transform="translate(147.412109 0)"/>
      </g>
     </g>
    </g>
    <g id="ytick_3">
     <g id="line2d_23">
      <path d="M 57.6 159.221707 
L 414.72 159.221707 
" clip-path="url(#pa663f3e938)" style="fill: none; stroke: #b0b0b0; stroke-width: 0.8; stroke-linecap: square"/>
     </g>
     <g id="line2d_24">
      <g>
       <use xlink:href="#m615e65cfd8" x="57.6" y="159.221707" style="stroke: #000000; stroke-width: 0.8"/>
      </g>
     </g>
     <g id="text_13">
      <!-- −20 -->
      <g transform="translate(29.495313 163.020926) scale(0.1 -0.1)">
       <use xlink:href="#DejaVuSans-2212"/>
       <use xlink:href="#DejaVuSans-32" transform="translate(83.789062 0)"/>
       <use xlink:href="#DejaVuSans-30" transform="translate(147.412109 0)"/>
      </g>
     </g>
    </g>
    <g id="ytick_4">
     <g id="line2d_25">
      <path d="M 57.6 106.286717 
L 414.72 106.286717 
" clip-path="url(#pa663f3e938)" style="fill: none; stroke: #b0b0b0; stroke-width: 0.8; stroke-linecap: square"/>
     </g>
     <g id="line2d_26">
      <g>
       <use xlink:href="#m615e65cfd8" x="57.6" y="106.286717" style="stroke: #000000; stroke-width: 0.8"/>
      </g>
     </g>
     <g id="text_14">
      <!-- −10 -->
      <g transform="translate(29.495313 110.085935) scale(0.1 -0.1)">
       <use xlink:href="#DejaVuSans-2212"/>
       <use xlink:href="#DejaVuSans-31" transform="translate(83.789062 0)"/>
       <use xlink:href="#DejaVuSans-30" transform="translate(147.412109 0)"/>
      </g>
     </g>
    </g>
    <g id="ytick_5">
     <g id="line2d_27">
      <path d="M 57.6 53.351727 
L 414.72 53.351727 
" clip-path="url(#pa663f3e938)" style="fill: none; stroke: #b0b0b0; stroke-width: 0.8; stroke-linecap: square"/>
     </g>
     <g id="line2d_28">
      <g>
       <use xlink:href="#m615e65cfd8" x="57.6" y="53.351727" style="stroke: #000000; stroke-width: 0.8"/>
      </g>
     </g>
     <g id="text_15">
      <!-- 0 -->
      <g transform="translate(44.2375 57.150945) scale(0.1 -0.1)">
       <use xlink:href="#DejaVuSans-30"/>
      </g>
     </g>
    </g>
    <g id="text_16">
     <!-- Magnitude (dB) -->
     <g transform="translate(23.415625 213.113156) rotate(-90) scale(0.1 -0.1)">
      <defs>
       <path id="DejaVuSans-4d" d="M 628 4666 
L 1569 4666 
L 2759 1491 
L 3956 4666 
L 4897 4666 
L 4897 0 
L 4281 0 
L 4281 4097 
L 3078 897 
L 2444 897 
L 1241 4097 
L 1241 0 
L 628 0 
L 628 4666 
z
" transform="scale(0.015625)"/>
       <path id="DejaVuSans-61" d="M 2194 1759 
Q 1497 1759 1228 1600 
Q 959 1441 959 1056 
Q 959 750 1161 570 
Q 1363 391 1709 391 
Q 2188 391 2477 730 
Q 2766 1069 2766 1631 
L 2766 1759 
L 2194 1759 
z
M 3341 1997 
L 3341 0 
L 2766 0 
L 2766 531 
Q 2569 213 2275 61 
Q 1981 -91 1556 -91 
Q 1019 -91 701 211 
Q 384 513 384 1019 
Q 384 1609 779 1909 
Q 1175 2209 1959 2209 
L 2766 2209 
L 2766 2266 
Q 2766 2663 2505 2880 
Q 2244 3097 1772 3097 
Q 1472 3097 1187 3025 
Q 903 2953 641 2809 
L 641 3341 
Q 956 3463 1253 3523 
Q 1550 3584 1831 3584 
Q 2591 3584 2966 3190 
Q 3341 2797 3341 1997 
z
" transform="scale(0.015625)"/>
       <path id="DejaVuSans-67" d="M 2906 1791 
Q 2906 2416 2648 2759 
Q 2391 3103 1925 3103 
Q 1463 3103 1205 2759 
Q 947 2416 947 1791 
Q 947 1169 1205 825 
Q 1463 481 1925 481 
Q 2391 481 2648 825 
Q 2906 1169 2906 1791 
z
M 3481 434 
Q 3481 -459 3084 -895 
Q 2688 -1331 1869 -1331 
Q 1566 -1331 1297 -1286 
Q 1028 -1241 775 -1147 
L 775 -588 
Q 1028 -725 1275 -790 
Q 1522 -856 1778 -856 
Q 2344 -856 2625 -561 
Q 2906 -266 2906 331 
L 2906 616 
Q 2728 306 2450 153 
Q 2172 0 1784 0 
Q 1141 0 747 490 
Q 353 981 353 1791 
Q 353 2603 747 3093 
Q 1141 3584 1784 3584 
Q 2172 3584 2450 3431 
Q 2728 3278 2906 2969 
L 2906 3500 
L 3481 3500 
L 3481 434 
z
" transform="scale(0.015625)"/>
       <path id="DejaVuSans-69" d="M 603 3500 
L 1178 3500 
L 1178 0 
L 603 0 
L 603 3500 
z
M 603 4863 
L 1178 4863 
L 1178 4134 
L 603 4134 
L 603 4863 
z
" transform="scale(0.015625)"/>
       <path id="DejaVuSans-74" d="M 1172 4494 
L 1172 3500 
L 2356 3500 
L 2356 3053 
L 1172 3053 
L 1172 1153 
Q 1172 725 1289 603 
Q 1406 481 1766 481 
L 2356 481 
L 2356 0 
L 1766 0 
Q 1100 0 847 248 
Q 594 497 594 1153 
L 594 3053 
L 172 3053 
L 172 3500 
L 594 3500 
L 594 4494 
L 1172 4494 
z
" transform="scale(0.015625)"/>
       <path id="DejaVuSans-64" d="M 2906 2969 
L 2906 4863 
L 3481 4863 
L 3481 0 
L 2906 0 
L 2906 525 
Q 2725 213 2448 61 
Q 2172 -91 1784 -91 
Q 1150 -91 751 415 
Q 353 922 353 1747 
Q 353 2572 751 3078 
Q 1150 3584 1784 3584 
Q 2172 3584 2448 3432 
Q 2725 3281 2906 2969 
z
M 947 1747 
Q 947 1113 1208 752 
Q 1469 391 1925 391 
Q 2381 391 2643 752 
Q 2906 1113 2906 1747 
Q 2906 2381 2643 2742 
Q 2381 3103 1925 3103 
Q 1469 3103 1208 2742 
Q 947 2381 947 1747 
z
" transform="scale(0.015625)"/>
       <path id="DejaVuSans-42" d="M 1259 2228 
L 1259 519 
L 2272 519 
Q 2781 519 3026 730 
Q 3272 941 3272 1375 
Q 3272 1813 3026 2020 
Q 2781 2228 2272 2228 
L 1259 2228 
z
M 1259 4147 
L 1259 2741 
L 2194 2741 
Q 2656 2741 2882 2914 
Q 3109 3088 3109 3444 
Q 3109 3797 2882 3972 
Q 2656 4147 2194 4147 
L 1259 4147 
z
M 628 4666 
L 2241 4666 
Q 2963 4666 3353 4366 
Q 3744 4066 3744 3513 
Q 3744 3084 3544 2831 
Q 3344 2578 2956 2516 
Q 3422 2416 3680 2098 
Q 3938 1781 3938 1306 
Q 3938 681 3513 340 
Q 3088 0 2303 0 
L 628 0 
L 628 4666 
z
" transform="scale(0.015625)"/>
      </defs>
      <use xlink:href="#DejaVuSans-4d"/>
      <use xlink:href="#DejaVuSans-61" transform="translate(86.279297 0)"/>
      <use xlink:href="#DejaVuSans-67" transform="translate(147.558594 0)"/>
      <use xlink:href="#DejaVuSans-6e" transform="translate(211.035156 0)"/>
      <use xlink:href="#DejaVuSans-69" transform="translate(274.414062 0)"/>
      <use xlink:href="#DejaVuSans-74" transform="translate(302.197266 0)"/>
      <use xlink:href="#DejaVuSans-75" transform="translate(341.40625 0)"/>
      <use xlink:href="#DejaVuSans-64" transform="translate(404.785156 0)"/>
      <use xlink:href="#DejaVuSans-65" transform="translate(468.261719 0)"/>
      <use xlink:href="#DejaVuSans-20" transform="translate(529.785156 0)"/>
      <use xlink:href="#DejaVuSans-28" transform="translate(561.572266 0)"/>
      <use xlink:href="#DejaVuSans-64" transform="translate(600.585938 0)"/>
      <use xlink:href="#DejaVuSans-42" transform="translate(664.0625 0)"/>
      <use xlink:href="#DejaVuSans-29" transform="translate(732.666016 0)"/>
     </g>
    </g>
   </g>
   <g id="line2d_29">
    <path d="M 57.6 264.206563 
L 62.9568 258.248869 
L 67.4208 253.548788 
L 71.8848 249.15391 
L 76.3488 245.114138 
L 79.92 242.157616 
L 83.4912 239.446767 
L 87.0624 236.967495 
L 91.5264 234.150934 
L 96.8832 231.080322 
L 114.7392 221.178754 
L 119.2032 218.278707 
L 122.7744 215.707561 
L 126.3456 212.862542 
L 129.9168 209.696015 
L 133.488 206.159765 
L 136.1664 203.236242 
L 138.8448 200.058794 
L 141.5232 196.609938 
L 144.2016 192.874704 
L 146.88 188.841513 
L 150.4512 182.988315 
L 154.0224 176.588517 
L 157.5936 169.653639 
L 161.1648 162.210197 
L 164.736 154.297649 
L 169.2 143.824632 
L 174.5568 130.563925 
L 181.6992 112.166135 
L 188.8416 93.925577 
L 192.4128 85.41845 
L 195.0912 79.569005 
L 197.7696 74.342789 
L 199.5552 71.271196 
L 201.3408 68.562898 
L 203.1264 66.23133 
L 204.912 64.274362 
L 206.6976 62.674624 
L 208.4832 61.40189 
L 210.2688 60.416871 
L 212.0544 59.675506 
L 213.84 59.13288 
L 216.5184 58.599201 
L 220.0896 58.221793 
L 226.3392 57.906074 
L 232.5888 57.514641 
L 237.9456 56.959402 
L 245.088 55.970935 
L 254.016 54.75212 
L 259.3728 54.263554 
L 263.8368 54.059292 
L 269.1936 54.034143 
L 285.264 54.187244 
L 294.192 54.022612 
L 296.8704 54.221289 
L 298.656 54.526192 
L 300.4416 55.026027 
L 302.2272 55.77261 
L 304.0128 56.815169 
L 305.7984 58.19429 
L 307.584 59.935873 
L 309.3696 62.04667 
L 311.1552 64.512773 
L 312.9408 67.301525 
L 315.6192 71.985172 
L 319.1904 78.873131 
L 332.5824 105.506588 
L 336.1536 111.950909 
L 339.7248 117.9916 
L 343.296 123.632375 
L 346.8672 128.894943 
L 350.4384 133.809234 
L 354.0096 138.406345 
L 358.4736 143.748657 
L 362.9376 148.681292 
L 367.4016 153.233986 
L 371.8656 157.426111 
L 376.3296 161.270083 
L 380.7936 164.774286 
L 385.2576 167.9452 
L 389.7216 170.78891 
L 394.1856 173.312271 
L 398.6496 175.523982 
L 403.1136 177.43581 
L 407.5776 179.064109 
L 412.0416 180.431799 
L 414.72 181.140167 
L 414.72 181.140167 
" clip-path="url(#pa663f3e938)" style="fill: none; stroke-dasharray: 5.55,2.4; stroke-dashoffset: 0; stroke: #0000ff; stroke-width: 1.5"/>
   </g>
   <g id="line2d_30">
    <path d="M 57.6 53.568 
L 79.92 53.920307 
L 126.3456 54.954457 
L 138.8448 55.466975 
L 148.6656 56.084643 
L 155.808 56.730856 
L 162.0576 57.511458 
L 167.4144 58.427045 
L 170.9856 59.225369 
L 174.5568 60.240455 
L 177.2352 61.196374 
L 179.9136 62.37787 
L 182.592 63.859567 
L 184.3776 65.063383 
L 186.1632 66.484638 
L 187.9488 68.171279 
L 189.7344 70.181512 
L 191.52 72.585306 
L 193.3056 75.465878 
L 195.0912 78.921269 
L 196.8768 83.066478 
L 198.6624 88.037338 
L 200.448 93.998661 
L 202.2336 101.161602 
L 204.0192 109.82037 
L 205.8048 120.431475 
L 206.6976 126.697247 
L 207.5904 133.799175 
L 208.4832 141.972536 
L 209.376 151.587374 
L 210.2688 163.273712 
L 211.1616 178.234496 
L 212.0544 199.225109 
L 212.9472 234.994102 
L 213.84 276.950025 
L 214.7328 221.468134 
L 215.6256 195.737335 
L 216.5184 180.021926 
L 217.4112 168.953146 
L 218.304 160.564973 
L 219.1968 153.92365 
L 220.0896 148.512756 
L 220.9824 144.016692 
L 221.8752 140.228505 
L 222.768 137.005217 
L 223.6608 134.244007 
L 224.5536 131.868585 
L 225.4464 129.82091 
L 226.3392 128.055939 
L 228.1248 125.239185 
L 229.0176 124.136168 
L 229.9104 123.210532 
L 230.8032 122.447139 
L 231.696 121.833626 
L 232.5888 121.359918 
L 233.4816 121.017849 
L 234.3744 120.800874 
L 235.2672 120.703841 
L 236.16 120.722816 
L 237.9456 121.098381 
L 239.7312 121.916099 
L 241.5168 123.178235 
L 243.3024 124.899944 
L 245.088 127.109605 
L 246.8736 129.850422 
L 248.6592 133.183656 
L 250.4448 137.194284 
L 252.2304 142.000637 
L 254.016 147.771134 
L 255.8016 154.754731 
L 257.5872 163.340455 
L 258.48 168.422848 
L 259.3728 174.186282 
L 260.2656 180.806216 
L 261.1584 188.541531 
L 262.0512 197.796191 
L 262.944 209.247683 
L 263.8368 224.140294 
L 264.7296 244.951218 
L 265.6224 274.211031 
L 266.5152 274.743456 
L 267.408 246.587212 
L 268.3008 226.889832 
L 269.1936 213.121994 
L 270.0864 202.813141 
L 270.9792 194.725484 
L 271.872 188.188272 
L 272.7648 182.804809 
L 273.6576 178.324238 
L 274.5504 174.580103 
L 275.4432 171.458354 
L 276.336 168.879544 
L 277.2288 166.788437 
L 278.1216 165.147763 
L 279.0144 163.934474 
L 279.9072 163.137641 
L 280.8 162.757537 
L 281.6928 162.805748 
L 282.5856 163.306313 
L 283.4784 164.298141 
L 284.3712 165.839218 
L 285.264 168.013632 
L 286.1568 170.943427 
L 287.0496 174.809365 
L 287.9424 179.889647 
L 288.8352 186.638655 
L 289.728 195.868152 
L 290.6208 209.248522 
L 291.5136 231.201441 
L 292.4064 283.825804 
L 293.2992 269.474237 
L 294.192 220.519625 
L 295.0848 195.740283 
L 295.9776 178.61477 
L 296.8704 165.336153 
L 297.7632 154.401604 
L 298.656 145.063464 
L 300.4416 129.636612 
L 302.2272 117.193712 
L 304.0128 106.872495 
L 305.7984 98.205682 
L 307.584 90.906004 
L 309.3696 84.772798 
L 311.1552 79.647279 
L 312.9408 75.391385 
L 314.7264 71.879245 
L 316.512 68.995205 
L 318.2976 66.634602 
L 320.0832 64.704988 
L 321.8688 63.126757 
L 323.6544 61.832892 
L 325.44 60.768012 
L 328.1184 59.503741 
L 330.7968 58.538112 
L 333.4752 57.787365 
L 337.0464 57.020313 
L 341.5104 56.310393 
L 346.8672 55.682229 
L 354.0096 55.065197 
L 362.9376 54.513345 
L 372.7584 54.125982 
L 383.472 53.939982 
L 394.1856 53.974977 
L 404.8992 54.219633 
L 414.72 54.64476 
L 414.72 54.64476 
" clip-path="url(#pa663f3e938)" style="fill: none; stroke-dasharray: 5.55,2.4; stroke-dashoffset: 0; stroke: #ff0000; stroke-width: 1.5"/>
   </g>
   <g id="line2d_31">
    <path d="M 57.6 267.987599 
L 60.462685 264.467314 
L 63.325371 261.255245 
L 66.903727 257.601265 
L 70.482084 254.28089 
L 74.060441 251.237339 
L 78.354469 247.888259 
L 82.648497 244.813323 
L 87.658196 241.509524 
L 93.383567 238.035379 
L 99.824609 234.424863 
L 107.696994 230.306333 
L 122.010421 222.922597 
L 126.304449 220.43903 
L 129.882806 218.123249 
L 132.745491 216.037494 
L 135.608176 213.679005 
L 138.470862 210.981958 
L 140.617876 208.697181 
L 142.76489 206.159091 
L 144.911904 203.345929 
L 147.058918 200.241596 
L 149.921603 195.634935 
L 152.784289 190.495045 
L 155.646974 184.844625 
L 158.509659 178.724498 
L 162.088016 170.493249 
L 165.666373 161.717475 
L 169.960401 150.61045 
L 174.9701 137.047565 
L 182.126814 116.95715 
L 189.999198 94.899541 
L 193.577555 85.528049 
L 196.44024 78.710689 
L 198.587255 74.163579 
L 200.734269 70.210852 
L 202.165611 67.939251 
L 203.596954 65.968369 
L 205.028297 64.29507 
L 206.459639 62.906471 
L 207.890982 61.781503 
L 209.322325 60.89302 
L 210.753667 60.210099 
L 212.900681 59.50017 
L 215.047695 59.073491 
L 217.910381 58.785139 
L 222.92008 58.603753 
L 229.361122 58.317682 
L 234.370822 57.842897 
L 240.096192 57.05272 
L 252.978277 55.155089 
L 257.987976 54.709722 
L 262.997675 54.519561 
L 268.723046 54.557029 
L 280.889459 54.753431 
L 287.330501 54.558062 
L 292.3402 54.438816 
L 295.202886 54.588553 
L 297.3499 54.923317 
L 299.496914 55.541206 
L 300.928257 56.153853 
L 302.359599 56.955724 
L 303.790942 57.967418 
L 305.222285 59.203873 
L 306.653627 60.672782 
L 308.08497 62.373689 
L 310.231984 65.33908 
L 312.378998 68.746666 
L 315.241683 73.832507 
L 318.82004 80.753295 
L 330.986453 104.826444 
L 335.280481 112.658907 
L 339.574509 119.979266 
L 343.152866 125.680158 
L 346.731222 131.025194 
L 350.309579 136.027632 
L 353.887936 140.703675 
L 357.466293 145.070782 
L 361.760321 149.928529 
L 366.054349 154.397325 
L 370.348377 158.506628 
L 374.642405 162.284868 
L 378.936433 165.759511 
L 383.230461 168.95721 
L 387.524489 171.904006 
L 392.534188 175.058984 
L 397.543888 177.947588 
L 403.269259 180.974047 
L 409.710301 184.099573 
L 414.72 186.377659 
L 414.72 186.377659 
" clip-path="url(#pa663f3e938)" style="fill: none; stroke: #0000ff; stroke-width: 1.5; stroke-linecap: square"/>
   </g>
   <g id="line2d_32">
    <path d="M 57.6 53.593154 
L 84.795511 53.983894 
L 120.579078 54.718048 
L 136.323848 55.227947 
L 147.058918 55.780527 
L 155.646974 56.444322 
L 162.088016 57.150071 
L 167.097715 57.888381 
L 171.391743 58.719352 
L 174.9701 59.617938 
L 177.832786 60.530566 
L 180.695471 61.68569 
L 182.842485 62.768009 
L 184.989499 64.097179 
L 187.136513 65.748732 
L 188.567856 67.077052 
L 189.999198 68.629546 
L 191.430541 70.450527 
L 192.861884 72.59267 
L 194.293226 75.118195 
L 195.724569 78.100173 
L 197.155912 81.624094 
L 198.587255 85.790229 
L 200.018597 90.717884 
L 201.44994 96.553788 
L 202.881283 103.488802 
L 204.312625 111.791362 
L 205.743968 121.876701 
L 207.175311 134.463356 
L 207.890982 142.091614 
L 208.606653 150.988658 
L 209.322325 161.667803 
L 210.037996 175.066287 
L 210.753667 193.189207 
L 211.469339 221.76095 
L 212.18501 295.488 
L 212.900681 242.806941 
L 213.616353 207.041872 
L 214.332024 187.935766 
L 215.047695 175.107513 
L 215.763367 165.602543 
L 216.479038 158.16213 
L 217.194709 152.131874 
L 218.626052 142.903986 
L 220.057395 136.183575 
L 221.488737 131.126705 
L 222.92008 127.25913 
L 224.351423 124.28872 
L 225.782766 122.024052 
L 227.214108 120.334269 
L 228.645451 119.127385 
L 230.076794 118.337713 
L 231.508136 117.918196 
L 232.939479 117.835542 
L 234.370822 118.067057 
L 235.802164 118.598575 
L 237.233507 119.423115 
L 238.66485 120.540073 
L 240.096192 121.954835 
L 241.527535 123.678752 
L 242.958878 125.729487 
L 244.39022 128.131781 
L 245.821563 130.918748 
L 247.252906 134.133922 
L 248.684248 137.83441 
L 250.115591 142.095778 
L 251.546934 147.019832 
L 252.978277 152.747405 
L 254.409619 159.480437 
L 255.840962 167.52246 
L 257.272305 177.358769 
L 258.703647 189.830856 
L 259.419319 197.508662 
L 260.13499 206.554767 
L 260.850661 217.45098 
L 261.566333 230.822095 
L 262.997675 260.331944 
L 263.713347 256.965594 
L 265.144689 227.697607 
L 265.860361 216.172253 
L 266.576032 206.888441 
L 267.291703 199.262825 
L 268.723046 187.449671 
L 270.154389 178.731672 
L 271.585731 172.113681 
L 273.017074 167.054188 
L 274.448417 163.240086 
L 275.87976 160.488087 
L 276.595431 159.47668 
L 277.311102 158.698616 
L 278.026774 158.151072 
L 278.742445 157.834621 
L 279.458116 157.753279 
L 280.173788 157.914723 
L 280.889459 158.330694 
L 281.60513 159.01763 
L 282.320802 159.997601 
L 283.036473 161.299669 
L 283.752144 162.961834 
L 284.467816 165.033876 
L 285.183487 167.581556 
L 285.899158 170.692992 
L 286.61483 174.488563 
L 287.330501 179.136771 
L 288.046172 184.880208 
L 288.761844 192.077845 
L 289.477515 201.265428 
L 290.193186 213.164152 
L 290.908858 227.925251 
L 291.624529 239.258904 
L 292.3402 231.131746 
L 293.771543 196.356336 
L 294.487214 182.843361 
L 295.918557 162.008014 
L 297.3499 146.228978 
L 298.781242 133.519252 
L 300.212585 122.900257 
L 301.643928 113.835107 
L 303.075271 106.002018 
L 304.506613 99.192985 
L 305.937956 93.263199 
L 307.369299 88.103687 
L 308.800641 83.625878 
L 310.231984 79.752966 
L 311.663327 76.415383 
L 313.094669 73.548781 
L 314.526012 71.093452 
L 315.957355 68.994424 
L 317.388697 67.201762 
L 318.82004 65.670798 
L 320.967054 63.780333 
L 323.114068 62.279778 
L 325.44 60.992181 
L 327.408096 60.114531 
L 330.270782 59.098741 
L 333.133467 58.311969 
L 336.711824 57.554772 
L 341.005852 56.871616 
L 346.731222 56.203588 
L 353.887936 55.602128 
L 363.191663 55.044472 
L 374.642405 54.578602 
L 386.093146 54.322916 
L 396.112545 54.308088 
L 404.700601 54.506498 
L 412.572986 54.91553 
L 414.72 55.072258 
L 414.72 55.072258 
" clip-path="url(#pa663f3e938)" style="fill: none; stroke: #ff0000; stroke-width: 1.5; stroke-linecap: square"/>
   </g>
   <g id="patch_3">
    <path d="M 57.6 307.584 
L 57.6 41.472 
" style="fill: none; stroke: #000000; stroke-width: 0.8; stroke-linejoin: miter; stroke-linecap: square"/>
   </g>
   <g id="patch_4">
    <path d="M 414.72 307.584 
L 414.72 41.472 
" style="fill: none; stroke: #000000; stroke-width: 0.8; stroke-linejoin: miter; stroke-linecap: square"/>
   </g>
   <g id="patch_5">
    <path d="M 57.6 307.584 
L 414.72 307.584 
" style="fill: none; stroke: #000000; stroke-width: 0.8; stroke-linejoin: miter; stroke-linecap: square"/>
   </g>
   <g id="patch_6">
    <path d="M 57.6 41.472 
L 414.72 41.472 
" style="fill: none; stroke: #000000; stroke-width: 0.8; stroke-linejoin: miter; stroke-linecap: square"/>
   </g>
   <g id="text_17">
    <!-- S-Parameters Magnitude (2.0-10.0 GHz) - Coupled Line Filter -->
    <g transform="translate(54.481875 35.472) scale(0.12 -0.12)">
     <defs>
      <path id="DejaVuSans-53" d="M 3425 4513 
L 3425 3897 
Q 3066 4069 2747 4153 
Q 2428 4238 2131 4238 
Q 1616 4238 1336 4038 
Q 1056 3838 1056 3469 
Q 1056 3159 1242 3001 
Q 1428 2844 1947 2747 
L 2328 2669 
Q 3034 2534 3370 2195 
Q 3706 1856 3706 1288 
Q 3706 609 3251 259 
Q 2797 -91 1919 -91 
Q 1588 -91 1214 -16 
Q 841 59 441 206 
L 441 856 
Q 825 641 1194 531 
Q 1563 422 1919 422 
Q 2459 422 2753 634 
Q 3047 847 3047 1241 
Q 3047 1584 2836 1778 
Q 2625 1972 2144 2069 
L 1759 2144 
Q 1053 2284 737 2584 
Q 422 2884 422 3419 
Q 422 4038 858 4394 
Q 1294 4750 2059 4750 
Q 2388 4750 2728 4690 
Q 3069 4631 3425 4513 
z
" transform="scale(0.015625)"/>
      <path id="DejaVuSans-2d" d="M 313 2009 
L 1997 2009 
L 1997 1497 
L 313 1497 
L 313 2009 
z
" transform="scale(0.015625)"/>
      <path id="DejaVuSans-50" d="M 1259 4147 
L 1259 2394 
L 2053 2394 
Q 2494 2394 2734 2622 
Q 2975 2850 2975 3272 
Q 2975 3691 2734 3919 
Q 2494 4147 2053 4147 
L 1259 4147 
z
M 628 4666 
L 2053 4666 
Q 2838 4666 3239 4311 
Q 3641 3956 3641 3272 
Q 3641 2581 3239 2228 
Q 2838 1875 2053 1875 
L 1259 1875 
L 1259 0 
L 628 0 
L 628 4666 
z
" transform="scale(0.015625)"/>
      <path id="DejaVuSans-6d" d="M 3328 2828 
Q 3544 3216 3844 3400 
Q 4144 3584 4550 3584 
Q 5097 3584 5394 3201 
Q 5691 2819 5691 2113 
L 5691 0 
L 5113 0 
L 5113 2094 
Q 5113 2597 4934 2840 
Q 4756 3084 4391 3084 
Q 3944 3084 3684 2787 
Q 3425 2491 3425 1978 
L 3425 0 
L 2847 0 
L 2847 2094 
Q 2847 2600 2669 2842 
Q 2491 3084 2119 3084 
Q 1678 3084 1418 2786 
Q 1159 2488 1159 1978 
L 1159 0 
L 581 0 
L 581 3500 
L 1159 3500 
L 1159 2956 
Q 1356 3278 1631 3431 
Q 1906 3584 2284 3584 
Q 2666 3584 2933 3390 
Q 3200 3197 3328 2828 
z
" transform="scale(0.015625)"/>
      <path id="DejaVuSans-73" d="M 2834 3397 
L 2834 2853 
Q 2591 2978 2328 3040 
Q 2066 3103 1784 3103 
Q 1356 3103 1142 2972 
Q 928 2841 928 2578 
Q 928 2378 1081 2264 
Q 1234 2150 1697 2047 
L 1894 2003 
Q 2506 1872 2764 1633 
Q 3022 1394 3022 966 
Q 3022 478 2636 193 
Q 2250 -91 1575 -91 
Q 1294 -91 989 -36 
Q 684 19 347 128 
L 347 722 
Q 666 556 975 473 
Q 1284 391 1588 391 
Q 1994 391 2212 530 
Q 2431 669 2431 922 
Q 2431 1156 2273 1281 
Q 2116 1406 1581 1522 
L 1381 1569 
Q 847 1681 609 1914 
Q 372 2147 372 2553 
Q 372 3047 722 3315 
Q 1072 3584 1716 3584 
Q 2034 3584 2315 3537 
Q 2597 3491 2834 3397 
z
" transform="scale(0.015625)"/>
      <path id="DejaVuSans-2e" d="M 684 794 
L 1344 794 
L 1344 0 
L 684 0 
L 684 794 
z
" transform="scale(0.015625)"/>
      <path id="DejaVuSans-43" d="M 4122 4306 
L 4122 3641 
Q 3803 3938 3442 4084 
Q 3081 4231 2675 4231 
Q 1875 4231 1450 3742 
Q 1025 3253 1025 2328 
Q 1025 1406 1450 917 
Q 1875 428 2675 428 
Q 3081 428 3442 575 
Q 3803 722 4122 1019 
L 4122 359 
Q 3791 134 3420 21 
Q 3050 -91 2638 -91 
Q 1578 -91 968 557 
Q 359 1206 359 2328 
Q 359 3453 968 4101 
Q 1578 4750 2638 4750 
Q 3056 4750 3426 4639 
Q 3797 4528 4122 4306 
z
" transform="scale(0.015625)"/>
      <path id="DejaVuSans-6f" d="M 1959 3097 
Q 1497 3097 1228 2736 
Q 959 2375 959 1747 
Q 959 1119 1226 758 
Q 1494 397 1959 397 
Q 2419 397 2687 759 
Q 2956 1122 2956 1747 
Q 2956 2369 2687 2733 
Q 2419 3097 1959 3097 
z
M 1959 3584 
Q 2709 3584 3137 3096 
Q 3566 2609 3566 1747 
Q 3566 888 3137 398 
Q 2709 -91 1959 -91 
Q 1206 -91 779 398 
Q 353 888 353 1747 
Q 353 2609 779 3096 
Q 1206 3584 1959 3584 
z
" transform="scale(0.015625)"/>
      <path id="DejaVuSans-70" d="M 1159 525 
L 1159 -1331 
L 581 -1331 
L 581 3500 
L 1159 3500 
L 1159 2969 
Q 1341 3281 1617 3432 
Q 1894 3584 2278 3584 
Q 2916 3584 3314 3078 
Q 3713 2572 3713 1747 
Q 3713 922 3314 415 
Q 2916 -91 2278 -91 
Q 1894 -91 1617 61 
Q 1341 213 1159 525 
z
M 3116 1747 
Q 3116 2381 2855 2742 
Q 2594 3103 2138 3103 
Q 1681 3103 1420 2742 
Q 1159 2381 1159 1747 
Q 1159 1113 1420 752 
Q 1681 391 2138 391 
Q 2594 391 2855 752 
Q 3116 1113 3116 1747 
z
" transform="scale(0.015625)"/>
      <path id="DejaVuSans-6c" d="M 603 4863 
L 1178 4863 
L 1178 0 
L 603 0 
L 603 4863 
z
" transform="scale(0.015625)"/>
      <path id="DejaVuSans-4c" d="M 628 4666 
L 1259 4666 
L 1259 531 
L 3531 531 
L 3531 0 
L 628 0 
L 628 4666 
z
" transform="scale(0.015625)"/>
     </defs>
     <use xlink:href="#DejaVuSans-53"/>
     <use xlink:href="#DejaVuSans-2d" transform="translate(63.476562 0)"/>
     <use xlink:href="#DejaVuSans-50" transform="translate(99.560547 0)"/>
     <use xlink:href="#DejaVuSans-61" transform="translate(155.363281 0)"/>
     <use xlink:href="#DejaVuSans-72" transform="translate(216.642578 0)"/>
     <use xlink:href="#DejaVuSans-61" transform="translate(257.755859 0)"/>
     <use xlink:href="#DejaVuSans-6d" transform="translate(319.035156 0)"/>
     <use xlink:href="#DejaVuSans-65" transform="translate(416.447266 0)"/>
     <use xlink:href="#DejaVuSans-74" transform="translate(477.970703 0)"/>
     <use xlink:href="#DejaVuSans-65" transform="translate(517.179688 0)"/>
     <use xlink:href="#DejaVuSans-72" transform="translate(578.703125 0)"/>
     <use xlink:href="#DejaVuSans-73" transform="translate(619.816406 0)"/>
     <use xlink:href="#DejaVuSans-20" transform="translate(671.916016 0)"/>
     <use xlink:href="#DejaVuSans-4d" transform="translate(703.703125 0)"/>
     <use xlink:href="#DejaVuSans-61" transform="translate(789.982422 0)"/>
     <use xlink:href="#DejaVuSans-67" transform="translate(851.261719 0)"/>
     <use xlink:href="#DejaVuSans-6e" transform="translate(914.738281 0)"/>
     <use xlink:href="#DejaVuSans-69" transform="translate(978.117188 0)"/>
     <use xlink:href="#DejaVuSans-74" transform="translate(1005.900391 0)"/>
     <use xlink:href="#DejaVuSans-75" transform="translate(1045.109375 0)"/>
     <use xlink:href="#DejaVuSans-64" transform="translate(1108.488281 0)"/>
     <use xlink:href="#DejaVuSans-65" transform="translate(1171.964844 0)"/>
     <use xlink:href="#DejaVuSans-20" transform="translate(1233.488281 0)"/>
     <use xlink:href="#DejaVuSans-28" transform="translate(1265.275391 0)"/>
     <use xlink:href="#DejaVuSans-32" transform="translate(1304.289062 0)"/>
     <use xlink:href="#DejaVuSans-2e" transform="translate(1367.912109 0)"/>
     <use xlink:href="#DejaVuSans-30" transform="translate(1399.699219 0)"/>
     <use xlink:href="#DejaVuSans-2d" transform="translate(1463.322266 0)"/>
     <use xlink:href="#DejaVuSans-31" transform="translate(1499.40625 0)"/>
     <use xlink:href="#DejaVuSans-30" transform="translate(1563.029297 0)"/>
     <use xlink:href="#DejaVuSans-2e" transform="translate(1626.652344 0)"/>
     <use xlink:href="#DejaVuSans-30" transform="translate(1658.439453 0)"/>
     <use xlink:href="#DejaVuSans-20" transform="translate(1722.0625 0)"/>
     <use xlink:href="#DejaVuSans-47" transform="translate(1753.849609 0)"/>
     <use xlink:href="#DejaVuSans-48" transform="translate(1831.339844 0)"/>
     <use xlink:href="#DejaVuSans-7a" transform="translate(1906.535156 0)"/>
     <use xlink:href="#DejaVuSans-29" transform="translate(1959.025391 0)"/>
     <use xlink:href="#DejaVuSans-20" transform="translate(1998.039062 0)"/>
     <use xlink:href="#DejaVuSans-2d" transform="translate(2029.826172 0)"/>
     <use xlink:href="#DejaVuSans-20" transform="translate(2065.910156 0)"/>
     <use xlink:href="#DejaVuSans-43" transform="translate(2097.697266 0)"/>
     <use xlink:href="#DejaVuSans-6f" transform="translate(2167.521484 0)"/>
     <use xlink:href="#DejaVuSans-75" transform="translate(2228.703125 0)"/>
     <use xlink:href="#DejaVuSans-70" transform="translate(2292.082031 0)"/>
     <use xlink:href="#DejaVuSans-6c" transform="translate(2355.558594 0)"/>
     <use xlink:href="#DejaVuSans-65" transform="translate(2383.341797 0)"/>
     <use xlink:href="#DejaVuSans-64" transform="translate(2444.865234 0)"/>
     <use xlink:href="#DejaVuSans-20" transform="translate(2508.341797 0)"/>
     <use xlink:href="#DejaVuSans-4c" transform="translate(2540.128906 0)"/>
     <use xlink:href="#DejaVuSans-69" transform="translate(2595.841797 0)"/>
     <use xlink:href="#DejaVuSans-6e" transform="translate(2623.625 0)"/>
     <use xlink:href="#DejaVuSans-65" transform="translate(2687.003906 0)"/>
     <use xlink:href="#DejaVuSans-20" transform="translate(2748.527344 0)"/>
     <use xlink:href="#DejaVuSans-46" transform="translate(2780.314453 0)"/>
     <use xlink:href="#DejaVuSans-69" transform="translate(2830.583984 0)"/>
     <use xlink:href="#DejaVuSans-6c" transform="translate(2858.367188 0)"/>
     <use xlink:href="#DejaVuSans-74" transform="translate(2886.150391 0)"/>
     <use xlink:href="#DejaVuSans-65" transform="translate(2925.359375 0)"/>
     <use xlink:href="#DejaVuSans-72" transform="translate(2986.882812 0)"/>
    </g>
   </g>
   <g id="legend_1">
    <g id="patch_7">
     <path d="M 305.32 302.584 
L 407.72 302.584 
Q 409.72 302.584 409.72 300.584 
L 409.72 242.8715 
Q 409.72 240.8715 407.72 240.8715 
L 305.32 240.8715 
Q 303.32 240.8715 303.32 242.8715 
L 303.32 300.584 
Q 303.32 302.584 305.32 302.584 
z
" style="fill: #ffffff; opacity: 0.8; stroke: #cccccc; stroke-linejoin: miter"/>
    </g>
    <g id="line2d_33">
     <path d="M 307.32 248.969937 
L 317.32 248.969937 
L 327.32 248.969937 
" style="fill: none; stroke-dasharray: 5.55,2.4; stroke-dashoffset: 0; stroke: #0000ff; stroke-width: 1.5"/>
    </g>
    <g id="text_18">
     <!-- HFSS S21 -->
     <g transform="translate(335.32 252.469937) scale(0.1 -0.1)">
      <use xlink:href="#DejaVuSans-48"/>
      <use xlink:href="#DejaVuSans-46" transform="translate(75.195312 0)"/>
      <use xlink:href="#DejaVuSans-53" transform="translate(130.964844 0)"/>
      <use xlink:href="#DejaVuSans-53" transform="translate(194.441406 0)"/>
      <use xlink:href="#DejaVuSans-20" transform="translate(257.917969 0)"/>
      <use xlink:href="#DejaVuSans-53" transform="translate(289.705078 0)"/>
      <use xlink:href="#DejaVuSans-32" transform="translate(353.181641 0)"/>
      <use xlink:href="#DejaVuSans-31" transform="translate(416.804688 0)"/>
     </g>
    </g>
    <g id="line2d_34">
     <path d="M 307.32 263.648062 
L 317.32 263.648062 
L 327.32 263.648062 
" style="fill: none; stroke-dasharray: 5.55,2.4; stroke-dashoffset: 0; stroke: #ff0000; stroke-width: 1.5"/>
    </g>
    <g id="text_19">
     <!-- HFSS S11 -->
     <g transform="translate(335.32 267.148062) scale(0.1 -0.1)">
      <use xlink:href="#DejaVuSans-48"/>
      <use xlink:href="#DejaVuSans-46" transform="translate(75.195312 0)"/>
      <use xlink:href="#DejaVuSans-53" transform="translate(130.964844 0)"/>
      <use xlink:href="#DejaVuSans-53" transform="translate(194.441406 0)"/>
      <use xlink:href="#DejaVuSans-20" transform="translate(257.917969 0)"/>
      <use xlink:href="#DejaVuSans-53" transform="translate(289.705078 0)"/>
      <use xlink:href="#DejaVuSans-31" transform="translate(353.181641 0)"/>
      <use xlink:href="#DejaVuSans-31" transform="translate(416.804688 0)"/>
     </g>
    </g>
    <g id="line2d_35">
     <path d="M 307.32 278.326187 
L 317.32 278.326187 
L 327.32 278.326187 
" style="fill: none; stroke: #0000ff; stroke-width: 1.5; stroke-linecap: square"/>
    </g>
    <g id="text_20">
     <!-- WaveFEM S21 -->
     <g transform="translate(335.32 281.826187) scale(0.1 -0.1)">
      <defs>
       <path id="DejaVuSans-57" d="M 213 4666 
L 850 4666 
L 1831 722 
L 2809 4666 
L 3519 4666 
L 4500 722 
L 5478 4666 
L 6119 4666 
L 4947 0 
L 4153 0 
L 3169 4050 
L 2175 0 
L 1381 0 
L 213 4666 
z
" transform="scale(0.015625)"/>
       <path id="DejaVuSans-76" d="M 191 3500 
L 800 3500 
L 1894 563 
L 2988 3500 
L 3597 3500 
L 2284 0 
L 1503 0 
L 191 3500 
z
" transform="scale(0.015625)"/>
       <path id="DejaVuSans-45" d="M 628 4666 
L 3578 4666 
L 3578 4134 
L 1259 4134 
L 1259 2753 
L 3481 2753 
L 3481 2222 
L 1259 2222 
L 1259 531 
L 3634 531 
L 3634 0 
L 628 0 
L 628 4666 
z
" transform="scale(0.015625)"/>
      </defs>
      <use xlink:href="#DejaVuSans-57"/>
      <use xlink:href="#DejaVuSans-61" transform="translate(92.501953 0)"/>
      <use xlink:href="#DejaVuSans-76" transform="translate(153.78125 0)"/>
      <use xlink:href="#DejaVuSans-65" transform="translate(212.960938 0)"/>
      <use xlink:href="#DejaVuSans-46" transform="translate(274.484375 0)"/>
      <use xlink:href="#DejaVuSans-45" transform="translate(332.003906 0)"/>
      <use xlink:href="#DejaVuSans-4d" transform="translate(395.1875 0)"/>
      <use xlink:href="#DejaVuSans-20" transform="translate(481.466797 0)"/>
      <use xlink:href="#DejaVuSans-53" transform="translate(513.253906 0)"/>
      <use xlink:href="#DejaVuSans-32" transform="translate(576.730469 0)"/>
      <use xlink:href="#DejaVuSans-31" transform="translate(640.353516 0)"/>
     </g>
    </g>
    <g id="line2d_36">
     <path d="M 307.32 293.004312 
L 317.32 293.004312 
L 327.32 293.004312 
" style="fill: none; stroke: #ff0000; stroke-width: 1.5; stroke-linecap: square"/>
    </g>
    <g id="text_21">
     <!-- WaveFEM S11 -->
     <g transform="translate(335.32 296.504312) scale(0.1 -0.1)">
      <use xlink:href="#DejaVuSans-57"/>
      <use xlink:href="#DejaVuSans-61" transform="translate(92.501953 0)"/>
      <use xlink:href="#DejaVuSans-76" transform="translate(153.78125 0)"/>
      <use xlink:href="#DejaVuSans-65" transform="translate(212.960938 0)"/>
      <use xlink:href="#DejaVuSans-46" transform="translate(274.484375 0)"/>
      <use xlink:href="#DejaVuSans-45" transform="translate(332.003906 0)"/>
      <use xlink:href="#DejaVuSans-4d" transform="translate(395.1875 0)"/>
      <use xlink:href="#DejaVuSans-20" transform="translate(481.466797 0)"/>
      <use xlink:href="#DejaVuSans-53" transform="translate(513.253906 0)"/>
      <use xlink:href="#DejaVuSans-31" transform="translate(576.730469 0)"/>
      <use xlink:href="#DejaVuSans-31" transform="translate(640.353516 0)"/>
     </g>
    </g>
   </g>
  </g>
 </g>
 <defs>
  <clipPath id="pa663f3e938">
   <rect x="57.6" y="41.472" width="357.12" height="266.112"/>
  </clipPath>
 </defs>
</svg>
