<?xml version="1.0" encoding="utf-8" standalone="no"?>
<!DOCTYPE svg PUBLIC "-//W3C//DTD SVG 1.1//EN"
  "http://www.w3.org/Graphics/SVG/1.1/DTD/svg11.dtd">
<svg xmlns:xlink="http://www.w3.org/1999/xlink" width="460.8pt" height="345.6pt" viewBox="0 0 460.8 345.6" xmlns="http://www.w3.org/2000/svg" version="1.1">
 <metadata>
  <rdf:RDF xmlns:dc="http://purl.org/dc/elements/1.1/" xmlns:cc="http://creativecommons.org/ns#" xmlns:rdf="http://www.w3.org/1999/02/22-rdf-syntax-ns#">
   <cc:Work>
    <dc:type rdf:resource="http://purl.org/dc/dcmitype/StillImage"/>
    <dc:date>2025-09-21T18:43:19.578079</dc:date>
    <dc:format>image/svg+xml</dc:format>
    <dc:creator>
     <cc:Agent>
      <dc:title>Matplotlib v3.9.4, https://matplotlib.org/</dc:title>
     </cc:Agent>
    </dc:creator>
   </cc:Work>
  </rdf:RDF>
 </metadata>
 <defs>
  <style type="text/css">*{stroke-linejoin: round; stroke-linecap: butt}</style>
 </defs>
 <g id="figure_1">
  <g id="patch_1">
   <path d="M 0 345.6 
L 460.8 345.6 
L 460.8 0 
L 0 0 
z
" style="fill: #ffffff"/>
  </g>
  <g id="axes_1">
   <g id="patch_2">
    <path d="M 57.6 307.584 
L 414.72 307.584 
L 414.72 41.472 
L 57.6 41.472 
z
" style="fill: #ffffff"/>
   </g>
   <g id="matplotlib.axis_1">
    <g id="xtick_1">
     <g id="line2d_1">
      <path d="M 100.887273 307.584 
L 100.887273 41.472 
" clip-path="url(#p1378a74d9d)" style="fill: none; stroke: #b0b0b0; stroke-width: 0.8; stroke-linecap: square"/>
     </g>
     <g id="line2d_2">
      <defs>
       <path id="m94f75d2445" d="M 0 0 
L 0 3.5 
" style="stroke: #000000; stroke-width: 0.8"/>
      </defs>
      <g>
       <use xlink:href="#m94f75d2445" x="100.887273" y="307.584" style="stroke: #000000; stroke-width: 0.8"/>
      </g>
     </g>
     <g id="text_1">
      <!-- −150 -->
      <g transform="translate(87.153679 322.182437) scale(0.1 -0.1)">
       <defs>
        <path id="DejaVuSans-2212" d="M 678 2272 
L 4684 2272 
L 4684 1741 
L 678 1741 
L 678 2272 
z
" transform="scale(0.015625)"/>
        <path id="DejaVuSans-31" d="M 794 531 
L 1825 531 
L 1825 4091 
L 703 3866 
L 703 4441 
L 1819 4666 
L 2450 4666 
L 2450 531 
L 3481 531 
L 3481 0 
L 794 0 
L 794 531 
z
" transform="scale(0.015625)"/>
        <path id="DejaVuSans-35" d="M 691 4666 
L 3169 4666 
L 3169 4134 
L 1269 4134 
L 1269 2991 
Q 1406 3038 1543 3061 
Q 1681 3084 1819 3084 
Q 2600 3084 3056 2656 
Q 3513 2228 3513 1497 
Q 3513 744 3044 326 
Q 2575 -91 1722 -91 
Q 1428 -91 1123 -41 
Q 819 9 494 109 
L 494 744 
Q 775 591 1075 516 
Q 1375 441 1709 441 
Q 2250 441 2565 725 
Q 2881 1009 2881 1497 
Q 2881 1984 2565 2268 
Q 2250 2553 1709 2553 
Q 1456 2553 1204 2497 
Q 953 2441 691 2322 
L 691 4666 
z
" transform="scale(0.015625)"/>
        <path id="DejaVuSans-30" d="M 2034 4250 
Q 1547 4250 1301 3770 
Q 1056 3291 1056 2328 
Q 1056 1369 1301 889 
Q 1547 409 2034 409 
Q 2525 409 2770 889 
Q 3016 1369 3016 2328 
Q 3016 3291 2770 3770 
Q 2525 4250 2034 4250 
z
M 2034 4750 
Q 2819 4750 3233 4129 
Q 3647 3509 3647 2328 
Q 3647 1150 3233 529 
Q 2819 -91 2034 -91 
Q 1250 -91 836 529 
Q 422 1150 422 2328 
Q 422 3509 836 4129 
Q 1250 4750 2034 4750 
z
" transform="scale(0.015625)"/>
       </defs>
       <use xlink:href="#DejaVuSans-2212"/>
       <use xlink:href="#DejaVuSans-31" x="83.789062"/>
       <use xlink:href="#DejaVuSans-35" x="147.412109"/>
       <use xlink:href="#DejaVuSans-30" x="211.035156"/>
      </g>
     </g>
    </g>
    <g id="xtick_2">
     <g id="line2d_3">
      <path d="M 145.978182 307.584 
L 145.978182 41.472 
" clip-path="url(#p1378a74d9d)" style="fill: none; stroke: #b0b0b0; stroke-width: 0.8; stroke-linecap: square"/>
     </g>
     <g id="line2d_4">
      <g>
       <use xlink:href="#m94f75d2445" x="145.978182" y="307.584" style="stroke: #000000; stroke-width: 0.8"/>
      </g>
     </g>
     <g id="text_2">
      <!-- −100 -->
      <g transform="translate(132.244588 322.182437) scale(0.1 -0.1)">
       <use xlink:href="#DejaVuSans-2212"/>
       <use xlink:href="#DejaVuSans-31" x="83.789062"/>
       <use xlink:href="#DejaVuSans-30" x="147.412109"/>
       <use xlink:href="#DejaVuSans-30" x="211.035156"/>
      </g>
     </g>
    </g>
    <g id="xtick_3">
     <g id="line2d_5">
      <path d="M 191.069091 307.584 
L 191.069091 41.472 
" clip-path="url(#p1378a74d9d)" style="fill: none; stroke: #b0b0b0; stroke-width: 0.8; stroke-linecap: square"/>
     </g>
     <g id="line2d_6">
      <g>
       <use xlink:href="#m94f75d2445" x="191.069091" y="307.584" style="stroke: #000000; stroke-width: 0.8"/>
      </g>
     </g>
     <g id="text_3">
      <!-- −50 -->
      <g transform="translate(180.516747 322.182437) scale(0.1 -0.1)">
       <use xlink:href="#DejaVuSans-2212"/>
       <use xlink:href="#DejaVuSans-35" x="83.789062"/>
       <use xlink:href="#DejaVuSans-30" x="147.412109"/>
      </g>
     </g>
    </g>
    <g id="xtick_4">
     <g id="line2d_7">
      <path d="M 236.16 307.584 
L 236.16 41.472 
" clip-path="url(#p1378a74d9d)" style="fill: none; stroke: #b0b0b0; stroke-width: 0.8; stroke-linecap: square"/>
     </g>
     <g id="line2d_8">
      <g>
       <use xlink:href="#m94f75d2445" x="236.16" y="307.584" style="stroke: #000000; stroke-width: 0.8"/>
      </g>
     </g>
     <g id="text_4">
      <!-- 0 -->
      <g transform="translate(232.97875 322.182437) scale(0.1 -0.1)">
       <use xlink:href="#DejaVuSans-30"/>
      </g>
     </g>
    </g>
    <g id="xtick_5">
     <g id="line2d_9">
      <path d="M 281.250909 307.584 
L 281.250909 41.472 
" clip-path="url(#p1378a74d9d)" style="fill: none; stroke: #b0b0b0; stroke-width: 0.8; stroke-linecap: square"/>
     </g>
     <g id="line2d_10">
      <g>
       <use xlink:href="#m94f75d2445" x="281.250909" y="307.584" style="stroke: #000000; stroke-width: 0.8"/>
      </g>
     </g>
     <g id="text_5">
      <!-- 50 -->
      <g transform="translate(274.888409 322.182437) scale(0.1 -0.1)">
       <use xlink:href="#DejaVuSans-35"/>
       <use xlink:href="#DejaVuSans-30" x="63.623047"/>
      </g>
     </g>
    </g>
    <g id="xtick_6">
     <g id="line2d_11">
      <path d="M 326.341818 307.584 
L 326.341818 41.472 
" clip-path="url(#p1378a74d9d)" style="fill: none; stroke: #b0b0b0; stroke-width: 0.8; stroke-linecap: square"/>
     </g>
     <g id="line2d_12">
      <g>
       <use xlink:href="#m94f75d2445" x="326.341818" y="307.584" style="stroke: #000000; stroke-width: 0.8"/>
      </g>
     </g>
     <g id="text_6">
      <!-- 100 -->
      <g transform="translate(316.798068 322.182437) scale(0.1 -0.1)">
       <use xlink:href="#DejaVuSans-31"/>
       <use xlink:href="#DejaVuSans-30" x="63.623047"/>
       <use xlink:href="#DejaVuSans-30" x="127.246094"/>
      </g>
     </g>
    </g>
    <g id="xtick_7">
     <g id="line2d_13">
      <path d="M 371.432727 307.584 
L 371.432727 41.472 
" clip-path="url(#p1378a74d9d)" style="fill: none; stroke: #b0b0b0; stroke-width: 0.8; stroke-linecap: square"/>
     </g>
     <g id="line2d_14">
      <g>
       <use xlink:href="#m94f75d2445" x="371.432727" y="307.584" style="stroke: #000000; stroke-width: 0.8"/>
      </g>
     </g>
     <g id="text_7">
      <!-- 150 -->
      <g transform="translate(361.888977 322.182437) scale(0.1 -0.1)">
       <use xlink:href="#DejaVuSans-31"/>
       <use xlink:href="#DejaVuSans-35" x="63.623047"/>
       <use xlink:href="#DejaVuSans-30" x="127.246094"/>
      </g>
     </g>
    </g>
    <g id="text_8">
     <!-- Angle (deg) -->
     <g transform="translate(207.015469 335.860562) scale(0.1 -0.1)">
      <defs>
       <path id="DejaVuSans-41" d="M 2188 4044 
L 1331 1722 
L 3047 1722 
L 2188 4044 
z
M 1831 4666 
L 2547 4666 
L 4325 0 
L 3669 0 
L 3244 1197 
L 1141 1197 
L 716 0 
L 50 0 
L 1831 4666 
z
" transform="scale(0.015625)"/>
       <path id="DejaVuSans-6e" d="M 3513 2113 
L 3513 0 
L 2938 0 
L 2938 2094 
Q 2938 2591 2744 2837 
Q 2550 3084 2163 3084 
Q 1697 3084 1428 2787 
Q 1159 2491 1159 1978 
L 1159 0 
L 581 0 
L 581 3500 
L 1159 3500 
L 1159 2956 
Q 1366 3272 1645 3428 
Q 1925 3584 2291 3584 
Q 2894 3584 3203 3211 
Q 3513 2838 3513 2113 
z
" transform="scale(0.015625)"/>
       <path id="DejaVuSans-67" d="M 2906 1791 
Q 2906 2416 2648 2759 
Q 2391 3103 1925 3103 
Q 1463 3103 1205 2759 
Q 947 2416 947 1791 
Q 947 1169 1205 825 
Q 1463 481 1925 481 
Q 2391 481 2648 825 
Q 2906 1169 2906 1791 
z
M 3481 434 
Q 3481 -459 3084 -895 
Q 2688 -1331 1869 -1331 
Q 1566 -1331 1297 -1286 
Q 1028 -1241 775 -1147 
L 775 -588 
Q 1028 -725 1275 -790 
Q 1522 -856 1778 -856 
Q 2344 -856 2625 -561 
Q 2906 -266 2906 331 
L 2906 616 
Q 2728 306 2450 153 
Q 2172 0 1784 0 
Q 1141 0 747 490 
Q 353 981 353 1791 
Q 353 2603 747 3093 
Q 1141 3584 1784 3584 
Q 2172 3584 2450 3431 
Q 2728 3278 2906 2969 
L 2906 3500 
L 3481 3500 
L 3481 434 
z
" transform="scale(0.015625)"/>
       <path id="DejaVuSans-6c" d="M 603 4863 
L 1178 4863 
L 1178 0 
L 603 0 
L 603 4863 
z
" transform="scale(0.015625)"/>
       <path id="DejaVuSans-65" d="M 3597 1894 
L 3597 1613 
L 953 1613 
Q 991 1019 1311 708 
Q 1631 397 2203 397 
Q 2534 397 2845 478 
Q 3156 559 3463 722 
L 3463 178 
Q 3153 47 2828 -22 
Q 2503 -91 2169 -91 
Q 1331 -91 842 396 
Q 353 884 353 1716 
Q 353 2575 817 3079 
Q 1281 3584 2069 3584 
Q 2775 3584 3186 3129 
Q 3597 2675 3597 1894 
z
M 3022 2063 
Q 3016 2534 2758 2815 
Q 2500 3097 2075 3097 
Q 1594 3097 1305 2825 
Q 1016 2553 972 2059 
L 3022 2063 
z
" transform="scale(0.015625)"/>
       <path id="DejaVuSans-20" transform="scale(0.015625)"/>
       <path id="DejaVuSans-28" d="M 1984 4856 
Q 1566 4138 1362 3434 
Q 1159 2731 1159 2009 
Q 1159 1288 1364 580 
Q 1569 -128 1984 -844 
L 1484 -844 
Q 1016 -109 783 600 
Q 550 1309 550 2009 
Q 550 2706 781 3412 
Q 1013 4119 1484 4856 
L 1984 4856 
z
" transform="scale(0.015625)"/>
       <path id="DejaVuSans-64" d="M 2906 2969 
L 2906 4863 
L 3481 4863 
L 3481 0 
L 2906 0 
L 2906 525 
Q 2725 213 2448 61 
Q 2172 -91 1784 -91 
Q 1150 -91 751 415 
Q 353 922 353 1747 
Q 353 2572 751 3078 
Q 1150 3584 1784 3584 
Q 2172 3584 2448 3432 
Q 2725 3281 2906 2969 
z
M 947 1747 
Q 947 1113 1208 752 
Q 1469 391 1925 391 
Q 2381 391 2643 752 
Q 2906 1113 2906 1747 
Q 2906 2381 2643 2742 
Q 2381 3103 1925 3103 
Q 1469 3103 1208 2742 
Q 947 2381 947 1747 
z
" transform="scale(0.015625)"/>
       <path id="DejaVuSans-29" d="M 513 4856 
L 1013 4856 
Q 1481 4119 1714 3412 
Q 1947 2706 1947 2009 
Q 1947 1309 1714 600 
Q 1481 -109 1013 -844 
L 513 -844 
Q 928 -128 1133 580 
Q 1338 1288 1338 2009 
Q 1338 2731 1133 3434 
Q 928 4138 513 4856 
z
" transform="scale(0.015625)"/>
      </defs>
      <use xlink:href="#DejaVuSans-41"/>
      <use xlink:href="#DejaVuSans-6e" x="68.408203"/>
      <use xlink:href="#DejaVuSans-67" x="131.787109"/>
      <use xlink:href="#DejaVuSans-6c" x="195.263672"/>
      <use xlink:href="#DejaVuSans-65" x="223.046875"/>
      <use xlink:href="#DejaVuSans-20" x="284.570312"/>
      <use xlink:href="#DejaVuSans-28" x="316.357422"/>
      <use xlink:href="#DejaVuSans-64" x="355.371094"/>
      <use xlink:href="#DejaVuSans-65" x="418.847656"/>
      <use xlink:href="#DejaVuSans-67" x="480.371094"/>
      <use xlink:href="#DejaVuSans-29" x="543.847656"/>
     </g>
    </g>
   </g>
   <g id="matplotlib.axis_2">
    <g id="ytick_1">
     <g id="line2d_15">
      <path d="M 57.6 274.886735 
L 414.72 274.886735 
" clip-path="url(#p1378a74d9d)" style="fill: none; stroke: #b0b0b0; stroke-width: 0.8; stroke-linecap: square"/>
     </g>
     <g id="line2d_16">
      <defs>
       <path id="m5bac37199d" d="M 0 0 
L -3.5 0 
" style="stroke: #000000; stroke-width: 0.8"/>
      </defs>
      <g>
       <use xlink:href="#m5bac37199d" x="57.6" y="274.886735" style="stroke: #000000; stroke-width: 0.8"/>
      </g>
     </g>
     <g id="text_9">
      <!-- −15 -->
      <g transform="translate(29.495313 278.685954) scale(0.1 -0.1)">
       <use xlink:href="#DejaVuSans-2212"/>
       <use xlink:href="#DejaVuSans-31" x="83.789062"/>
       <use xlink:href="#DejaVuSans-35" x="147.412109"/>
      </g>
     </g>
    </g>
    <g id="ytick_2">
     <g id="line2d_17">
      <path d="M 57.6 225.343891 
L 414.72 225.343891 
" clip-path="url(#p1378a74d9d)" style="fill: none; stroke: #b0b0b0; stroke-width: 0.8; stroke-linecap: square"/>
     </g>
     <g id="line2d_18">
      <g>
       <use xlink:href="#m5bac37199d" x="57.6" y="225.343891" style="stroke: #000000; stroke-width: 0.8"/>
      </g>
     </g>
     <g id="text_10">
      <!-- −10 -->
      <g transform="translate(29.495313 229.14311) scale(0.1 -0.1)">
       <use xlink:href="#DejaVuSans-2212"/>
       <use xlink:href="#DejaVuSans-31" x="83.789062"/>
       <use xlink:href="#DejaVuSans-30" x="147.412109"/>
      </g>
     </g>
    </g>
    <g id="ytick_3">
     <g id="line2d_19">
      <path d="M 57.6 175.801048 
L 414.72 175.801048 
" clip-path="url(#p1378a74d9d)" style="fill: none; stroke: #b0b0b0; stroke-width: 0.8; stroke-linecap: square"/>
     </g>
     <g id="line2d_20">
      <g>
       <use xlink:href="#m5bac37199d" x="57.6" y="175.801048" style="stroke: #000000; stroke-width: 0.8"/>
      </g>
     </g>
     <g id="text_11">
      <!-- −5 -->
      <g transform="translate(35.857813 179.600266) scale(0.1 -0.1)">
       <use xlink:href="#DejaVuSans-2212"/>
       <use xlink:href="#DejaVuSans-35" x="83.789062"/>
      </g>
     </g>
    </g>
    <g id="ytick_4">
     <g id="line2d_21">
      <path d="M 57.6 126.258204 
L 414.72 126.258204 
" clip-path="url(#p1378a74d9d)" style="fill: none; stroke: #b0b0b0; stroke-width: 0.8; stroke-linecap: square"/>
     </g>
     <g id="line2d_22">
      <g>
       <use xlink:href="#m5bac37199d" x="57.6" y="126.258204" style="stroke: #000000; stroke-width: 0.8"/>
      </g>
     </g>
     <g id="text_12">
      <!-- 0 -->
      <g transform="translate(44.2375 130.057422) scale(0.1 -0.1)">
       <use xlink:href="#DejaVuSans-30"/>
      </g>
     </g>
    </g>
    <g id="ytick_5">
     <g id="line2d_23">
      <path d="M 57.6 76.71536 
L 414.72 76.71536 
" clip-path="url(#p1378a74d9d)" style="fill: none; stroke: #b0b0b0; stroke-width: 0.8; stroke-linecap: square"/>
     </g>
     <g id="line2d_24">
      <g>
       <use xlink:href="#m5bac37199d" x="57.6" y="76.71536" style="stroke: #000000; stroke-width: 0.8"/>
      </g>
     </g>
     <g id="text_13">
      <!-- 5 -->
      <g transform="translate(44.2375 80.514578) scale(0.1 -0.1)">
       <use xlink:href="#DejaVuSans-35"/>
      </g>
     </g>
    </g>
    <g id="text_14">
     <!-- Directivity (dB) -->
     <g transform="translate(23.415625 212.248312) rotate(-90) scale(0.1 -0.1)">
      <defs>
       <path id="DejaVuSans-44" d="M 1259 4147 
L 1259 519 
L 2022 519 
Q 2988 519 3436 956 
Q 3884 1394 3884 2338 
Q 3884 3275 3436 3711 
Q 2988 4147 2022 4147 
L 1259 4147 
z
M 628 4666 
L 1925 4666 
Q 3281 4666 3915 4102 
Q 4550 3538 4550 2338 
Q 4550 1131 3912 565 
Q 3275 0 1925 0 
L 628 0 
L 628 4666 
z
" transform="scale(0.015625)"/>
       <path id="DejaVuSans-69" d="M 603 3500 
L 1178 3500 
L 1178 0 
L 603 0 
L 603 3500 
z
M 603 4863 
L 1178 4863 
L 1178 4134 
L 603 4134 
L 603 4863 
z
" transform="scale(0.015625)"/>
       <path id="DejaVuSans-72" d="M 2631 2963 
Q 2534 3019 2420 3045 
Q 2306 3072 2169 3072 
Q 1681 3072 1420 2755 
Q 1159 2438 1159 1844 
L 1159 0 
L 581 0 
L 581 3500 
L 1159 3500 
L 1159 2956 
Q 1341 3275 1631 3429 
Q 1922 3584 2338 3584 
Q 2397 3584 2469 3576 
Q 2541 3569 2628 3553 
L 2631 2963 
z
" transform="scale(0.015625)"/>
       <path id="DejaVuSans-63" d="M 3122 3366 
L 3122 2828 
Q 2878 2963 2633 3030 
Q 2388 3097 2138 3097 
Q 1578 3097 1268 2742 
Q 959 2388 959 1747 
Q 959 1106 1268 751 
Q 1578 397 2138 397 
Q 2388 397 2633 464 
Q 2878 531 3122 666 
L 3122 134 
Q 2881 22 2623 -34 
Q 2366 -91 2075 -91 
Q 1284 -91 818 406 
Q 353 903 353 1747 
Q 353 2603 823 3093 
Q 1294 3584 2113 3584 
Q 2378 3584 2631 3529 
Q 2884 3475 3122 3366 
z
" transform="scale(0.015625)"/>
       <path id="DejaVuSans-74" d="M 1172 4494 
L 1172 3500 
L 2356 3500 
L 2356 3053 
L 1172 3053 
L 1172 1153 
Q 1172 725 1289 603 
Q 1406 481 1766 481 
L 2356 481 
L 2356 0 
L 1766 0 
Q 1100 0 847 248 
Q 594 497 594 1153 
L 594 3053 
L 172 3053 
L 172 3500 
L 594 3500 
L 594 4494 
L 1172 4494 
z
" transform="scale(0.015625)"/>
       <path id="DejaVuSans-76" d="M 191 3500 
L 800 3500 
L 1894 563 
L 2988 3500 
L 3597 3500 
L 2284 0 
L 1503 0 
L 191 3500 
z
" transform="scale(0.015625)"/>
       <path id="DejaVuSans-79" d="M 2059 -325 
Q 1816 -950 1584 -1140 
Q 1353 -1331 966 -1331 
L 506 -1331 
L 506 -850 
L 844 -850 
Q 1081 -850 1212 -737 
Q 1344 -625 1503 -206 
L 1606 56 
L 191 3500 
L 800 3500 
L 1894 763 
L 2988 3500 
L 3597 3500 
L 2059 -325 
z
" transform="scale(0.015625)"/>
       <path id="DejaVuSans-42" d="M 1259 2228 
L 1259 519 
L 2272 519 
Q 2781 519 3026 730 
Q 3272 941 3272 1375 
Q 3272 1813 3026 2020 
Q 2781 2228 2272 2228 
L 1259 2228 
z
M 1259 4147 
L 1259 2741 
L 2194 2741 
Q 2656 2741 2882 2914 
Q 3109 3088 3109 3444 
Q 3109 3797 2882 3972 
Q 2656 4147 2194 4147 
L 1259 4147 
z
M 628 4666 
L 2241 4666 
Q 2963 4666 3353 4366 
Q 3744 4066 3744 3513 
Q 3744 3084 3544 2831 
Q 3344 2578 2956 2516 
Q 3422 2416 3680 2098 
Q 3938 1781 3938 1306 
Q 3938 681 3513 340 
Q 3088 0 2303 0 
L 628 0 
L 628 4666 
z
" transform="scale(0.015625)"/>
      </defs>
      <use xlink:href="#DejaVuSans-44"/>
      <use xlink:href="#DejaVuSans-69" x="77.001953"/>
      <use xlink:href="#DejaVuSans-72" x="104.785156"/>
      <use xlink:href="#DejaVuSans-65" x="143.648438"/>
      <use xlink:href="#DejaVuSans-63" x="205.171875"/>
      <use xlink:href="#DejaVuSans-74" x="260.152344"/>
      <use xlink:href="#DejaVuSans-69" x="299.361328"/>
      <use xlink:href="#DejaVuSans-76" x="327.144531"/>
      <use xlink:href="#DejaVuSans-69" x="386.324219"/>
      <use xlink:href="#DejaVuSans-74" x="414.107422"/>
      <use xlink:href="#DejaVuSans-79" x="453.316406"/>
      <use xlink:href="#DejaVuSans-20" x="512.496094"/>
      <use xlink:href="#DejaVuSans-28" x="544.283203"/>
      <use xlink:href="#DejaVuSans-64" x="583.296875"/>
      <use xlink:href="#DejaVuSans-42" x="646.773438"/>
      <use xlink:href="#DejaVuSans-29" x="715.376953"/>
     </g>
    </g>
   </g>
   <g id="line2d_25">
    <path d="M 73.832727 292.919711 
L 75.636364 293.0576 
L 77.44 292.819752 
L 79.243636 292.202773 
L 81.047273 291.205067 
L 82.850909 289.828946 
L 84.654545 288.082949 
L 86.458182 285.983793 
L 88.261818 283.557408 
L 90.065455 280.838769 
L 92.770909 276.307633 
L 96.378182 269.67809 
L 107.2 249.176338 
L 110.807273 242.932929 
L 114.414545 237.138384 
L 118.021818 231.767428 
L 122.530909 225.533289 
L 128.843636 217.325798 
L 136.96 206.797632 
L 141.469091 200.629954 
L 145.978182 194.114958 
L 150.487273 187.227689 
L 155.898182 178.503432 
L 162.210909 167.815964 
L 171.229091 152.002308 
L 182.952727 131.498981 
L 189.265455 120.950908 
L 193.774545 113.788773 
L 198.283636 107.026816 
L 201.890909 101.958513 
L 205.498182 97.237096 
L 209.105455 92.902117 
L 212.712727 88.991991 
L 215.418182 86.36032 
L 218.123636 84.002804 
L 220.829091 81.932962 
L 223.534545 80.163095 
L 226.24 78.7041 
L 228.945455 77.565279 
L 231.650909 76.754182 
L 234.356364 76.276466 
L 236.16 76.145088 
L 237.963636 76.164113 
L 239.767273 76.333689 
L 242.472727 76.869621 
L 245.178182 77.740851 
L 247.883636 78.942522 
L 250.589091 80.467691 
L 253.294545 82.30741 
L 256 84.450836 
L 258.705455 86.885372 
L 261.410909 89.596831 
L 264.116364 92.569624 
L 267.723636 96.910715 
L 271.330909 101.644066 
L 274.938182 106.725139 
L 279.447273 113.495579 
L 284.858182 122.115103 
L 291.170909 132.655804 
L 313.716364 170.840653 
L 318.225455 177.891078 
L 322.734545 184.560251 
L 327.243636 190.818518 
L 331.752727 196.687481 
L 337.163636 203.338288 
L 347.985455 216.466277 
L 351.592727 221.193527 
L 355.2 226.27837 
L 358.807273 231.803557 
L 362.414545 237.81648 
L 366.021818 244.315285 
L 370.530909 253.014707 
L 381.352727 274.329769 
L 384.058182 279.044212 
L 386.763636 283.223623 
L 388.567273 285.652667 
L 390.370909 287.763387 
L 392.174545 289.535844 
L 393.978182 290.956492 
L 395.781818 292.016728 
L 397.585455 292.711059 
L 398.487273 292.919711 
L 398.487273 292.919711 
" clip-path="url(#p1378a74d9d)" style="fill: none; stroke-dasharray: 5.55,2.4; stroke-dashoffset: 0; stroke: #0000ff; stroke-width: 1.5"/>
   </g>
   <g id="line2d_26">
    <path d="M 73.832727 269.147851 
L 75.641388 269.004154 
L 77.450048 268.536289 
L 79.258709 267.759709 
L 81.067369 266.698857 
L 82.876029 265.385017 
L 84.68469 263.85382 
L 87.39768 261.231494 
L 91.015001 257.316966 
L 97.345313 249.981184 
L 104.579954 241.698264 
L 110.910266 234.828541 
L 125.379549 219.392651 
L 129.9012 214.139667 
L 133.518521 209.646299 
L 137.135842 204.852541 
L 140.753163 199.738457 
L 144.370484 194.301646 
L 148.892135 187.073652 
L 153.413786 179.418061 
L 158.839767 169.777495 
L 166.074409 156.421539 
L 180.543692 129.567992 
L 185.969673 119.987132 
L 190.491324 112.395911 
L 195.012975 105.253822 
L 198.630296 99.916757 
L 202.247617 94.954583 
L 205.864938 90.400861 
L 209.482259 86.285792 
L 212.195249 83.503603 
L 214.90824 80.993342 
L 217.621231 78.76397 
L 220.334221 76.82337 
L 223.047212 75.178354 
L 225.760203 73.834667 
L 228.473193 72.79699 
L 231.186184 72.068949 
L 233.899174 71.653108 
L 236.612165 71.55098 
L 239.325156 71.763018 
L 242.038146 72.288614 
L 244.751137 73.126094 
L 247.464128 74.272709 
L 250.177118 75.724632 
L 252.890109 77.476944 
L 255.6031 79.52363 
L 258.31609 81.857569 
L 261.029081 84.47053 
L 263.742071 87.353166 
L 266.455062 90.495014 
L 270.072383 95.067195 
L 273.689704 100.048998 
L 277.307025 105.406501 
L 281.828676 112.574642 
L 286.350327 120.191646 
L 291.776308 129.80177 
L 299.01095 143.144126 
L 314.384563 171.714709 
L 319.810544 181.278952 
L 324.332195 188.845201 
L 328.853847 195.964095 
L 332.471167 201.30268 
L 336.088488 206.312164 
L 339.705809 210.998452 
L 344.22746 216.439527 
L 348.749111 221.498151 
L 355.079423 228.170243 
L 365.931385 239.514806 
L 371.357366 245.534404 
L 385.82665 261.89896 
L 388.53964 264.43855 
L 390.348301 265.896604 
L 392.156961 267.122861 
L 393.965622 268.082857 
L 395.774282 268.747636 
L 397.582943 269.096144 
L 398.487273 269.147851 
L 398.487273 269.147851 
" clip-path="url(#p1378a74d9d)" style="fill: none; stroke: #0000ff; stroke-width: 1.5; stroke-linecap: square"/>
   </g>
   <g id="line2d_27">
    <path d="M 73.832727 292.919711 
L 74.734545 295.488 
L 75.636364 294.806371 
L 76.538182 291.101935 
L 77.44 285.158447 
L 79.243636 270.106603 
L 81.949091 247.519575 
L 83.752727 234.598094 
L 85.556364 223.56118 
L 87.36 214.220868 
L 89.163636 206.355607 
L 90.967273 199.767342 
L 92.770909 194.291711 
L 94.574545 189.795032 
L 96.378182 186.168481 
L 98.181818 183.322447 
L 99.985455 181.181742 
L 100.887273 180.355352 
L 101.789091 179.68166 
L 102.690909 179.153673 
L 103.592727 178.76466 
L 104.494545 178.508073 
L 105.396364 178.377463 
L 106.298182 178.366392 
L 108.101818 178.676704 
L 109.905455 179.384636 
L 111.709091 180.430541 
L 113.512727 181.746543 
L 116.218182 184.050267 
L 119.825455 187.208786 
L 121.629091 188.552071 
L 123.432727 189.555753 
L 124.334545 189.886888 
L 125.236364 190.082448 
L 126.138182 190.127802 
L 127.04 190.010284 
L 127.941818 189.71966 
L 128.843636 189.24851 
L 129.745455 188.592506 
L 130.647273 187.750536 
L 131.549091 186.724688 
L 133.352727 184.144503 
L 135.156364 180.922808 
L 136.96 177.159261 
L 139.665455 170.744781 
L 143.272727 161.318054 
L 154.094545 132.348685 
L 158.603636 121.18013 
L 162.210909 112.792162 
L 165.818182 104.905022 
L 169.425455 97.521407 
L 173.032727 90.643757 
L 176.64 84.278505 
L 180.247273 78.437625 
L 182.952727 74.411503 
L 185.658182 70.699566 
L 188.363636 67.312681 
L 191.069091 64.263007 
L 193.774545 61.563806 
L 196.48 59.229276 
L 199.185455 57.274389 
L 200.989091 56.189716 
L 202.792727 55.285417 
L 204.596364 54.566282 
L 206.4 54.03713 
L 208.203636 53.702778 
L 210.007273 53.568 
L 211.810909 53.637482 
L 213.614545 53.91577 
L 215.418182 54.4072 
L 217.221818 55.115834 
L 219.025455 56.045357 
L 220.829091 57.198983 
L 222.632727 58.579318 
L 224.436364 60.188215 
L 226.24 62.026586 
L 228.043636 64.094186 
L 230.749091 67.621281 
L 233.454545 71.646639 
L 236.16 76.145088 
L 238.865455 81.075886 
L 242.472727 88.214309 
L 246.981818 97.726112 
L 252.392727 109.146323 
L 255.098182 114.441199 
L 257.803636 119.207574 
L 259.607273 122.012651 
L 261.410909 124.480971 
L 263.214545 126.596369 
L 265.018182 128.359495 
L 266.821818 129.787296 
L 268.625455 130.910705 
L 270.429091 131.771043 
L 272.232727 132.41585 
L 274.938182 133.087406 
L 278.545455 133.674902 
L 284.858182 134.661701 
L 288.465455 135.503633 
L 292.072727 136.635697 
L 295.68 138.047137 
L 300.189091 140.109403 
L 310.109091 144.820866 
L 313.716364 146.191834 
L 316.421818 146.980273 
L 319.127273 147.521072 
L 321.832727 147.790674 
L 324.538182 147.781281 
L 327.243636 147.501846 
L 329.949091 146.977627 
L 332.654545 146.248422 
L 336.261818 145.04788 
L 345.28 141.848005 
L 347.985455 141.117799 
L 350.690909 140.620537 
L 352.494545 140.454004 
L 354.298182 140.444649 
L 356.101818 140.614514 
L 357.905455 140.986262 
L 359.709091 141.583422 
L 361.512727 142.430688 
L 363.316364 143.554259 
L 365.12 144.982253 
L 366.923636 146.745191 
L 368.727273 148.876585 
L 370.530909 151.41367 
L 372.334545 154.398308 
L 374.138182 157.878145 
L 375.941818 161.908091 
L 377.745455 166.552246 
L 379.549091 171.886413 
L 381.352727 178.001378 
L 383.156364 185.007129 
L 384.96 193.038069 
L 386.763636 202.258709 
L 388.567273 212.867484 
L 390.370909 225.090368 
L 392.174545 239.137107 
L 393.978182 255.034431 
L 396.683636 280.33319 
L 397.585455 287.572799 
L 398.487273 292.919711 
L 398.487273 292.919711 
" clip-path="url(#p1378a74d9d)" style="fill: none; stroke-dasharray: 5.55,2.4; stroke-dashoffset: 0; stroke: #ff0000; stroke-width: 1.5"/>
   </g>
   <g id="line2d_28">
    <path d="M 73.832727 269.147851 
L 74.737057 266.094859 
L 75.641388 262.066807 
L 77.450048 252.319545 
L 81.067369 231.847904 
L 82.876029 222.678666 
L 84.68469 214.513122 
L 86.49335 207.345941 
L 88.302011 201.116035 
L 90.110671 195.745551 
L 91.919331 191.156033 
L 93.727992 187.27437 
L 95.536652 184.03432 
L 97.345313 181.376156 
L 99.153973 179.245581 
L 100.962634 177.592392 
L 102.771294 176.369092 
L 104.579954 175.529536 
L 106.388615 175.027608 
L 108.197275 174.815977 
L 110.005936 174.844929 
L 111.814596 175.061353 
L 114.527587 175.610908 
L 119.049238 176.588665 
L 120.857898 176.798225 
L 122.666559 176.798029 
L 124.475219 176.522663 
L 126.283879 175.915902 
L 128.09254 174.934863 
L 129.9012 173.553256 
L 131.709861 171.763069 
L 133.518521 169.574267 
L 135.327182 167.012586 
L 137.135842 164.115908 
L 139.848833 159.24387 
L 142.561823 153.887411 
L 146.179144 146.263837 
L 161.552758 113.191584 
L 166.074409 104.203905 
L 170.59606 95.751022 
L 174.213381 89.413262 
L 177.830701 83.483457 
L 181.448022 77.991034 
L 185.065343 72.967606 
L 187.778334 69.528136 
L 190.491324 66.386558 
L 193.204315 63.558383 
L 195.917306 61.059409 
L 198.630296 58.905527 
L 201.343287 57.112528 
L 204.056278 55.695893 
L 205.864938 54.967984 
L 207.673598 54.418285 
L 209.482259 54.050895 
L 211.290919 53.869708 
L 213.09958 53.878387 
L 214.90824 54.080325 
L 216.7169 54.478608 
L 218.525561 55.075967 
L 220.334221 55.874732 
L 222.142882 56.876772 
L 223.951542 58.083424 
L 225.760203 59.495418 
L 227.568863 61.112781 
L 230.281854 63.921926 
L 232.994844 67.184398 
L 235.707835 70.887463 
L 238.420826 75.010957 
L 241.133816 79.525535 
L 244.751137 86.08139 
L 248.368458 93.125101 
L 261.933411 120.199068 
L 264.646402 124.902734 
L 267.359392 129.123554 
L 270.072383 132.806717 
L 271.881043 134.954859 
L 273.689704 136.862873 
L 275.498364 138.543581 
L 277.307025 140.01526 
L 280.020015 141.879499 
L 282.733006 143.403784 
L 285.445996 144.666438 
L 289.063317 146.057655 
L 292.680638 147.218676 
L 297.202289 148.438372 
L 301.72394 149.418193 
L 305.341261 149.995084 
L 308.958582 150.340038 
L 312.575903 150.408 
L 315.288893 150.256831 
L 318.001884 149.925263 
L 320.714875 149.416314 
L 324.332195 148.485225 
L 327.949516 147.319784 
L 334.279828 144.986955 
L 338.801479 143.38325 
L 342.4188 142.339292 
L 345.13179 141.790803 
L 347.844781 141.513755 
L 349.653441 141.511989 
L 351.462102 141.679598 
L 353.270762 142.036837 
L 355.079423 142.604541 
L 356.888083 143.404282 
L 358.696743 144.45856 
L 360.505404 145.791039 
L 362.314064 147.426836 
L 364.122725 149.392869 
L 365.931385 151.718278 
L 367.740046 154.434926 
L 369.548706 157.578005 
L 371.357366 161.186749 
L 373.166027 165.305268 
L 374.974687 169.983483 
L 376.783348 175.278093 
L 378.592008 181.253402 
L 380.400669 187.981533 
L 382.209329 195.541019 
L 384.017989 204.011398 
L 385.82665 213.458554 
L 387.63531 223.899228 
L 390.348301 241.10209 
L 393.061291 258.27402 
L 393.965622 263.153673 
L 394.869952 267.131201 
L 395.774282 269.892402 
L 396.678612 271.190944 
L 397.582943 270.920009 
L 398.487273 269.147851 
L 398.487273 269.147851 
" clip-path="url(#p1378a74d9d)" style="fill: none; stroke: #ff0000; stroke-width: 1.5; stroke-linecap: square"/>
   </g>
   <g id="patch_3">
    <path d="M 57.6 307.584 
L 57.6 41.472 
" style="fill: none; stroke: #000000; stroke-width: 0.8; stroke-linejoin: miter; stroke-linecap: square"/>
   </g>
   <g id="patch_4">
    <path d="M 414.72 307.584 
L 414.72 41.472 
" style="fill: none; stroke: #000000; stroke-width: 0.8; stroke-linejoin: miter; stroke-linecap: square"/>
   </g>
   <g id="patch_5">
    <path d="M 57.6 307.584 
L 414.72 307.584 
" style="fill: none; stroke: #000000; stroke-width: 0.8; stroke-linejoin: miter; stroke-linecap: square"/>
   </g>
   <g id="patch_6">
    <path d="M 57.6 41.472 
L 414.72 41.472 
" style="fill: none; stroke: #000000; stroke-width: 0.8; stroke-linejoin: miter; stroke-linecap: square"/>
   </g>
   <g id="text_15">
    <!-- Antenna Directivity - Patch Antenna -->
    <g transform="translate(128.67375 35.472) scale(0.12 -0.12)">
     <defs>
      <path id="DejaVuSans-61" d="M 2194 1759 
Q 1497 1759 1228 1600 
Q 959 1441 959 1056 
Q 959 750 1161 570 
Q 1363 391 1709 391 
Q 2188 391 2477 730 
Q 2766 1069 2766 1631 
L 2766 1759 
L 2194 1759 
z
M 3341 1997 
L 3341 0 
L 2766 0 
L 2766 531 
Q 2569 213 2275 61 
Q 1981 -91 1556 -91 
Q 1019 -91 701 211 
Q 384 513 384 1019 
Q 384 1609 779 1909 
Q 1175 2209 1959 2209 
L 2766 2209 
L 2766 2266 
Q 2766 2663 2505 2880 
Q 2244 3097 1772 3097 
Q 1472 3097 1187 3025 
Q 903 2953 641 2809 
L 641 3341 
Q 956 3463 1253 3523 
Q 1550 3584 1831 3584 
Q 2591 3584 2966 3190 
Q 3341 2797 3341 1997 
z
" transform="scale(0.015625)"/>
      <path id="DejaVuSans-2d" d="M 313 2009 
L 1997 2009 
L 1997 1497 
L 313 1497 
L 313 2009 
z
" transform="scale(0.015625)"/>
      <path id="DejaVuSans-50" d="M 1259 4147 
L 1259 2394 
L 2053 2394 
Q 2494 2394 2734 2622 
Q 2975 2850 2975 3272 
Q 2975 3691 2734 3919 
Q 2494 4147 2053 4147 
L 1259 4147 
z
M 628 4666 
L 2053 4666 
Q 2838 4666 3239 4311 
Q 3641 3956 3641 3272 
Q 3641 2581 3239 2228 
Q 2838 1875 2053 1875 
L 1259 1875 
L 1259 0 
L 628 0 
L 628 4666 
z
" transform="scale(0.015625)"/>
      <path id="DejaVuSans-68" d="M 3513 2113 
L 3513 0 
L 2938 0 
L 2938 2094 
Q 2938 2591 2744 2837 
Q 2550 3084 2163 3084 
Q 1697 3084 1428 2787 
Q 1159 2491 1159 1978 
L 1159 0 
L 581 0 
L 581 4863 
L 1159 4863 
L 1159 2956 
Q 1366 3272 1645 3428 
Q 1925 3584 2291 3584 
Q 2894 3584 3203 3211 
Q 3513 2838 3513 2113 
z
" transform="scale(0.015625)"/>
     </defs>
     <use xlink:href="#DejaVuSans-41"/>
     <use xlink:href="#DejaVuSans-6e" x="68.408203"/>
     <use xlink:href="#DejaVuSans-74" x="131.787109"/>
     <use xlink:href="#DejaVuSans-65" x="170.996094"/>
     <use xlink:href="#DejaVuSans-6e" x="232.519531"/>
     <use xlink:href="#DejaVuSans-6e" x="295.898438"/>
     <use xlink:href="#DejaVuSans-61" x="359.277344"/>
     <use xlink:href="#DejaVuSans-20" x="420.556641"/>
     <use xlink:href="#DejaVuSans-44" x="452.34375"/>
     <use xlink:href="#DejaVuSans-69" x="529.345703"/>
     <use xlink:href="#DejaVuSans-72" x="557.128906"/>
     <use xlink:href="#DejaVuSans-65" x="595.992188"/>
     <use xlink:href="#DejaVuSans-63" x="657.515625"/>
     <use xlink:href="#DejaVuSans-74" x="712.496094"/>
     <use xlink:href="#DejaVuSans-69" x="751.705078"/>
     <use xlink:href="#DejaVuSans-76" x="779.488281"/>
     <use xlink:href="#DejaVuSans-69" x="838.667969"/>
     <use xlink:href="#DejaVuSans-74" x="866.451172"/>
     <use xlink:href="#DejaVuSans-79" x="905.660156"/>
     <use xlink:href="#DejaVuSans-20" x="964.839844"/>
     <use xlink:href="#DejaVuSans-2d" x="996.626953"/>
     <use xlink:href="#DejaVuSans-20" x="1032.710938"/>
     <use xlink:href="#DejaVuSans-50" x="1064.498047"/>
     <use xlink:href="#DejaVuSans-61" x="1120.300781"/>
     <use xlink:href="#DejaVuSans-74" x="1181.580078"/>
     <use xlink:href="#DejaVuSans-63" x="1220.789062"/>
     <use xlink:href="#DejaVuSans-68" x="1275.769531"/>
     <use xlink:href="#DejaVuSans-20" x="1339.148438"/>
     <use xlink:href="#DejaVuSans-41" x="1370.935547"/>
     <use xlink:href="#DejaVuSans-6e" x="1439.34375"/>
     <use xlink:href="#DejaVuSans-74" x="1502.722656"/>
     <use xlink:href="#DejaVuSans-65" x="1541.931641"/>
     <use xlink:href="#DejaVuSans-6e" x="1603.455078"/>
     <use xlink:href="#DejaVuSans-6e" x="1666.833984"/>
     <use xlink:href="#DejaVuSans-61" x="1730.212891"/>
    </g>
   </g>
   <g id="legend_1">
    <g id="patch_7">
     <path d="M 155.193594 302.584 
L 317.126406 302.584 
Q 319.126406 302.584 319.126406 300.584 
L 319.126406 242.8715 
Q 319.126406 240.8715 317.126406 240.8715 
L 155.193594 240.8715 
Q 153.193594 240.8715 153.193594 242.8715 
L 153.193594 300.584 
Q 153.193594 302.584 155.193594 302.584 
z
" style="fill: #ffffff; opacity: 0.8; stroke: #cccccc; stroke-linejoin: miter"/>
    </g>
    <g id="line2d_29">
     <path d="M 157.193594 248.969937 
L 167.193594 248.969937 
L 177.193594 248.969937 
" style="fill: none; stroke-dasharray: 5.55,2.4; stroke-dashoffset: 0; stroke: #0000ff; stroke-width: 1.5"/>
    </g>
    <g id="text_16">
     <!-- HFSS Elevation Φ=0 -->
     <g transform="translate(185.193594 252.469937) scale(0.1 -0.1)">
      <defs>
       <path id="DejaVuSans-48" d="M 628 4666 
L 1259 4666 
L 1259 2753 
L 3553 2753 
L 3553 4666 
L 4184 4666 
L 4184 0 
L 3553 0 
L 3553 2222 
L 1259 2222 
L 1259 0 
L 628 0 
L 628 4666 
z
" transform="scale(0.015625)"/>
       <path id="DejaVuSans-46" d="M 628 4666 
L 3309 4666 
L 3309 4134 
L 1259 4134 
L 1259 2759 
L 3109 2759 
L 3109 2228 
L 1259 2228 
L 1259 0 
L 628 0 
L 628 4666 
z
" transform="scale(0.015625)"/>
       <path id="DejaVuSans-53" d="M 3425 4513 
L 3425 3897 
Q 3066 4069 2747 4153 
Q 2428 4238 2131 4238 
Q 1616 4238 1336 4038 
Q 1056 3838 1056 3469 
Q 1056 3159 1242 3001 
Q 1428 2844 1947 2747 
L 2328 2669 
Q 3034 2534 3370 2195 
Q 3706 1856 3706 1288 
Q 3706 609 3251 259 
Q 2797 -91 1919 -91 
Q 1588 -91 1214 -16 
Q 841 59 441 206 
L 441 856 
Q 825 641 1194 531 
Q 1563 422 1919 422 
Q 2459 422 2753 634 
Q 3047 847 3047 1241 
Q 3047 1584 2836 1778 
Q 2625 1972 2144 2069 
L 1759 2144 
Q 1053 2284 737 2584 
Q 422 2884 422 3419 
Q 422 4038 858 4394 
Q 1294 4750 2059 4750 
Q 2388 4750 2728 4690 
Q 3069 4631 3425 4513 
z
" transform="scale(0.015625)"/>
       <path id="DejaVuSans-45" d="M 628 4666 
L 3578 4666 
L 3578 4134 
L 1259 4134 
L 1259 2753 
L 3481 2753 
L 3481 2222 
L 1259 2222 
L 1259 531 
L 3634 531 
L 3634 0 
L 628 0 
L 628 4666 
z
" transform="scale(0.015625)"/>
       <path id="DejaVuSans-6f" d="M 1959 3097 
Q 1497 3097 1228 2736 
Q 959 2375 959 1747 
Q 959 1119 1226 758 
Q 1494 397 1959 397 
Q 2419 397 2687 759 
Q 2956 1122 2956 1747 
Q 2956 2369 2687 2733 
Q 2419 3097 1959 3097 
z
M 1959 3584 
Q 2709 3584 3137 3096 
Q 3566 2609 3566 1747 
Q 3566 888 3137 398 
Q 2709 -91 1959 -91 
Q 1206 -91 779 398 
Q 353 888 353 1747 
Q 353 2609 779 3096 
Q 1206 3584 1959 3584 
z
" transform="scale(0.015625)"/>
       <path id="DejaVuSans-3a6" d="M 2206 3644 
Q 1738 3578 1431 3306 
Q 1025 2947 1025 2328 
Q 1025 1713 1431 1353 
Q 1738 1081 2206 1016 
L 2206 3644 
z
M 2838 1016 
Q 3306 1081 3613 1353 
Q 4013 1713 4013 2328 
Q 4013 2947 3613 3306 
Q 3306 3578 2838 3644 
L 2838 1016 
z
M 2206 494 
Q 1444 563 950 981 
Q 359 1481 359 2328 
Q 359 3175 950 3678 
Q 1441 4100 2206 4169 
L 2206 4666 
L 2838 4666 
L 2838 4169 
Q 3600 4097 4091 3678 
Q 4678 3175 4678 2328 
Q 4678 1484 4091 981 
Q 3600 563 2838 491 
L 2838 0 
L 2206 0 
L 2206 494 
z
" transform="scale(0.015625)"/>
       <path id="DejaVuSans-3d" d="M 678 2906 
L 4684 2906 
L 4684 2381 
L 678 2381 
L 678 2906 
z
M 678 1631 
L 4684 1631 
L 4684 1100 
L 678 1100 
L 678 1631 
z
" transform="scale(0.015625)"/>
      </defs>
      <use xlink:href="#DejaVuSans-48"/>
      <use xlink:href="#DejaVuSans-46" x="75.195312"/>
      <use xlink:href="#DejaVuSans-53" x="130.964844"/>
      <use xlink:href="#DejaVuSans-53" x="194.441406"/>
      <use xlink:href="#DejaVuSans-20" x="257.917969"/>
      <use xlink:href="#DejaVuSans-45" x="289.705078"/>
      <use xlink:href="#DejaVuSans-6c" x="352.888672"/>
      <use xlink:href="#DejaVuSans-65" x="380.671875"/>
      <use xlink:href="#DejaVuSans-76" x="442.195312"/>
      <use xlink:href="#DejaVuSans-61" x="501.375"/>
      <use xlink:href="#DejaVuSans-74" x="562.654297"/>
      <use xlink:href="#DejaVuSans-69" x="601.863281"/>
      <use xlink:href="#DejaVuSans-6f" x="629.646484"/>
      <use xlink:href="#DejaVuSans-6e" x="690.828125"/>
      <use xlink:href="#DejaVuSans-20" x="754.207031"/>
      <use xlink:href="#DejaVuSans-3a6" x="785.994141"/>
      <use xlink:href="#DejaVuSans-3d" x="864.705078"/>
      <use xlink:href="#DejaVuSans-30" x="948.494141"/>
     </g>
    </g>
    <g id="line2d_30">
     <path d="M 157.193594 263.648062 
L 167.193594 263.648062 
L 177.193594 263.648062 
" style="fill: none; stroke: #0000ff; stroke-width: 1.5; stroke-linecap: square"/>
    </g>
    <g id="text_17">
     <!-- WaveFEM Elevation Φ=0 -->
     <g transform="translate(185.193594 267.148062) scale(0.1 -0.1)">
      <defs>
       <path id="DejaVuSans-57" d="M 213 4666 
L 850 4666 
L 1831 722 
L 2809 4666 
L 3519 4666 
L 4500 722 
L 5478 4666 
L 6119 4666 
L 4947 0 
L 4153 0 
L 3169 4050 
L 2175 0 
L 1381 0 
L 213 4666 
z
" transform="scale(0.015625)"/>
       <path id="DejaVuSans-4d" d="M 628 4666 
L 1569 4666 
L 2759 1491 
L 3956 4666 
L 4897 4666 
L 4897 0 
L 4281 0 
L 4281 4097 
L 3078 897 
L 2444 897 
L 1241 4097 
L 1241 0 
L 628 0 
L 628 4666 
z
" transform="scale(0.015625)"/>
      </defs>
      <use xlink:href="#DejaVuSans-57"/>
      <use xlink:href="#DejaVuSans-61" x="92.501953"/>
      <use xlink:href="#DejaVuSans-76" x="153.78125"/>
      <use xlink:href="#DejaVuSans-65" x="212.960938"/>
      <use xlink:href="#DejaVuSans-46" x="274.484375"/>
      <use xlink:href="#DejaVuSans-45" x="332.003906"/>
      <use xlink:href="#DejaVuSans-4d" x="395.1875"/>
      <use xlink:href="#DejaVuSans-20" x="481.466797"/>
      <use xlink:href="#DejaVuSans-45" x="513.253906"/>
      <use xlink:href="#DejaVuSans-6c" x="576.4375"/>
      <use xlink:href="#DejaVuSans-65" x="604.220703"/>
      <use xlink:href="#DejaVuSans-76" x="665.744141"/>
      <use xlink:href="#DejaVuSans-61" x="724.923828"/>
      <use xlink:href="#DejaVuSans-74" x="786.203125"/>
      <use xlink:href="#DejaVuSans-69" x="825.412109"/>
      <use xlink:href="#DejaVuSans-6f" x="853.195312"/>
      <use xlink:href="#DejaVuSans-6e" x="914.376953"/>
      <use xlink:href="#DejaVuSans-20" x="977.755859"/>
      <use xlink:href="#DejaVuSans-3a6" x="1009.542969"/>
      <use xlink:href="#DejaVuSans-3d" x="1088.253906"/>
      <use xlink:href="#DejaVuSans-30" x="1172.042969"/>
     </g>
    </g>
    <g id="line2d_31">
     <path d="M 157.193594 278.326187 
L 167.193594 278.326187 
L 177.193594 278.326187 
" style="fill: none; stroke-dasharray: 5.55,2.4; stroke-dashoffset: 0; stroke: #ff0000; stroke-width: 1.5"/>
    </g>
    <g id="text_18">
     <!-- HFSS Elevation Φ=90 -->
     <g transform="translate(185.193594 281.826187) scale(0.1 -0.1)">
      <defs>
       <path id="DejaVuSans-39" d="M 703 97 
L 703 672 
Q 941 559 1184 500 
Q 1428 441 1663 441 
Q 2288 441 2617 861 
Q 2947 1281 2994 2138 
Q 2813 1869 2534 1725 
Q 2256 1581 1919 1581 
Q 1219 1581 811 2004 
Q 403 2428 403 3163 
Q 403 3881 828 4315 
Q 1253 4750 1959 4750 
Q 2769 4750 3195 4129 
Q 3622 3509 3622 2328 
Q 3622 1225 3098 567 
Q 2575 -91 1691 -91 
Q 1453 -91 1209 -44 
Q 966 3 703 97 
z
M 1959 2075 
Q 2384 2075 2632 2365 
Q 2881 2656 2881 3163 
Q 2881 3666 2632 3958 
Q 2384 4250 1959 4250 
Q 1534 4250 1286 3958 
Q 1038 3666 1038 3163 
Q 1038 2656 1286 2365 
Q 1534 2075 1959 2075 
z
" transform="scale(0.015625)"/>
      </defs>
      <use xlink:href="#DejaVuSans-48"/>
      <use xlink:href="#DejaVuSans-46" x="75.195312"/>
      <use xlink:href="#DejaVuSans-53" x="130.964844"/>
      <use xlink:href="#DejaVuSans-53" x="194.441406"/>
      <use xlink:href="#DejaVuSans-20" x="257.917969"/>
      <use xlink:href="#DejaVuSans-45" x="289.705078"/>
      <use xlink:href="#DejaVuSans-6c" x="352.888672"/>
      <use xlink:href="#DejaVuSans-65" x="380.671875"/>
      <use xlink:href="#DejaVuSans-76" x="442.195312"/>
      <use xlink:href="#DejaVuSans-61" x="501.375"/>
      <use xlink:href="#DejaVuSans-74" x="562.654297"/>
      <use xlink:href="#DejaVuSans-69" x="601.863281"/>
      <use xlink:href="#DejaVuSans-6f" x="629.646484"/>
      <use xlink:href="#DejaVuSans-6e" x="690.828125"/>
      <use xlink:href="#DejaVuSans-20" x="754.207031"/>
      <use xlink:href="#DejaVuSans-3a6" x="785.994141"/>
      <use xlink:href="#DejaVuSans-3d" x="864.705078"/>
      <use xlink:href="#DejaVuSans-39" x="948.494141"/>
      <use xlink:href="#DejaVuSans-30" x="1012.117188"/>
     </g>
    </g>
    <g id="line2d_32">
     <path d="M 157.193594 293.004312 
L 167.193594 293.004312 
L 177.193594 293.004312 
" style="fill: none; stroke: #ff0000; stroke-width: 1.5; stroke-linecap: square"/>
    </g>
    <g id="text_19">
     <!-- WaveFEM Elevation Φ=90 -->
     <g transform="translate(185.193594 296.504312) scale(0.1 -0.1)">
      <use xlink:href="#DejaVuSans-57"/>
      <use xlink:href="#DejaVuSans-61" x="92.501953"/>
      <use xlink:href="#DejaVuSans-76" x="153.78125"/>
      <use xlink:href="#DejaVuSans-65" x="212.960938"/>
      <use xlink:href="#DejaVuSans-46" x="274.484375"/>
      <use xlink:href="#DejaVuSans-45" x="332.003906"/>
      <use xlink:href="#DejaVuSans-4d" x="395.1875"/>
      <use xlink:href="#DejaVuSans-20" x="481.466797"/>
      <use xlink:href="#DejaVuSans-45" x="513.253906"/>
      <use xlink:href="#DejaVuSans-6c" x="576.4375"/>
      <use xlink:href="#DejaVuSans-65" x="604.220703"/>
      <use xlink:href="#DejaVuSans-76" x="665.744141"/>
      <use xlink:href="#DejaVuSans-61" x="724.923828"/>
      <use xlink:href="#DejaVuSans-74" x="786.203125"/>
      <use xlink:href="#DejaVuSans-69" x="825.412109"/>
      <use xlink:href="#DejaVuSans-6f" x="853.195312"/>
      <use xlink:href="#DejaVuSans-6e" x="914.376953"/>
      <use xlink:href="#DejaVuSans-20" x="977.755859"/>
      <use xlink:href="#DejaVuSans-3a6" x="1009.542969"/>
      <use xlink:href="#DejaVuSans-3d" x="1088.253906"/>
      <use xlink:href="#DejaVuSans-39" x="1172.042969"/>
      <use xlink:href="#DejaVuSans-30" x="1235.666016"/>
     </g>
    </g>
   </g>
  </g>
 </g>
 <defs>
  <clipPath id="p1378a74d9d">
   <rect x="57.6" y="41.472" width="357.12" height="266.112"/>
  </clipPath>
 </defs>
</svg>
