<?xml version="1.0" encoding="utf-8" standalone="no"?>
<!DOCTYPE svg PUBLIC "-//W3C//DTD SVG 1.1//EN"
  "http://www.w3.org/Graphics/SVG/1.1/DTD/svg11.dtd">
<svg xmlns:xlink="http://www.w3.org/1999/xlink" width="460.8pt" height="345.6pt" viewBox="0 0 460.8 345.6" xmlns="http://www.w3.org/2000/svg" version="1.1">
 <metadata>
  <rdf:RDF xmlns:dc="http://purl.org/dc/elements/1.1/" xmlns:cc="http://creativecommons.org/ns#" xmlns:rdf="http://www.w3.org/1999/02/22-rdf-syntax-ns#">
   <cc:Work>
    <dc:type rdf:resource="http://purl.org/dc/dcmitype/StillImage"/>
    <dc:date>2026-01-20T22:29:11.930592</dc:date>
    <dc:format>image/svg+xml</dc:format>
    <dc:creator>
     <cc:Agent>
      <dc:title>Matplotlib v3.10.8, https://matplotlib.org/</dc:title>
     </cc:Agent>
    </dc:creator>
   </cc:Work>
  </rdf:RDF>
 </metadata>
 <defs>
  <style type="text/css">*{stroke-linejoin: round; stroke-linecap: butt}</style>
 </defs>
 <g id="figure_1">
  <g id="patch_1">
   <path d="M 0 345.6 
L 460.8 345.6 
L 460.8 0 
L 0 0 
z
" style="fill: #ffffff"/>
  </g>
  <g id="axes_1">
   <g id="patch_2">
    <path d="M 57.6 307.584 
L 414.72 307.584 
L 414.72 41.472 
L 57.6 41.472 
z
" style="fill: #ffffff"/>
   </g>
   <g id="matplotlib.axis_1">
    <g id="xtick_1">
     <g id="line2d_1">
      <path d="M 100.887273 307.584 
L 100.887273 41.472 
" clip-path="url(#p2498202298)" style="fill: none; stroke: #b0b0b0; stroke-width: 0.8; stroke-linecap: square"/>
     </g>
     <g id="line2d_2">
      <defs>
       <path id="meaeff17183" d="M 0 0 
L 0 3.5 
" style="stroke: #000000; stroke-width: 0.8"/>
      </defs>
      <g>
       <use xlink:href="#meaeff17183" x="100.887273" y="307.584" style="stroke: #000000; stroke-width: 0.8"/>
      </g>
     </g>
     <g id="text_1">
      <!-- −150 -->
      <g transform="translate(87.153679 322.182437) scale(0.1 -0.1)">
       <defs>
        <path id="DejaVuSans-2212" d="M 678 2272 
L 4684 2272 
L 4684 1741 
L 678 1741 
L 678 2272 
z
" transform="scale(0.015625)"/>
        <path id="DejaVuSans-31" d="M 794 531 
L 1825 531 
L 1825 4091 
L 703 3866 
L 703 4441 
L 1819 4666 
L 2450 4666 
L 2450 531 
L 3481 531 
L 3481 0 
L 794 0 
L 794 531 
z
" transform="scale(0.015625)"/>
        <path id="DejaVuSans-35" d="M 691 4666 
L 3169 4666 
L 3169 4134 
L 1269 4134 
L 1269 2991 
Q 1406 3038 1543 3061 
Q 1681 3084 1819 3084 
Q 2600 3084 3056 2656 
Q 3513 2228 3513 1497 
Q 3513 744 3044 326 
Q 2575 -91 1722 -91 
Q 1428 -91 1123 -41 
Q 819 9 494 109 
L 494 744 
Q 775 591 1075 516 
Q 1375 441 1709 441 
Q 2250 441 2565 725 
Q 2881 1009 2881 1497 
Q 2881 1984 2565 2268 
Q 2250 2553 1709 2553 
Q 1456 2553 1204 2497 
Q 953 2441 691 2322 
L 691 4666 
z
" transform="scale(0.015625)"/>
        <path id="DejaVuSans-30" d="M 2034 4250 
Q 1547 4250 1301 3770 
Q 1056 3291 1056 2328 
Q 1056 1369 1301 889 
Q 1547 409 2034 409 
Q 2525 409 2770 889 
Q 3016 1369 3016 2328 
Q 3016 3291 2770 3770 
Q 2525 4250 2034 4250 
z
M 2034 4750 
Q 2819 4750 3233 4129 
Q 3647 3509 3647 2328 
Q 3647 1150 3233 529 
Q 2819 -91 2034 -91 
Q 1250 -91 836 529 
Q 422 1150 422 2328 
Q 422 3509 836 4129 
Q 1250 4750 2034 4750 
z
" transform="scale(0.015625)"/>
       </defs>
       <use xlink:href="#DejaVuSans-2212"/>
       <use xlink:href="#DejaVuSans-31" transform="translate(83.789062 0)"/>
       <use xlink:href="#DejaVuSans-35" transform="translate(147.412109 0)"/>
       <use xlink:href="#DejaVuSans-30" transform="translate(211.035156 0)"/>
      </g>
     </g>
    </g>
    <g id="xtick_2">
     <g id="line2d_3">
      <path d="M 145.978182 307.584 
L 145.978182 41.472 
" clip-path="url(#p2498202298)" style="fill: none; stroke: #b0b0b0; stroke-width: 0.8; stroke-linecap: square"/>
     </g>
     <g id="line2d_4">
      <g>
       <use xlink:href="#meaeff17183" x="145.978182" y="307.584" style="stroke: #000000; stroke-width: 0.8"/>
      </g>
     </g>
     <g id="text_2">
      <!-- −100 -->
      <g transform="translate(132.244588 322.182437) scale(0.1 -0.1)">
       <use xlink:href="#DejaVuSans-2212"/>
       <use xlink:href="#DejaVuSans-31" transform="translate(83.789062 0)"/>
       <use xlink:href="#DejaVuSans-30" transform="translate(147.412109 0)"/>
       <use xlink:href="#DejaVuSans-30" transform="translate(211.035156 0)"/>
      </g>
     </g>
    </g>
    <g id="xtick_3">
     <g id="line2d_5">
      <path d="M 191.069091 307.584 
L 191.069091 41.472 
" clip-path="url(#p2498202298)" style="fill: none; stroke: #b0b0b0; stroke-width: 0.8; stroke-linecap: square"/>
     </g>
     <g id="line2d_6">
      <g>
       <use xlink:href="#meaeff17183" x="191.069091" y="307.584" style="stroke: #000000; stroke-width: 0.8"/>
      </g>
     </g>
     <g id="text_3">
      <!-- −50 -->
      <g transform="translate(180.516747 322.182437) scale(0.1 -0.1)">
       <use xlink:href="#DejaVuSans-2212"/>
       <use xlink:href="#DejaVuSans-35" transform="translate(83.789062 0)"/>
       <use xlink:href="#DejaVuSans-30" transform="translate(147.412109 0)"/>
      </g>
     </g>
    </g>
    <g id="xtick_4">
     <g id="line2d_7">
      <path d="M 236.16 307.584 
L 236.16 41.472 
" clip-path="url(#p2498202298)" style="fill: none; stroke: #b0b0b0; stroke-width: 0.8; stroke-linecap: square"/>
     </g>
     <g id="line2d_8">
      <g>
       <use xlink:href="#meaeff17183" x="236.16" y="307.584" style="stroke: #000000; stroke-width: 0.8"/>
      </g>
     </g>
     <g id="text_4">
      <!-- 0 -->
      <g transform="translate(232.97875 322.182437) scale(0.1 -0.1)">
       <use xlink:href="#DejaVuSans-30"/>
      </g>
     </g>
    </g>
    <g id="xtick_5">
     <g id="line2d_9">
      <path d="M 281.250909 307.584 
L 281.250909 41.472 
" clip-path="url(#p2498202298)" style="fill: none; stroke: #b0b0b0; stroke-width: 0.8; stroke-linecap: square"/>
     </g>
     <g id="line2d_10">
      <g>
       <use xlink:href="#meaeff17183" x="281.250909" y="307.584" style="stroke: #000000; stroke-width: 0.8"/>
      </g>
     </g>
     <g id="text_5">
      <!-- 50 -->
      <g transform="translate(274.888409 322.182437) scale(0.1 -0.1)">
       <use xlink:href="#DejaVuSans-35"/>
       <use xlink:href="#DejaVuSans-30" transform="translate(63.623047 0)"/>
      </g>
     </g>
    </g>
    <g id="xtick_6">
     <g id="line2d_11">
      <path d="M 326.341818 307.584 
L 326.341818 41.472 
" clip-path="url(#p2498202298)" style="fill: none; stroke: #b0b0b0; stroke-width: 0.8; stroke-linecap: square"/>
     </g>
     <g id="line2d_12">
      <g>
       <use xlink:href="#meaeff17183" x="326.341818" y="307.584" style="stroke: #000000; stroke-width: 0.8"/>
      </g>
     </g>
     <g id="text_6">
      <!-- 100 -->
      <g transform="translate(316.798068 322.182437) scale(0.1 -0.1)">
       <use xlink:href="#DejaVuSans-31"/>
       <use xlink:href="#DejaVuSans-30" transform="translate(63.623047 0)"/>
       <use xlink:href="#DejaVuSans-30" transform="translate(127.246094 0)"/>
      </g>
     </g>
    </g>
    <g id="xtick_7">
     <g id="line2d_13">
      <path d="M 371.432727 307.584 
L 371.432727 41.472 
" clip-path="url(#p2498202298)" style="fill: none; stroke: #b0b0b0; stroke-width: 0.8; stroke-linecap: square"/>
     </g>
     <g id="line2d_14">
      <g>
       <use xlink:href="#meaeff17183" x="371.432727" y="307.584" style="stroke: #000000; stroke-width: 0.8"/>
      </g>
     </g>
     <g id="text_7">
      <!-- 150 -->
      <g transform="translate(361.888977 322.182437) scale(0.1 -0.1)">
       <use xlink:href="#DejaVuSans-31"/>
       <use xlink:href="#DejaVuSans-35" transform="translate(63.623047 0)"/>
       <use xlink:href="#DejaVuSans-30" transform="translate(127.246094 0)"/>
      </g>
     </g>
    </g>
    <g id="text_8">
     <!-- Angle (deg) -->
     <g transform="translate(207.015469 335.860562) scale(0.1 -0.1)">
      <defs>
       <path id="DejaVuSans-41" d="M 2188 4044 
L 1331 1722 
L 3047 1722 
L 2188 4044 
z
M 1831 4666 
L 2547 4666 
L 4325 0 
L 3669 0 
L 3244 1197 
L 1141 1197 
L 716 0 
L 50 0 
L 1831 4666 
z
" transform="scale(0.015625)"/>
       <path id="DejaVuSans-6e" d="M 3513 2113 
L 3513 0 
L 2938 0 
L 2938 2094 
Q 2938 2591 2744 2837 
Q 2550 3084 2163 3084 
Q 1697 3084 1428 2787 
Q 1159 2491 1159 1978 
L 1159 0 
L 581 0 
L 581 3500 
L 1159 3500 
L 1159 2956 
Q 1366 3272 1645 3428 
Q 1925 3584 2291 3584 
Q 2894 3584 3203 3211 
Q 3513 2838 3513 2113 
z
" transform="scale(0.015625)"/>
       <path id="DejaVuSans-67" d="M 2906 1791 
Q 2906 2416 2648 2759 
Q 2391 3103 1925 3103 
Q 1463 3103 1205 2759 
Q 947 2416 947 1791 
Q 947 1169 1205 825 
Q 1463 481 1925 481 
Q 2391 481 2648 825 
Q 2906 1169 2906 1791 
z
M 3481 434 
Q 3481 -459 3084 -895 
Q 2688 -1331 1869 -1331 
Q 1566 -1331 1297 -1286 
Q 1028 -1241 775 -1147 
L 775 -588 
Q 1028 -725 1275 -790 
Q 1522 -856 1778 -856 
Q 2344 -856 2625 -561 
Q 2906 -266 2906 331 
L 2906 616 
Q 2728 306 2450 153 
Q 2172 0 1784 0 
Q 1141 0 747 490 
Q 353 981 353 1791 
Q 353 2603 747 3093 
Q 1141 3584 1784 3584 
Q 2172 3584 2450 3431 
Q 2728 3278 2906 2969 
L 2906 3500 
L 3481 3500 
L 3481 434 
z
" transform="scale(0.015625)"/>
       <path id="DejaVuSans-6c" d="M 603 4863 
L 1178 4863 
L 1178 0 
L 603 0 
L 603 4863 
z
" transform="scale(0.015625)"/>
       <path id="DejaVuSans-65" d="M 3597 1894 
L 3597 1613 
L 953 1613 
Q 991 1019 1311 708 
Q 1631 397 2203 397 
Q 2534 397 2845 478 
Q 3156 559 3463 722 
L 3463 178 
Q 3153 47 2828 -22 
Q 2503 -91 2169 -91 
Q 1331 -91 842 396 
Q 353 884 353 1716 
Q 353 2575 817 3079 
Q 1281 3584 2069 3584 
Q 2775 3584 3186 3129 
Q 3597 2675 3597 1894 
z
M 3022 2063 
Q 3016 2534 2758 2815 
Q 2500 3097 2075 3097 
Q 1594 3097 1305 2825 
Q 1016 2553 972 2059 
L 3022 2063 
z
" transform="scale(0.015625)"/>
       <path id="DejaVuSans-20" transform="scale(0.015625)"/>
       <path id="DejaVuSans-28" d="M 1984 4856 
Q 1566 4138 1362 3434 
Q 1159 2731 1159 2009 
Q 1159 1288 1364 580 
Q 1569 -128 1984 -844 
L 1484 -844 
Q 1016 -109 783 600 
Q 550 1309 550 2009 
Q 550 2706 781 3412 
Q 1013 4119 1484 4856 
L 1984 4856 
z
" transform="scale(0.015625)"/>
       <path id="DejaVuSans-64" d="M 2906 2969 
L 2906 4863 
L 3481 4863 
L 3481 0 
L 2906 0 
L 2906 525 
Q 2725 213 2448 61 
Q 2172 -91 1784 -91 
Q 1150 -91 751 415 
Q 353 922 353 1747 
Q 353 2572 751 3078 
Q 1150 3584 1784 3584 
Q 2172 3584 2448 3432 
Q 2725 3281 2906 2969 
z
M 947 1747 
Q 947 1113 1208 752 
Q 1469 391 1925 391 
Q 2381 391 2643 752 
Q 2906 1113 2906 1747 
Q 2906 2381 2643 2742 
Q 2381 3103 1925 3103 
Q 1469 3103 1208 2742 
Q 947 2381 947 1747 
z
" transform="scale(0.015625)"/>
       <path id="DejaVuSans-29" d="M 513 4856 
L 1013 4856 
Q 1481 4119 1714 3412 
Q 1947 2706 1947 2009 
Q 1947 1309 1714 600 
Q 1481 -109 1013 -844 
L 513 -844 
Q 928 -128 1133 580 
Q 1338 1288 1338 2009 
Q 1338 2731 1133 3434 
Q 928 4138 513 4856 
z
" transform="scale(0.015625)"/>
      </defs>
      <use xlink:href="#DejaVuSans-41"/>
      <use xlink:href="#DejaVuSans-6e" transform="translate(68.408203 0)"/>
      <use xlink:href="#DejaVuSans-67" transform="translate(131.787109 0)"/>
      <use xlink:href="#DejaVuSans-6c" transform="translate(195.263672 0)"/>
      <use xlink:href="#DejaVuSans-65" transform="translate(223.046875 0)"/>
      <use xlink:href="#DejaVuSans-20" transform="translate(284.570312 0)"/>
      <use xlink:href="#DejaVuSans-28" transform="translate(316.357422 0)"/>
      <use xlink:href="#DejaVuSans-64" transform="translate(355.371094 0)"/>
      <use xlink:href="#DejaVuSans-65" transform="translate(418.847656 0)"/>
      <use xlink:href="#DejaVuSans-67" transform="translate(480.371094 0)"/>
      <use xlink:href="#DejaVuSans-29" transform="translate(543.847656 0)"/>
     </g>
    </g>
   </g>
   <g id="matplotlib.axis_2">
    <g id="ytick_1">
     <g id="line2d_15">
      <path d="M 57.6 304.2724 
L 414.72 304.2724 
" clip-path="url(#p2498202298)" style="fill: none; stroke: #b0b0b0; stroke-width: 0.8; stroke-linecap: square"/>
     </g>
     <g id="line2d_16">
      <defs>
       <path id="m36c4cc4c8a" d="M 0 0 
L -3.5 0 
" style="stroke: #000000; stroke-width: 0.8"/>
      </defs>
      <g>
       <use xlink:href="#m36c4cc4c8a" x="57.6" y="304.2724" style="stroke: #000000; stroke-width: 0.8"/>
      </g>
     </g>
     <g id="text_9">
      <!-- −50 -->
      <g transform="translate(29.495313 308.071619) scale(0.1 -0.1)">
       <use xlink:href="#DejaVuSans-2212"/>
       <use xlink:href="#DejaVuSans-35" transform="translate(83.789062 0)"/>
       <use xlink:href="#DejaVuSans-30" transform="translate(147.412109 0)"/>
      </g>
     </g>
    </g>
    <g id="ytick_2">
     <g id="line2d_17">
      <path d="M 57.6 260.97677 
L 414.72 260.97677 
" clip-path="url(#p2498202298)" style="fill: none; stroke: #b0b0b0; stroke-width: 0.8; stroke-linecap: square"/>
     </g>
     <g id="line2d_18">
      <g>
       <use xlink:href="#m36c4cc4c8a" x="57.6" y="260.97677" style="stroke: #000000; stroke-width: 0.8"/>
      </g>
     </g>
     <g id="text_10">
      <!-- −40 -->
      <g transform="translate(29.495313 264.775988) scale(0.1 -0.1)">
       <defs>
        <path id="DejaVuSans-34" d="M 2419 4116 
L 825 1625 
L 2419 1625 
L 2419 4116 
z
M 2253 4666 
L 3047 4666 
L 3047 1625 
L 3713 1625 
L 3713 1100 
L 3047 1100 
L 3047 0 
L 2419 0 
L 2419 1100 
L 313 1100 
L 313 1709 
L 2253 4666 
z
" transform="scale(0.015625)"/>
       </defs>
       <use xlink:href="#DejaVuSans-2212"/>
       <use xlink:href="#DejaVuSans-34" transform="translate(83.789062 0)"/>
       <use xlink:href="#DejaVuSans-30" transform="translate(147.412109 0)"/>
      </g>
     </g>
    </g>
    <g id="ytick_3">
     <g id="line2d_19">
      <path d="M 57.6 217.681139 
L 414.72 217.681139 
" clip-path="url(#p2498202298)" style="fill: none; stroke: #b0b0b0; stroke-width: 0.8; stroke-linecap: square"/>
     </g>
     <g id="line2d_20">
      <g>
       <use xlink:href="#m36c4cc4c8a" x="57.6" y="217.681139" style="stroke: #000000; stroke-width: 0.8"/>
      </g>
     </g>
     <g id="text_11">
      <!-- −30 -->
      <g transform="translate(29.495313 221.480358) scale(0.1 -0.1)">
       <defs>
        <path id="DejaVuSans-33" d="M 2597 2516 
Q 3050 2419 3304 2112 
Q 3559 1806 3559 1356 
Q 3559 666 3084 287 
Q 2609 -91 1734 -91 
Q 1441 -91 1130 -33 
Q 819 25 488 141 
L 488 750 
Q 750 597 1062 519 
Q 1375 441 1716 441 
Q 2309 441 2620 675 
Q 2931 909 2931 1356 
Q 2931 1769 2642 2001 
Q 2353 2234 1838 2234 
L 1294 2234 
L 1294 2753 
L 1863 2753 
Q 2328 2753 2575 2939 
Q 2822 3125 2822 3475 
Q 2822 3834 2567 4026 
Q 2313 4219 1838 4219 
Q 1578 4219 1281 4162 
Q 984 4106 628 3988 
L 628 4550 
Q 988 4650 1302 4700 
Q 1616 4750 1894 4750 
Q 2613 4750 3031 4423 
Q 3450 4097 3450 3541 
Q 3450 3153 3228 2886 
Q 3006 2619 2597 2516 
z
" transform="scale(0.015625)"/>
       </defs>
       <use xlink:href="#DejaVuSans-2212"/>
       <use xlink:href="#DejaVuSans-33" transform="translate(83.789062 0)"/>
       <use xlink:href="#DejaVuSans-30" transform="translate(147.412109 0)"/>
      </g>
     </g>
    </g>
    <g id="ytick_4">
     <g id="line2d_21">
      <path d="M 57.6 174.385509 
L 414.72 174.385509 
" clip-path="url(#p2498202298)" style="fill: none; stroke: #b0b0b0; stroke-width: 0.8; stroke-linecap: square"/>
     </g>
     <g id="line2d_22">
      <g>
       <use xlink:href="#m36c4cc4c8a" x="57.6" y="174.385509" style="stroke: #000000; stroke-width: 0.8"/>
      </g>
     </g>
     <g id="text_12">
      <!-- −20 -->
      <g transform="translate(29.495313 178.184727) scale(0.1 -0.1)">
       <defs>
        <path id="DejaVuSans-32" d="M 1228 531 
L 3431 531 
L 3431 0 
L 469 0 
L 469 531 
Q 828 903 1448 1529 
Q 2069 2156 2228 2338 
Q 2531 2678 2651 2914 
Q 2772 3150 2772 3378 
Q 2772 3750 2511 3984 
Q 2250 4219 1831 4219 
Q 1534 4219 1204 4116 
Q 875 4013 500 3803 
L 500 4441 
Q 881 4594 1212 4672 
Q 1544 4750 1819 4750 
Q 2544 4750 2975 4387 
Q 3406 4025 3406 3419 
Q 3406 3131 3298 2873 
Q 3191 2616 2906 2266 
Q 2828 2175 2409 1742 
Q 1991 1309 1228 531 
z
" transform="scale(0.015625)"/>
       </defs>
       <use xlink:href="#DejaVuSans-2212"/>
       <use xlink:href="#DejaVuSans-32" transform="translate(83.789062 0)"/>
       <use xlink:href="#DejaVuSans-30" transform="translate(147.412109 0)"/>
      </g>
     </g>
    </g>
    <g id="ytick_5">
     <g id="line2d_23">
      <path d="M 57.6 131.089878 
L 414.72 131.089878 
" clip-path="url(#p2498202298)" style="fill: none; stroke: #b0b0b0; stroke-width: 0.8; stroke-linecap: square"/>
     </g>
     <g id="line2d_24">
      <g>
       <use xlink:href="#m36c4cc4c8a" x="57.6" y="131.089878" style="stroke: #000000; stroke-width: 0.8"/>
      </g>
     </g>
     <g id="text_13">
      <!-- −10 -->
      <g transform="translate(29.495313 134.889097) scale(0.1 -0.1)">
       <use xlink:href="#DejaVuSans-2212"/>
       <use xlink:href="#DejaVuSans-31" transform="translate(83.789062 0)"/>
       <use xlink:href="#DejaVuSans-30" transform="translate(147.412109 0)"/>
      </g>
     </g>
    </g>
    <g id="ytick_6">
     <g id="line2d_25">
      <path d="M 57.6 87.794248 
L 414.72 87.794248 
" clip-path="url(#p2498202298)" style="fill: none; stroke: #b0b0b0; stroke-width: 0.8; stroke-linecap: square"/>
     </g>
     <g id="line2d_26">
      <g>
       <use xlink:href="#m36c4cc4c8a" x="57.6" y="87.794248" style="stroke: #000000; stroke-width: 0.8"/>
      </g>
     </g>
     <g id="text_14">
      <!-- 0 -->
      <g transform="translate(44.2375 91.593466) scale(0.1 -0.1)">
       <use xlink:href="#DejaVuSans-30"/>
      </g>
     </g>
    </g>
    <g id="ytick_7">
     <g id="line2d_27">
      <path d="M 57.6 44.498617 
L 414.72 44.498617 
" clip-path="url(#p2498202298)" style="fill: none; stroke: #b0b0b0; stroke-width: 0.8; stroke-linecap: square"/>
     </g>
     <g id="line2d_28">
      <g>
       <use xlink:href="#m36c4cc4c8a" x="57.6" y="44.498617" style="stroke: #000000; stroke-width: 0.8"/>
      </g>
     </g>
     <g id="text_15">
      <!-- 10 -->
      <g transform="translate(37.875 48.297836) scale(0.1 -0.1)">
       <use xlink:href="#DejaVuSans-31"/>
       <use xlink:href="#DejaVuSans-30" transform="translate(63.623047 0)"/>
      </g>
     </g>
    </g>
    <g id="text_16">
     <!-- Directivity (dB) -->
     <g transform="translate(23.415625 212.248312) rotate(-90) scale(0.1 -0.1)">
      <defs>
       <path id="DejaVuSans-44" d="M 1259 4147 
L 1259 519 
L 2022 519 
Q 2988 519 3436 956 
Q 3884 1394 3884 2338 
Q 3884 3275 3436 3711 
Q 2988 4147 2022 4147 
L 1259 4147 
z
M 628 4666 
L 1925 4666 
Q 3281 4666 3915 4102 
Q 4550 3538 4550 2338 
Q 4550 1131 3912 565 
Q 3275 0 1925 0 
L 628 0 
L 628 4666 
z
" transform="scale(0.015625)"/>
       <path id="DejaVuSans-69" d="M 603 3500 
L 1178 3500 
L 1178 0 
L 603 0 
L 603 3500 
z
M 603 4863 
L 1178 4863 
L 1178 4134 
L 603 4134 
L 603 4863 
z
" transform="scale(0.015625)"/>
       <path id="DejaVuSans-72" d="M 2631 2963 
Q 2534 3019 2420 3045 
Q 2306 3072 2169 3072 
Q 1681 3072 1420 2755 
Q 1159 2438 1159 1844 
L 1159 0 
L 581 0 
L 581 3500 
L 1159 3500 
L 1159 2956 
Q 1341 3275 1631 3429 
Q 1922 3584 2338 3584 
Q 2397 3584 2469 3576 
Q 2541 3569 2628 3553 
L 2631 2963 
z
" transform="scale(0.015625)"/>
       <path id="DejaVuSans-63" d="M 3122 3366 
L 3122 2828 
Q 2878 2963 2633 3030 
Q 2388 3097 2138 3097 
Q 1578 3097 1268 2742 
Q 959 2388 959 1747 
Q 959 1106 1268 751 
Q 1578 397 2138 397 
Q 2388 397 2633 464 
Q 2878 531 3122 666 
L 3122 134 
Q 2881 22 2623 -34 
Q 2366 -91 2075 -91 
Q 1284 -91 818 406 
Q 353 903 353 1747 
Q 353 2603 823 3093 
Q 1294 3584 2113 3584 
Q 2378 3584 2631 3529 
Q 2884 3475 3122 3366 
z
" transform="scale(0.015625)"/>
       <path id="DejaVuSans-74" d="M 1172 4494 
L 1172 3500 
L 2356 3500 
L 2356 3053 
L 1172 3053 
L 1172 1153 
Q 1172 725 1289 603 
Q 1406 481 1766 481 
L 2356 481 
L 2356 0 
L 1766 0 
Q 1100 0 847 248 
Q 594 497 594 1153 
L 594 3053 
L 172 3053 
L 172 3500 
L 594 3500 
L 594 4494 
L 1172 4494 
z
" transform="scale(0.015625)"/>
       <path id="DejaVuSans-76" d="M 191 3500 
L 800 3500 
L 1894 563 
L 2988 3500 
L 3597 3500 
L 2284 0 
L 1503 0 
L 191 3500 
z
" transform="scale(0.015625)"/>
       <path id="DejaVuSans-79" d="M 2059 -325 
Q 1816 -950 1584 -1140 
Q 1353 -1331 966 -1331 
L 506 -1331 
L 506 -850 
L 844 -850 
Q 1081 -850 1212 -737 
Q 1344 -625 1503 -206 
L 1606 56 
L 191 3500 
L 800 3500 
L 1894 763 
L 2988 3500 
L 3597 3500 
L 2059 -325 
z
" transform="scale(0.015625)"/>
       <path id="DejaVuSans-42" d="M 1259 2228 
L 1259 519 
L 2272 519 
Q 2781 519 3026 730 
Q 3272 941 3272 1375 
Q 3272 1813 3026 2020 
Q 2781 2228 2272 2228 
L 1259 2228 
z
M 1259 4147 
L 1259 2741 
L 2194 2741 
Q 2656 2741 2882 2914 
Q 3109 3088 3109 3444 
Q 3109 3797 2882 3972 
Q 2656 4147 2194 4147 
L 1259 4147 
z
M 628 4666 
L 2241 4666 
Q 2963 4666 3353 4366 
Q 3744 4066 3744 3513 
Q 3744 3084 3544 2831 
Q 3344 2578 2956 2516 
Q 3422 2416 3680 2098 
Q 3938 1781 3938 1306 
Q 3938 681 3513 340 
Q 3088 0 2303 0 
L 628 0 
L 628 4666 
z
" transform="scale(0.015625)"/>
      </defs>
      <use xlink:href="#DejaVuSans-44"/>
      <use xlink:href="#DejaVuSans-69" transform="translate(77.001953 0)"/>
      <use xlink:href="#DejaVuSans-72" transform="translate(104.785156 0)"/>
      <use xlink:href="#DejaVuSans-65" transform="translate(143.648438 0)"/>
      <use xlink:href="#DejaVuSans-63" transform="translate(205.171875 0)"/>
      <use xlink:href="#DejaVuSans-74" transform="translate(260.152344 0)"/>
      <use xlink:href="#DejaVuSans-69" transform="translate(299.361328 0)"/>
      <use xlink:href="#DejaVuSans-76" transform="translate(327.144531 0)"/>
      <use xlink:href="#DejaVuSans-69" transform="translate(386.324219 0)"/>
      <use xlink:href="#DejaVuSans-74" transform="translate(414.107422 0)"/>
      <use xlink:href="#DejaVuSans-79" transform="translate(453.316406 0)"/>
      <use xlink:href="#DejaVuSans-20" transform="translate(512.496094 0)"/>
      <use xlink:href="#DejaVuSans-28" transform="translate(544.283203 0)"/>
      <use xlink:href="#DejaVuSans-64" transform="translate(583.296875 0)"/>
      <use xlink:href="#DejaVuSans-42" transform="translate(646.773438 0)"/>
      <use xlink:href="#DejaVuSans-29" transform="translate(715.376953 0)"/>
     </g>
    </g>
   </g>
   <g id="line2d_29">
    <path d="M 73.832727 150.89556 
L 75.636364 151.661787 
L 77.44 152.766049 
L 79.243636 154.252641 
L 81.047273 156.168305 
L 82.850909 158.566925 
L 84.654545 161.515635 
L 86.458182 165.103668 
L 88.261818 169.456483 
L 90.065455 174.760463 
L 91.869091 181.310346 
L 92.770909 185.197093 
L 93.672727 189.611317 
L 94.574545 194.689749 
L 95.476364 200.635714 
L 96.378182 207.770113 
L 97.28 216.642529 
L 98.181818 228.313018 
L 99.083636 245.250049 
L 99.985455 275.359755 
L 100.887273 295.488 
L 101.789091 254.816891 
L 102.690909 234.270065 
L 103.592727 220.972697 
L 104.494545 211.180033 
L 105.396364 203.447101 
L 106.298182 197.069733 
L 107.2 191.652426 
L 109.003636 182.803594 
L 110.807273 175.752895 
L 112.610909 169.913665 
L 114.414545 164.944475 
L 116.218182 160.628433 
L 118.021818 156.81873 
L 119.825455 153.411046 
L 122.530909 148.889874 
L 125.236364 144.915021 
L 127.941818 141.352855 
L 130.647273 138.103773 
L 134.254545 134.126908 
L 138.763636 129.531276 
L 145.978182 122.580389 
L 156.8 112.145004 
L 164.916364 103.994627 
L 189.265455 79.260625 
L 194.676364 74.21393 
L 199.185455 70.281842 
L 203.694545 66.657673 
L 207.301818 64.016044 
L 210.909091 61.631186 
L 214.516364 59.526154 
L 218.123636 57.721071 
L 221.730909 56.232714 
L 224.436364 55.332341 
L 227.141818 54.621725 
L 229.847273 54.103751 
L 232.552727 53.780053 
L 235.258182 53.651005 
L 237.963636 53.715733 
L 240.669091 53.972128 
L 243.374545 54.416869 
L 246.08 55.045455 
L 248.785455 55.852248 
L 252.392727 57.193408 
L 256 58.820576 
L 259.607273 60.71215 
L 263.214545 62.844061 
L 267.723636 65.807003 
L 272.232727 69.050136 
L 277.643636 73.2306 
L 284.858182 79.121699 
L 298.385455 90.264192 
L 303.796364 94.417414 
L 308.305455 97.621712 
L 312.814545 100.543594 
L 317.323636 103.162632 
L 321.832727 105.490012 
L 326.341818 107.571594 
L 333.556364 110.597408 
L 340.770909 113.655345 
L 345.28 115.822461 
L 348.887273 117.811284 
L 352.494545 120.103549 
L 355.2 122.062245 
L 357.905455 124.253847 
L 360.610909 126.696622 
L 363.316364 129.397497 
L 366.923636 133.374261 
L 372.334545 139.835592 
L 375.941818 143.974922 
L 377.745455 145.794145 
L 379.549091 147.34774 
L 381.352727 148.578558 
L 383.156364 149.459652 
L 384.96 150.003014 
L 386.763636 150.259039 
L 389.469091 150.282282 
L 393.978182 150.14417 
L 395.781818 150.278364 
L 397.585455 150.625039 
L 398.487273 150.89556 
L 398.487273 150.89556 
" clip-path="url(#p2498202298)" style="fill: none; stroke-dasharray: 5.55,2.4; stroke-dashoffset: 0; stroke: #0000ff; stroke-width: 1.5"/>
   </g>
   <g id="line2d_30">
    <path d="M 73.832727 143.765109 
L 75.641388 144.121707 
L 77.450048 144.70938 
L 79.258709 145.551001 
L 81.067369 146.668849 
L 82.876029 148.086045 
L 84.68469 149.828008 
L 86.49335 151.924028 
L 88.302011 154.409022 
L 90.110671 157.325528 
L 91.919331 160.725853 
L 93.727992 164.673853 
L 95.536652 169.244552 
L 97.345313 174.515921 
L 99.153973 180.535731 
L 103.675624 197.056668 
L 104.579954 199.441615 
L 105.484285 200.830694 
L 106.388615 200.970169 
L 107.292945 199.833227 
L 108.197275 197.635107 
L 109.101605 194.717014 
L 114.527587 175.038147 
L 116.336247 169.560526 
L 118.144908 164.7195 
L 119.953568 160.425689 
L 121.762228 156.59115 
L 123.570889 153.139117 
L 126.283879 148.539865 
L 128.99687 144.483225 
L 131.709861 140.834394 
L 135.327182 136.424779 
L 139.848833 131.385566 
L 146.179144 124.761038 
L 160.648427 109.724255 
L 173.30905 96.096057 
L 182.352352 86.481113 
L 188.682664 80.06505 
L 194.108645 74.899322 
L 198.630296 70.896647 
L 203.151947 67.218833 
L 206.769268 64.539696 
L 210.386589 62.116504 
L 214.00391 59.967621 
L 217.621231 58.109328 
L 221.238552 56.555626 
L 223.951542 55.597272 
L 226.664533 54.820697 
L 229.377523 54.228943 
L 232.090514 53.824162 
L 234.803505 53.607604 
L 237.516495 53.579596 
L 240.229486 53.739542 
L 242.942477 54.085916 
L 245.655467 54.616263 
L 248.368458 55.327205 
L 251.985779 56.54849 
L 255.6031 58.070366 
L 259.22042 59.87724 
L 262.837741 61.950663 
L 266.455062 64.269337 
L 270.976713 67.475513 
L 275.498364 70.973576 
L 280.924345 75.471239 
L 288.158987 81.783258 
L 299.91528 92.062252 
L 305.341261 96.500522 
L 309.862912 99.935809 
L 314.384563 103.087349 
L 318.906214 105.940355 
L 323.427865 108.510133 
L 328.853847 111.287809 
L 337.897149 115.5554 
L 343.32313 118.218735 
L 347.844781 120.695415 
L 351.462102 122.935286 
L 355.079423 125.461345 
L 358.696743 128.301077 
L 362.314064 131.438773 
L 373.166027 141.201421 
L 374.974687 142.487354 
L 376.783348 143.548713 
L 378.592008 144.351404 
L 380.400669 144.880891 
L 382.209329 145.146026 
L 384.017989 145.17841 
L 386.73098 144.902044 
L 394.869952 143.641881 
L 396.678612 143.614664 
L 398.487273 143.765109 
L 398.487273 143.765109 
" clip-path="url(#p2498202298)" style="fill: none; stroke: #0000ff; stroke-width: 1.5; stroke-linecap: square"/>
   </g>
   <g id="line2d_31">
    <path d="M 73.832727 150.89556 
L 75.636364 150.999182 
L 77.44 151.321466 
L 79.243636 151.857375 
L 81.047273 152.592848 
L 83.752727 154.015075 
L 87.36 156.295465 
L 90.967273 158.594112 
L 92.770909 159.581392 
L 94.574545 160.377415 
L 96.378182 160.94006 
L 98.181818 161.252919 
L 99.985455 161.327842 
L 101.789091 161.201441 
L 104.494545 160.7531 
L 110.807273 159.500354 
L 113.512727 159.224171 
L 116.218182 159.207505 
L 118.923636 159.44647 
L 122.530909 160.045147 
L 126.138182 160.639518 
L 127.941818 160.761848 
L 129.745455 160.648695 
L 131.549091 160.206295 
L 133.352727 159.353228 
L 135.156364 158.036304 
L 136.96 156.242351 
L 138.763636 154.000511 
L 140.567273 151.373929 
L 143.272727 146.894056 
L 146.88 140.345004 
L 154.996364 125.363809 
L 159.505455 117.566992 
L 164.014545 110.292109 
L 167.621818 104.848399 
L 172.130909 98.492216 
L 176.64 92.605211 
L 181.149091 87.159029 
L 185.658182 82.130957 
L 190.167273 77.504469 
L 193.774545 74.08522 
L 197.381818 70.913679 
L 200.989091 67.989821 
L 204.596364 65.316086 
L 208.203636 62.897221 
L 211.810909 60.739942 
L 215.418182 58.852409 
L 219.025455 57.243547 
L 222.632727 55.922286 
L 226.24 54.896828 
L 228.945455 54.326032 
L 231.650909 53.927728 
L 234.356364 53.703477 
L 237.061818 53.654146 
L 239.767273 53.779905 
L 242.472727 54.080245 
L 245.178182 54.554037 
L 247.883636 55.199593 
L 251.490909 56.323749 
L 255.098182 57.743342 
L 258.705455 59.451673 
L 262.312727 61.441924 
L 265.92 63.707699 
L 269.527273 66.243507 
L 273.134545 69.045159 
L 276.741818 72.110052 
L 280.349091 75.437362 
L 283.956364 79.028202 
L 287.563636 82.885833 
L 291.170909 87.016013 
L 294.778182 91.427513 
L 298.385455 96.132765 
L 301.992727 101.148456 
L 305.6 106.495664 
L 309.207273 112.198746 
L 312.814545 118.28135 
L 316.421818 124.756234 
L 320.930909 133.362334 
L 329.047273 149.210259 
L 330.850909 152.359358 
L 332.654545 155.15133 
L 334.458182 157.469414 
L 336.261818 159.222606 
L 337.163636 159.872349 
L 338.065455 160.370776 
L 338.967273 160.722995 
L 339.869091 160.937848 
L 341.672727 161.005335 
L 343.476364 160.690086 
L 345.28 160.118061 
L 348.887273 158.643605 
L 352.494545 157.245093 
L 355.2 156.462837 
L 357.905455 155.982999 
L 360.610909 155.818798 
L 363.316364 155.945484 
L 366.021818 156.302535 
L 374.138182 157.612808 
L 375.941818 157.670413 
L 377.745455 157.556533 
L 379.549091 157.253946 
L 381.352727 156.765721 
L 384.058182 155.742001 
L 393.076364 151.819925 
L 394.88 151.322029 
L 396.683636 151.007123 
L 398.487273 150.89556 
L 398.487273 150.89556 
" clip-path="url(#p2498202298)" style="fill: none; stroke-dasharray: 5.55,2.4; stroke-dashoffset: 0; stroke: #ff0000; stroke-width: 1.5"/>
   </g>
   <g id="line2d_32">
    <path d="M 73.832727 143.765109 
L 77.450048 143.626561 
L 81.067369 143.773735 
L 83.78036 144.079332 
L 86.49335 144.558226 
L 89.206341 145.215664 
L 91.919331 146.056883 
L 94.632322 147.087369 
L 97.345313 148.313283 
L 100.058303 149.741954 
L 102.771294 151.382292 
L 105.484285 153.244763 
L 108.197275 155.340272 
L 110.910266 157.676698 
L 113.623257 160.250704 
L 117.240577 163.989416 
L 121.762228 168.715481 
L 123.570889 170.333167 
L 125.379549 171.557821 
L 126.283879 171.958677 
L 127.18821 172.183621 
L 128.09254 172.209113 
L 128.99687 172.016326 
L 129.9012 171.593147 
L 130.805531 170.935589 
L 131.709861 170.048301 
L 132.614191 168.944033 
L 134.422851 166.166893 
L 136.231512 162.802465 
L 138.944502 157.103843 
L 147.083474 139.377945 
L 150.700795 132.120458 
L 154.318116 125.369638 
L 157.935437 119.094049 
L 161.552758 113.244615 
L 165.170079 107.771977 
L 168.787399 102.632664 
L 173.30905 96.623479 
L 177.830701 91.026899 
L 182.352352 85.807605 
L 186.874004 80.945741 
L 191.395655 76.434612 
L 195.917306 72.278209 
L 199.534626 69.216385 
L 203.151947 66.397949 
L 206.769268 63.832983 
L 210.386589 61.532094 
L 214.00391 59.505738 
L 217.621231 57.763681 
L 221.238552 56.314619 
L 224.855872 55.165949 
L 227.568863 54.505233 
L 230.281854 54.018883 
L 232.994844 53.708444 
L 235.707835 53.575021 
L 238.420826 53.619278 
L 241.133816 53.841431 
L 243.846807 54.241239 
L 246.559797 54.817984 
L 249.272788 55.570441 
L 252.890109 56.843941 
L 256.50743 58.420967 
L 260.124751 60.294102 
L 263.742071 62.454287 
L 267.359392 64.891089 
L 270.976713 67.59315 
L 274.594034 70.54883 
L 278.211355 73.747012 
L 282.733006 78.07127 
L 287.254657 82.746368 
L 291.776308 87.768204 
L 296.297959 93.144555 
L 300.81961 98.897524 
L 305.341261 105.065575 
L 308.958582 110.336099 
L 312.575903 115.945227 
L 316.193224 121.936906 
L 319.810544 128.358661 
L 323.427865 135.252691 
L 327.045186 142.632686 
L 331.566837 152.414214 
L 336.088488 162.157491 
L 337.897149 165.678434 
L 339.705809 168.727966 
L 341.514469 171.111978 
L 342.4188 172.003111 
L 343.32313 172.676368 
L 344.22746 173.127616 
L 345.13179 173.360477 
L 346.036121 173.38589 
L 346.940451 173.220884 
L 347.844781 172.886842 
L 349.653441 171.807637 
L 351.462102 170.338618 
L 354.175092 167.753416 
L 360.505404 161.555958 
L 364.122725 158.401371 
L 367.740046 155.613126 
L 371.357366 153.173063 
L 374.974687 151.049979 
L 378.592008 149.215874 
L 382.209329 147.650607 
L 385.82665 146.342189 
L 389.443971 145.285764 
L 393.061291 144.48235 
L 396.678612 143.937657 
L 398.487273 143.765109 
L 398.487273 143.765109 
" clip-path="url(#p2498202298)" style="fill: none; stroke: #ff0000; stroke-width: 1.5; stroke-linecap: square"/>
   </g>
   <g id="patch_3">
    <path d="M 57.6 307.584 
L 57.6 41.472 
" style="fill: none; stroke: #000000; stroke-width: 0.8; stroke-linejoin: miter; stroke-linecap: square"/>
   </g>
   <g id="patch_4">
    <path d="M 414.72 307.584 
L 414.72 41.472 
" style="fill: none; stroke: #000000; stroke-width: 0.8; stroke-linejoin: miter; stroke-linecap: square"/>
   </g>
   <g id="patch_5">
    <path d="M 57.6 307.584 
L 414.72 307.584 
" style="fill: none; stroke: #000000; stroke-width: 0.8; stroke-linejoin: miter; stroke-linecap: square"/>
   </g>
   <g id="patch_6">
    <path d="M 57.6 41.472 
L 414.72 41.472 
" style="fill: none; stroke: #000000; stroke-width: 0.8; stroke-linejoin: miter; stroke-linecap: square"/>
   </g>
   <g id="text_17">
    <!-- Antenna Directivity - Probe Fed Patch -->
    <g transform="translate(124.36125 35.472) scale(0.12 -0.12)">
     <defs>
      <path id="DejaVuSans-61" d="M 2194 1759 
Q 1497 1759 1228 1600 
Q 959 1441 959 1056 
Q 959 750 1161 570 
Q 1363 391 1709 391 
Q 2188 391 2477 730 
Q 2766 1069 2766 1631 
L 2766 1759 
L 2194 1759 
z
M 3341 1997 
L 3341 0 
L 2766 0 
L 2766 531 
Q 2569 213 2275 61 
Q 1981 -91 1556 -91 
Q 1019 -91 701 211 
Q 384 513 384 1019 
Q 384 1609 779 1909 
Q 1175 2209 1959 2209 
L 2766 2209 
L 2766 2266 
Q 2766 2663 2505 2880 
Q 2244 3097 1772 3097 
Q 1472 3097 1187 3025 
Q 903 2953 641 2809 
L 641 3341 
Q 956 3463 1253 3523 
Q 1550 3584 1831 3584 
Q 2591 3584 2966 3190 
Q 3341 2797 3341 1997 
z
" transform="scale(0.015625)"/>
      <path id="DejaVuSans-2d" d="M 313 2009 
L 1997 2009 
L 1997 1497 
L 313 1497 
L 313 2009 
z
" transform="scale(0.015625)"/>
      <path id="DejaVuSans-50" d="M 1259 4147 
L 1259 2394 
L 2053 2394 
Q 2494 2394 2734 2622 
Q 2975 2850 2975 3272 
Q 2975 3691 2734 3919 
Q 2494 4147 2053 4147 
L 1259 4147 
z
M 628 4666 
L 2053 4666 
Q 2838 4666 3239 4311 
Q 3641 3956 3641 3272 
Q 3641 2581 3239 2228 
Q 2838 1875 2053 1875 
L 1259 1875 
L 1259 0 
L 628 0 
L 628 4666 
z
" transform="scale(0.015625)"/>
      <path id="DejaVuSans-6f" d="M 1959 3097 
Q 1497 3097 1228 2736 
Q 959 2375 959 1747 
Q 959 1119 1226 758 
Q 1494 397 1959 397 
Q 2419 397 2687 759 
Q 2956 1122 2956 1747 
Q 2956 2369 2687 2733 
Q 2419 3097 1959 3097 
z
M 1959 3584 
Q 2709 3584 3137 3096 
Q 3566 2609 3566 1747 
Q 3566 888 3137 398 
Q 2709 -91 1959 -91 
Q 1206 -91 779 398 
Q 353 888 353 1747 
Q 353 2609 779 3096 
Q 1206 3584 1959 3584 
z
" transform="scale(0.015625)"/>
      <path id="DejaVuSans-62" d="M 3116 1747 
Q 3116 2381 2855 2742 
Q 2594 3103 2138 3103 
Q 1681 3103 1420 2742 
Q 1159 2381 1159 1747 
Q 1159 1113 1420 752 
Q 1681 391 2138 391 
Q 2594 391 2855 752 
Q 3116 1113 3116 1747 
z
M 1159 2969 
Q 1341 3281 1617 3432 
Q 1894 3584 2278 3584 
Q 2916 3584 3314 3078 
Q 3713 2572 3713 1747 
Q 3713 922 3314 415 
Q 2916 -91 2278 -91 
Q 1894 -91 1617 61 
Q 1341 213 1159 525 
L 1159 0 
L 581 0 
L 581 4863 
L 1159 4863 
L 1159 2969 
z
" transform="scale(0.015625)"/>
      <path id="DejaVuSans-46" d="M 628 4666 
L 3309 4666 
L 3309 4134 
L 1259 4134 
L 1259 2759 
L 3109 2759 
L 3109 2228 
L 1259 2228 
L 1259 0 
L 628 0 
L 628 4666 
z
" transform="scale(0.015625)"/>
      <path id="DejaVuSans-68" d="M 3513 2113 
L 3513 0 
L 2938 0 
L 2938 2094 
Q 2938 2591 2744 2837 
Q 2550 3084 2163 3084 
Q 1697 3084 1428 2787 
Q 1159 2491 1159 1978 
L 1159 0 
L 581 0 
L 581 4863 
L 1159 4863 
L 1159 2956 
Q 1366 3272 1645 3428 
Q 1925 3584 2291 3584 
Q 2894 3584 3203 3211 
Q 3513 2838 3513 2113 
z
" transform="scale(0.015625)"/>
     </defs>
     <use xlink:href="#DejaVuSans-41"/>
     <use xlink:href="#DejaVuSans-6e" transform="translate(68.408203 0)"/>
     <use xlink:href="#DejaVuSans-74" transform="translate(131.787109 0)"/>
     <use xlink:href="#DejaVuSans-65" transform="translate(170.996094 0)"/>
     <use xlink:href="#DejaVuSans-6e" transform="translate(232.519531 0)"/>
     <use xlink:href="#DejaVuSans-6e" transform="translate(295.898438 0)"/>
     <use xlink:href="#DejaVuSans-61" transform="translate(359.277344 0)"/>
     <use xlink:href="#DejaVuSans-20" transform="translate(420.556641 0)"/>
     <use xlink:href="#DejaVuSans-44" transform="translate(452.34375 0)"/>
     <use xlink:href="#DejaVuSans-69" transform="translate(529.345703 0)"/>
     <use xlink:href="#DejaVuSans-72" transform="translate(557.128906 0)"/>
     <use xlink:href="#DejaVuSans-65" transform="translate(595.992188 0)"/>
     <use xlink:href="#DejaVuSans-63" transform="translate(657.515625 0)"/>
     <use xlink:href="#DejaVuSans-74" transform="translate(712.496094 0)"/>
     <use xlink:href="#DejaVuSans-69" transform="translate(751.705078 0)"/>
     <use xlink:href="#DejaVuSans-76" transform="translate(779.488281 0)"/>
     <use xlink:href="#DejaVuSans-69" transform="translate(838.667969 0)"/>
     <use xlink:href="#DejaVuSans-74" transform="translate(866.451172 0)"/>
     <use xlink:href="#DejaVuSans-79" transform="translate(905.660156 0)"/>
     <use xlink:href="#DejaVuSans-20" transform="translate(964.839844 0)"/>
     <use xlink:href="#DejaVuSans-2d" transform="translate(996.626953 0)"/>
     <use xlink:href="#DejaVuSans-20" transform="translate(1032.710938 0)"/>
     <use xlink:href="#DejaVuSans-50" transform="translate(1064.498047 0)"/>
     <use xlink:href="#DejaVuSans-72" transform="translate(1123.050781 0)"/>
     <use xlink:href="#DejaVuSans-6f" transform="translate(1161.914062 0)"/>
     <use xlink:href="#DejaVuSans-62" transform="translate(1223.095703 0)"/>
     <use xlink:href="#DejaVuSans-65" transform="translate(1286.572266 0)"/>
     <use xlink:href="#DejaVuSans-20" transform="translate(1348.095703 0)"/>
     <use xlink:href="#DejaVuSans-46" transform="translate(1379.882812 0)"/>
     <use xlink:href="#DejaVuSans-65" transform="translate(1431.902344 0)"/>
     <use xlink:href="#DejaVuSans-64" transform="translate(1493.425781 0)"/>
     <use xlink:href="#DejaVuSans-20" transform="translate(1556.902344 0)"/>
     <use xlink:href="#DejaVuSans-50" transform="translate(1588.689453 0)"/>
     <use xlink:href="#DejaVuSans-61" transform="translate(1644.492188 0)"/>
     <use xlink:href="#DejaVuSans-74" transform="translate(1705.771484 0)"/>
     <use xlink:href="#DejaVuSans-63" transform="translate(1744.980469 0)"/>
     <use xlink:href="#DejaVuSans-68" transform="translate(1799.960938 0)"/>
    </g>
   </g>
   <g id="legend_1">
    <g id="patch_7">
     <path d="M 245.787187 302.584 
L 407.72 302.584 
Q 409.72 302.584 409.72 300.584 
L 409.72 242.8715 
Q 409.72 240.8715 407.72 240.8715 
L 245.787187 240.8715 
Q 243.787187 240.8715 243.787187 242.8715 
L 243.787187 300.584 
Q 243.787187 302.584 245.787187 302.584 
z
" style="fill: #ffffff; opacity: 0.8; stroke: #cccccc; stroke-linejoin: miter"/>
    </g>
    <g id="line2d_33">
     <path d="M 247.787187 248.969937 
L 257.787187 248.969937 
L 267.787187 248.969937 
" style="fill: none; stroke-dasharray: 5.55,2.4; stroke-dashoffset: 0; stroke: #0000ff; stroke-width: 1.5"/>
    </g>
    <g id="text_18">
     <!-- HFSS Elevation Φ=0 -->
     <g transform="translate(275.787187 252.469937) scale(0.1 -0.1)">
      <defs>
       <path id="DejaVuSans-48" d="M 628 4666 
L 1259 4666 
L 1259 2753 
L 3553 2753 
L 3553 4666 
L 4184 4666 
L 4184 0 
L 3553 0 
L 3553 2222 
L 1259 2222 
L 1259 0 
L 628 0 
L 628 4666 
z
" transform="scale(0.015625)"/>
       <path id="DejaVuSans-53" d="M 3425 4513 
L 3425 3897 
Q 3066 4069 2747 4153 
Q 2428 4238 2131 4238 
Q 1616 4238 1336 4038 
Q 1056 3838 1056 3469 
Q 1056 3159 1242 3001 
Q 1428 2844 1947 2747 
L 2328 2669 
Q 3034 2534 3370 2195 
Q 3706 1856 3706 1288 
Q 3706 609 3251 259 
Q 2797 -91 1919 -91 
Q 1588 -91 1214 -16 
Q 841 59 441 206 
L 441 856 
Q 825 641 1194 531 
Q 1563 422 1919 422 
Q 2459 422 2753 634 
Q 3047 847 3047 1241 
Q 3047 1584 2836 1778 
Q 2625 1972 2144 2069 
L 1759 2144 
Q 1053 2284 737 2584 
Q 422 2884 422 3419 
Q 422 4038 858 4394 
Q 1294 4750 2059 4750 
Q 2388 4750 2728 4690 
Q 3069 4631 3425 4513 
z
" transform="scale(0.015625)"/>
       <path id="DejaVuSans-45" d="M 628 4666 
L 3578 4666 
L 3578 4134 
L 1259 4134 
L 1259 2753 
L 3481 2753 
L 3481 2222 
L 1259 2222 
L 1259 531 
L 3634 531 
L 3634 0 
L 628 0 
L 628 4666 
z
" transform="scale(0.015625)"/>
       <path id="DejaVuSans-3a6" d="M 2206 3644 
Q 1738 3578 1431 3306 
Q 1025 2947 1025 2328 
Q 1025 1713 1431 1353 
Q 1738 1081 2206 1016 
L 2206 3644 
z
M 2838 1016 
Q 3306 1081 3613 1353 
Q 4013 1713 4013 2328 
Q 4013 2947 3613 3306 
Q 3306 3578 2838 3644 
L 2838 1016 
z
M 2206 494 
Q 1444 563 950 981 
Q 359 1481 359 2328 
Q 359 3175 950 3678 
Q 1441 4100 2206 4169 
L 2206 4666 
L 2838 4666 
L 2838 4169 
Q 3600 4097 4091 3678 
Q 4678 3175 4678 2328 
Q 4678 1484 4091 981 
Q 3600 563 2838 491 
L 2838 0 
L 2206 0 
L 2206 494 
z
" transform="scale(0.015625)"/>
       <path id="DejaVuSans-3d" d="M 678 2906 
L 4684 2906 
L 4684 2381 
L 678 2381 
L 678 2906 
z
M 678 1631 
L 4684 1631 
L 4684 1100 
L 678 1100 
L 678 1631 
z
" transform="scale(0.015625)"/>
      </defs>
      <use xlink:href="#DejaVuSans-48"/>
      <use xlink:href="#DejaVuSans-46" transform="translate(75.195312 0)"/>
      <use xlink:href="#DejaVuSans-53" transform="translate(130.964844 0)"/>
      <use xlink:href="#DejaVuSans-53" transform="translate(194.441406 0)"/>
      <use xlink:href="#DejaVuSans-20" transform="translate(257.917969 0)"/>
      <use xlink:href="#DejaVuSans-45" transform="translate(289.705078 0)"/>
      <use xlink:href="#DejaVuSans-6c" transform="translate(352.888672 0)"/>
      <use xlink:href="#DejaVuSans-65" transform="translate(380.671875 0)"/>
      <use xlink:href="#DejaVuSans-76" transform="translate(442.195312 0)"/>
      <use xlink:href="#DejaVuSans-61" transform="translate(501.375 0)"/>
      <use xlink:href="#DejaVuSans-74" transform="translate(562.654297 0)"/>
      <use xlink:href="#DejaVuSans-69" transform="translate(601.863281 0)"/>
      <use xlink:href="#DejaVuSans-6f" transform="translate(629.646484 0)"/>
      <use xlink:href="#DejaVuSans-6e" transform="translate(690.828125 0)"/>
      <use xlink:href="#DejaVuSans-20" transform="translate(754.207031 0)"/>
      <use xlink:href="#DejaVuSans-3a6" transform="translate(785.994141 0)"/>
      <use xlink:href="#DejaVuSans-3d" transform="translate(864.705078 0)"/>
      <use xlink:href="#DejaVuSans-30" transform="translate(948.494141 0)"/>
     </g>
    </g>
    <g id="line2d_34">
     <path d="M 247.787187 263.648062 
L 257.787187 263.648062 
L 267.787187 263.648062 
" style="fill: none; stroke: #0000ff; stroke-width: 1.5; stroke-linecap: square"/>
    </g>
    <g id="text_19">
     <!-- WaveFEM Elevation Φ=0 -->
     <g transform="translate(275.787187 267.148062) scale(0.1 -0.1)">
      <defs>
       <path id="DejaVuSans-57" d="M 213 4666 
L 850 4666 
L 1831 722 
L 2809 4666 
L 3519 4666 
L 4500 722 
L 5478 4666 
L 6119 4666 
L 4947 0 
L 4153 0 
L 3169 4050 
L 2175 0 
L 1381 0 
L 213 4666 
z
" transform="scale(0.015625)"/>
       <path id="DejaVuSans-4d" d="M 628 4666 
L 1569 4666 
L 2759 1491 
L 3956 4666 
L 4897 4666 
L 4897 0 
L 4281 0 
L 4281 4097 
L 3078 897 
L 2444 897 
L 1241 4097 
L 1241 0 
L 628 0 
L 628 4666 
z
" transform="scale(0.015625)"/>
      </defs>
      <use xlink:href="#DejaVuSans-57"/>
      <use xlink:href="#DejaVuSans-61" transform="translate(92.501953 0)"/>
      <use xlink:href="#DejaVuSans-76" transform="translate(153.78125 0)"/>
      <use xlink:href="#DejaVuSans-65" transform="translate(212.960938 0)"/>
      <use xlink:href="#DejaVuSans-46" transform="translate(274.484375 0)"/>
      <use xlink:href="#DejaVuSans-45" transform="translate(332.003906 0)"/>
      <use xlink:href="#DejaVuSans-4d" transform="translate(395.1875 0)"/>
      <use xlink:href="#DejaVuSans-20" transform="translate(481.466797 0)"/>
      <use xlink:href="#DejaVuSans-45" transform="translate(513.253906 0)"/>
      <use xlink:href="#DejaVuSans-6c" transform="translate(576.4375 0)"/>
      <use xlink:href="#DejaVuSans-65" transform="translate(604.220703 0)"/>
      <use xlink:href="#DejaVuSans-76" transform="translate(665.744141 0)"/>
      <use xlink:href="#DejaVuSans-61" transform="translate(724.923828 0)"/>
      <use xlink:href="#DejaVuSans-74" transform="translate(786.203125 0)"/>
      <use xlink:href="#DejaVuSans-69" transform="translate(825.412109 0)"/>
      <use xlink:href="#DejaVuSans-6f" transform="translate(853.195312 0)"/>
      <use xlink:href="#DejaVuSans-6e" transform="translate(914.376953 0)"/>
      <use xlink:href="#DejaVuSans-20" transform="translate(977.755859 0)"/>
      <use xlink:href="#DejaVuSans-3a6" transform="translate(1009.542969 0)"/>
      <use xlink:href="#DejaVuSans-3d" transform="translate(1088.253906 0)"/>
      <use xlink:href="#DejaVuSans-30" transform="translate(1172.042969 0)"/>
     </g>
    </g>
    <g id="line2d_35">
     <path d="M 247.787187 278.326187 
L 257.787187 278.326187 
L 267.787187 278.326187 
" style="fill: none; stroke-dasharray: 5.55,2.4; stroke-dashoffset: 0; stroke: #ff0000; stroke-width: 1.5"/>
    </g>
    <g id="text_20">
     <!-- HFSS Elevation Φ=90 -->
     <g transform="translate(275.787187 281.826187) scale(0.1 -0.1)">
      <defs>
       <path id="DejaVuSans-39" d="M 703 97 
L 703 672 
Q 941 559 1184 500 
Q 1428 441 1663 441 
Q 2288 441 2617 861 
Q 2947 1281 2994 2138 
Q 2813 1869 2534 1725 
Q 2256 1581 1919 1581 
Q 1219 1581 811 2004 
Q 403 2428 403 3163 
Q 403 3881 828 4315 
Q 1253 4750 1959 4750 
Q 2769 4750 3195 4129 
Q 3622 3509 3622 2328 
Q 3622 1225 3098 567 
Q 2575 -91 1691 -91 
Q 1453 -91 1209 -44 
Q 966 3 703 97 
z
M 1959 2075 
Q 2384 2075 2632 2365 
Q 2881 2656 2881 3163 
Q 2881 3666 2632 3958 
Q 2384 4250 1959 4250 
Q 1534 4250 1286 3958 
Q 1038 3666 1038 3163 
Q 1038 2656 1286 2365 
Q 1534 2075 1959 2075 
z
" transform="scale(0.015625)"/>
      </defs>
      <use xlink:href="#DejaVuSans-48"/>
      <use xlink:href="#DejaVuSans-46" transform="translate(75.195312 0)"/>
      <use xlink:href="#DejaVuSans-53" transform="translate(130.964844 0)"/>
      <use xlink:href="#DejaVuSans-53" transform="translate(194.441406 0)"/>
      <use xlink:href="#DejaVuSans-20" transform="translate(257.917969 0)"/>
      <use xlink:href="#DejaVuSans-45" transform="translate(289.705078 0)"/>
      <use xlink:href="#DejaVuSans-6c" transform="translate(352.888672 0)"/>
      <use xlink:href="#DejaVuSans-65" transform="translate(380.671875 0)"/>
      <use xlink:href="#DejaVuSans-76" transform="translate(442.195312 0)"/>
      <use xlink:href="#DejaVuSans-61" transform="translate(501.375 0)"/>
      <use xlink:href="#DejaVuSans-74" transform="translate(562.654297 0)"/>
      <use xlink:href="#DejaVuSans-69" transform="translate(601.863281 0)"/>
      <use xlink:href="#DejaVuSans-6f" transform="translate(629.646484 0)"/>
      <use xlink:href="#DejaVuSans-6e" transform="translate(690.828125 0)"/>
      <use xlink:href="#DejaVuSans-20" transform="translate(754.207031 0)"/>
      <use xlink:href="#DejaVuSans-3a6" transform="translate(785.994141 0)"/>
      <use xlink:href="#DejaVuSans-3d" transform="translate(864.705078 0)"/>
      <use xlink:href="#DejaVuSans-39" transform="translate(948.494141 0)"/>
      <use xlink:href="#DejaVuSans-30" transform="translate(1012.117188 0)"/>
     </g>
    </g>
    <g id="line2d_36">
     <path d="M 247.787187 293.004312 
L 257.787187 293.004312 
L 267.787187 293.004312 
" style="fill: none; stroke: #ff0000; stroke-width: 1.5; stroke-linecap: square"/>
    </g>
    <g id="text_21">
     <!-- WaveFEM Elevation Φ=90 -->
     <g transform="translate(275.787187 296.504312) scale(0.1 -0.1)">
      <use xlink:href="#DejaVuSans-57"/>
      <use xlink:href="#DejaVuSans-61" transform="translate(92.501953 0)"/>
      <use xlink:href="#DejaVuSans-76" transform="translate(153.78125 0)"/>
      <use xlink:href="#DejaVuSans-65" transform="translate(212.960938 0)"/>
      <use xlink:href="#DejaVuSans-46" transform="translate(274.484375 0)"/>
      <use xlink:href="#DejaVuSans-45" transform="translate(332.003906 0)"/>
      <use xlink:href="#DejaVuSans-4d" transform="translate(395.1875 0)"/>
      <use xlink:href="#DejaVuSans-20" transform="translate(481.466797 0)"/>
      <use xlink:href="#DejaVuSans-45" transform="translate(513.253906 0)"/>
      <use xlink:href="#DejaVuSans-6c" transform="translate(576.4375 0)"/>
      <use xlink:href="#DejaVuSans-65" transform="translate(604.220703 0)"/>
      <use xlink:href="#DejaVuSans-76" transform="translate(665.744141 0)"/>
      <use xlink:href="#DejaVuSans-61" transform="translate(724.923828 0)"/>
      <use xlink:href="#DejaVuSans-74" transform="translate(786.203125 0)"/>
      <use xlink:href="#DejaVuSans-69" transform="translate(825.412109 0)"/>
      <use xlink:href="#DejaVuSans-6f" transform="translate(853.195312 0)"/>
      <use xlink:href="#DejaVuSans-6e" transform="translate(914.376953 0)"/>
      <use xlink:href="#DejaVuSans-20" transform="translate(977.755859 0)"/>
      <use xlink:href="#DejaVuSans-3a6" transform="translate(1009.542969 0)"/>
      <use xlink:href="#DejaVuSans-3d" transform="translate(1088.253906 0)"/>
      <use xlink:href="#DejaVuSans-39" transform="translate(1172.042969 0)"/>
      <use xlink:href="#DejaVuSans-30" transform="translate(1235.666016 0)"/>
     </g>
    </g>
   </g>
  </g>
 </g>
 <defs>
  <clipPath id="p2498202298">
   <rect x="57.6" y="41.472" width="357.12" height="266.112"/>
  </clipPath>
 </defs>
</svg>
