<?xml version="1.0" encoding="utf-8" standalone="no"?>
<!DOCTYPE svg PUBLIC "-//W3C//DTD SVG 1.1//EN"
  "http://www.w3.org/Graphics/SVG/1.1/DTD/svg11.dtd">
<svg xmlns:xlink="http://www.w3.org/1999/xlink" width="460.8pt" height="345.6pt" viewBox="0 0 460.8 345.6" xmlns="http://www.w3.org/2000/svg" version="1.1">
 <metadata>
  <rdf:RDF xmlns:dc="http://purl.org/dc/elements/1.1/" xmlns:cc="http://creativecommons.org/ns#" xmlns:rdf="http://www.w3.org/1999/02/22-rdf-syntax-ns#">
   <cc:Work>
    <dc:type rdf:resource="http://purl.org/dc/dcmitype/StillImage"/>
    <dc:date>2025-09-22T06:57:43.257765</dc:date>
    <dc:format>image/svg+xml</dc:format>
    <dc:creator>
     <cc:Agent>
      <dc:title>Matplotlib v3.9.4, https://matplotlib.org/</dc:title>
     </cc:Agent>
    </dc:creator>
   </cc:Work>
  </rdf:RDF>
 </metadata>
 <defs>
  <style type="text/css">*{stroke-linejoin: round; stroke-linecap: butt}</style>
 </defs>
 <g id="figure_1">
  <g id="patch_1">
   <path d="M 0 345.6 
L 460.8 345.6 
L 460.8 0 
L 0 0 
z
" style="fill: #ffffff"/>
  </g>
  <g id="axes_1">
   <g id="patch_2">
    <path d="M 57.6 307.584 
L 414.72 307.584 
L 414.72 41.472 
L 57.6 41.472 
z
" style="fill: #ffffff"/>
   </g>
   <g id="matplotlib.axis_1">
    <g id="xtick_1">
     <g id="line2d_1">
      <path d="M 100.887273 307.584 
L 100.887273 41.472 
" clip-path="url(#p2250dfb3dd)" style="fill: none; stroke: #b0b0b0; stroke-width: 0.8; stroke-linecap: square"/>
     </g>
     <g id="line2d_2">
      <defs>
       <path id="m4ba2917f57" d="M 0 0 
L 0 3.5 
" style="stroke: #000000; stroke-width: 0.8"/>
      </defs>
      <g>
       <use xlink:href="#m4ba2917f57" x="100.887273" y="307.584" style="stroke: #000000; stroke-width: 0.8"/>
      </g>
     </g>
     <g id="text_1">
      <!-- −150 -->
      <g transform="translate(87.153679 322.182437) scale(0.1 -0.1)">
       <defs>
        <path id="DejaVuSans-2212" d="M 678 2272 
L 4684 2272 
L 4684 1741 
L 678 1741 
L 678 2272 
z
" transform="scale(0.015625)"/>
        <path id="DejaVuSans-31" d="M 794 531 
L 1825 531 
L 1825 4091 
L 703 3866 
L 703 4441 
L 1819 4666 
L 2450 4666 
L 2450 531 
L 3481 531 
L 3481 0 
L 794 0 
L 794 531 
z
" transform="scale(0.015625)"/>
        <path id="DejaVuSans-35" d="M 691 4666 
L 3169 4666 
L 3169 4134 
L 1269 4134 
L 1269 2991 
Q 1406 3038 1543 3061 
Q 1681 3084 1819 3084 
Q 2600 3084 3056 2656 
Q 3513 2228 3513 1497 
Q 3513 744 3044 326 
Q 2575 -91 1722 -91 
Q 1428 -91 1123 -41 
Q 819 9 494 109 
L 494 744 
Q 775 591 1075 516 
Q 1375 441 1709 441 
Q 2250 441 2565 725 
Q 2881 1009 2881 1497 
Q 2881 1984 2565 2268 
Q 2250 2553 1709 2553 
Q 1456 2553 1204 2497 
Q 953 2441 691 2322 
L 691 4666 
z
" transform="scale(0.015625)"/>
        <path id="DejaVuSans-30" d="M 2034 4250 
Q 1547 4250 1301 3770 
Q 1056 3291 1056 2328 
Q 1056 1369 1301 889 
Q 1547 409 2034 409 
Q 2525 409 2770 889 
Q 3016 1369 3016 2328 
Q 3016 3291 2770 3770 
Q 2525 4250 2034 4250 
z
M 2034 4750 
Q 2819 4750 3233 4129 
Q 3647 3509 3647 2328 
Q 3647 1150 3233 529 
Q 2819 -91 2034 -91 
Q 1250 -91 836 529 
Q 422 1150 422 2328 
Q 422 3509 836 4129 
Q 1250 4750 2034 4750 
z
" transform="scale(0.015625)"/>
       </defs>
       <use xlink:href="#DejaVuSans-2212"/>
       <use xlink:href="#DejaVuSans-31" x="83.789062"/>
       <use xlink:href="#DejaVuSans-35" x="147.412109"/>
       <use xlink:href="#DejaVuSans-30" x="211.035156"/>
      </g>
     </g>
    </g>
    <g id="xtick_2">
     <g id="line2d_3">
      <path d="M 145.978182 307.584 
L 145.978182 41.472 
" clip-path="url(#p2250dfb3dd)" style="fill: none; stroke: #b0b0b0; stroke-width: 0.8; stroke-linecap: square"/>
     </g>
     <g id="line2d_4">
      <g>
       <use xlink:href="#m4ba2917f57" x="145.978182" y="307.584" style="stroke: #000000; stroke-width: 0.8"/>
      </g>
     </g>
     <g id="text_2">
      <!-- −100 -->
      <g transform="translate(132.244588 322.182437) scale(0.1 -0.1)">
       <use xlink:href="#DejaVuSans-2212"/>
       <use xlink:href="#DejaVuSans-31" x="83.789062"/>
       <use xlink:href="#DejaVuSans-30" x="147.412109"/>
       <use xlink:href="#DejaVuSans-30" x="211.035156"/>
      </g>
     </g>
    </g>
    <g id="xtick_3">
     <g id="line2d_5">
      <path d="M 191.069091 307.584 
L 191.069091 41.472 
" clip-path="url(#p2250dfb3dd)" style="fill: none; stroke: #b0b0b0; stroke-width: 0.8; stroke-linecap: square"/>
     </g>
     <g id="line2d_6">
      <g>
       <use xlink:href="#m4ba2917f57" x="191.069091" y="307.584" style="stroke: #000000; stroke-width: 0.8"/>
      </g>
     </g>
     <g id="text_3">
      <!-- −50 -->
      <g transform="translate(180.516747 322.182437) scale(0.1 -0.1)">
       <use xlink:href="#DejaVuSans-2212"/>
       <use xlink:href="#DejaVuSans-35" x="83.789062"/>
       <use xlink:href="#DejaVuSans-30" x="147.412109"/>
      </g>
     </g>
    </g>
    <g id="xtick_4">
     <g id="line2d_7">
      <path d="M 236.16 307.584 
L 236.16 41.472 
" clip-path="url(#p2250dfb3dd)" style="fill: none; stroke: #b0b0b0; stroke-width: 0.8; stroke-linecap: square"/>
     </g>
     <g id="line2d_8">
      <g>
       <use xlink:href="#m4ba2917f57" x="236.16" y="307.584" style="stroke: #000000; stroke-width: 0.8"/>
      </g>
     </g>
     <g id="text_4">
      <!-- 0 -->
      <g transform="translate(232.97875 322.182437) scale(0.1 -0.1)">
       <use xlink:href="#DejaVuSans-30"/>
      </g>
     </g>
    </g>
    <g id="xtick_5">
     <g id="line2d_9">
      <path d="M 281.250909 307.584 
L 281.250909 41.472 
" clip-path="url(#p2250dfb3dd)" style="fill: none; stroke: #b0b0b0; stroke-width: 0.8; stroke-linecap: square"/>
     </g>
     <g id="line2d_10">
      <g>
       <use xlink:href="#m4ba2917f57" x="281.250909" y="307.584" style="stroke: #000000; stroke-width: 0.8"/>
      </g>
     </g>
     <g id="text_5">
      <!-- 50 -->
      <g transform="translate(274.888409 322.182437) scale(0.1 -0.1)">
       <use xlink:href="#DejaVuSans-35"/>
       <use xlink:href="#DejaVuSans-30" x="63.623047"/>
      </g>
     </g>
    </g>
    <g id="xtick_6">
     <g id="line2d_11">
      <path d="M 326.341818 307.584 
L 326.341818 41.472 
" clip-path="url(#p2250dfb3dd)" style="fill: none; stroke: #b0b0b0; stroke-width: 0.8; stroke-linecap: square"/>
     </g>
     <g id="line2d_12">
      <g>
       <use xlink:href="#m4ba2917f57" x="326.341818" y="307.584" style="stroke: #000000; stroke-width: 0.8"/>
      </g>
     </g>
     <g id="text_6">
      <!-- 100 -->
      <g transform="translate(316.798068 322.182437) scale(0.1 -0.1)">
       <use xlink:href="#DejaVuSans-31"/>
       <use xlink:href="#DejaVuSans-30" x="63.623047"/>
       <use xlink:href="#DejaVuSans-30" x="127.246094"/>
      </g>
     </g>
    </g>
    <g id="xtick_7">
     <g id="line2d_13">
      <path d="M 371.432727 307.584 
L 371.432727 41.472 
" clip-path="url(#p2250dfb3dd)" style="fill: none; stroke: #b0b0b0; stroke-width: 0.8; stroke-linecap: square"/>
     </g>
     <g id="line2d_14">
      <g>
       <use xlink:href="#m4ba2917f57" x="371.432727" y="307.584" style="stroke: #000000; stroke-width: 0.8"/>
      </g>
     </g>
     <g id="text_7">
      <!-- 150 -->
      <g transform="translate(361.888977 322.182437) scale(0.1 -0.1)">
       <use xlink:href="#DejaVuSans-31"/>
       <use xlink:href="#DejaVuSans-35" x="63.623047"/>
       <use xlink:href="#DejaVuSans-30" x="127.246094"/>
      </g>
     </g>
    </g>
    <g id="text_8">
     <!-- Angle (deg) -->
     <g transform="translate(207.015469 335.860562) scale(0.1 -0.1)">
      <defs>
       <path id="DejaVuSans-41" d="M 2188 4044 
L 1331 1722 
L 3047 1722 
L 2188 4044 
z
M 1831 4666 
L 2547 4666 
L 4325 0 
L 3669 0 
L 3244 1197 
L 1141 1197 
L 716 0 
L 50 0 
L 1831 4666 
z
" transform="scale(0.015625)"/>
       <path id="DejaVuSans-6e" d="M 3513 2113 
L 3513 0 
L 2938 0 
L 2938 2094 
Q 2938 2591 2744 2837 
Q 2550 3084 2163 3084 
Q 1697 3084 1428 2787 
Q 1159 2491 1159 1978 
L 1159 0 
L 581 0 
L 581 3500 
L 1159 3500 
L 1159 2956 
Q 1366 3272 1645 3428 
Q 1925 3584 2291 3584 
Q 2894 3584 3203 3211 
Q 3513 2838 3513 2113 
z
" transform="scale(0.015625)"/>
       <path id="DejaVuSans-67" d="M 2906 1791 
Q 2906 2416 2648 2759 
Q 2391 3103 1925 3103 
Q 1463 3103 1205 2759 
Q 947 2416 947 1791 
Q 947 1169 1205 825 
Q 1463 481 1925 481 
Q 2391 481 2648 825 
Q 2906 1169 2906 1791 
z
M 3481 434 
Q 3481 -459 3084 -895 
Q 2688 -1331 1869 -1331 
Q 1566 -1331 1297 -1286 
Q 1028 -1241 775 -1147 
L 775 -588 
Q 1028 -725 1275 -790 
Q 1522 -856 1778 -856 
Q 2344 -856 2625 -561 
Q 2906 -266 2906 331 
L 2906 616 
Q 2728 306 2450 153 
Q 2172 0 1784 0 
Q 1141 0 747 490 
Q 353 981 353 1791 
Q 353 2603 747 3093 
Q 1141 3584 1784 3584 
Q 2172 3584 2450 3431 
Q 2728 3278 2906 2969 
L 2906 3500 
L 3481 3500 
L 3481 434 
z
" transform="scale(0.015625)"/>
       <path id="DejaVuSans-6c" d="M 603 4863 
L 1178 4863 
L 1178 0 
L 603 0 
L 603 4863 
z
" transform="scale(0.015625)"/>
       <path id="DejaVuSans-65" d="M 3597 1894 
L 3597 1613 
L 953 1613 
Q 991 1019 1311 708 
Q 1631 397 2203 397 
Q 2534 397 2845 478 
Q 3156 559 3463 722 
L 3463 178 
Q 3153 47 2828 -22 
Q 2503 -91 2169 -91 
Q 1331 -91 842 396 
Q 353 884 353 1716 
Q 353 2575 817 3079 
Q 1281 3584 2069 3584 
Q 2775 3584 3186 3129 
Q 3597 2675 3597 1894 
z
M 3022 2063 
Q 3016 2534 2758 2815 
Q 2500 3097 2075 3097 
Q 1594 3097 1305 2825 
Q 1016 2553 972 2059 
L 3022 2063 
z
" transform="scale(0.015625)"/>
       <path id="DejaVuSans-20" transform="scale(0.015625)"/>
       <path id="DejaVuSans-28" d="M 1984 4856 
Q 1566 4138 1362 3434 
Q 1159 2731 1159 2009 
Q 1159 1288 1364 580 
Q 1569 -128 1984 -844 
L 1484 -844 
Q 1016 -109 783 600 
Q 550 1309 550 2009 
Q 550 2706 781 3412 
Q 1013 4119 1484 4856 
L 1984 4856 
z
" transform="scale(0.015625)"/>
       <path id="DejaVuSans-64" d="M 2906 2969 
L 2906 4863 
L 3481 4863 
L 3481 0 
L 2906 0 
L 2906 525 
Q 2725 213 2448 61 
Q 2172 -91 1784 -91 
Q 1150 -91 751 415 
Q 353 922 353 1747 
Q 353 2572 751 3078 
Q 1150 3584 1784 3584 
Q 2172 3584 2448 3432 
Q 2725 3281 2906 2969 
z
M 947 1747 
Q 947 1113 1208 752 
Q 1469 391 1925 391 
Q 2381 391 2643 752 
Q 2906 1113 2906 1747 
Q 2906 2381 2643 2742 
Q 2381 3103 1925 3103 
Q 1469 3103 1208 2742 
Q 947 2381 947 1747 
z
" transform="scale(0.015625)"/>
       <path id="DejaVuSans-29" d="M 513 4856 
L 1013 4856 
Q 1481 4119 1714 3412 
Q 1947 2706 1947 2009 
Q 1947 1309 1714 600 
Q 1481 -109 1013 -844 
L 513 -844 
Q 928 -128 1133 580 
Q 1338 1288 1338 2009 
Q 1338 2731 1133 3434 
Q 928 4138 513 4856 
z
" transform="scale(0.015625)"/>
      </defs>
      <use xlink:href="#DejaVuSans-41"/>
      <use xlink:href="#DejaVuSans-6e" x="68.408203"/>
      <use xlink:href="#DejaVuSans-67" x="131.787109"/>
      <use xlink:href="#DejaVuSans-6c" x="195.263672"/>
      <use xlink:href="#DejaVuSans-65" x="223.046875"/>
      <use xlink:href="#DejaVuSans-20" x="284.570312"/>
      <use xlink:href="#DejaVuSans-28" x="316.357422"/>
      <use xlink:href="#DejaVuSans-64" x="355.371094"/>
      <use xlink:href="#DejaVuSans-65" x="418.847656"/>
      <use xlink:href="#DejaVuSans-67" x="480.371094"/>
      <use xlink:href="#DejaVuSans-29" x="543.847656"/>
     </g>
    </g>
   </g>
   <g id="matplotlib.axis_2">
    <g id="ytick_1">
     <g id="line2d_15">
      <path d="M 57.6 293.851093 
L 414.72 293.851093 
" clip-path="url(#p2250dfb3dd)" style="fill: none; stroke: #b0b0b0; stroke-width: 0.8; stroke-linecap: square"/>
     </g>
     <g id="line2d_16">
      <defs>
       <path id="mfdb7fa2ad7" d="M 0 0 
L -3.5 0 
" style="stroke: #000000; stroke-width: 0.8"/>
      </defs>
      <g>
       <use xlink:href="#mfdb7fa2ad7" x="57.6" y="293.851093" style="stroke: #000000; stroke-width: 0.8"/>
      </g>
     </g>
     <g id="text_9">
      <!-- −40 -->
      <g transform="translate(29.495313 297.650312) scale(0.1 -0.1)">
       <defs>
        <path id="DejaVuSans-34" d="M 2419 4116 
L 825 1625 
L 2419 1625 
L 2419 4116 
z
M 2253 4666 
L 3047 4666 
L 3047 1625 
L 3713 1625 
L 3713 1100 
L 3047 1100 
L 3047 0 
L 2419 0 
L 2419 1100 
L 313 1100 
L 313 1709 
L 2253 4666 
z
" transform="scale(0.015625)"/>
       </defs>
       <use xlink:href="#DejaVuSans-2212"/>
       <use xlink:href="#DejaVuSans-34" x="83.789062"/>
       <use xlink:href="#DejaVuSans-30" x="147.412109"/>
      </g>
     </g>
    </g>
    <g id="ytick_2">
     <g id="line2d_17">
      <path d="M 57.6 251.613089 
L 414.72 251.613089 
" clip-path="url(#p2250dfb3dd)" style="fill: none; stroke: #b0b0b0; stroke-width: 0.8; stroke-linecap: square"/>
     </g>
     <g id="line2d_18">
      <g>
       <use xlink:href="#mfdb7fa2ad7" x="57.6" y="251.613089" style="stroke: #000000; stroke-width: 0.8"/>
      </g>
     </g>
     <g id="text_10">
      <!-- −30 -->
      <g transform="translate(29.495313 255.412308) scale(0.1 -0.1)">
       <defs>
        <path id="DejaVuSans-33" d="M 2597 2516 
Q 3050 2419 3304 2112 
Q 3559 1806 3559 1356 
Q 3559 666 3084 287 
Q 2609 -91 1734 -91 
Q 1441 -91 1130 -33 
Q 819 25 488 141 
L 488 750 
Q 750 597 1062 519 
Q 1375 441 1716 441 
Q 2309 441 2620 675 
Q 2931 909 2931 1356 
Q 2931 1769 2642 2001 
Q 2353 2234 1838 2234 
L 1294 2234 
L 1294 2753 
L 1863 2753 
Q 2328 2753 2575 2939 
Q 2822 3125 2822 3475 
Q 2822 3834 2567 4026 
Q 2313 4219 1838 4219 
Q 1578 4219 1281 4162 
Q 984 4106 628 3988 
L 628 4550 
Q 988 4650 1302 4700 
Q 1616 4750 1894 4750 
Q 2613 4750 3031 4423 
Q 3450 4097 3450 3541 
Q 3450 3153 3228 2886 
Q 3006 2619 2597 2516 
z
" transform="scale(0.015625)"/>
       </defs>
       <use xlink:href="#DejaVuSans-2212"/>
       <use xlink:href="#DejaVuSans-33" x="83.789062"/>
       <use xlink:href="#DejaVuSans-30" x="147.412109"/>
      </g>
     </g>
    </g>
    <g id="ytick_3">
     <g id="line2d_19">
      <path d="M 57.6 209.375085 
L 414.72 209.375085 
" clip-path="url(#p2250dfb3dd)" style="fill: none; stroke: #b0b0b0; stroke-width: 0.8; stroke-linecap: square"/>
     </g>
     <g id="line2d_20">
      <g>
       <use xlink:href="#mfdb7fa2ad7" x="57.6" y="209.375085" style="stroke: #000000; stroke-width: 0.8"/>
      </g>
     </g>
     <g id="text_11">
      <!-- −20 -->
      <g transform="translate(29.495313 213.174304) scale(0.1 -0.1)">
       <defs>
        <path id="DejaVuSans-32" d="M 1228 531 
L 3431 531 
L 3431 0 
L 469 0 
L 469 531 
Q 828 903 1448 1529 
Q 2069 2156 2228 2338 
Q 2531 2678 2651 2914 
Q 2772 3150 2772 3378 
Q 2772 3750 2511 3984 
Q 2250 4219 1831 4219 
Q 1534 4219 1204 4116 
Q 875 4013 500 3803 
L 500 4441 
Q 881 4594 1212 4672 
Q 1544 4750 1819 4750 
Q 2544 4750 2975 4387 
Q 3406 4025 3406 3419 
Q 3406 3131 3298 2873 
Q 3191 2616 2906 2266 
Q 2828 2175 2409 1742 
Q 1991 1309 1228 531 
z
" transform="scale(0.015625)"/>
       </defs>
       <use xlink:href="#DejaVuSans-2212"/>
       <use xlink:href="#DejaVuSans-32" x="83.789062"/>
       <use xlink:href="#DejaVuSans-30" x="147.412109"/>
      </g>
     </g>
    </g>
    <g id="ytick_4">
     <g id="line2d_21">
      <path d="M 57.6 167.137081 
L 414.72 167.137081 
" clip-path="url(#p2250dfb3dd)" style="fill: none; stroke: #b0b0b0; stroke-width: 0.8; stroke-linecap: square"/>
     </g>
     <g id="line2d_22">
      <g>
       <use xlink:href="#mfdb7fa2ad7" x="57.6" y="167.137081" style="stroke: #000000; stroke-width: 0.8"/>
      </g>
     </g>
     <g id="text_12">
      <!-- −10 -->
      <g transform="translate(29.495313 170.9363) scale(0.1 -0.1)">
       <use xlink:href="#DejaVuSans-2212"/>
       <use xlink:href="#DejaVuSans-31" x="83.789062"/>
       <use xlink:href="#DejaVuSans-30" x="147.412109"/>
      </g>
     </g>
    </g>
    <g id="ytick_5">
     <g id="line2d_23">
      <path d="M 57.6 124.899077 
L 414.72 124.899077 
" clip-path="url(#p2250dfb3dd)" style="fill: none; stroke: #b0b0b0; stroke-width: 0.8; stroke-linecap: square"/>
     </g>
     <g id="line2d_24">
      <g>
       <use xlink:href="#mfdb7fa2ad7" x="57.6" y="124.899077" style="stroke: #000000; stroke-width: 0.8"/>
      </g>
     </g>
     <g id="text_13">
      <!-- 0 -->
      <g transform="translate(44.2375 128.698296) scale(0.1 -0.1)">
       <use xlink:href="#DejaVuSans-30"/>
      </g>
     </g>
    </g>
    <g id="ytick_6">
     <g id="line2d_25">
      <path d="M 57.6 82.661073 
L 414.72 82.661073 
" clip-path="url(#p2250dfb3dd)" style="fill: none; stroke: #b0b0b0; stroke-width: 0.8; stroke-linecap: square"/>
     </g>
     <g id="line2d_26">
      <g>
       <use xlink:href="#mfdb7fa2ad7" x="57.6" y="82.661073" style="stroke: #000000; stroke-width: 0.8"/>
      </g>
     </g>
     <g id="text_14">
      <!-- 10 -->
      <g transform="translate(37.875 86.460292) scale(0.1 -0.1)">
       <use xlink:href="#DejaVuSans-31"/>
       <use xlink:href="#DejaVuSans-30" x="63.623047"/>
      </g>
     </g>
    </g>
    <g id="text_15">
     <!-- Directivity (dB) -->
     <g transform="translate(23.415625 212.248312) rotate(-90) scale(0.1 -0.1)">
      <defs>
       <path id="DejaVuSans-44" d="M 1259 4147 
L 1259 519 
L 2022 519 
Q 2988 519 3436 956 
Q 3884 1394 3884 2338 
Q 3884 3275 3436 3711 
Q 2988 4147 2022 4147 
L 1259 4147 
z
M 628 4666 
L 1925 4666 
Q 3281 4666 3915 4102 
Q 4550 3538 4550 2338 
Q 4550 1131 3912 565 
Q 3275 0 1925 0 
L 628 0 
L 628 4666 
z
" transform="scale(0.015625)"/>
       <path id="DejaVuSans-69" d="M 603 3500 
L 1178 3500 
L 1178 0 
L 603 0 
L 603 3500 
z
M 603 4863 
L 1178 4863 
L 1178 4134 
L 603 4134 
L 603 4863 
z
" transform="scale(0.015625)"/>
       <path id="DejaVuSans-72" d="M 2631 2963 
Q 2534 3019 2420 3045 
Q 2306 3072 2169 3072 
Q 1681 3072 1420 2755 
Q 1159 2438 1159 1844 
L 1159 0 
L 581 0 
L 581 3500 
L 1159 3500 
L 1159 2956 
Q 1341 3275 1631 3429 
Q 1922 3584 2338 3584 
Q 2397 3584 2469 3576 
Q 2541 3569 2628 3553 
L 2631 2963 
z
" transform="scale(0.015625)"/>
       <path id="DejaVuSans-63" d="M 3122 3366 
L 3122 2828 
Q 2878 2963 2633 3030 
Q 2388 3097 2138 3097 
Q 1578 3097 1268 2742 
Q 959 2388 959 1747 
Q 959 1106 1268 751 
Q 1578 397 2138 397 
Q 2388 397 2633 464 
Q 2878 531 3122 666 
L 3122 134 
Q 2881 22 2623 -34 
Q 2366 -91 2075 -91 
Q 1284 -91 818 406 
Q 353 903 353 1747 
Q 353 2603 823 3093 
Q 1294 3584 2113 3584 
Q 2378 3584 2631 3529 
Q 2884 3475 3122 3366 
z
" transform="scale(0.015625)"/>
       <path id="DejaVuSans-74" d="M 1172 4494 
L 1172 3500 
L 2356 3500 
L 2356 3053 
L 1172 3053 
L 1172 1153 
Q 1172 725 1289 603 
Q 1406 481 1766 481 
L 2356 481 
L 2356 0 
L 1766 0 
Q 1100 0 847 248 
Q 594 497 594 1153 
L 594 3053 
L 172 3053 
L 172 3500 
L 594 3500 
L 594 4494 
L 1172 4494 
z
" transform="scale(0.015625)"/>
       <path id="DejaVuSans-76" d="M 191 3500 
L 800 3500 
L 1894 563 
L 2988 3500 
L 3597 3500 
L 2284 0 
L 1503 0 
L 191 3500 
z
" transform="scale(0.015625)"/>
       <path id="DejaVuSans-79" d="M 2059 -325 
Q 1816 -950 1584 -1140 
Q 1353 -1331 966 -1331 
L 506 -1331 
L 506 -850 
L 844 -850 
Q 1081 -850 1212 -737 
Q 1344 -625 1503 -206 
L 1606 56 
L 191 3500 
L 800 3500 
L 1894 763 
L 2988 3500 
L 3597 3500 
L 2059 -325 
z
" transform="scale(0.015625)"/>
       <path id="DejaVuSans-42" d="M 1259 2228 
L 1259 519 
L 2272 519 
Q 2781 519 3026 730 
Q 3272 941 3272 1375 
Q 3272 1813 3026 2020 
Q 2781 2228 2272 2228 
L 1259 2228 
z
M 1259 4147 
L 1259 2741 
L 2194 2741 
Q 2656 2741 2882 2914 
Q 3109 3088 3109 3444 
Q 3109 3797 2882 3972 
Q 2656 4147 2194 4147 
L 1259 4147 
z
M 628 4666 
L 2241 4666 
Q 2963 4666 3353 4366 
Q 3744 4066 3744 3513 
Q 3744 3084 3544 2831 
Q 3344 2578 2956 2516 
Q 3422 2416 3680 2098 
Q 3938 1781 3938 1306 
Q 3938 681 3513 340 
Q 3088 0 2303 0 
L 628 0 
L 628 4666 
z
" transform="scale(0.015625)"/>
      </defs>
      <use xlink:href="#DejaVuSans-44"/>
      <use xlink:href="#DejaVuSans-69" x="77.001953"/>
      <use xlink:href="#DejaVuSans-72" x="104.785156"/>
      <use xlink:href="#DejaVuSans-65" x="143.648438"/>
      <use xlink:href="#DejaVuSans-63" x="205.171875"/>
      <use xlink:href="#DejaVuSans-74" x="260.152344"/>
      <use xlink:href="#DejaVuSans-69" x="299.361328"/>
      <use xlink:href="#DejaVuSans-76" x="327.144531"/>
      <use xlink:href="#DejaVuSans-69" x="386.324219"/>
      <use xlink:href="#DejaVuSans-74" x="414.107422"/>
      <use xlink:href="#DejaVuSans-79" x="453.316406"/>
      <use xlink:href="#DejaVuSans-20" x="512.496094"/>
      <use xlink:href="#DejaVuSans-28" x="544.283203"/>
      <use xlink:href="#DejaVuSans-64" x="583.296875"/>
      <use xlink:href="#DejaVuSans-42" x="646.773438"/>
      <use xlink:href="#DejaVuSans-29" x="715.376953"/>
     </g>
    </g>
   </g>
   <g id="line2d_27">
    <path d="M 73.832727 179.995156 
L 74.734545 181.774598 
L 75.636364 186.141686 
L 76.538182 193.348172 
L 77.44 203.631798 
L 78.341818 215.916322 
L 79.243636 223.262671 
L 80.145455 219.120345 
L 81.047273 211.983443 
L 81.949091 207.4766 
L 82.850909 206.224674 
L 83.752727 207.783404 
L 85.556364 214.42674 
L 86.458182 214.588288 
L 87.36 211.11138 
L 88.261818 206.480253 
L 89.163636 202.871282 
L 90.065455 201.144998 
L 90.967273 201.456324 
L 91.869091 203.584766 
L 92.770909 206.809234 
L 93.672727 209.543376 
L 94.574545 209.728483 
L 95.476364 206.917066 
L 96.378182 202.849717 
L 97.28 199.336857 
L 98.181818 197.289056 
L 99.083636 197.029394 
L 99.985455 198.617598 
L 100.887273 201.907439 
L 102.690909 210.218392 
L 103.592727 211.110136 
L 104.494545 208.045546 
L 106.298182 198.282863 
L 107.2 194.791786 
L 108.101818 192.84045 
L 109.003636 192.43041 
L 109.905455 193.449311 
L 110.807273 195.659692 
L 112.610909 201.206944 
L 113.512727 202.237683 
L 114.414545 200.789471 
L 115.316364 197.360116 
L 117.12 189.333324 
L 118.021818 186.218626 
L 118.923636 184.040495 
L 119.825455 182.826224 
L 120.727273 182.542499 
L 121.629091 183.127205 
L 122.530909 184.491508 
L 123.432727 186.501759 
L 126.138182 193.608925 
L 127.04 194.796595 
L 127.941818 194.668648 
L 128.843636 193.2585 
L 129.745455 190.956706 
L 132.450909 183.008893 
L 133.352727 180.813534 
L 134.254545 178.97386 
L 135.156364 177.482344 
L 136.058182 176.30855 
L 136.96 175.409923 
L 137.861818 174.737499 
L 139.665455 173.860866 
L 143.272727 172.530365 
L 145.076364 171.400446 
L 146.88 169.728526 
L 148.683636 167.530657 
L 150.487273 164.924778 
L 154.094545 159.103749 
L 157.701818 153.365196 
L 159.505455 150.808165 
L 161.309091 148.610038 
L 163.112727 146.906313 
L 164.014545 146.291209 
L 164.916364 145.867234 
L 165.818182 145.664412 
L 166.72 145.718191 
L 167.621818 146.071139 
L 168.523636 146.775385 
L 169.425455 147.896298 
L 170.327273 149.518187 
L 171.229091 151.753573 
L 172.130909 154.759073 
L 173.032727 158.764544 
L 173.934545 164.131463 
L 174.836364 171.484825 
L 175.738182 182.068118 
L 176.64 199.015234 
L 177.541818 235.654336 
L 178.443636 238.170379 
L 179.345455 197.276623 
L 180.247273 177.898559 
L 181.149091 165.275486 
L 182.050909 156.132398 
L 182.952727 149.224234 
L 183.854545 143.962141 
L 184.756364 140.039737 
L 185.658182 137.298451 
L 186.56 135.672143 
L 187.461818 135.165412 
L 188.363636 135.851397 
L 189.265455 137.887613 
L 190.167273 141.55947 
L 191.069091 147.383665 
L 191.970909 156.37681 
L 192.872727 170.918532 
L 193.774545 198.743264 
L 194.676364 221.178721 
L 195.578182 179.016248 
L 196.48 158.798447 
L 197.381818 146.52158 
L 198.283636 138.418142 
L 199.185455 133.123896 
L 200.087273 130.058171 
L 200.989091 129.001507 
L 201.890909 129.971255 
L 202.792727 133.223088 
L 203.694545 139.379016 
L 204.596364 149.853849 
L 205.498182 168.432612 
L 206.4 205.786694 
L 208.203636 154.359106 
L 209.105455 139.549177 
L 210.007273 130.464953 
L 210.909091 125.035085 
L 211.810909 122.479891 
L 212.712727 122.588001 
L 213.614545 125.556749 
L 214.516364 132.097797 
L 215.418182 143.894102 
L 216.32 163.946018 
L 217.221818 171.769048 
L 218.123636 146.916939 
L 219.025455 129.237151 
L 219.927273 117.96031 
L 220.829091 110.797135 
L 221.730909 106.746917 
L 222.632727 105.454289 
L 223.534545 106.980366 
L 224.436364 111.789012 
L 225.338182 120.72368 
L 226.24 132.829721 
L 227.141818 132.050698 
L 228.945455 97.777053 
L 229.847273 85.434636 
L 230.749091 76.063203 
L 231.650909 68.886962 
L 232.552727 63.429302 
L 233.454545 59.395267 
L 234.356364 56.598369 
L 235.258182 54.920928 
L 236.16 54.29271 
L 237.061818 54.679753 
L 237.963636 56.079479 
L 238.865455 58.52058 
L 239.767273 62.067692 
L 240.669091 66.832554 
L 241.570909 72.996117 
L 242.472727 80.852106 
L 243.374545 90.897941 
L 244.276364 104.041678 
L 245.178182 122.094851 
L 246.08 147.881209 
L 246.981818 159.626541 
L 247.883636 140.846659 
L 248.785455 128.964038 
L 249.687273 123.220747 
L 250.589091 121.496342 
L 251.490909 122.877332 
L 252.392727 127.075971 
L 253.294545 134.214429 
L 254.196364 144.761403 
L 256 172.623657 
L 256.901818 170.128023 
L 257.803636 159.096497 
L 258.705455 150.845965 
L 259.607273 146.23632 
L 260.509091 144.657405 
L 261.410909 145.691065 
L 262.312727 149.155742 
L 263.214545 154.980601 
L 265.018182 170.934377 
L 265.92 174.217702 
L 266.821818 169.948814 
L 267.723636 162.906589 
L 268.625455 156.880107 
L 269.527273 152.784359 
L 270.429091 150.603619 
L 271.330909 150.163985 
L 272.232727 151.291189 
L 273.134545 153.792517 
L 275.84 164.410767 
L 276.741818 165.210026 
L 277.643636 163.232084 
L 280.349091 151.948189 
L 281.250909 149.248569 
L 282.152727 147.484277 
L 283.054545 146.646483 
L 283.956364 146.691106 
L 284.858182 147.561303 
L 285.76 149.188473 
L 286.661818 151.478957 
L 288.465455 157.366955 
L 289.367273 160.334904 
L 290.269091 162.661259 
L 291.170909 163.814296 
L 292.072727 163.533937 
L 292.974545 161.999277 
L 294.778182 157.074207 
L 296.581818 152.219441 
L 297.483636 150.264409 
L 298.385455 148.685755 
L 299.287273 147.481517 
L 300.189091 146.633975 
L 301.090909 146.118695 
L 301.992727 145.909184 
L 302.894545 145.979171 
L 303.796364 146.303655 
L 304.698182 146.859309 
L 305.6 147.624558 
L 306.501818 148.579498 
L 308.305455 150.986224 
L 310.109091 153.947022 
L 311.912727 157.343771 
L 314.618182 163.012925 
L 320.930909 176.763361 
L 322.734545 180.172537 
L 324.538182 183.114958 
L 326.341818 185.586988 
L 330.850909 191.092779 
L 331.752727 192.485335 
L 332.654545 194.141475 
L 333.556364 196.15429 
L 334.458182 198.634291 
L 335.36 201.717506 
L 336.261818 205.578156 
L 337.163636 210.447411 
L 338.065455 216.635781 
L 338.967273 224.527165 
L 340.770909 244.401885 
L 341.672727 247.119411 
L 342.574545 238.49203 
L 343.476364 227.197819 
L 344.378182 217.594535 
L 345.28 210.073594 
L 346.181818 204.345387 
L 347.083636 200.141061 
L 347.985455 197.291239 
L 348.887273 195.715566 
L 349.789091 195.410802 
L 350.690909 196.451115 
L 351.592727 199.005963 
L 352.494545 203.387608 
L 353.396364 210.16122 
L 354.298182 220.409345 
L 355.2 236.351476 
L 356.101818 259.678446 
L 357.003636 254.603713 
L 357.905455 232.329685 
L 358.807273 218.096473 
L 359.709091 209.168775 
L 360.610909 203.760443 
L 361.512727 201.085767 
L 362.414545 200.855379 
L 363.316364 203.105216 
L 364.218182 208.202434 
L 365.12 217.028932 
L 366.021818 231.458095 
L 366.923636 253.15686 
L 367.825455 253.050338 
L 368.727273 231.821943 
L 369.629091 218.045929 
L 370.530909 210.082179 
L 371.432727 206.215726 
L 372.334545 205.775907 
L 373.236364 208.71713 
L 374.138182 215.532143 
L 375.04 227.245073 
L 375.941818 242.775426 
L 376.843636 242.631458 
L 377.745455 226.504831 
L 378.647273 214.170413 
L 379.549091 206.856587 
L 380.450909 203.595917 
L 381.352727 203.971452 
L 382.254545 208.14041 
L 383.156364 216.886774 
L 384.058182 231.307176 
L 384.96 243.836901 
L 385.861818 231.574932 
L 386.763636 216.051225 
L 387.665455 206.274999 
L 388.567273 201.263045 
L 389.469091 200.24968 
L 390.370909 203.099043 
L 391.272727 210.067084 
L 392.174545 220.383148 
L 393.076364 224.704136 
L 393.978182 213.4594 
L 394.88 200.087802 
L 395.781818 190.322763 
L 396.683636 184.050796 
L 397.585455 180.718225 
L 398.487273 179.995156 
L 398.487273 179.995156 
" clip-path="url(#p2250dfb3dd)" style="fill: none; stroke-dasharray: 5.55,2.4; stroke-dashoffset: 0; stroke: #0000ff; stroke-width: 1.5"/>
   </g>
   <g id="line2d_28">
    <path d="M 73.832727 180.887571 
L 74.737057 181.297081 
L 75.641388 182.736211 
L 78.354378 188.879145 
L 79.258709 191.198584 
L 80.163039 194.254836 
L 81.067369 198.529507 
L 82.876029 209.689672 
L 83.78036 211.899844 
L 84.68469 208.412997 
L 86.49335 196.740195 
L 87.39768 193.36614 
L 88.302011 192.43864 
L 89.206341 194.089408 
L 90.110671 198.437016 
L 91.015001 205.379679 
L 91.919331 213.291549 
L 92.823662 216.316225 
L 93.727992 210.590929 
L 94.632322 202.159219 
L 95.536652 195.461958 
L 96.440983 191.378937 
L 97.345313 189.878144 
L 98.249643 190.875801 
L 99.153973 194.387122 
L 100.058303 200.449964 
L 101.866964 215.78298 
L 102.771294 215.490761 
L 105.484285 194.177644 
L 106.388615 190.503864 
L 107.292945 188.971162 
L 108.197275 189.409673 
L 109.101605 191.692864 
L 110.005936 195.65832 
L 111.814596 205.982055 
L 112.718926 208.44463 
L 113.623257 206.392153 
L 116.336247 191.353466 
L 117.240577 188.080893 
L 118.144908 186.104591 
L 119.049238 185.345389 
L 119.953568 185.705054 
L 120.857898 187.078456 
L 121.762228 189.335539 
L 123.570889 195.578333 
L 124.475219 198.701796 
L 125.379549 200.9514 
L 126.283879 201.736701 
L 127.18821 200.969776 
L 128.09254 199.116023 
L 129.9012 194.620867 
L 130.805531 192.793966 
L 131.709861 191.487896 
L 132.614191 190.749534 
L 133.518521 190.575687 
L 134.422851 190.934914 
L 135.327182 191.774933 
L 136.231512 193.020419 
L 139.848833 199.152298 
L 140.753163 199.811149 
L 141.657493 199.622049 
L 142.561823 198.509473 
L 143.466153 196.574145 
L 144.370484 194.035579 
L 150.700795 174.105846 
L 152.509456 169.612888 
L 154.318116 165.737245 
L 156.126776 162.431606 
L 157.935437 159.677545 
L 159.744097 157.497564 
L 160.648427 156.642943 
L 161.552758 155.962796 
L 162.457088 155.475298 
L 163.361418 155.203402 
L 164.265748 155.175802 
L 165.170079 155.428336 
L 166.074409 156.006035 
L 166.978739 156.966193 
L 167.883069 158.383078 
L 168.787399 160.355407 
L 169.69173 163.018699 
L 170.59606 166.566731 
L 171.50039 171.291048 
L 172.40472 177.658677 
L 173.30905 186.472771 
L 174.213381 199.161992 
L 175.117711 216.933013 
L 176.022041 222.277193 
L 176.926371 202.09017 
L 177.830701 184.686391 
L 178.735032 171.97944 
L 179.639362 162.311379 
L 180.543692 154.712921 
L 181.448022 148.655259 
L 182.352352 143.839511 
L 183.256683 140.095511 
L 184.161013 137.333338 
L 185.065343 135.520221 
L 185.969673 134.67146 
L 186.874004 134.8514 
L 187.778334 136.185076 
L 188.682664 138.886475 
L 189.586994 143.320542 
L 190.491324 150.148576 
L 191.395655 160.726954 
L 192.299985 178.535649 
L 193.204315 216.207063 
L 194.108645 200.888062 
L 195.012975 169.610621 
L 195.917306 152.896145 
L 196.821636 142.183795 
L 197.725966 134.966452 
L 198.630296 130.250786 
L 199.534626 127.607091 
L 200.438957 126.89529 
L 201.343287 128.189417 
L 202.247617 131.807227 
L 203.151947 138.480492 
L 204.056278 149.926084 
L 204.960608 171.368551 
L 205.864938 234.996154 
L 206.769268 176.284438 
L 207.673598 149.634642 
L 208.577929 135.278739 
L 209.482259 126.423465 
L 210.386589 121.090154 
L 211.290919 118.544441 
L 212.195249 118.595391 
L 213.09958 121.453892 
L 214.00391 127.873782 
L 214.90824 139.836016 
L 215.81257 163.774223 
L 216.7169 201.163906 
L 217.621231 152.639343 
L 218.525561 130.257232 
L 219.429891 117.337667 
L 220.334221 109.317774 
L 221.238552 104.698593 
L 222.142882 102.965508 
L 223.047212 104.141276 
L 223.951542 108.805794 
L 224.855872 118.603501 
L 225.760203 138.292704 
L 226.664533 165.433931 
L 227.568863 128.739008 
L 228.473193 104.627931 
L 229.377523 89.278412 
L 230.281854 78.384999 
L 231.186184 70.292146 
L 232.090514 64.212165 
L 232.994844 59.715276 
L 233.899174 56.54729 
L 234.803505 54.552374 
L 235.707835 53.636564 
L 236.612165 53.749706 
L 237.516495 54.877107 
L 238.420826 57.037511 
L 239.325156 60.286624 
L 240.229486 64.727585 
L 241.133816 70.53292 
L 242.038146 77.989534 
L 242.942477 87.597849 
L 243.846807 100.323417 
L 244.751137 118.406719 
L 245.655467 149.495906 
L 246.559797 210.703039 
L 247.464128 146.686784 
L 248.368458 128.70995 
L 249.272788 120.466209 
L 250.177118 117.068154 
L 251.081448 116.997648 
L 251.985779 119.75207 
L 252.890109 125.371895 
L 253.794439 134.459718 
L 254.698769 148.715949 
L 255.6031 173.4056 
L 256.50743 216.552865 
L 257.41176 175.948302 
L 258.31609 155.110916 
L 259.22042 144.406643 
L 260.124751 138.72031 
L 261.029081 136.344008 
L 261.933411 136.597669 
L 262.837741 139.263844 
L 263.742071 144.435473 
L 264.646402 152.508625 
L 265.550732 164.1439 
L 266.455062 178.852495 
L 267.359392 185.702391 
L 268.263722 174.941089 
L 269.168053 162.738866 
L 270.072383 154.111284 
L 270.976713 148.548738 
L 271.881043 145.35206 
L 272.785374 144.071699 
L 273.689704 144.437935 
L 274.594034 146.284978 
L 275.498364 149.484732 
L 276.402694 153.853225 
L 278.211355 163.833627 
L 279.115685 166.763158 
L 280.020015 166.391008 
L 280.924345 163.247542 
L 282.733006 154.981751 
L 283.637336 151.654334 
L 284.541666 149.188274 
L 285.445996 147.56902 
L 286.350327 146.72837 
L 287.254657 146.582918 
L 288.158987 147.045059 
L 289.063317 148.023117 
L 289.967648 149.417148 
L 291.776308 152.980469 
L 293.584968 156.622542 
L 294.489299 158.096054 
L 295.393629 159.185587 
L 296.297959 159.851146 
L 297.202289 160.122857 
L 298.106619 160.085289 
L 299.91528 159.525749 
L 301.72394 158.968019 
L 302.62827 158.853506 
L 303.532601 158.895265 
L 304.436931 159.110081 
L 305.341261 159.505103 
L 306.245591 160.081017 
L 307.149921 160.834362 
L 308.054252 161.759138 
L 309.862912 164.092438 
L 311.671573 167.014568 
L 313.480233 170.455728 
L 315.288893 174.342316 
L 318.001884 180.813952 
L 324.332195 196.439651 
L 327.045186 202.218753 
L 328.853847 206.026271 
L 330.662507 210.499825 
L 331.566837 213.277337 
L 332.471167 216.61425 
L 333.375498 220.687981 
L 334.279828 225.681535 
L 336.992818 243.977672 
L 337.897149 244.532624 
L 338.801479 238.548389 
L 340.610139 220.975011 
L 341.514469 213.41155 
L 342.4188 207.098271 
L 343.32313 201.94937 
L 344.22746 197.864583 
L 345.13179 194.772262 
L 346.036121 192.636525 
L 346.940451 191.457726 
L 347.844781 191.27455 
L 348.749111 192.171255 
L 349.653441 194.29413 
L 350.557772 197.885723 
L 351.462102 203.358432 
L 352.366432 211.470753 
L 353.270762 223.836481 
L 354.175092 244.964232 
L 355.079423 295.488 
L 355.983753 257.981247 
L 356.888083 230.837551 
L 357.792413 216.649444 
L 358.696743 208.084634 
L 359.601074 203.014466 
L 360.505404 200.628982 
L 361.409734 200.656885 
L 362.314064 203.167344 
L 363.218395 208.589382 
L 364.122725 217.957127 
L 365.027055 233.658956 
L 365.931385 259.001313 
L 366.835715 253.965514 
L 367.740046 230.121132 
L 368.644376 216.029416 
L 369.548706 207.907971 
L 370.453036 203.846675 
L 371.357366 203.155494 
L 372.261697 205.807647 
L 373.166027 212.40589 
L 374.070357 224.621297 
L 374.974687 245.967599 
L 375.879017 257.266787 
L 376.783348 232.189487 
L 377.687678 215.511985 
L 378.592008 205.967552 
L 379.496338 201.09071 
L 380.400669 199.934057 
L 381.304999 202.33265 
L 382.209329 208.752846 
L 383.113659 220.511531 
L 384.017989 239.284125 
L 384.92232 247.550319 
L 385.82665 228.674486 
L 386.73098 214.520349 
L 387.63531 206.877617 
L 388.53964 204.19339 
L 389.443971 206.077712 
L 390.348301 213.37025 
L 391.252631 229.564432 
L 392.156961 272.302286 
L 393.061291 248.762457 
L 393.965622 216.673627 
L 394.869952 200.566487 
L 395.774282 190.932086 
L 396.678612 185.123332 
L 397.582943 181.995099 
L 398.487273 180.887571 
L 398.487273 180.887571 
" clip-path="url(#p2250dfb3dd)" style="fill: none; stroke: #0000ff; stroke-width: 1.5; stroke-linecap: square"/>
   </g>
   <g id="line2d_29">
    <path d="M 73.832727 179.995156 
L 74.734545 180.078686 
L 75.636364 180.338458 
L 76.538182 180.771723 
L 77.44 181.374746 
L 78.341818 182.142552 
L 80.145455 184.144069 
L 81.949091 186.694363 
L 84.654545 191.222361 
L 87.36 195.812678 
L 89.163636 198.301701 
L 90.065455 199.239111 
L 90.967273 199.933731 
L 91.869091 200.378226 
L 92.770909 200.583765 
L 93.672727 200.577503 
L 94.574545 200.397617 
L 96.378182 199.689901 
L 100.887273 197.506481 
L 103.592727 196.548885 
L 108.101818 195.122107 
L 109.905455 194.257416 
L 111.709091 193.060419 
L 113.512727 191.487528 
L 115.316364 189.557329 
L 117.12 187.336193 
L 119.825455 183.652116 
L 133.352727 164.620115 
L 139.665455 155.750077 
L 145.076364 147.729858 
L 150.487273 139.302846 
L 158.603636 126.186126 
L 170.327273 107.224841 
L 175.738182 98.842702 
L 180.247273 92.1847 
L 184.756364 85.911674 
L 188.363636 81.22295 
L 191.970909 76.867137 
L 195.578182 72.876455 
L 199.185455 69.277303 
L 201.890909 66.846657 
L 204.596364 64.651979 
L 207.301818 62.694982 
L 210.007273 60.973999 
L 212.712727 59.483833 
L 215.418182 58.215752 
L 218.123636 57.157716 
L 220.829091 56.294867 
L 224.436364 55.418762 
L 228.043636 54.818015 
L 231.650909 54.454581 
L 235.258182 54.300429 
L 238.865455 54.342796 
L 242.472727 54.58667 
L 246.08 55.053733 
L 249.687273 55.778148 
L 252.392727 56.514713 
L 255.098182 57.436332 
L 257.803636 58.559171 
L 260.509091 59.897085 
L 263.214545 61.460895 
L 265.92 63.257972 
L 268.625455 65.292066 
L 271.330909 67.563341 
L 274.036364 70.068554 
L 277.643636 73.761336 
L 281.250909 77.835793 
L 284.858182 82.262196 
L 288.465455 87.005297 
L 292.974545 93.319464 
L 298.385455 101.352465 
L 304.698182 111.165812 
L 325.44 143.850622 
L 330.850909 151.741332 
L 336.261818 159.21003 
L 344.378182 170.314645 
L 347.985455 175.651142 
L 357.003636 189.458379 
L 358.807273 191.539712 
L 360.610909 193.076785 
L 361.512727 193.626998 
L 362.414545 194.039448 
L 364.218182 194.51966 
L 366.923636 194.762307 
L 368.727273 194.933982 
L 370.530909 195.335256 
L 372.334545 196.081044 
L 374.138182 197.194205 
L 378.647273 200.522278 
L 379.549091 200.90933 
L 380.450909 201.054478 
L 381.352727 200.902171 
L 382.254545 200.418936 
L 383.156364 199.600946 
L 384.058182 198.475235 
L 385.861818 195.524725 
L 390.370909 187.143076 
L 392.174545 184.389002 
L 393.978182 182.258463 
L 394.88 181.449427 
L 395.781818 180.817148 
L 396.683636 180.363687 
L 397.585455 180.089781 
L 398.487273 179.995156 
L 398.487273 179.995156 
" clip-path="url(#p2250dfb3dd)" style="fill: none; stroke-dasharray: 5.55,2.4; stroke-dashoffset: 0; stroke: #ff0000; stroke-width: 1.5"/>
   </g>
   <g id="line2d_30">
    <path d="M 73.832727 180.887571 
L 74.737057 181.262871 
L 75.641388 181.896645 
L 76.545718 182.777908 
L 77.450048 183.887697 
L 79.258709 186.658199 
L 81.971699 191.207183 
L 82.876029 192.413791 
L 83.78036 193.255428 
L 84.68469 193.632105 
L 85.58902 193.498791 
L 86.49335 192.87921 
L 87.39768 191.8576 
L 89.206341 189.093635 
L 91.919331 184.794357 
L 92.823662 183.611988 
L 93.727992 182.617754 
L 94.632322 181.828563 
L 95.536652 181.252519 
L 96.440983 180.891287 
L 97.345313 180.741623 
L 98.249643 180.796208 
L 99.153973 181.04394 
L 100.058303 181.469783 
L 100.962634 182.054271 
L 102.771294 183.594536 
L 106.388615 187.062388 
L 107.292945 187.712909 
L 108.197275 188.169361 
L 109.101605 188.391283 
L 110.005936 188.355292 
L 110.910266 188.058391 
L 111.814596 187.517605 
L 112.718926 186.766053 
L 114.527587 184.806527 
L 120.857898 177.102888 
L 122.666559 175.297492 
L 125.379549 172.984047 
L 128.99687 170.322118 
L 132.614191 167.573662 
L 134.422851 165.983659 
L 136.231512 164.181117 
L 138.040172 162.141897 
L 140.753163 158.641127 
L 143.466153 154.675663 
L 147.083474 148.863097 
L 152.509456 139.546116 
L 166.074409 115.992288 
L 172.40472 105.522892 
L 177.830701 96.992561 
L 182.352352 90.274928 
L 186.874004 83.985022 
L 190.491324 79.31174 
L 194.108645 75.000249 
L 197.725966 71.08681 
L 200.438957 68.430127 
L 203.151947 66.020234 
L 205.864938 63.859008 
L 208.577929 61.942846 
L 211.290919 60.262923 
L 214.00391 58.806141 
L 216.7169 57.556731 
L 219.429891 56.498299 
L 223.047212 55.358816 
L 226.664533 54.506713 
L 230.281854 53.928573 
L 233.899174 53.620902 
L 237.516495 53.58429 
L 241.133816 53.8188 
L 244.751137 54.324 
L 248.368458 55.103535 
L 251.985779 56.170747 
L 254.698769 57.174814 
L 257.41176 58.369095 
L 260.124751 59.769111 
L 262.837741 61.389517 
L 265.550732 63.242175 
L 268.263722 65.334713 
L 270.976713 67.669755 
L 273.689704 70.244842 
L 277.307025 74.038995 
L 280.924345 78.22078 
L 284.541666 82.757409 
L 288.158987 87.614098 
L 292.680638 94.084206 
L 297.202289 100.942522 
L 302.62827 109.608069 
L 308.958582 120.197357 
L 318.906214 137.415849 
L 325.236526 148.178029 
L 328.853847 153.929508 
L 331.566837 157.902542 
L 334.279828 161.493645 
L 336.992818 164.657333 
L 339.705809 167.411777 
L 342.4188 169.854657 
L 348.749111 175.336249 
L 351.462102 178.013657 
L 357.792413 184.66336 
L 358.696743 185.389353 
L 359.601074 185.96801 
L 360.505404 186.369409 
L 361.409734 186.57174 
L 362.314064 186.565181 
L 363.218395 186.354282 
L 364.122725 185.95816 
L 365.931385 184.745526 
L 369.548706 181.8543 
L 371.357366 180.817171 
L 372.261697 180.505844 
L 373.166027 180.359681 
L 374.070357 180.393524 
L 374.974687 180.618127 
L 375.879017 181.040014 
L 376.783348 181.660932 
L 377.687678 182.476766 
L 379.496338 184.636203 
L 384.017989 190.991819 
L 384.92232 191.756008 
L 385.82665 192.119075 
L 386.73098 192.031103 
L 387.63531 191.49915 
L 388.53964 190.585725 
L 390.348301 188.032415 
L 393.061291 183.981584 
L 393.965622 182.886248 
L 394.869952 181.996167 
L 395.774282 181.337504 
L 396.678612 180.927289 
L 397.582943 180.775713 
L 398.487273 180.887571 
L 398.487273 180.887571 
" clip-path="url(#p2250dfb3dd)" style="fill: none; stroke: #ff0000; stroke-width: 1.5; stroke-linecap: square"/>
   </g>
   <g id="patch_3">
    <path d="M 57.6 307.584 
L 57.6 41.472 
" style="fill: none; stroke: #000000; stroke-width: 0.8; stroke-linejoin: miter; stroke-linecap: square"/>
   </g>
   <g id="patch_4">
    <path d="M 414.72 307.584 
L 414.72 41.472 
" style="fill: none; stroke: #000000; stroke-width: 0.8; stroke-linejoin: miter; stroke-linecap: square"/>
   </g>
   <g id="patch_5">
    <path d="M 57.6 307.584 
L 414.72 307.584 
" style="fill: none; stroke: #000000; stroke-width: 0.8; stroke-linejoin: miter; stroke-linecap: square"/>
   </g>
   <g id="patch_6">
    <path d="M 57.6 41.472 
L 414.72 41.472 
" style="fill: none; stroke: #000000; stroke-width: 0.8; stroke-linejoin: miter; stroke-linecap: square"/>
   </g>
   <g id="text_16">
    <!-- Antenna Directivity - Series Fed Patch Array -->
    <g transform="translate(104.858438 35.472) scale(0.12 -0.12)">
     <defs>
      <path id="DejaVuSans-61" d="M 2194 1759 
Q 1497 1759 1228 1600 
Q 959 1441 959 1056 
Q 959 750 1161 570 
Q 1363 391 1709 391 
Q 2188 391 2477 730 
Q 2766 1069 2766 1631 
L 2766 1759 
L 2194 1759 
z
M 3341 1997 
L 3341 0 
L 2766 0 
L 2766 531 
Q 2569 213 2275 61 
Q 1981 -91 1556 -91 
Q 1019 -91 701 211 
Q 384 513 384 1019 
Q 384 1609 779 1909 
Q 1175 2209 1959 2209 
L 2766 2209 
L 2766 2266 
Q 2766 2663 2505 2880 
Q 2244 3097 1772 3097 
Q 1472 3097 1187 3025 
Q 903 2953 641 2809 
L 641 3341 
Q 956 3463 1253 3523 
Q 1550 3584 1831 3584 
Q 2591 3584 2966 3190 
Q 3341 2797 3341 1997 
z
" transform="scale(0.015625)"/>
      <path id="DejaVuSans-2d" d="M 313 2009 
L 1997 2009 
L 1997 1497 
L 313 1497 
L 313 2009 
z
" transform="scale(0.015625)"/>
      <path id="DejaVuSans-53" d="M 3425 4513 
L 3425 3897 
Q 3066 4069 2747 4153 
Q 2428 4238 2131 4238 
Q 1616 4238 1336 4038 
Q 1056 3838 1056 3469 
Q 1056 3159 1242 3001 
Q 1428 2844 1947 2747 
L 2328 2669 
Q 3034 2534 3370 2195 
Q 3706 1856 3706 1288 
Q 3706 609 3251 259 
Q 2797 -91 1919 -91 
Q 1588 -91 1214 -16 
Q 841 59 441 206 
L 441 856 
Q 825 641 1194 531 
Q 1563 422 1919 422 
Q 2459 422 2753 634 
Q 3047 847 3047 1241 
Q 3047 1584 2836 1778 
Q 2625 1972 2144 2069 
L 1759 2144 
Q 1053 2284 737 2584 
Q 422 2884 422 3419 
Q 422 4038 858 4394 
Q 1294 4750 2059 4750 
Q 2388 4750 2728 4690 
Q 3069 4631 3425 4513 
z
" transform="scale(0.015625)"/>
      <path id="DejaVuSans-73" d="M 2834 3397 
L 2834 2853 
Q 2591 2978 2328 3040 
Q 2066 3103 1784 3103 
Q 1356 3103 1142 2972 
Q 928 2841 928 2578 
Q 928 2378 1081 2264 
Q 1234 2150 1697 2047 
L 1894 2003 
Q 2506 1872 2764 1633 
Q 3022 1394 3022 966 
Q 3022 478 2636 193 
Q 2250 -91 1575 -91 
Q 1294 -91 989 -36 
Q 684 19 347 128 
L 347 722 
Q 666 556 975 473 
Q 1284 391 1588 391 
Q 1994 391 2212 530 
Q 2431 669 2431 922 
Q 2431 1156 2273 1281 
Q 2116 1406 1581 1522 
L 1381 1569 
Q 847 1681 609 1914 
Q 372 2147 372 2553 
Q 372 3047 722 3315 
Q 1072 3584 1716 3584 
Q 2034 3584 2315 3537 
Q 2597 3491 2834 3397 
z
" transform="scale(0.015625)"/>
      <path id="DejaVuSans-46" d="M 628 4666 
L 3309 4666 
L 3309 4134 
L 1259 4134 
L 1259 2759 
L 3109 2759 
L 3109 2228 
L 1259 2228 
L 1259 0 
L 628 0 
L 628 4666 
z
" transform="scale(0.015625)"/>
      <path id="DejaVuSans-50" d="M 1259 4147 
L 1259 2394 
L 2053 2394 
Q 2494 2394 2734 2622 
Q 2975 2850 2975 3272 
Q 2975 3691 2734 3919 
Q 2494 4147 2053 4147 
L 1259 4147 
z
M 628 4666 
L 2053 4666 
Q 2838 4666 3239 4311 
Q 3641 3956 3641 3272 
Q 3641 2581 3239 2228 
Q 2838 1875 2053 1875 
L 1259 1875 
L 1259 0 
L 628 0 
L 628 4666 
z
" transform="scale(0.015625)"/>
      <path id="DejaVuSans-68" d="M 3513 2113 
L 3513 0 
L 2938 0 
L 2938 2094 
Q 2938 2591 2744 2837 
Q 2550 3084 2163 3084 
Q 1697 3084 1428 2787 
Q 1159 2491 1159 1978 
L 1159 0 
L 581 0 
L 581 4863 
L 1159 4863 
L 1159 2956 
Q 1366 3272 1645 3428 
Q 1925 3584 2291 3584 
Q 2894 3584 3203 3211 
Q 3513 2838 3513 2113 
z
" transform="scale(0.015625)"/>
     </defs>
     <use xlink:href="#DejaVuSans-41"/>
     <use xlink:href="#DejaVuSans-6e" x="68.408203"/>
     <use xlink:href="#DejaVuSans-74" x="131.787109"/>
     <use xlink:href="#DejaVuSans-65" x="170.996094"/>
     <use xlink:href="#DejaVuSans-6e" x="232.519531"/>
     <use xlink:href="#DejaVuSans-6e" x="295.898438"/>
     <use xlink:href="#DejaVuSans-61" x="359.277344"/>
     <use xlink:href="#DejaVuSans-20" x="420.556641"/>
     <use xlink:href="#DejaVuSans-44" x="452.34375"/>
     <use xlink:href="#DejaVuSans-69" x="529.345703"/>
     <use xlink:href="#DejaVuSans-72" x="557.128906"/>
     <use xlink:href="#DejaVuSans-65" x="595.992188"/>
     <use xlink:href="#DejaVuSans-63" x="657.515625"/>
     <use xlink:href="#DejaVuSans-74" x="712.496094"/>
     <use xlink:href="#DejaVuSans-69" x="751.705078"/>
     <use xlink:href="#DejaVuSans-76" x="779.488281"/>
     <use xlink:href="#DejaVuSans-69" x="838.667969"/>
     <use xlink:href="#DejaVuSans-74" x="866.451172"/>
     <use xlink:href="#DejaVuSans-79" x="905.660156"/>
     <use xlink:href="#DejaVuSans-20" x="964.839844"/>
     <use xlink:href="#DejaVuSans-2d" x="996.626953"/>
     <use xlink:href="#DejaVuSans-20" x="1032.710938"/>
     <use xlink:href="#DejaVuSans-53" x="1064.498047"/>
     <use xlink:href="#DejaVuSans-65" x="1127.974609"/>
     <use xlink:href="#DejaVuSans-72" x="1189.498047"/>
     <use xlink:href="#DejaVuSans-69" x="1230.611328"/>
     <use xlink:href="#DejaVuSans-65" x="1258.394531"/>
     <use xlink:href="#DejaVuSans-73" x="1319.917969"/>
     <use xlink:href="#DejaVuSans-20" x="1372.017578"/>
     <use xlink:href="#DejaVuSans-46" x="1403.804688"/>
     <use xlink:href="#DejaVuSans-65" x="1455.824219"/>
     <use xlink:href="#DejaVuSans-64" x="1517.347656"/>
     <use xlink:href="#DejaVuSans-20" x="1580.824219"/>
     <use xlink:href="#DejaVuSans-50" x="1612.611328"/>
     <use xlink:href="#DejaVuSans-61" x="1668.414062"/>
     <use xlink:href="#DejaVuSans-74" x="1729.693359"/>
     <use xlink:href="#DejaVuSans-63" x="1768.902344"/>
     <use xlink:href="#DejaVuSans-68" x="1823.882812"/>
     <use xlink:href="#DejaVuSans-20" x="1887.261719"/>
     <use xlink:href="#DejaVuSans-41" x="1919.048828"/>
     <use xlink:href="#DejaVuSans-72" x="1987.457031"/>
     <use xlink:href="#DejaVuSans-72" x="2026.820312"/>
     <use xlink:href="#DejaVuSans-61" x="2067.933594"/>
     <use xlink:href="#DejaVuSans-79" x="2129.212891"/>
    </g>
   </g>
   <g id="legend_1">
    <g id="patch_7">
     <path d="M 64.6 302.584 
L 226.532813 302.584 
Q 228.532813 302.584 228.532813 300.584 
L 228.532813 242.8715 
Q 228.532813 240.8715 226.532813 240.8715 
L 64.6 240.8715 
Q 62.6 240.8715 62.6 242.8715 
L 62.6 300.584 
Q 62.6 302.584 64.6 302.584 
z
" style="fill: #ffffff; opacity: 0.8; stroke: #cccccc; stroke-linejoin: miter"/>
    </g>
    <g id="line2d_31">
     <path d="M 66.6 248.969937 
L 76.6 248.969937 
L 86.6 248.969937 
" style="fill: none; stroke-dasharray: 5.55,2.4; stroke-dashoffset: 0; stroke: #0000ff; stroke-width: 1.5"/>
    </g>
    <g id="text_17">
     <!-- HFSS Elevation Φ=0 -->
     <g transform="translate(94.6 252.469937) scale(0.1 -0.1)">
      <defs>
       <path id="DejaVuSans-48" d="M 628 4666 
L 1259 4666 
L 1259 2753 
L 3553 2753 
L 3553 4666 
L 4184 4666 
L 4184 0 
L 3553 0 
L 3553 2222 
L 1259 2222 
L 1259 0 
L 628 0 
L 628 4666 
z
" transform="scale(0.015625)"/>
       <path id="DejaVuSans-45" d="M 628 4666 
L 3578 4666 
L 3578 4134 
L 1259 4134 
L 1259 2753 
L 3481 2753 
L 3481 2222 
L 1259 2222 
L 1259 531 
L 3634 531 
L 3634 0 
L 628 0 
L 628 4666 
z
" transform="scale(0.015625)"/>
       <path id="DejaVuSans-6f" d="M 1959 3097 
Q 1497 3097 1228 2736 
Q 959 2375 959 1747 
Q 959 1119 1226 758 
Q 1494 397 1959 397 
Q 2419 397 2687 759 
Q 2956 1122 2956 1747 
Q 2956 2369 2687 2733 
Q 2419 3097 1959 3097 
z
M 1959 3584 
Q 2709 3584 3137 3096 
Q 3566 2609 3566 1747 
Q 3566 888 3137 398 
Q 2709 -91 1959 -91 
Q 1206 -91 779 398 
Q 353 888 353 1747 
Q 353 2609 779 3096 
Q 1206 3584 1959 3584 
z
" transform="scale(0.015625)"/>
       <path id="DejaVuSans-3a6" d="M 2206 3644 
Q 1738 3578 1431 3306 
Q 1025 2947 1025 2328 
Q 1025 1713 1431 1353 
Q 1738 1081 2206 1016 
L 2206 3644 
z
M 2838 1016 
Q 3306 1081 3613 1353 
Q 4013 1713 4013 2328 
Q 4013 2947 3613 3306 
Q 3306 3578 2838 3644 
L 2838 1016 
z
M 2206 494 
Q 1444 563 950 981 
Q 359 1481 359 2328 
Q 359 3175 950 3678 
Q 1441 4100 2206 4169 
L 2206 4666 
L 2838 4666 
L 2838 4169 
Q 3600 4097 4091 3678 
Q 4678 3175 4678 2328 
Q 4678 1484 4091 981 
Q 3600 563 2838 491 
L 2838 0 
L 2206 0 
L 2206 494 
z
" transform="scale(0.015625)"/>
       <path id="DejaVuSans-3d" d="M 678 2906 
L 4684 2906 
L 4684 2381 
L 678 2381 
L 678 2906 
z
M 678 1631 
L 4684 1631 
L 4684 1100 
L 678 1100 
L 678 1631 
z
" transform="scale(0.015625)"/>
      </defs>
      <use xlink:href="#DejaVuSans-48"/>
      <use xlink:href="#DejaVuSans-46" x="75.195312"/>
      <use xlink:href="#DejaVuSans-53" x="130.964844"/>
      <use xlink:href="#DejaVuSans-53" x="194.441406"/>
      <use xlink:href="#DejaVuSans-20" x="257.917969"/>
      <use xlink:href="#DejaVuSans-45" x="289.705078"/>
      <use xlink:href="#DejaVuSans-6c" x="352.888672"/>
      <use xlink:href="#DejaVuSans-65" x="380.671875"/>
      <use xlink:href="#DejaVuSans-76" x="442.195312"/>
      <use xlink:href="#DejaVuSans-61" x="501.375"/>
      <use xlink:href="#DejaVuSans-74" x="562.654297"/>
      <use xlink:href="#DejaVuSans-69" x="601.863281"/>
      <use xlink:href="#DejaVuSans-6f" x="629.646484"/>
      <use xlink:href="#DejaVuSans-6e" x="690.828125"/>
      <use xlink:href="#DejaVuSans-20" x="754.207031"/>
      <use xlink:href="#DejaVuSans-3a6" x="785.994141"/>
      <use xlink:href="#DejaVuSans-3d" x="864.705078"/>
      <use xlink:href="#DejaVuSans-30" x="948.494141"/>
     </g>
    </g>
    <g id="line2d_32">
     <path d="M 66.6 263.648062 
L 76.6 263.648062 
L 86.6 263.648062 
" style="fill: none; stroke: #0000ff; stroke-width: 1.5; stroke-linecap: square"/>
    </g>
    <g id="text_18">
     <!-- WaveFEM Elevation Φ=0 -->
     <g transform="translate(94.6 267.148062) scale(0.1 -0.1)">
      <defs>
       <path id="DejaVuSans-57" d="M 213 4666 
L 850 4666 
L 1831 722 
L 2809 4666 
L 3519 4666 
L 4500 722 
L 5478 4666 
L 6119 4666 
L 4947 0 
L 4153 0 
L 3169 4050 
L 2175 0 
L 1381 0 
L 213 4666 
z
" transform="scale(0.015625)"/>
       <path id="DejaVuSans-4d" d="M 628 4666 
L 1569 4666 
L 2759 1491 
L 3956 4666 
L 4897 4666 
L 4897 0 
L 4281 0 
L 4281 4097 
L 3078 897 
L 2444 897 
L 1241 4097 
L 1241 0 
L 628 0 
L 628 4666 
z
" transform="scale(0.015625)"/>
      </defs>
      <use xlink:href="#DejaVuSans-57"/>
      <use xlink:href="#DejaVuSans-61" x="92.501953"/>
      <use xlink:href="#DejaVuSans-76" x="153.78125"/>
      <use xlink:href="#DejaVuSans-65" x="212.960938"/>
      <use xlink:href="#DejaVuSans-46" x="274.484375"/>
      <use xlink:href="#DejaVuSans-45" x="332.003906"/>
      <use xlink:href="#DejaVuSans-4d" x="395.1875"/>
      <use xlink:href="#DejaVuSans-20" x="481.466797"/>
      <use xlink:href="#DejaVuSans-45" x="513.253906"/>
      <use xlink:href="#DejaVuSans-6c" x="576.4375"/>
      <use xlink:href="#DejaVuSans-65" x="604.220703"/>
      <use xlink:href="#DejaVuSans-76" x="665.744141"/>
      <use xlink:href="#DejaVuSans-61" x="724.923828"/>
      <use xlink:href="#DejaVuSans-74" x="786.203125"/>
      <use xlink:href="#DejaVuSans-69" x="825.412109"/>
      <use xlink:href="#DejaVuSans-6f" x="853.195312"/>
      <use xlink:href="#DejaVuSans-6e" x="914.376953"/>
      <use xlink:href="#DejaVuSans-20" x="977.755859"/>
      <use xlink:href="#DejaVuSans-3a6" x="1009.542969"/>
      <use xlink:href="#DejaVuSans-3d" x="1088.253906"/>
      <use xlink:href="#DejaVuSans-30" x="1172.042969"/>
     </g>
    </g>
    <g id="line2d_33">
     <path d="M 66.6 278.326187 
L 76.6 278.326187 
L 86.6 278.326187 
" style="fill: none; stroke-dasharray: 5.55,2.4; stroke-dashoffset: 0; stroke: #ff0000; stroke-width: 1.5"/>
    </g>
    <g id="text_19">
     <!-- HFSS Elevation Φ=90 -->
     <g transform="translate(94.6 281.826187) scale(0.1 -0.1)">
      <defs>
       <path id="DejaVuSans-39" d="M 703 97 
L 703 672 
Q 941 559 1184 500 
Q 1428 441 1663 441 
Q 2288 441 2617 861 
Q 2947 1281 2994 2138 
Q 2813 1869 2534 1725 
Q 2256 1581 1919 1581 
Q 1219 1581 811 2004 
Q 403 2428 403 3163 
Q 403 3881 828 4315 
Q 1253 4750 1959 4750 
Q 2769 4750 3195 4129 
Q 3622 3509 3622 2328 
Q 3622 1225 3098 567 
Q 2575 -91 1691 -91 
Q 1453 -91 1209 -44 
Q 966 3 703 97 
z
M 1959 2075 
Q 2384 2075 2632 2365 
Q 2881 2656 2881 3163 
Q 2881 3666 2632 3958 
Q 2384 4250 1959 4250 
Q 1534 4250 1286 3958 
Q 1038 3666 1038 3163 
Q 1038 2656 1286 2365 
Q 1534 2075 1959 2075 
z
" transform="scale(0.015625)"/>
      </defs>
      <use xlink:href="#DejaVuSans-48"/>
      <use xlink:href="#DejaVuSans-46" x="75.195312"/>
      <use xlink:href="#DejaVuSans-53" x="130.964844"/>
      <use xlink:href="#DejaVuSans-53" x="194.441406"/>
      <use xlink:href="#DejaVuSans-20" x="257.917969"/>
      <use xlink:href="#DejaVuSans-45" x="289.705078"/>
      <use xlink:href="#DejaVuSans-6c" x="352.888672"/>
      <use xlink:href="#DejaVuSans-65" x="380.671875"/>
      <use xlink:href="#DejaVuSans-76" x="442.195312"/>
      <use xlink:href="#DejaVuSans-61" x="501.375"/>
      <use xlink:href="#DejaVuSans-74" x="562.654297"/>
      <use xlink:href="#DejaVuSans-69" x="601.863281"/>
      <use xlink:href="#DejaVuSans-6f" x="629.646484"/>
      <use xlink:href="#DejaVuSans-6e" x="690.828125"/>
      <use xlink:href="#DejaVuSans-20" x="754.207031"/>
      <use xlink:href="#DejaVuSans-3a6" x="785.994141"/>
      <use xlink:href="#DejaVuSans-3d" x="864.705078"/>
      <use xlink:href="#DejaVuSans-39" x="948.494141"/>
      <use xlink:href="#DejaVuSans-30" x="1012.117188"/>
     </g>
    </g>
    <g id="line2d_34">
     <path d="M 66.6 293.004312 
L 76.6 293.004312 
L 86.6 293.004312 
" style="fill: none; stroke: #ff0000; stroke-width: 1.5; stroke-linecap: square"/>
    </g>
    <g id="text_20">
     <!-- WaveFEM Elevation Φ=90 -->
     <g transform="translate(94.6 296.504312) scale(0.1 -0.1)">
      <use xlink:href="#DejaVuSans-57"/>
      <use xlink:href="#DejaVuSans-61" x="92.501953"/>
      <use xlink:href="#DejaVuSans-76" x="153.78125"/>
      <use xlink:href="#DejaVuSans-65" x="212.960938"/>
      <use xlink:href="#DejaVuSans-46" x="274.484375"/>
      <use xlink:href="#DejaVuSans-45" x="332.003906"/>
      <use xlink:href="#DejaVuSans-4d" x="395.1875"/>
      <use xlink:href="#DejaVuSans-20" x="481.466797"/>
      <use xlink:href="#DejaVuSans-45" x="513.253906"/>
      <use xlink:href="#DejaVuSans-6c" x="576.4375"/>
      <use xlink:href="#DejaVuSans-65" x="604.220703"/>
      <use xlink:href="#DejaVuSans-76" x="665.744141"/>
      <use xlink:href="#DejaVuSans-61" x="724.923828"/>
      <use xlink:href="#DejaVuSans-74" x="786.203125"/>
      <use xlink:href="#DejaVuSans-69" x="825.412109"/>
      <use xlink:href="#DejaVuSans-6f" x="853.195312"/>
      <use xlink:href="#DejaVuSans-6e" x="914.376953"/>
      <use xlink:href="#DejaVuSans-20" x="977.755859"/>
      <use xlink:href="#DejaVuSans-3a6" x="1009.542969"/>
      <use xlink:href="#DejaVuSans-3d" x="1088.253906"/>
      <use xlink:href="#DejaVuSans-39" x="1172.042969"/>
      <use xlink:href="#DejaVuSans-30" x="1235.666016"/>
     </g>
    </g>
   </g>
  </g>
 </g>
 <defs>
  <clipPath id="p2250dfb3dd">
   <rect x="57.6" y="41.472" width="357.12" height="266.112"/>
  </clipPath>
 </defs>
</svg>
