<?xml version="1.0" encoding="utf-8" standalone="no"?>
<!DOCTYPE svg PUBLIC "-//W3C//DTD SVG 1.1//EN"
  "http://www.w3.org/Graphics/SVG/1.1/DTD/svg11.dtd">
<svg xmlns:xlink="http://www.w3.org/1999/xlink" width="460.8pt" height="345.6pt" viewBox="0 0 460.8 345.6" xmlns="http://www.w3.org/2000/svg" version="1.1">
 <metadata>
  <rdf:RDF xmlns:dc="http://purl.org/dc/elements/1.1/" xmlns:cc="http://creativecommons.org/ns#" xmlns:rdf="http://www.w3.org/1999/02/22-rdf-syntax-ns#">
   <cc:Work>
    <dc:type rdf:resource="http://purl.org/dc/dcmitype/StillImage"/>
    <dc:date>2025-09-21T18:58:39.147028</dc:date>
    <dc:format>image/svg+xml</dc:format>
    <dc:creator>
     <cc:Agent>
      <dc:title>Matplotlib v3.9.4, https://matplotlib.org/</dc:title>
     </cc:Agent>
    </dc:creator>
   </cc:Work>
  </rdf:RDF>
 </metadata>
 <defs>
  <style type="text/css">*{stroke-linejoin: round; stroke-linecap: butt}</style>
 </defs>
 <g id="figure_1">
  <g id="patch_1">
   <path d="M 0 345.6 
L 460.8 345.6 
L 460.8 0 
L 0 0 
z
" style="fill: #ffffff"/>
  </g>
  <g id="axes_1">
   <g id="patch_2">
    <path d="M 57.6 307.584 
L 414.72 307.584 
L 414.72 41.472 
L 57.6 41.472 
z
" style="fill: #ffffff"/>
   </g>
   <g id="matplotlib.axis_1">
    <g id="xtick_1">
     <g id="line2d_1">
      <path d="M 57.6 307.584 
L 57.6 41.472 
" clip-path="url(#p1136cba509)" style="fill: none; stroke: #b0b0b0; stroke-width: 0.8; stroke-linecap: square"/>
     </g>
     <g id="line2d_2">
      <defs>
       <path id="me2a21fd302" d="M 0 0 
L 0 3.5 
" style="stroke: #000000; stroke-width: 0.8"/>
      </defs>
      <g>
       <use xlink:href="#me2a21fd302" x="57.6" y="307.584" style="stroke: #000000; stroke-width: 0.8"/>
      </g>
     </g>
     <g id="text_1">
      <!-- 2 -->
      <g transform="translate(54.41875 322.182437) scale(0.1 -0.1)">
       <defs>
        <path id="DejaVuSans-32" d="M 1228 531 
L 3431 531 
L 3431 0 
L 469 0 
L 469 531 
Q 828 903 1448 1529 
Q 2069 2156 2228 2338 
Q 2531 2678 2651 2914 
Q 2772 3150 2772 3378 
Q 2772 3750 2511 3984 
Q 2250 4219 1831 4219 
Q 1534 4219 1204 4116 
Q 875 4013 500 3803 
L 500 4441 
Q 881 4594 1212 4672 
Q 1544 4750 1819 4750 
Q 2544 4750 2975 4387 
Q 3406 4025 3406 3419 
Q 3406 3131 3298 2873 
Q 3191 2616 2906 2266 
Q 2828 2175 2409 1742 
Q 1991 1309 1228 531 
z
" transform="scale(0.015625)"/>
       </defs>
       <use xlink:href="#DejaVuSans-32"/>
      </g>
     </g>
    </g>
    <g id="xtick_2">
     <g id="line2d_3">
      <path d="M 102.24 307.584 
L 102.24 41.472 
" clip-path="url(#p1136cba509)" style="fill: none; stroke: #b0b0b0; stroke-width: 0.8; stroke-linecap: square"/>
     </g>
     <g id="line2d_4">
      <g>
       <use xlink:href="#me2a21fd302" x="102.24" y="307.584" style="stroke: #000000; stroke-width: 0.8"/>
      </g>
     </g>
     <g id="text_2">
      <!-- 3 -->
      <g transform="translate(99.05875 322.182437) scale(0.1 -0.1)">
       <defs>
        <path id="DejaVuSans-33" d="M 2597 2516 
Q 3050 2419 3304 2112 
Q 3559 1806 3559 1356 
Q 3559 666 3084 287 
Q 2609 -91 1734 -91 
Q 1441 -91 1130 -33 
Q 819 25 488 141 
L 488 750 
Q 750 597 1062 519 
Q 1375 441 1716 441 
Q 2309 441 2620 675 
Q 2931 909 2931 1356 
Q 2931 1769 2642 2001 
Q 2353 2234 1838 2234 
L 1294 2234 
L 1294 2753 
L 1863 2753 
Q 2328 2753 2575 2939 
Q 2822 3125 2822 3475 
Q 2822 3834 2567 4026 
Q 2313 4219 1838 4219 
Q 1578 4219 1281 4162 
Q 984 4106 628 3988 
L 628 4550 
Q 988 4650 1302 4700 
Q 1616 4750 1894 4750 
Q 2613 4750 3031 4423 
Q 3450 4097 3450 3541 
Q 3450 3153 3228 2886 
Q 3006 2619 2597 2516 
z
" transform="scale(0.015625)"/>
       </defs>
       <use xlink:href="#DejaVuSans-33"/>
      </g>
     </g>
    </g>
    <g id="xtick_3">
     <g id="line2d_5">
      <path d="M 146.88 307.584 
L 146.88 41.472 
" clip-path="url(#p1136cba509)" style="fill: none; stroke: #b0b0b0; stroke-width: 0.8; stroke-linecap: square"/>
     </g>
     <g id="line2d_6">
      <g>
       <use xlink:href="#me2a21fd302" x="146.88" y="307.584" style="stroke: #000000; stroke-width: 0.8"/>
      </g>
     </g>
     <g id="text_3">
      <!-- 4 -->
      <g transform="translate(143.69875 322.182437) scale(0.1 -0.1)">
       <defs>
        <path id="DejaVuSans-34" d="M 2419 4116 
L 825 1625 
L 2419 1625 
L 2419 4116 
z
M 2253 4666 
L 3047 4666 
L 3047 1625 
L 3713 1625 
L 3713 1100 
L 3047 1100 
L 3047 0 
L 2419 0 
L 2419 1100 
L 313 1100 
L 313 1709 
L 2253 4666 
z
" transform="scale(0.015625)"/>
       </defs>
       <use xlink:href="#DejaVuSans-34"/>
      </g>
     </g>
    </g>
    <g id="xtick_4">
     <g id="line2d_7">
      <path d="M 191.52 307.584 
L 191.52 41.472 
" clip-path="url(#p1136cba509)" style="fill: none; stroke: #b0b0b0; stroke-width: 0.8; stroke-linecap: square"/>
     </g>
     <g id="line2d_8">
      <g>
       <use xlink:href="#me2a21fd302" x="191.52" y="307.584" style="stroke: #000000; stroke-width: 0.8"/>
      </g>
     </g>
     <g id="text_4">
      <!-- 5 -->
      <g transform="translate(188.33875 322.182437) scale(0.1 -0.1)">
       <defs>
        <path id="DejaVuSans-35" d="M 691 4666 
L 3169 4666 
L 3169 4134 
L 1269 4134 
L 1269 2991 
Q 1406 3038 1543 3061 
Q 1681 3084 1819 3084 
Q 2600 3084 3056 2656 
Q 3513 2228 3513 1497 
Q 3513 744 3044 326 
Q 2575 -91 1722 -91 
Q 1428 -91 1123 -41 
Q 819 9 494 109 
L 494 744 
Q 775 591 1075 516 
Q 1375 441 1709 441 
Q 2250 441 2565 725 
Q 2881 1009 2881 1497 
Q 2881 1984 2565 2268 
Q 2250 2553 1709 2553 
Q 1456 2553 1204 2497 
Q 953 2441 691 2322 
L 691 4666 
z
" transform="scale(0.015625)"/>
       </defs>
       <use xlink:href="#DejaVuSans-35"/>
      </g>
     </g>
    </g>
    <g id="xtick_5">
     <g id="line2d_9">
      <path d="M 236.16 307.584 
L 236.16 41.472 
" clip-path="url(#p1136cba509)" style="fill: none; stroke: #b0b0b0; stroke-width: 0.8; stroke-linecap: square"/>
     </g>
     <g id="line2d_10">
      <g>
       <use xlink:href="#me2a21fd302" x="236.16" y="307.584" style="stroke: #000000; stroke-width: 0.8"/>
      </g>
     </g>
     <g id="text_5">
      <!-- 6 -->
      <g transform="translate(232.97875 322.182437) scale(0.1 -0.1)">
       <defs>
        <path id="DejaVuSans-36" d="M 2113 2584 
Q 1688 2584 1439 2293 
Q 1191 2003 1191 1497 
Q 1191 994 1439 701 
Q 1688 409 2113 409 
Q 2538 409 2786 701 
Q 3034 994 3034 1497 
Q 3034 2003 2786 2293 
Q 2538 2584 2113 2584 
z
M 3366 4563 
L 3366 3988 
Q 3128 4100 2886 4159 
Q 2644 4219 2406 4219 
Q 1781 4219 1451 3797 
Q 1122 3375 1075 2522 
Q 1259 2794 1537 2939 
Q 1816 3084 2150 3084 
Q 2853 3084 3261 2657 
Q 3669 2231 3669 1497 
Q 3669 778 3244 343 
Q 2819 -91 2113 -91 
Q 1303 -91 875 529 
Q 447 1150 447 2328 
Q 447 3434 972 4092 
Q 1497 4750 2381 4750 
Q 2619 4750 2861 4703 
Q 3103 4656 3366 4563 
z
" transform="scale(0.015625)"/>
       </defs>
       <use xlink:href="#DejaVuSans-36"/>
      </g>
     </g>
    </g>
    <g id="xtick_6">
     <g id="line2d_11">
      <path d="M 280.8 307.584 
L 280.8 41.472 
" clip-path="url(#p1136cba509)" style="fill: none; stroke: #b0b0b0; stroke-width: 0.8; stroke-linecap: square"/>
     </g>
     <g id="line2d_12">
      <g>
       <use xlink:href="#me2a21fd302" x="280.8" y="307.584" style="stroke: #000000; stroke-width: 0.8"/>
      </g>
     </g>
     <g id="text_6">
      <!-- 7 -->
      <g transform="translate(277.61875 322.182437) scale(0.1 -0.1)">
       <defs>
        <path id="DejaVuSans-37" d="M 525 4666 
L 3525 4666 
L 3525 4397 
L 1831 0 
L 1172 0 
L 2766 4134 
L 525 4134 
L 525 4666 
z
" transform="scale(0.015625)"/>
       </defs>
       <use xlink:href="#DejaVuSans-37"/>
      </g>
     </g>
    </g>
    <g id="xtick_7">
     <g id="line2d_13">
      <path d="M 325.44 307.584 
L 325.44 41.472 
" clip-path="url(#p1136cba509)" style="fill: none; stroke: #b0b0b0; stroke-width: 0.8; stroke-linecap: square"/>
     </g>
     <g id="line2d_14">
      <g>
       <use xlink:href="#me2a21fd302" x="325.44" y="307.584" style="stroke: #000000; stroke-width: 0.8"/>
      </g>
     </g>
     <g id="text_7">
      <!-- 8 -->
      <g transform="translate(322.25875 322.182437) scale(0.1 -0.1)">
       <defs>
        <path id="DejaVuSans-38" d="M 2034 2216 
Q 1584 2216 1326 1975 
Q 1069 1734 1069 1313 
Q 1069 891 1326 650 
Q 1584 409 2034 409 
Q 2484 409 2743 651 
Q 3003 894 3003 1313 
Q 3003 1734 2745 1975 
Q 2488 2216 2034 2216 
z
M 1403 2484 
Q 997 2584 770 2862 
Q 544 3141 544 3541 
Q 544 4100 942 4425 
Q 1341 4750 2034 4750 
Q 2731 4750 3128 4425 
Q 3525 4100 3525 3541 
Q 3525 3141 3298 2862 
Q 3072 2584 2669 2484 
Q 3125 2378 3379 2068 
Q 3634 1759 3634 1313 
Q 3634 634 3220 271 
Q 2806 -91 2034 -91 
Q 1263 -91 848 271 
Q 434 634 434 1313 
Q 434 1759 690 2068 
Q 947 2378 1403 2484 
z
M 1172 3481 
Q 1172 3119 1398 2916 
Q 1625 2713 2034 2713 
Q 2441 2713 2670 2916 
Q 2900 3119 2900 3481 
Q 2900 3844 2670 4047 
Q 2441 4250 2034 4250 
Q 1625 4250 1398 4047 
Q 1172 3844 1172 3481 
z
" transform="scale(0.015625)"/>
       </defs>
       <use xlink:href="#DejaVuSans-38"/>
      </g>
     </g>
    </g>
    <g id="xtick_8">
     <g id="line2d_15">
      <path d="M 370.08 307.584 
L 370.08 41.472 
" clip-path="url(#p1136cba509)" style="fill: none; stroke: #b0b0b0; stroke-width: 0.8; stroke-linecap: square"/>
     </g>
     <g id="line2d_16">
      <g>
       <use xlink:href="#me2a21fd302" x="370.08" y="307.584" style="stroke: #000000; stroke-width: 0.8"/>
      </g>
     </g>
     <g id="text_8">
      <!-- 9 -->
      <g transform="translate(366.89875 322.182437) scale(0.1 -0.1)">
       <defs>
        <path id="DejaVuSans-39" d="M 703 97 
L 703 672 
Q 941 559 1184 500 
Q 1428 441 1663 441 
Q 2288 441 2617 861 
Q 2947 1281 2994 2138 
Q 2813 1869 2534 1725 
Q 2256 1581 1919 1581 
Q 1219 1581 811 2004 
Q 403 2428 403 3163 
Q 403 3881 828 4315 
Q 1253 4750 1959 4750 
Q 2769 4750 3195 4129 
Q 3622 3509 3622 2328 
Q 3622 1225 3098 567 
Q 2575 -91 1691 -91 
Q 1453 -91 1209 -44 
Q 966 3 703 97 
z
M 1959 2075 
Q 2384 2075 2632 2365 
Q 2881 2656 2881 3163 
Q 2881 3666 2632 3958 
Q 2384 4250 1959 4250 
Q 1534 4250 1286 3958 
Q 1038 3666 1038 3163 
Q 1038 2656 1286 2365 
Q 1534 2075 1959 2075 
z
" transform="scale(0.015625)"/>
       </defs>
       <use xlink:href="#DejaVuSans-39"/>
      </g>
     </g>
    </g>
    <g id="xtick_9">
     <g id="line2d_17">
      <path d="M 414.72 307.584 
L 414.72 41.472 
" clip-path="url(#p1136cba509)" style="fill: none; stroke: #b0b0b0; stroke-width: 0.8; stroke-linecap: square"/>
     </g>
     <g id="line2d_18">
      <g>
       <use xlink:href="#me2a21fd302" x="414.72" y="307.584" style="stroke: #000000; stroke-width: 0.8"/>
      </g>
     </g>
     <g id="text_9">
      <!-- 10 -->
      <g transform="translate(408.3575 322.182437) scale(0.1 -0.1)">
       <defs>
        <path id="DejaVuSans-31" d="M 794 531 
L 1825 531 
L 1825 4091 
L 703 3866 
L 703 4441 
L 1819 4666 
L 2450 4666 
L 2450 531 
L 3481 531 
L 3481 0 
L 794 0 
L 794 531 
z
" transform="scale(0.015625)"/>
        <path id="DejaVuSans-30" d="M 2034 4250 
Q 1547 4250 1301 3770 
Q 1056 3291 1056 2328 
Q 1056 1369 1301 889 
Q 1547 409 2034 409 
Q 2525 409 2770 889 
Q 3016 1369 3016 2328 
Q 3016 3291 2770 3770 
Q 2525 4250 2034 4250 
z
M 2034 4750 
Q 2819 4750 3233 4129 
Q 3647 3509 3647 2328 
Q 3647 1150 3233 529 
Q 2819 -91 2034 -91 
Q 1250 -91 836 529 
Q 422 1150 422 2328 
Q 422 3509 836 4129 
Q 1250 4750 2034 4750 
z
" transform="scale(0.015625)"/>
       </defs>
       <use xlink:href="#DejaVuSans-31"/>
       <use xlink:href="#DejaVuSans-30" x="63.623047"/>
      </g>
     </g>
    </g>
    <g id="text_10">
     <!-- Frequency (GHz) -->
     <g transform="translate(194.581094 335.860562) scale(0.1 -0.1)">
      <defs>
       <path id="DejaVuSans-46" d="M 628 4666 
L 3309 4666 
L 3309 4134 
L 1259 4134 
L 1259 2759 
L 3109 2759 
L 3109 2228 
L 1259 2228 
L 1259 0 
L 628 0 
L 628 4666 
z
" transform="scale(0.015625)"/>
       <path id="DejaVuSans-72" d="M 2631 2963 
Q 2534 3019 2420 3045 
Q 2306 3072 2169 3072 
Q 1681 3072 1420 2755 
Q 1159 2438 1159 1844 
L 1159 0 
L 581 0 
L 581 3500 
L 1159 3500 
L 1159 2956 
Q 1341 3275 1631 3429 
Q 1922 3584 2338 3584 
Q 2397 3584 2469 3576 
Q 2541 3569 2628 3553 
L 2631 2963 
z
" transform="scale(0.015625)"/>
       <path id="DejaVuSans-65" d="M 3597 1894 
L 3597 1613 
L 953 1613 
Q 991 1019 1311 708 
Q 1631 397 2203 397 
Q 2534 397 2845 478 
Q 3156 559 3463 722 
L 3463 178 
Q 3153 47 2828 -22 
Q 2503 -91 2169 -91 
Q 1331 -91 842 396 
Q 353 884 353 1716 
Q 353 2575 817 3079 
Q 1281 3584 2069 3584 
Q 2775 3584 3186 3129 
Q 3597 2675 3597 1894 
z
M 3022 2063 
Q 3016 2534 2758 2815 
Q 2500 3097 2075 3097 
Q 1594 3097 1305 2825 
Q 1016 2553 972 2059 
L 3022 2063 
z
" transform="scale(0.015625)"/>
       <path id="DejaVuSans-71" d="M 947 1747 
Q 947 1113 1208 752 
Q 1469 391 1925 391 
Q 2381 391 2643 752 
Q 2906 1113 2906 1747 
Q 2906 2381 2643 2742 
Q 2381 3103 1925 3103 
Q 1469 3103 1208 2742 
Q 947 2381 947 1747 
z
M 2906 525 
Q 2725 213 2448 61 
Q 2172 -91 1784 -91 
Q 1150 -91 751 415 
Q 353 922 353 1747 
Q 353 2572 751 3078 
Q 1150 3584 1784 3584 
Q 2172 3584 2448 3432 
Q 2725 3281 2906 2969 
L 2906 3500 
L 3481 3500 
L 3481 -1331 
L 2906 -1331 
L 2906 525 
z
" transform="scale(0.015625)"/>
       <path id="DejaVuSans-75" d="M 544 1381 
L 544 3500 
L 1119 3500 
L 1119 1403 
Q 1119 906 1312 657 
Q 1506 409 1894 409 
Q 2359 409 2629 706 
Q 2900 1003 2900 1516 
L 2900 3500 
L 3475 3500 
L 3475 0 
L 2900 0 
L 2900 538 
Q 2691 219 2414 64 
Q 2138 -91 1772 -91 
Q 1169 -91 856 284 
Q 544 659 544 1381 
z
M 1991 3584 
L 1991 3584 
z
" transform="scale(0.015625)"/>
       <path id="DejaVuSans-6e" d="M 3513 2113 
L 3513 0 
L 2938 0 
L 2938 2094 
Q 2938 2591 2744 2837 
Q 2550 3084 2163 3084 
Q 1697 3084 1428 2787 
Q 1159 2491 1159 1978 
L 1159 0 
L 581 0 
L 581 3500 
L 1159 3500 
L 1159 2956 
Q 1366 3272 1645 3428 
Q 1925 3584 2291 3584 
Q 2894 3584 3203 3211 
Q 3513 2838 3513 2113 
z
" transform="scale(0.015625)"/>
       <path id="DejaVuSans-63" d="M 3122 3366 
L 3122 2828 
Q 2878 2963 2633 3030 
Q 2388 3097 2138 3097 
Q 1578 3097 1268 2742 
Q 959 2388 959 1747 
Q 959 1106 1268 751 
Q 1578 397 2138 397 
Q 2388 397 2633 464 
Q 2878 531 3122 666 
L 3122 134 
Q 2881 22 2623 -34 
Q 2366 -91 2075 -91 
Q 1284 -91 818 406 
Q 353 903 353 1747 
Q 353 2603 823 3093 
Q 1294 3584 2113 3584 
Q 2378 3584 2631 3529 
Q 2884 3475 3122 3366 
z
" transform="scale(0.015625)"/>
       <path id="DejaVuSans-79" d="M 2059 -325 
Q 1816 -950 1584 -1140 
Q 1353 -1331 966 -1331 
L 506 -1331 
L 506 -850 
L 844 -850 
Q 1081 -850 1212 -737 
Q 1344 -625 1503 -206 
L 1606 56 
L 191 3500 
L 800 3500 
L 1894 763 
L 2988 3500 
L 3597 3500 
L 2059 -325 
z
" transform="scale(0.015625)"/>
       <path id="DejaVuSans-20" transform="scale(0.015625)"/>
       <path id="DejaVuSans-28" d="M 1984 4856 
Q 1566 4138 1362 3434 
Q 1159 2731 1159 2009 
Q 1159 1288 1364 580 
Q 1569 -128 1984 -844 
L 1484 -844 
Q 1016 -109 783 600 
Q 550 1309 550 2009 
Q 550 2706 781 3412 
Q 1013 4119 1484 4856 
L 1984 4856 
z
" transform="scale(0.015625)"/>
       <path id="DejaVuSans-47" d="M 3809 666 
L 3809 1919 
L 2778 1919 
L 2778 2438 
L 4434 2438 
L 4434 434 
Q 4069 175 3628 42 
Q 3188 -91 2688 -91 
Q 1594 -91 976 548 
Q 359 1188 359 2328 
Q 359 3472 976 4111 
Q 1594 4750 2688 4750 
Q 3144 4750 3555 4637 
Q 3966 4525 4313 4306 
L 4313 3634 
Q 3963 3931 3569 4081 
Q 3175 4231 2741 4231 
Q 1884 4231 1454 3753 
Q 1025 3275 1025 2328 
Q 1025 1384 1454 906 
Q 1884 428 2741 428 
Q 3075 428 3337 486 
Q 3600 544 3809 666 
z
" transform="scale(0.015625)"/>
       <path id="DejaVuSans-48" d="M 628 4666 
L 1259 4666 
L 1259 2753 
L 3553 2753 
L 3553 4666 
L 4184 4666 
L 4184 0 
L 3553 0 
L 3553 2222 
L 1259 2222 
L 1259 0 
L 628 0 
L 628 4666 
z
" transform="scale(0.015625)"/>
       <path id="DejaVuSans-7a" d="M 353 3500 
L 3084 3500 
L 3084 2975 
L 922 459 
L 3084 459 
L 3084 0 
L 275 0 
L 275 525 
L 2438 3041 
L 353 3041 
L 353 3500 
z
" transform="scale(0.015625)"/>
       <path id="DejaVuSans-29" d="M 513 4856 
L 1013 4856 
Q 1481 4119 1714 3412 
Q 1947 2706 1947 2009 
Q 1947 1309 1714 600 
Q 1481 -109 1013 -844 
L 513 -844 
Q 928 -128 1133 580 
Q 1338 1288 1338 2009 
Q 1338 2731 1133 3434 
Q 928 4138 513 4856 
z
" transform="scale(0.015625)"/>
      </defs>
      <use xlink:href="#DejaVuSans-46"/>
      <use xlink:href="#DejaVuSans-72" x="50.269531"/>
      <use xlink:href="#DejaVuSans-65" x="89.132812"/>
      <use xlink:href="#DejaVuSans-71" x="150.65625"/>
      <use xlink:href="#DejaVuSans-75" x="214.132812"/>
      <use xlink:href="#DejaVuSans-65" x="277.511719"/>
      <use xlink:href="#DejaVuSans-6e" x="339.035156"/>
      <use xlink:href="#DejaVuSans-63" x="402.414062"/>
      <use xlink:href="#DejaVuSans-79" x="457.394531"/>
      <use xlink:href="#DejaVuSans-20" x="516.574219"/>
      <use xlink:href="#DejaVuSans-28" x="548.361328"/>
      <use xlink:href="#DejaVuSans-47" x="587.375"/>
      <use xlink:href="#DejaVuSans-48" x="664.865234"/>
      <use xlink:href="#DejaVuSans-7a" x="740.060547"/>
      <use xlink:href="#DejaVuSans-29" x="792.550781"/>
     </g>
    </g>
   </g>
   <g id="matplotlib.axis_2">
    <g id="ytick_1">
     <g id="line2d_19">
      <path d="M 57.6 275.805029 
L 414.72 275.805029 
" clip-path="url(#p1136cba509)" style="fill: none; stroke: #b0b0b0; stroke-width: 0.8; stroke-linecap: square"/>
     </g>
     <g id="line2d_20">
      <defs>
       <path id="mbe32f95b5e" d="M 0 0 
L -3.5 0 
" style="stroke: #000000; stroke-width: 0.8"/>
      </defs>
      <g>
       <use xlink:href="#mbe32f95b5e" x="57.6" y="275.805029" style="stroke: #000000; stroke-width: 0.8"/>
      </g>
     </g>
     <g id="text_11">
      <!-- −40 -->
      <g transform="translate(29.495313 279.604248) scale(0.1 -0.1)">
       <defs>
        <path id="DejaVuSans-2212" d="M 678 2272 
L 4684 2272 
L 4684 1741 
L 678 1741 
L 678 2272 
z
" transform="scale(0.015625)"/>
       </defs>
       <use xlink:href="#DejaVuSans-2212"/>
       <use xlink:href="#DejaVuSans-34" x="83.789062"/>
       <use xlink:href="#DejaVuSans-30" x="147.412109"/>
      </g>
     </g>
    </g>
    <g id="ytick_2">
     <g id="line2d_21">
      <path d="M 57.6 220.188965 
L 414.72 220.188965 
" clip-path="url(#p1136cba509)" style="fill: none; stroke: #b0b0b0; stroke-width: 0.8; stroke-linecap: square"/>
     </g>
     <g id="line2d_22">
      <g>
       <use xlink:href="#mbe32f95b5e" x="57.6" y="220.188965" style="stroke: #000000; stroke-width: 0.8"/>
      </g>
     </g>
     <g id="text_12">
      <!-- −30 -->
      <g transform="translate(29.495313 223.988184) scale(0.1 -0.1)">
       <use xlink:href="#DejaVuSans-2212"/>
       <use xlink:href="#DejaVuSans-33" x="83.789062"/>
       <use xlink:href="#DejaVuSans-30" x="147.412109"/>
      </g>
     </g>
    </g>
    <g id="ytick_3">
     <g id="line2d_23">
      <path d="M 57.6 164.572901 
L 414.72 164.572901 
" clip-path="url(#p1136cba509)" style="fill: none; stroke: #b0b0b0; stroke-width: 0.8; stroke-linecap: square"/>
     </g>
     <g id="line2d_24">
      <g>
       <use xlink:href="#mbe32f95b5e" x="57.6" y="164.572901" style="stroke: #000000; stroke-width: 0.8"/>
      </g>
     </g>
     <g id="text_13">
      <!-- −20 -->
      <g transform="translate(29.495313 168.37212) scale(0.1 -0.1)">
       <use xlink:href="#DejaVuSans-2212"/>
       <use xlink:href="#DejaVuSans-32" x="83.789062"/>
       <use xlink:href="#DejaVuSans-30" x="147.412109"/>
      </g>
     </g>
    </g>
    <g id="ytick_4">
     <g id="line2d_25">
      <path d="M 57.6 108.956837 
L 414.72 108.956837 
" clip-path="url(#p1136cba509)" style="fill: none; stroke: #b0b0b0; stroke-width: 0.8; stroke-linecap: square"/>
     </g>
     <g id="line2d_26">
      <g>
       <use xlink:href="#mbe32f95b5e" x="57.6" y="108.956837" style="stroke: #000000; stroke-width: 0.8"/>
      </g>
     </g>
     <g id="text_14">
      <!-- −10 -->
      <g transform="translate(29.495313 112.756056) scale(0.1 -0.1)">
       <use xlink:href="#DejaVuSans-2212"/>
       <use xlink:href="#DejaVuSans-31" x="83.789062"/>
       <use xlink:href="#DejaVuSans-30" x="147.412109"/>
      </g>
     </g>
    </g>
    <g id="ytick_5">
     <g id="line2d_27">
      <path d="M 57.6 53.340773 
L 414.72 53.340773 
" clip-path="url(#p1136cba509)" style="fill: none; stroke: #b0b0b0; stroke-width: 0.8; stroke-linecap: square"/>
     </g>
     <g id="line2d_28">
      <g>
       <use xlink:href="#mbe32f95b5e" x="57.6" y="53.340773" style="stroke: #000000; stroke-width: 0.8"/>
      </g>
     </g>
     <g id="text_15">
      <!-- 0 -->
      <g transform="translate(44.2375 57.139992) scale(0.1 -0.1)">
       <use xlink:href="#DejaVuSans-30"/>
      </g>
     </g>
    </g>
    <g id="text_16">
     <!-- Magnitude (dB) -->
     <g transform="translate(23.415625 213.113156) rotate(-90) scale(0.1 -0.1)">
      <defs>
       <path id="DejaVuSans-4d" d="M 628 4666 
L 1569 4666 
L 2759 1491 
L 3956 4666 
L 4897 4666 
L 4897 0 
L 4281 0 
L 4281 4097 
L 3078 897 
L 2444 897 
L 1241 4097 
L 1241 0 
L 628 0 
L 628 4666 
z
" transform="scale(0.015625)"/>
       <path id="DejaVuSans-61" d="M 2194 1759 
Q 1497 1759 1228 1600 
Q 959 1441 959 1056 
Q 959 750 1161 570 
Q 1363 391 1709 391 
Q 2188 391 2477 730 
Q 2766 1069 2766 1631 
L 2766 1759 
L 2194 1759 
z
M 3341 1997 
L 3341 0 
L 2766 0 
L 2766 531 
Q 2569 213 2275 61 
Q 1981 -91 1556 -91 
Q 1019 -91 701 211 
Q 384 513 384 1019 
Q 384 1609 779 1909 
Q 1175 2209 1959 2209 
L 2766 2209 
L 2766 2266 
Q 2766 2663 2505 2880 
Q 2244 3097 1772 3097 
Q 1472 3097 1187 3025 
Q 903 2953 641 2809 
L 641 3341 
Q 956 3463 1253 3523 
Q 1550 3584 1831 3584 
Q 2591 3584 2966 3190 
Q 3341 2797 3341 1997 
z
" transform="scale(0.015625)"/>
       <path id="DejaVuSans-67" d="M 2906 1791 
Q 2906 2416 2648 2759 
Q 2391 3103 1925 3103 
Q 1463 3103 1205 2759 
Q 947 2416 947 1791 
Q 947 1169 1205 825 
Q 1463 481 1925 481 
Q 2391 481 2648 825 
Q 2906 1169 2906 1791 
z
M 3481 434 
Q 3481 -459 3084 -895 
Q 2688 -1331 1869 -1331 
Q 1566 -1331 1297 -1286 
Q 1028 -1241 775 -1147 
L 775 -588 
Q 1028 -725 1275 -790 
Q 1522 -856 1778 -856 
Q 2344 -856 2625 -561 
Q 2906 -266 2906 331 
L 2906 616 
Q 2728 306 2450 153 
Q 2172 0 1784 0 
Q 1141 0 747 490 
Q 353 981 353 1791 
Q 353 2603 747 3093 
Q 1141 3584 1784 3584 
Q 2172 3584 2450 3431 
Q 2728 3278 2906 2969 
L 2906 3500 
L 3481 3500 
L 3481 434 
z
" transform="scale(0.015625)"/>
       <path id="DejaVuSans-69" d="M 603 3500 
L 1178 3500 
L 1178 0 
L 603 0 
L 603 3500 
z
M 603 4863 
L 1178 4863 
L 1178 4134 
L 603 4134 
L 603 4863 
z
" transform="scale(0.015625)"/>
       <path id="DejaVuSans-74" d="M 1172 4494 
L 1172 3500 
L 2356 3500 
L 2356 3053 
L 1172 3053 
L 1172 1153 
Q 1172 725 1289 603 
Q 1406 481 1766 481 
L 2356 481 
L 2356 0 
L 1766 0 
Q 1100 0 847 248 
Q 594 497 594 1153 
L 594 3053 
L 172 3053 
L 172 3500 
L 594 3500 
L 594 4494 
L 1172 4494 
z
" transform="scale(0.015625)"/>
       <path id="DejaVuSans-64" d="M 2906 2969 
L 2906 4863 
L 3481 4863 
L 3481 0 
L 2906 0 
L 2906 525 
Q 2725 213 2448 61 
Q 2172 -91 1784 -91 
Q 1150 -91 751 415 
Q 353 922 353 1747 
Q 353 2572 751 3078 
Q 1150 3584 1784 3584 
Q 2172 3584 2448 3432 
Q 2725 3281 2906 2969 
z
M 947 1747 
Q 947 1113 1208 752 
Q 1469 391 1925 391 
Q 2381 391 2643 752 
Q 2906 1113 2906 1747 
Q 2906 2381 2643 2742 
Q 2381 3103 1925 3103 
Q 1469 3103 1208 2742 
Q 947 2381 947 1747 
z
" transform="scale(0.015625)"/>
       <path id="DejaVuSans-42" d="M 1259 2228 
L 1259 519 
L 2272 519 
Q 2781 519 3026 730 
Q 3272 941 3272 1375 
Q 3272 1813 3026 2020 
Q 2781 2228 2272 2228 
L 1259 2228 
z
M 1259 4147 
L 1259 2741 
L 2194 2741 
Q 2656 2741 2882 2914 
Q 3109 3088 3109 3444 
Q 3109 3797 2882 3972 
Q 2656 4147 2194 4147 
L 1259 4147 
z
M 628 4666 
L 2241 4666 
Q 2963 4666 3353 4366 
Q 3744 4066 3744 3513 
Q 3744 3084 3544 2831 
Q 3344 2578 2956 2516 
Q 3422 2416 3680 2098 
Q 3938 1781 3938 1306 
Q 3938 681 3513 340 
Q 3088 0 2303 0 
L 628 0 
L 628 4666 
z
" transform="scale(0.015625)"/>
      </defs>
      <use xlink:href="#DejaVuSans-4d"/>
      <use xlink:href="#DejaVuSans-61" x="86.279297"/>
      <use xlink:href="#DejaVuSans-67" x="147.558594"/>
      <use xlink:href="#DejaVuSans-6e" x="211.035156"/>
      <use xlink:href="#DejaVuSans-69" x="274.414062"/>
      <use xlink:href="#DejaVuSans-74" x="302.197266"/>
      <use xlink:href="#DejaVuSans-75" x="341.40625"/>
      <use xlink:href="#DejaVuSans-64" x="404.785156"/>
      <use xlink:href="#DejaVuSans-65" x="468.261719"/>
      <use xlink:href="#DejaVuSans-20" x="529.785156"/>
      <use xlink:href="#DejaVuSans-28" x="561.572266"/>
      <use xlink:href="#DejaVuSans-64" x="600.585938"/>
      <use xlink:href="#DejaVuSans-42" x="664.0625"/>
      <use xlink:href="#DejaVuSans-29" x="732.666016"/>
     </g>
    </g>
   </g>
   <g id="line2d_29">
    <path d="M 57.6 274.875075 
L 62.9568 268.615633 
L 67.4208 263.6775 
L 71.8848 259.060029 
L 76.3488 254.815648 
L 79.92 251.709384 
L 83.4912 248.861234 
L 87.0624 246.256391 
L 91.5264 243.297175 
L 96.8832 240.071042 
L 114.7392 229.667975 
L 119.2032 226.621046 
L 122.7744 223.919675 
L 126.3456 220.93056 
L 129.9168 217.603654 
L 133.488 213.888298 
L 136.1664 210.816703 
L 138.8448 207.478322 
L 141.5232 203.854787 
L 144.2016 199.930369 
L 146.88 195.692903 
L 149.5584 191.13461 
L 153.1296 184.553756 
L 156.7008 177.406157 
L 160.272 169.715897 
L 163.8432 161.521272 
L 168.3072 150.645993 
L 172.7712 139.18194 
L 179.0208 122.436232 
L 188.8416 95.969625 
L 192.4128 87.031626 
L 195.0912 80.885915 
L 197.7696 75.394999 
L 199.5552 72.167835 
L 201.3408 69.322367 
L 203.1264 66.872707 
L 204.912 64.816622 
L 206.6976 63.13586 
L 208.4832 61.798664 
L 210.2688 60.763756 
L 212.0544 59.984841 
L 213.84 59.414732 
L 216.5184 58.854023 
L 219.1968 58.531115 
L 223.6608 58.250978 
L 231.696 57.789905 
L 237.0528 57.243232 
L 243.3024 56.36771 
L 254.016 54.812094 
L 259.3728 54.298783 
L 263.8368 54.084175 
L 269.1936 54.057753 
L 285.264 54.218608 
L 294.192 54.045637 
L 296.8704 54.254377 
L 298.656 54.574723 
L 300.4416 55.099874 
L 302.2272 55.88427 
L 304.0128 56.979633 
L 305.7984 58.428604 
L 307.584 60.258395 
L 309.3696 62.476102 
L 311.1552 65.067108 
L 312.9408 67.997107 
L 315.6192 72.917972 
L 319.1904 80.154796 
L 332.5824 108.137195 
L 336.1536 114.907911 
L 339.7248 121.254554 
L 343.296 127.181026 
L 346.8672 132.710135 
L 350.4384 137.873326 
L 354.0096 142.703273 
L 358.4736 148.316166 
L 362.9376 153.498631 
L 367.4016 158.281911 
L 371.8656 162.686361 
L 376.3296 166.725025 
L 380.7936 170.40671 
L 385.2576 173.738225 
L 388.8288 176.155594 
L 392.4 178.356525 
L 395.9712 180.345309 
L 399.5424 182.12733 
L 404.0064 184.074849 
L 408.4704 185.728666 
L 412.9344 187.114542 
L 414.72 187.601496 
L 414.72 187.601496 
" clip-path="url(#p1136cba509)" style="fill: none; stroke-dasharray: 5.55,2.4; stroke-dashoffset: 0; stroke: #0000ff; stroke-width: 1.5"/>
   </g>
   <g id="line2d_30">
    <path d="M 57.6 53.568 
L 79.0272 53.919629 
L 124.56 54.965152 
L 137.952 55.515905 
L 147.7728 56.141518 
L 154.9152 56.793395 
L 161.1648 57.577154 
L 166.5216 58.491213 
L 170.9856 59.511905 
L 174.5568 60.578404 
L 177.2352 61.582739 
L 179.9136 62.824076 
L 182.592 64.380819 
L 184.3776 65.645606 
L 186.1632 67.138846 
L 187.9488 68.910912 
L 189.7344 71.02296 
L 191.52 73.548502 
L 193.3056 76.574971 
L 195.0912 80.205373 
L 196.8768 84.560529 
L 198.6624 89.783155 
L 200.448 96.04641 
L 202.2336 103.572144 
L 204.0192 112.669464 
L 205.8048 123.818005 
L 206.6976 130.401129 
L 207.5904 137.862758 
L 208.4832 146.450086 
L 209.376 156.551901 
L 210.2688 168.830134 
L 211.1616 184.548658 
L 212.0544 206.602412 
L 212.9472 244.183049 
L 213.84 288.263973 
L 214.7328 229.972012 
L 215.6256 202.937988 
L 216.5184 186.426619 
L 217.4112 174.797222 
L 218.304 165.984201 
L 219.1968 159.006506 
L 220.0896 153.321559 
L 220.9824 148.597776 
L 221.8752 144.617724 
L 222.768 141.231181 
L 223.6608 138.33012 
L 224.5536 135.834386 
L 225.4464 133.683 
L 226.3392 131.828636 
L 227.232 130.233976 
L 228.1248 128.869218 
L 229.0176 127.710335 
L 229.9104 126.737817 
L 230.8032 125.935759 
L 231.696 125.291172 
L 232.5888 124.793472 
L 233.4816 124.434078 
L 234.3744 124.206113 
L 235.2672 124.104166 
L 236.16 124.124102 
L 237.0528 124.262931 
L 237.9456 124.518688 
L 239.7312 125.377823 
L 241.5168 126.703884 
L 243.3024 128.512795 
L 245.088 130.834372 
L 246.8736 133.714006 
L 248.6592 137.216063 
L 250.4448 141.429823 
L 252.2304 146.479611 
L 254.016 152.542375 
L 255.8016 159.879679 
L 257.5872 168.900258 
L 258.48 174.240066 
L 259.3728 180.295409 
L 260.2656 187.250632 
L 261.1584 195.377728 
L 262.0512 205.101122 
L 262.944 217.132614 
L 263.8368 232.779512 
L 264.7296 254.644477 
L 265.6224 285.386253 
L 266.5152 285.945645 
L 267.408 256.363332 
L 268.3008 235.66831 
L 269.1936 221.203153 
L 270.0864 210.372173 
L 270.9792 201.874888 
L 271.872 195.006577 
L 272.7648 189.35045 
L 273.6576 184.642945 
L 274.5504 180.709175 
L 275.4432 177.429315 
L 276.336 174.719893 
L 277.2288 172.522874 
L 278.1216 170.799102 
L 279.0144 169.524362 
L 279.9072 168.687171 
L 280.8 168.287816 
L 281.6928 168.338468 
L 282.5856 168.864386 
L 283.4784 169.906448 
L 284.3712 171.525578 
L 285.264 173.810124 
L 286.1568 176.888308 
L 287.0496 180.95005 
L 287.9424 186.28764 
L 288.8352 193.378475 
L 289.728 203.075431 
L 290.6208 217.133495 
L 291.5136 240.198296 
L 292.4064 295.488 
L 293.2992 280.409548 
L 294.192 228.975462 
L 295.0848 202.941085 
L 295.9776 184.948192 
L 296.8704 170.997035 
L 297.7632 159.508667 
L 298.656 149.697565 
L 300.4416 133.489368 
L 302.2272 120.416254 
L 304.0128 109.572283 
L 305.7984 100.466511 
L 307.584 92.797116 
L 309.3696 86.353272 
L 311.1552 80.968153 
L 312.9408 76.496706 
L 314.7264 72.80668 
L 316.512 69.776569 
L 318.2976 67.296405 
L 320.0832 65.269059 
L 321.8688 63.610893 
L 323.6544 62.251496 
L 325.44 61.132681 
L 328.1184 59.804376 
L 330.7968 58.789841 
L 333.4752 58.00107 
L 337.0464 57.195167 
L 341.5104 56.449291 
L 346.8672 55.789311 
L 354.0096 55.141028 
L 362.9376 54.561225 
L 372.7584 54.154243 
L 382.5792 53.965881 
L 393.2928 53.984152 
L 404.0064 54.22251 
L 413.8272 54.649435 
L 414.72 54.699297 
L 414.72 54.699297 
" clip-path="url(#p1136cba509)" style="fill: none; stroke-dasharray: 5.55,2.4; stroke-dashoffset: 0; stroke: #ff0000; stroke-width: 1.5"/>
   </g>
   <g id="line2d_31">
    <path d="M 57.6 262.280659 
L 61.178357 261.059946 
L 64.756713 259.590866 
L 69.050741 257.563058 
L 74.060441 254.924239 
L 80.501483 251.243692 
L 88.373868 246.470597 
L 96.246253 241.440517 
L 101.971623 237.54993 
L 106.981323 233.890577 
L 111.275351 230.484059 
L 114.853707 227.39772 
L 118.432064 224.03708 
L 122.010421 220.356942 
L 125.588778 216.31671 
L 129.167134 211.883942 
L 132.745491 207.037197 
L 136.323848 201.767559 
L 139.902204 196.078473 
L 143.480561 189.984001 
L 146.343246 184.831042 
L 146.88 185.097058 
L 147.058918 183.50598 
L 151.352946 175.263408 
L 155.646974 166.555159 
L 160.656673 155.870369 
L 166.382044 143.055808 
L 172.823086 128.01514 
L 189.283527 89.12558 
L 192.146212 83.048231 
L 195.008898 77.500556 
L 197.155912 73.774389 
L 199.302926 70.475957 
L 201.44994 67.635751 
L 203.596954 65.261172 
L 205.743968 63.335427 
L 207.890982 61.820582 
L 210.037996 60.663734 
L 212.18501 59.804409 
L 214.332024 59.181334 
L 217.194709 58.620464 
L 220.773066 58.196233 
L 227.214108 57.749353 
L 235.802164 57.117468 
L 237.233507 56.9833 
L 245.821563 56.034996 
L 256.556633 54.869475 
L 262.282004 54.478499 
L 268.007375 54.322614 
L 274.448417 54.38755 
L 280.173788 54.555558 
L 280.889459 54.578732 
L 290.908858 54.994201 
L 294.487214 55.362913 
L 297.3499 55.916417 
L 299.496914 56.573091 
L 301.643928 57.513223 
L 303.075271 58.332297 
L 304.506613 59.327696 
L 305.937956 60.515287 
L 307.369299 61.906392 
L 309.516313 64.385329 
L 311.663327 67.325959 
L 313.810341 70.690143 
L 316.673026 75.724872 
L 320.251383 82.64249 
L 325.261082 92.872413 
L 325.44 93.347412 
L 326.692425 95.816923 
L 332.417796 107.34817 
L 336.711824 115.543043 
L 341.005852 123.240233 
L 344.584208 129.249977 
L 348.162565 134.890524 
L 351.740922 140.170612 
L 355.319279 145.104485 
L 358.897635 149.709508 
L 362.475992 154.004686 
L 366.77002 158.777647 
L 371.064048 163.166868 
L 375.358076 167.20551 
L 379.652104 170.925091 
L 383.946132 174.354955 
L 388.24016 177.521878 
L 393.24986 180.916059 
L 398.259559 184.017658 
L 403.269259 186.853949 
L 408.278958 189.446905 
L 413.288657 191.813807 
L 414.72 192.450509 
L 414.72 192.450509 
" clip-path="url(#p1136cba509)" style="fill: none; stroke: #0000ff; stroke-width: 1.5; stroke-linecap: square"/>
   </g>
   <g id="line2d_32">
    <path d="M 57.6 53.753797 
L 85.511182 54.030369 
L 103.402966 54.429308 
L 117.716393 54.960367 
L 129.882806 55.617838 
L 140.617876 56.418262 
L 146.343246 56.96388 
L 146.88 56.832681 
L 147.058918 57.039521 
L 154.215631 57.912078 
L 159.941002 58.812646 
L 164.950701 59.823573 
L 169.244729 60.935631 
L 172.823086 62.112972 
L 175.685772 63.282757 
L 178.548457 64.725985 
L 180.695471 66.041388 
L 182.842485 67.610976 
L 184.989499 69.497224 
L 187.136513 71.777649 
L 188.567856 73.563086 
L 189.999198 75.598594 
L 191.430541 77.921466 
L 192.861884 80.57359 
L 194.293226 83.601871 
L 195.724569 87.058876 
L 197.155912 91.003959 
L 198.587255 95.505264 
L 200.018597 100.643258 
L 201.44994 106.516878 
L 202.881283 113.254122 
L 204.312625 121.030583 
L 205.743968 130.103054 
L 207.175311 140.874527 
L 208.606653 154.032336 
L 210.037996 170.881936 
L 210.753667 181.470514 
L 211.469339 194.284679 
L 212.18501 210.340677 
L 213.616353 249.647808 
L 214.332024 243.235605 
L 215.047695 223.834402 
L 215.763367 207.87699 
L 216.479038 195.769865 
L 217.194709 186.332565 
L 217.910381 178.743494 
L 218.626052 172.486939 
L 220.057395 162.749357 
L 221.488737 155.53089 
L 222.92008 150.013825 
L 224.351423 145.726146 
L 225.782766 142.372338 
L 227.214108 139.756307 
L 228.645451 137.742349 
L 230.076794 136.233712 
L 231.508136 135.160052 
L 232.939479 134.469705 
L 234.370822 134.12474 
L 235.802164 134.097694 
L 236.16 134.896724 
L 236.517836 134.197115 
L 237.949178 134.61313 
L 239.380521 135.311488 
L 240.811864 136.288222 
L 242.243206 137.544327 
L 243.674549 139.085551 
L 245.105892 140.922411 
L 246.537234 143.070476 
L 247.968577 145.550896 
L 249.39992 148.391299 
L 250.831263 151.627116 
L 252.262605 155.303569 
L 253.693948 159.478599 
L 255.125291 164.227266 
L 256.556633 169.648526 
L 257.987976 175.876004 
L 259.419319 183.095818 
L 260.850661 191.577579 
L 262.282004 201.731328 
L 263.713347 214.217867 
L 265.144689 230.16277 
L 265.860361 239.9845 
L 267.291703 264.327804 
L 268.007375 277.064947 
L 268.723046 283.487613 
L 269.438717 278.445916 
L 271.585731 247.516571 
L 272.301403 239.888128 
L 273.017074 233.614968 
L 273.732745 228.451749 
L 274.448417 224.208898 
L 275.164088 220.747739 
L 275.87976 217.969093 
L 276.595431 215.803767 
L 277.311102 214.205879 
L 278.026774 213.148582 
L 278.742445 212.621654 
L 279.458116 212.630621 
L 280.173788 213.197292 
L 280.8 215.094641 
L 280.889459 214.36178 
L 281.60513 216.186323 
L 282.320802 218.761432 
L 283.036473 222.215022 
L 283.752144 226.724529 
L 284.467816 232.527752 
L 285.183487 239.906921 
L 286.61483 259.057091 
L 287.330501 265.537213 
L 288.046172 260.900961 
L 290.908858 207.211007 
L 292.3402 187.628186 
L 293.771543 171.779826 
L 295.202886 158.433783 
L 296.634228 146.88372 
L 298.065571 136.704764 
L 300.212585 123.445104 
L 302.359599 112.128739 
L 304.506613 102.435661 
L 306.653627 94.164475 
L 308.08497 89.366882 
L 309.516313 85.097911 
L 310.947655 81.320487 
L 312.378998 77.996916 
L 313.810341 75.088491 
L 315.241683 72.555808 
L 316.673026 70.359514 
L 318.104369 68.461207 
L 319.535711 66.824302 
L 321.682725 64.785335 
L 323.829739 63.156331 
L 325.976754 61.851334 
L 328.123768 60.800156 
L 330.986453 59.698236 
L 333.849138 58.848297 
L 337.427495 58.032425 
L 341.721523 57.293358 
L 347.446894 56.555324 
L 355.319279 55.795637 
L 365.338677 55.064971 
L 376.073747 54.507938 
L 385.377475 54.245796 
L 393.24986 54.230004 
L 401.122244 54.444521 
L 408.278958 54.866871 
L 414.72 55.445092 
L 414.72 55.445092 
" clip-path="url(#p1136cba509)" style="fill: none; stroke: #ff0000; stroke-width: 1.5; stroke-linecap: square"/>
   </g>
   <g id="patch_3">
    <path d="M 57.6 307.584 
L 57.6 41.472 
" style="fill: none; stroke: #000000; stroke-width: 0.8; stroke-linejoin: miter; stroke-linecap: square"/>
   </g>
   <g id="patch_4">
    <path d="M 414.72 307.584 
L 414.72 41.472 
" style="fill: none; stroke: #000000; stroke-width: 0.8; stroke-linejoin: miter; stroke-linecap: square"/>
   </g>
   <g id="patch_5">
    <path d="M 57.6 307.584 
L 414.72 307.584 
" style="fill: none; stroke: #000000; stroke-width: 0.8; stroke-linejoin: miter; stroke-linecap: square"/>
   </g>
   <g id="patch_6">
    <path d="M 57.6 41.472 
L 414.72 41.472 
" style="fill: none; stroke: #000000; stroke-width: 0.8; stroke-linejoin: miter; stroke-linecap: square"/>
   </g>
   <g id="text_17">
    <!-- S-Parameters (2.0-10.0 GHz) - Coupled Line Filter -->
    <g transform="translate(88.176562 35.472) scale(0.12 -0.12)">
     <defs>
      <path id="DejaVuSans-53" d="M 3425 4513 
L 3425 3897 
Q 3066 4069 2747 4153 
Q 2428 4238 2131 4238 
Q 1616 4238 1336 4038 
Q 1056 3838 1056 3469 
Q 1056 3159 1242 3001 
Q 1428 2844 1947 2747 
L 2328 2669 
Q 3034 2534 3370 2195 
Q 3706 1856 3706 1288 
Q 3706 609 3251 259 
Q 2797 -91 1919 -91 
Q 1588 -91 1214 -16 
Q 841 59 441 206 
L 441 856 
Q 825 641 1194 531 
Q 1563 422 1919 422 
Q 2459 422 2753 634 
Q 3047 847 3047 1241 
Q 3047 1584 2836 1778 
Q 2625 1972 2144 2069 
L 1759 2144 
Q 1053 2284 737 2584 
Q 422 2884 422 3419 
Q 422 4038 858 4394 
Q 1294 4750 2059 4750 
Q 2388 4750 2728 4690 
Q 3069 4631 3425 4513 
z
" transform="scale(0.015625)"/>
      <path id="DejaVuSans-2d" d="M 313 2009 
L 1997 2009 
L 1997 1497 
L 313 1497 
L 313 2009 
z
" transform="scale(0.015625)"/>
      <path id="DejaVuSans-50" d="M 1259 4147 
L 1259 2394 
L 2053 2394 
Q 2494 2394 2734 2622 
Q 2975 2850 2975 3272 
Q 2975 3691 2734 3919 
Q 2494 4147 2053 4147 
L 1259 4147 
z
M 628 4666 
L 2053 4666 
Q 2838 4666 3239 4311 
Q 3641 3956 3641 3272 
Q 3641 2581 3239 2228 
Q 2838 1875 2053 1875 
L 1259 1875 
L 1259 0 
L 628 0 
L 628 4666 
z
" transform="scale(0.015625)"/>
      <path id="DejaVuSans-6d" d="M 3328 2828 
Q 3544 3216 3844 3400 
Q 4144 3584 4550 3584 
Q 5097 3584 5394 3201 
Q 5691 2819 5691 2113 
L 5691 0 
L 5113 0 
L 5113 2094 
Q 5113 2597 4934 2840 
Q 4756 3084 4391 3084 
Q 3944 3084 3684 2787 
Q 3425 2491 3425 1978 
L 3425 0 
L 2847 0 
L 2847 2094 
Q 2847 2600 2669 2842 
Q 2491 3084 2119 3084 
Q 1678 3084 1418 2786 
Q 1159 2488 1159 1978 
L 1159 0 
L 581 0 
L 581 3500 
L 1159 3500 
L 1159 2956 
Q 1356 3278 1631 3431 
Q 1906 3584 2284 3584 
Q 2666 3584 2933 3390 
Q 3200 3197 3328 2828 
z
" transform="scale(0.015625)"/>
      <path id="DejaVuSans-73" d="M 2834 3397 
L 2834 2853 
Q 2591 2978 2328 3040 
Q 2066 3103 1784 3103 
Q 1356 3103 1142 2972 
Q 928 2841 928 2578 
Q 928 2378 1081 2264 
Q 1234 2150 1697 2047 
L 1894 2003 
Q 2506 1872 2764 1633 
Q 3022 1394 3022 966 
Q 3022 478 2636 193 
Q 2250 -91 1575 -91 
Q 1294 -91 989 -36 
Q 684 19 347 128 
L 347 722 
Q 666 556 975 473 
Q 1284 391 1588 391 
Q 1994 391 2212 530 
Q 2431 669 2431 922 
Q 2431 1156 2273 1281 
Q 2116 1406 1581 1522 
L 1381 1569 
Q 847 1681 609 1914 
Q 372 2147 372 2553 
Q 372 3047 722 3315 
Q 1072 3584 1716 3584 
Q 2034 3584 2315 3537 
Q 2597 3491 2834 3397 
z
" transform="scale(0.015625)"/>
      <path id="DejaVuSans-2e" d="M 684 794 
L 1344 794 
L 1344 0 
L 684 0 
L 684 794 
z
" transform="scale(0.015625)"/>
      <path id="DejaVuSans-43" d="M 4122 4306 
L 4122 3641 
Q 3803 3938 3442 4084 
Q 3081 4231 2675 4231 
Q 1875 4231 1450 3742 
Q 1025 3253 1025 2328 
Q 1025 1406 1450 917 
Q 1875 428 2675 428 
Q 3081 428 3442 575 
Q 3803 722 4122 1019 
L 4122 359 
Q 3791 134 3420 21 
Q 3050 -91 2638 -91 
Q 1578 -91 968 557 
Q 359 1206 359 2328 
Q 359 3453 968 4101 
Q 1578 4750 2638 4750 
Q 3056 4750 3426 4639 
Q 3797 4528 4122 4306 
z
" transform="scale(0.015625)"/>
      <path id="DejaVuSans-6f" d="M 1959 3097 
Q 1497 3097 1228 2736 
Q 959 2375 959 1747 
Q 959 1119 1226 758 
Q 1494 397 1959 397 
Q 2419 397 2687 759 
Q 2956 1122 2956 1747 
Q 2956 2369 2687 2733 
Q 2419 3097 1959 3097 
z
M 1959 3584 
Q 2709 3584 3137 3096 
Q 3566 2609 3566 1747 
Q 3566 888 3137 398 
Q 2709 -91 1959 -91 
Q 1206 -91 779 398 
Q 353 888 353 1747 
Q 353 2609 779 3096 
Q 1206 3584 1959 3584 
z
" transform="scale(0.015625)"/>
      <path id="DejaVuSans-70" d="M 1159 525 
L 1159 -1331 
L 581 -1331 
L 581 3500 
L 1159 3500 
L 1159 2969 
Q 1341 3281 1617 3432 
Q 1894 3584 2278 3584 
Q 2916 3584 3314 3078 
Q 3713 2572 3713 1747 
Q 3713 922 3314 415 
Q 2916 -91 2278 -91 
Q 1894 -91 1617 61 
Q 1341 213 1159 525 
z
M 3116 1747 
Q 3116 2381 2855 2742 
Q 2594 3103 2138 3103 
Q 1681 3103 1420 2742 
Q 1159 2381 1159 1747 
Q 1159 1113 1420 752 
Q 1681 391 2138 391 
Q 2594 391 2855 752 
Q 3116 1113 3116 1747 
z
" transform="scale(0.015625)"/>
      <path id="DejaVuSans-6c" d="M 603 4863 
L 1178 4863 
L 1178 0 
L 603 0 
L 603 4863 
z
" transform="scale(0.015625)"/>
      <path id="DejaVuSans-4c" d="M 628 4666 
L 1259 4666 
L 1259 531 
L 3531 531 
L 3531 0 
L 628 0 
L 628 4666 
z
" transform="scale(0.015625)"/>
     </defs>
     <use xlink:href="#DejaVuSans-53"/>
     <use xlink:href="#DejaVuSans-2d" x="63.476562"/>
     <use xlink:href="#DejaVuSans-50" x="99.560547"/>
     <use xlink:href="#DejaVuSans-61" x="155.363281"/>
     <use xlink:href="#DejaVuSans-72" x="216.642578"/>
     <use xlink:href="#DejaVuSans-61" x="257.755859"/>
     <use xlink:href="#DejaVuSans-6d" x="319.035156"/>
     <use xlink:href="#DejaVuSans-65" x="416.447266"/>
     <use xlink:href="#DejaVuSans-74" x="477.970703"/>
     <use xlink:href="#DejaVuSans-65" x="517.179688"/>
     <use xlink:href="#DejaVuSans-72" x="578.703125"/>
     <use xlink:href="#DejaVuSans-73" x="619.816406"/>
     <use xlink:href="#DejaVuSans-20" x="671.916016"/>
     <use xlink:href="#DejaVuSans-28" x="703.703125"/>
     <use xlink:href="#DejaVuSans-32" x="742.716797"/>
     <use xlink:href="#DejaVuSans-2e" x="806.339844"/>
     <use xlink:href="#DejaVuSans-30" x="838.126953"/>
     <use xlink:href="#DejaVuSans-2d" x="901.75"/>
     <use xlink:href="#DejaVuSans-31" x="937.833984"/>
     <use xlink:href="#DejaVuSans-30" x="1001.457031"/>
     <use xlink:href="#DejaVuSans-2e" x="1065.080078"/>
     <use xlink:href="#DejaVuSans-30" x="1096.867188"/>
     <use xlink:href="#DejaVuSans-20" x="1160.490234"/>
     <use xlink:href="#DejaVuSans-47" x="1192.277344"/>
     <use xlink:href="#DejaVuSans-48" x="1269.767578"/>
     <use xlink:href="#DejaVuSans-7a" x="1344.962891"/>
     <use xlink:href="#DejaVuSans-29" x="1397.453125"/>
     <use xlink:href="#DejaVuSans-20" x="1436.466797"/>
     <use xlink:href="#DejaVuSans-2d" x="1468.253906"/>
     <use xlink:href="#DejaVuSans-20" x="1504.337891"/>
     <use xlink:href="#DejaVuSans-43" x="1536.125"/>
     <use xlink:href="#DejaVuSans-6f" x="1605.949219"/>
     <use xlink:href="#DejaVuSans-75" x="1667.130859"/>
     <use xlink:href="#DejaVuSans-70" x="1730.509766"/>
     <use xlink:href="#DejaVuSans-6c" x="1793.986328"/>
     <use xlink:href="#DejaVuSans-65" x="1821.769531"/>
     <use xlink:href="#DejaVuSans-64" x="1883.292969"/>
     <use xlink:href="#DejaVuSans-20" x="1946.769531"/>
     <use xlink:href="#DejaVuSans-4c" x="1978.556641"/>
     <use xlink:href="#DejaVuSans-69" x="2034.269531"/>
     <use xlink:href="#DejaVuSans-6e" x="2062.052734"/>
     <use xlink:href="#DejaVuSans-65" x="2125.431641"/>
     <use xlink:href="#DejaVuSans-20" x="2186.955078"/>
     <use xlink:href="#DejaVuSans-46" x="2218.742188"/>
     <use xlink:href="#DejaVuSans-69" x="2269.011719"/>
     <use xlink:href="#DejaVuSans-6c" x="2296.794922"/>
     <use xlink:href="#DejaVuSans-74" x="2324.578125"/>
     <use xlink:href="#DejaVuSans-65" x="2363.787109"/>
     <use xlink:href="#DejaVuSans-72" x="2425.310547"/>
    </g>
   </g>
   <g id="legend_1">
    <g id="patch_7">
     <path d="M 305.32 302.584 
L 407.72 302.584 
Q 409.72 302.584 409.72 300.584 
L 409.72 242.8715 
Q 409.72 240.8715 407.72 240.8715 
L 305.32 240.8715 
Q 303.32 240.8715 303.32 242.8715 
L 303.32 300.584 
Q 303.32 302.584 305.32 302.584 
z
" style="fill: #ffffff; opacity: 0.8; stroke: #cccccc; stroke-linejoin: miter"/>
    </g>
    <g id="line2d_33">
     <path d="M 307.32 248.969937 
L 317.32 248.969937 
L 327.32 248.969937 
" style="fill: none; stroke-dasharray: 5.55,2.4; stroke-dashoffset: 0; stroke: #0000ff; stroke-width: 1.5"/>
    </g>
    <g id="text_18">
     <!-- HFSS S21 -->
     <g transform="translate(335.32 252.469937) scale(0.1 -0.1)">
      <use xlink:href="#DejaVuSans-48"/>
      <use xlink:href="#DejaVuSans-46" x="75.195312"/>
      <use xlink:href="#DejaVuSans-53" x="130.964844"/>
      <use xlink:href="#DejaVuSans-53" x="194.441406"/>
      <use xlink:href="#DejaVuSans-20" x="257.917969"/>
      <use xlink:href="#DejaVuSans-53" x="289.705078"/>
      <use xlink:href="#DejaVuSans-32" x="353.181641"/>
      <use xlink:href="#DejaVuSans-31" x="416.804688"/>
     </g>
    </g>
    <g id="line2d_34">
     <path d="M 307.32 263.648062 
L 317.32 263.648062 
L 327.32 263.648062 
" style="fill: none; stroke-dasharray: 5.55,2.4; stroke-dashoffset: 0; stroke: #ff0000; stroke-width: 1.5"/>
    </g>
    <g id="text_19">
     <!-- HFSS S11 -->
     <g transform="translate(335.32 267.148062) scale(0.1 -0.1)">
      <use xlink:href="#DejaVuSans-48"/>
      <use xlink:href="#DejaVuSans-46" x="75.195312"/>
      <use xlink:href="#DejaVuSans-53" x="130.964844"/>
      <use xlink:href="#DejaVuSans-53" x="194.441406"/>
      <use xlink:href="#DejaVuSans-20" x="257.917969"/>
      <use xlink:href="#DejaVuSans-53" x="289.705078"/>
      <use xlink:href="#DejaVuSans-31" x="353.181641"/>
      <use xlink:href="#DejaVuSans-31" x="416.804688"/>
     </g>
    </g>
    <g id="line2d_35">
     <path d="M 307.32 278.326187 
L 317.32 278.326187 
L 327.32 278.326187 
" style="fill: none; stroke: #0000ff; stroke-width: 1.5; stroke-linecap: square"/>
    </g>
    <g id="text_20">
     <!-- WaveFEM S21 -->
     <g transform="translate(335.32 281.826187) scale(0.1 -0.1)">
      <defs>
       <path id="DejaVuSans-57" d="M 213 4666 
L 850 4666 
L 1831 722 
L 2809 4666 
L 3519 4666 
L 4500 722 
L 5478 4666 
L 6119 4666 
L 4947 0 
L 4153 0 
L 3169 4050 
L 2175 0 
L 1381 0 
L 213 4666 
z
" transform="scale(0.015625)"/>
       <path id="DejaVuSans-76" d="M 191 3500 
L 800 3500 
L 1894 563 
L 2988 3500 
L 3597 3500 
L 2284 0 
L 1503 0 
L 191 3500 
z
" transform="scale(0.015625)"/>
       <path id="DejaVuSans-45" d="M 628 4666 
L 3578 4666 
L 3578 4134 
L 1259 4134 
L 1259 2753 
L 3481 2753 
L 3481 2222 
L 1259 2222 
L 1259 531 
L 3634 531 
L 3634 0 
L 628 0 
L 628 4666 
z
" transform="scale(0.015625)"/>
      </defs>
      <use xlink:href="#DejaVuSans-57"/>
      <use xlink:href="#DejaVuSans-61" x="92.501953"/>
      <use xlink:href="#DejaVuSans-76" x="153.78125"/>
      <use xlink:href="#DejaVuSans-65" x="212.960938"/>
      <use xlink:href="#DejaVuSans-46" x="274.484375"/>
      <use xlink:href="#DejaVuSans-45" x="332.003906"/>
      <use xlink:href="#DejaVuSans-4d" x="395.1875"/>
      <use xlink:href="#DejaVuSans-20" x="481.466797"/>
      <use xlink:href="#DejaVuSans-53" x="513.253906"/>
      <use xlink:href="#DejaVuSans-32" x="576.730469"/>
      <use xlink:href="#DejaVuSans-31" x="640.353516"/>
     </g>
    </g>
    <g id="line2d_36">
     <path d="M 307.32 293.004312 
L 317.32 293.004312 
L 327.32 293.004312 
" style="fill: none; stroke: #ff0000; stroke-width: 1.5; stroke-linecap: square"/>
    </g>
    <g id="text_21">
     <!-- WaveFEM S11 -->
     <g transform="translate(335.32 296.504312) scale(0.1 -0.1)">
      <use xlink:href="#DejaVuSans-57"/>
      <use xlink:href="#DejaVuSans-61" x="92.501953"/>
      <use xlink:href="#DejaVuSans-76" x="153.78125"/>
      <use xlink:href="#DejaVuSans-65" x="212.960938"/>
      <use xlink:href="#DejaVuSans-46" x="274.484375"/>
      <use xlink:href="#DejaVuSans-45" x="332.003906"/>
      <use xlink:href="#DejaVuSans-4d" x="395.1875"/>
      <use xlink:href="#DejaVuSans-20" x="481.466797"/>
      <use xlink:href="#DejaVuSans-53" x="513.253906"/>
      <use xlink:href="#DejaVuSans-31" x="576.730469"/>
      <use xlink:href="#DejaVuSans-31" x="640.353516"/>
     </g>
    </g>
   </g>
  </g>
 </g>
 <defs>
  <clipPath id="p1136cba509">
   <rect x="57.6" y="41.472" width="357.12" height="266.112"/>
  </clipPath>
 </defs>
</svg>
