<?xml version="1.0" encoding="utf-8" standalone="no"?>
<!DOCTYPE svg PUBLIC "-//W3C//DTD SVG 1.1//EN"
  "http://www.w3.org/Graphics/SVG/1.1/DTD/svg11.dtd">
<svg xmlns:xlink="http://www.w3.org/1999/xlink" width="460.8pt" height="345.6pt" viewBox="0 0 460.8 345.6" xmlns="http://www.w3.org/2000/svg" version="1.1">
 <metadata>
  <rdf:RDF xmlns:dc="http://purl.org/dc/elements/1.1/" xmlns:cc="http://creativecommons.org/ns#" xmlns:rdf="http://www.w3.org/1999/02/22-rdf-syntax-ns#">
   <cc:Work>
    <dc:type rdf:resource="http://purl.org/dc/dcmitype/StillImage"/>
    <dc:date>2025-09-17T22:03:34.710050</dc:date>
    <dc:format>image/svg+xml</dc:format>
    <dc:creator>
     <cc:Agent>
      <dc:title>Matplotlib v3.9.4, https://matplotlib.org/</dc:title>
     </cc:Agent>
    </dc:creator>
   </cc:Work>
  </rdf:RDF>
 </metadata>
 <defs>
  <style type="text/css">*{stroke-linejoin: round; stroke-linecap: butt}</style>
 </defs>
 <g id="figure_1">
  <g id="patch_1">
   <path d="M 0 345.6 
L 460.8 345.6 
L 460.8 0 
L 0 0 
z
" style="fill: #ffffff"/>
  </g>
  <g id="axes_1">
   <g id="patch_2">
    <path d="M 57.6 307.584 
L 414.72 307.584 
L 414.72 41.472 
L 57.6 41.472 
z
" style="fill: #ffffff"/>
   </g>
   <g id="matplotlib.axis_1">
    <g id="xtick_1">
     <g id="line2d_1">
      <path d="M 100.887273 307.584 
L 100.887273 41.472 
" clip-path="url(#p634e843a3e)" style="fill: none; stroke: #b0b0b0; stroke-width: 0.8; stroke-linecap: square"/>
     </g>
     <g id="line2d_2">
      <defs>
       <path id="m35b7a14954" d="M 0 0 
L 0 3.5 
" style="stroke: #000000; stroke-width: 0.8"/>
      </defs>
      <g>
       <use xlink:href="#m35b7a14954" x="100.887273" y="307.584" style="stroke: #000000; stroke-width: 0.8"/>
      </g>
     </g>
     <g id="text_1">
      <!-- −150 -->
      <g transform="translate(87.153679 322.182437) scale(0.1 -0.1)">
       <defs>
        <path id="DejaVuSans-2212" d="M 678 2272 
L 4684 2272 
L 4684 1741 
L 678 1741 
L 678 2272 
z
" transform="scale(0.015625)"/>
        <path id="DejaVuSans-31" d="M 794 531 
L 1825 531 
L 1825 4091 
L 703 3866 
L 703 4441 
L 1819 4666 
L 2450 4666 
L 2450 531 
L 3481 531 
L 3481 0 
L 794 0 
L 794 531 
z
" transform="scale(0.015625)"/>
        <path id="DejaVuSans-35" d="M 691 4666 
L 3169 4666 
L 3169 4134 
L 1269 4134 
L 1269 2991 
Q 1406 3038 1543 3061 
Q 1681 3084 1819 3084 
Q 2600 3084 3056 2656 
Q 3513 2228 3513 1497 
Q 3513 744 3044 326 
Q 2575 -91 1722 -91 
Q 1428 -91 1123 -41 
Q 819 9 494 109 
L 494 744 
Q 775 591 1075 516 
Q 1375 441 1709 441 
Q 2250 441 2565 725 
Q 2881 1009 2881 1497 
Q 2881 1984 2565 2268 
Q 2250 2553 1709 2553 
Q 1456 2553 1204 2497 
Q 953 2441 691 2322 
L 691 4666 
z
" transform="scale(0.015625)"/>
        <path id="DejaVuSans-30" d="M 2034 4250 
Q 1547 4250 1301 3770 
Q 1056 3291 1056 2328 
Q 1056 1369 1301 889 
Q 1547 409 2034 409 
Q 2525 409 2770 889 
Q 3016 1369 3016 2328 
Q 3016 3291 2770 3770 
Q 2525 4250 2034 4250 
z
M 2034 4750 
Q 2819 4750 3233 4129 
Q 3647 3509 3647 2328 
Q 3647 1150 3233 529 
Q 2819 -91 2034 -91 
Q 1250 -91 836 529 
Q 422 1150 422 2328 
Q 422 3509 836 4129 
Q 1250 4750 2034 4750 
z
" transform="scale(0.015625)"/>
       </defs>
       <use xlink:href="#DejaVuSans-2212"/>
       <use xlink:href="#DejaVuSans-31" x="83.789062"/>
       <use xlink:href="#DejaVuSans-35" x="147.412109"/>
       <use xlink:href="#DejaVuSans-30" x="211.035156"/>
      </g>
     </g>
    </g>
    <g id="xtick_2">
     <g id="line2d_3">
      <path d="M 145.978182 307.584 
L 145.978182 41.472 
" clip-path="url(#p634e843a3e)" style="fill: none; stroke: #b0b0b0; stroke-width: 0.8; stroke-linecap: square"/>
     </g>
     <g id="line2d_4">
      <g>
       <use xlink:href="#m35b7a14954" x="145.978182" y="307.584" style="stroke: #000000; stroke-width: 0.8"/>
      </g>
     </g>
     <g id="text_2">
      <!-- −100 -->
      <g transform="translate(132.244588 322.182437) scale(0.1 -0.1)">
       <use xlink:href="#DejaVuSans-2212"/>
       <use xlink:href="#DejaVuSans-31" x="83.789062"/>
       <use xlink:href="#DejaVuSans-30" x="147.412109"/>
       <use xlink:href="#DejaVuSans-30" x="211.035156"/>
      </g>
     </g>
    </g>
    <g id="xtick_3">
     <g id="line2d_5">
      <path d="M 191.069091 307.584 
L 191.069091 41.472 
" clip-path="url(#p634e843a3e)" style="fill: none; stroke: #b0b0b0; stroke-width: 0.8; stroke-linecap: square"/>
     </g>
     <g id="line2d_6">
      <g>
       <use xlink:href="#m35b7a14954" x="191.069091" y="307.584" style="stroke: #000000; stroke-width: 0.8"/>
      </g>
     </g>
     <g id="text_3">
      <!-- −50 -->
      <g transform="translate(180.516747 322.182437) scale(0.1 -0.1)">
       <use xlink:href="#DejaVuSans-2212"/>
       <use xlink:href="#DejaVuSans-35" x="83.789062"/>
       <use xlink:href="#DejaVuSans-30" x="147.412109"/>
      </g>
     </g>
    </g>
    <g id="xtick_4">
     <g id="line2d_7">
      <path d="M 236.16 307.584 
L 236.16 41.472 
" clip-path="url(#p634e843a3e)" style="fill: none; stroke: #b0b0b0; stroke-width: 0.8; stroke-linecap: square"/>
     </g>
     <g id="line2d_8">
      <g>
       <use xlink:href="#m35b7a14954" x="236.16" y="307.584" style="stroke: #000000; stroke-width: 0.8"/>
      </g>
     </g>
     <g id="text_4">
      <!-- 0 -->
      <g transform="translate(232.97875 322.182437) scale(0.1 -0.1)">
       <use xlink:href="#DejaVuSans-30"/>
      </g>
     </g>
    </g>
    <g id="xtick_5">
     <g id="line2d_9">
      <path d="M 281.250909 307.584 
L 281.250909 41.472 
" clip-path="url(#p634e843a3e)" style="fill: none; stroke: #b0b0b0; stroke-width: 0.8; stroke-linecap: square"/>
     </g>
     <g id="line2d_10">
      <g>
       <use xlink:href="#m35b7a14954" x="281.250909" y="307.584" style="stroke: #000000; stroke-width: 0.8"/>
      </g>
     </g>
     <g id="text_5">
      <!-- 50 -->
      <g transform="translate(274.888409 322.182437) scale(0.1 -0.1)">
       <use xlink:href="#DejaVuSans-35"/>
       <use xlink:href="#DejaVuSans-30" x="63.623047"/>
      </g>
     </g>
    </g>
    <g id="xtick_6">
     <g id="line2d_11">
      <path d="M 326.341818 307.584 
L 326.341818 41.472 
" clip-path="url(#p634e843a3e)" style="fill: none; stroke: #b0b0b0; stroke-width: 0.8; stroke-linecap: square"/>
     </g>
     <g id="line2d_12">
      <g>
       <use xlink:href="#m35b7a14954" x="326.341818" y="307.584" style="stroke: #000000; stroke-width: 0.8"/>
      </g>
     </g>
     <g id="text_6">
      <!-- 100 -->
      <g transform="translate(316.798068 322.182437) scale(0.1 -0.1)">
       <use xlink:href="#DejaVuSans-31"/>
       <use xlink:href="#DejaVuSans-30" x="63.623047"/>
       <use xlink:href="#DejaVuSans-30" x="127.246094"/>
      </g>
     </g>
    </g>
    <g id="xtick_7">
     <g id="line2d_13">
      <path d="M 371.432727 307.584 
L 371.432727 41.472 
" clip-path="url(#p634e843a3e)" style="fill: none; stroke: #b0b0b0; stroke-width: 0.8; stroke-linecap: square"/>
     </g>
     <g id="line2d_14">
      <g>
       <use xlink:href="#m35b7a14954" x="371.432727" y="307.584" style="stroke: #000000; stroke-width: 0.8"/>
      </g>
     </g>
     <g id="text_7">
      <!-- 150 -->
      <g transform="translate(361.888977 322.182437) scale(0.1 -0.1)">
       <use xlink:href="#DejaVuSans-31"/>
       <use xlink:href="#DejaVuSans-35" x="63.623047"/>
       <use xlink:href="#DejaVuSans-30" x="127.246094"/>
      </g>
     </g>
    </g>
    <g id="text_8">
     <!-- Angle (deg) -->
     <g transform="translate(207.015469 335.860562) scale(0.1 -0.1)">
      <defs>
       <path id="DejaVuSans-41" d="M 2188 4044 
L 1331 1722 
L 3047 1722 
L 2188 4044 
z
M 1831 4666 
L 2547 4666 
L 4325 0 
L 3669 0 
L 3244 1197 
L 1141 1197 
L 716 0 
L 50 0 
L 1831 4666 
z
" transform="scale(0.015625)"/>
       <path id="DejaVuSans-6e" d="M 3513 2113 
L 3513 0 
L 2938 0 
L 2938 2094 
Q 2938 2591 2744 2837 
Q 2550 3084 2163 3084 
Q 1697 3084 1428 2787 
Q 1159 2491 1159 1978 
L 1159 0 
L 581 0 
L 581 3500 
L 1159 3500 
L 1159 2956 
Q 1366 3272 1645 3428 
Q 1925 3584 2291 3584 
Q 2894 3584 3203 3211 
Q 3513 2838 3513 2113 
z
" transform="scale(0.015625)"/>
       <path id="DejaVuSans-67" d="M 2906 1791 
Q 2906 2416 2648 2759 
Q 2391 3103 1925 3103 
Q 1463 3103 1205 2759 
Q 947 2416 947 1791 
Q 947 1169 1205 825 
Q 1463 481 1925 481 
Q 2391 481 2648 825 
Q 2906 1169 2906 1791 
z
M 3481 434 
Q 3481 -459 3084 -895 
Q 2688 -1331 1869 -1331 
Q 1566 -1331 1297 -1286 
Q 1028 -1241 775 -1147 
L 775 -588 
Q 1028 -725 1275 -790 
Q 1522 -856 1778 -856 
Q 2344 -856 2625 -561 
Q 2906 -266 2906 331 
L 2906 616 
Q 2728 306 2450 153 
Q 2172 0 1784 0 
Q 1141 0 747 490 
Q 353 981 353 1791 
Q 353 2603 747 3093 
Q 1141 3584 1784 3584 
Q 2172 3584 2450 3431 
Q 2728 3278 2906 2969 
L 2906 3500 
L 3481 3500 
L 3481 434 
z
" transform="scale(0.015625)"/>
       <path id="DejaVuSans-6c" d="M 603 4863 
L 1178 4863 
L 1178 0 
L 603 0 
L 603 4863 
z
" transform="scale(0.015625)"/>
       <path id="DejaVuSans-65" d="M 3597 1894 
L 3597 1613 
L 953 1613 
Q 991 1019 1311 708 
Q 1631 397 2203 397 
Q 2534 397 2845 478 
Q 3156 559 3463 722 
L 3463 178 
Q 3153 47 2828 -22 
Q 2503 -91 2169 -91 
Q 1331 -91 842 396 
Q 353 884 353 1716 
Q 353 2575 817 3079 
Q 1281 3584 2069 3584 
Q 2775 3584 3186 3129 
Q 3597 2675 3597 1894 
z
M 3022 2063 
Q 3016 2534 2758 2815 
Q 2500 3097 2075 3097 
Q 1594 3097 1305 2825 
Q 1016 2553 972 2059 
L 3022 2063 
z
" transform="scale(0.015625)"/>
       <path id="DejaVuSans-20" transform="scale(0.015625)"/>
       <path id="DejaVuSans-28" d="M 1984 4856 
Q 1566 4138 1362 3434 
Q 1159 2731 1159 2009 
Q 1159 1288 1364 580 
Q 1569 -128 1984 -844 
L 1484 -844 
Q 1016 -109 783 600 
Q 550 1309 550 2009 
Q 550 2706 781 3412 
Q 1013 4119 1484 4856 
L 1984 4856 
z
" transform="scale(0.015625)"/>
       <path id="DejaVuSans-64" d="M 2906 2969 
L 2906 4863 
L 3481 4863 
L 3481 0 
L 2906 0 
L 2906 525 
Q 2725 213 2448 61 
Q 2172 -91 1784 -91 
Q 1150 -91 751 415 
Q 353 922 353 1747 
Q 353 2572 751 3078 
Q 1150 3584 1784 3584 
Q 2172 3584 2448 3432 
Q 2725 3281 2906 2969 
z
M 947 1747 
Q 947 1113 1208 752 
Q 1469 391 1925 391 
Q 2381 391 2643 752 
Q 2906 1113 2906 1747 
Q 2906 2381 2643 2742 
Q 2381 3103 1925 3103 
Q 1469 3103 1208 2742 
Q 947 2381 947 1747 
z
" transform="scale(0.015625)"/>
       <path id="DejaVuSans-29" d="M 513 4856 
L 1013 4856 
Q 1481 4119 1714 3412 
Q 1947 2706 1947 2009 
Q 1947 1309 1714 600 
Q 1481 -109 1013 -844 
L 513 -844 
Q 928 -128 1133 580 
Q 1338 1288 1338 2009 
Q 1338 2731 1133 3434 
Q 928 4138 513 4856 
z
" transform="scale(0.015625)"/>
      </defs>
      <use xlink:href="#DejaVuSans-41"/>
      <use xlink:href="#DejaVuSans-6e" x="68.408203"/>
      <use xlink:href="#DejaVuSans-67" x="131.787109"/>
      <use xlink:href="#DejaVuSans-6c" x="195.263672"/>
      <use xlink:href="#DejaVuSans-65" x="223.046875"/>
      <use xlink:href="#DejaVuSans-20" x="284.570312"/>
      <use xlink:href="#DejaVuSans-28" x="316.357422"/>
      <use xlink:href="#DejaVuSans-64" x="355.371094"/>
      <use xlink:href="#DejaVuSans-65" x="418.847656"/>
      <use xlink:href="#DejaVuSans-67" x="480.371094"/>
      <use xlink:href="#DejaVuSans-29" x="543.847656"/>
     </g>
    </g>
   </g>
   <g id="matplotlib.axis_2">
    <g id="ytick_1">
     <g id="line2d_15">
      <path d="M 57.6 282.61804 
L 414.72 282.61804 
" clip-path="url(#p634e843a3e)" style="fill: none; stroke: #b0b0b0; stroke-width: 0.8; stroke-linecap: square"/>
     </g>
     <g id="line2d_16">
      <defs>
       <path id="mb9c81bdaee" d="M 0 0 
L -3.5 0 
" style="stroke: #000000; stroke-width: 0.8"/>
      </defs>
      <g>
       <use xlink:href="#mb9c81bdaee" x="57.6" y="282.61804" style="stroke: #000000; stroke-width: 0.8"/>
      </g>
     </g>
     <g id="text_9">
      <!-- −25 -->
      <g transform="translate(29.495313 286.417259) scale(0.1 -0.1)">
       <defs>
        <path id="DejaVuSans-32" d="M 1228 531 
L 3431 531 
L 3431 0 
L 469 0 
L 469 531 
Q 828 903 1448 1529 
Q 2069 2156 2228 2338 
Q 2531 2678 2651 2914 
Q 2772 3150 2772 3378 
Q 2772 3750 2511 3984 
Q 2250 4219 1831 4219 
Q 1534 4219 1204 4116 
Q 875 4013 500 3803 
L 500 4441 
Q 881 4594 1212 4672 
Q 1544 4750 1819 4750 
Q 2544 4750 2975 4387 
Q 3406 4025 3406 3419 
Q 3406 3131 3298 2873 
Q 3191 2616 2906 2266 
Q 2828 2175 2409 1742 
Q 1991 1309 1228 531 
z
" transform="scale(0.015625)"/>
       </defs>
       <use xlink:href="#DejaVuSans-2212"/>
       <use xlink:href="#DejaVuSans-32" x="83.789062"/>
       <use xlink:href="#DejaVuSans-35" x="147.412109"/>
      </g>
     </g>
    </g>
    <g id="ytick_2">
     <g id="line2d_17">
      <path d="M 57.6 251.450429 
L 414.72 251.450429 
" clip-path="url(#p634e843a3e)" style="fill: none; stroke: #b0b0b0; stroke-width: 0.8; stroke-linecap: square"/>
     </g>
     <g id="line2d_18">
      <g>
       <use xlink:href="#mb9c81bdaee" x="57.6" y="251.450429" style="stroke: #000000; stroke-width: 0.8"/>
      </g>
     </g>
     <g id="text_10">
      <!-- −20 -->
      <g transform="translate(29.495313 255.249647) scale(0.1 -0.1)">
       <use xlink:href="#DejaVuSans-2212"/>
       <use xlink:href="#DejaVuSans-32" x="83.789062"/>
       <use xlink:href="#DejaVuSans-30" x="147.412109"/>
      </g>
     </g>
    </g>
    <g id="ytick_3">
     <g id="line2d_19">
      <path d="M 57.6 220.282817 
L 414.72 220.282817 
" clip-path="url(#p634e843a3e)" style="fill: none; stroke: #b0b0b0; stroke-width: 0.8; stroke-linecap: square"/>
     </g>
     <g id="line2d_20">
      <g>
       <use xlink:href="#mb9c81bdaee" x="57.6" y="220.282817" style="stroke: #000000; stroke-width: 0.8"/>
      </g>
     </g>
     <g id="text_11">
      <!-- −15 -->
      <g transform="translate(29.495313 224.082036) scale(0.1 -0.1)">
       <use xlink:href="#DejaVuSans-2212"/>
       <use xlink:href="#DejaVuSans-31" x="83.789062"/>
       <use xlink:href="#DejaVuSans-35" x="147.412109"/>
      </g>
     </g>
    </g>
    <g id="ytick_4">
     <g id="line2d_21">
      <path d="M 57.6 189.115206 
L 414.72 189.115206 
" clip-path="url(#p634e843a3e)" style="fill: none; stroke: #b0b0b0; stroke-width: 0.8; stroke-linecap: square"/>
     </g>
     <g id="line2d_22">
      <g>
       <use xlink:href="#mb9c81bdaee" x="57.6" y="189.115206" style="stroke: #000000; stroke-width: 0.8"/>
      </g>
     </g>
     <g id="text_12">
      <!-- −10 -->
      <g transform="translate(29.495313 192.914424) scale(0.1 -0.1)">
       <use xlink:href="#DejaVuSans-2212"/>
       <use xlink:href="#DejaVuSans-31" x="83.789062"/>
       <use xlink:href="#DejaVuSans-30" x="147.412109"/>
      </g>
     </g>
    </g>
    <g id="ytick_5">
     <g id="line2d_23">
      <path d="M 57.6 157.947594 
L 414.72 157.947594 
" clip-path="url(#p634e843a3e)" style="fill: none; stroke: #b0b0b0; stroke-width: 0.8; stroke-linecap: square"/>
     </g>
     <g id="line2d_24">
      <g>
       <use xlink:href="#mb9c81bdaee" x="57.6" y="157.947594" style="stroke: #000000; stroke-width: 0.8"/>
      </g>
     </g>
     <g id="text_13">
      <!-- −5 -->
      <g transform="translate(35.857813 161.746813) scale(0.1 -0.1)">
       <use xlink:href="#DejaVuSans-2212"/>
       <use xlink:href="#DejaVuSans-35" x="83.789062"/>
      </g>
     </g>
    </g>
    <g id="ytick_6">
     <g id="line2d_25">
      <path d="M 57.6 126.779983 
L 414.72 126.779983 
" clip-path="url(#p634e843a3e)" style="fill: none; stroke: #b0b0b0; stroke-width: 0.8; stroke-linecap: square"/>
     </g>
     <g id="line2d_26">
      <g>
       <use xlink:href="#mb9c81bdaee" x="57.6" y="126.779983" style="stroke: #000000; stroke-width: 0.8"/>
      </g>
     </g>
     <g id="text_14">
      <!-- 0 -->
      <g transform="translate(44.2375 130.579202) scale(0.1 -0.1)">
       <use xlink:href="#DejaVuSans-30"/>
      </g>
     </g>
    </g>
    <g id="ytick_7">
     <g id="line2d_27">
      <path d="M 57.6 95.612371 
L 414.72 95.612371 
" clip-path="url(#p634e843a3e)" style="fill: none; stroke: #b0b0b0; stroke-width: 0.8; stroke-linecap: square"/>
     </g>
     <g id="line2d_28">
      <g>
       <use xlink:href="#mb9c81bdaee" x="57.6" y="95.612371" style="stroke: #000000; stroke-width: 0.8"/>
      </g>
     </g>
     <g id="text_15">
      <!-- 5 -->
      <g transform="translate(44.2375 99.41159) scale(0.1 -0.1)">
       <use xlink:href="#DejaVuSans-35"/>
      </g>
     </g>
    </g>
    <g id="ytick_8">
     <g id="line2d_29">
      <path d="M 57.6 64.44476 
L 414.72 64.44476 
" clip-path="url(#p634e843a3e)" style="fill: none; stroke: #b0b0b0; stroke-width: 0.8; stroke-linecap: square"/>
     </g>
     <g id="line2d_30">
      <g>
       <use xlink:href="#mb9c81bdaee" x="57.6" y="64.44476" style="stroke: #000000; stroke-width: 0.8"/>
      </g>
     </g>
     <g id="text_16">
      <!-- 10 -->
      <g transform="translate(37.875 68.243979) scale(0.1 -0.1)">
       <use xlink:href="#DejaVuSans-31"/>
       <use xlink:href="#DejaVuSans-30" x="63.623047"/>
      </g>
     </g>
    </g>
    <g id="text_17">
     <!-- Directivity (dB) -->
     <g transform="translate(23.415625 212.248312) rotate(-90) scale(0.1 -0.1)">
      <defs>
       <path id="DejaVuSans-44" d="M 1259 4147 
L 1259 519 
L 2022 519 
Q 2988 519 3436 956 
Q 3884 1394 3884 2338 
Q 3884 3275 3436 3711 
Q 2988 4147 2022 4147 
L 1259 4147 
z
M 628 4666 
L 1925 4666 
Q 3281 4666 3915 4102 
Q 4550 3538 4550 2338 
Q 4550 1131 3912 565 
Q 3275 0 1925 0 
L 628 0 
L 628 4666 
z
" transform="scale(0.015625)"/>
       <path id="DejaVuSans-69" d="M 603 3500 
L 1178 3500 
L 1178 0 
L 603 0 
L 603 3500 
z
M 603 4863 
L 1178 4863 
L 1178 4134 
L 603 4134 
L 603 4863 
z
" transform="scale(0.015625)"/>
       <path id="DejaVuSans-72" d="M 2631 2963 
Q 2534 3019 2420 3045 
Q 2306 3072 2169 3072 
Q 1681 3072 1420 2755 
Q 1159 2438 1159 1844 
L 1159 0 
L 581 0 
L 581 3500 
L 1159 3500 
L 1159 2956 
Q 1341 3275 1631 3429 
Q 1922 3584 2338 3584 
Q 2397 3584 2469 3576 
Q 2541 3569 2628 3553 
L 2631 2963 
z
" transform="scale(0.015625)"/>
       <path id="DejaVuSans-63" d="M 3122 3366 
L 3122 2828 
Q 2878 2963 2633 3030 
Q 2388 3097 2138 3097 
Q 1578 3097 1268 2742 
Q 959 2388 959 1747 
Q 959 1106 1268 751 
Q 1578 397 2138 397 
Q 2388 397 2633 464 
Q 2878 531 3122 666 
L 3122 134 
Q 2881 22 2623 -34 
Q 2366 -91 2075 -91 
Q 1284 -91 818 406 
Q 353 903 353 1747 
Q 353 2603 823 3093 
Q 1294 3584 2113 3584 
Q 2378 3584 2631 3529 
Q 2884 3475 3122 3366 
z
" transform="scale(0.015625)"/>
       <path id="DejaVuSans-74" d="M 1172 4494 
L 1172 3500 
L 2356 3500 
L 2356 3053 
L 1172 3053 
L 1172 1153 
Q 1172 725 1289 603 
Q 1406 481 1766 481 
L 2356 481 
L 2356 0 
L 1766 0 
Q 1100 0 847 248 
Q 594 497 594 1153 
L 594 3053 
L 172 3053 
L 172 3500 
L 594 3500 
L 594 4494 
L 1172 4494 
z
" transform="scale(0.015625)"/>
       <path id="DejaVuSans-76" d="M 191 3500 
L 800 3500 
L 1894 563 
L 2988 3500 
L 3597 3500 
L 2284 0 
L 1503 0 
L 191 3500 
z
" transform="scale(0.015625)"/>
       <path id="DejaVuSans-79" d="M 2059 -325 
Q 1816 -950 1584 -1140 
Q 1353 -1331 966 -1331 
L 506 -1331 
L 506 -850 
L 844 -850 
Q 1081 -850 1212 -737 
Q 1344 -625 1503 -206 
L 1606 56 
L 191 3500 
L 800 3500 
L 1894 763 
L 2988 3500 
L 3597 3500 
L 2059 -325 
z
" transform="scale(0.015625)"/>
       <path id="DejaVuSans-42" d="M 1259 2228 
L 1259 519 
L 2272 519 
Q 2781 519 3026 730 
Q 3272 941 3272 1375 
Q 3272 1813 3026 2020 
Q 2781 2228 2272 2228 
L 1259 2228 
z
M 1259 4147 
L 1259 2741 
L 2194 2741 
Q 2656 2741 2882 2914 
Q 3109 3088 3109 3444 
Q 3109 3797 2882 3972 
Q 2656 4147 2194 4147 
L 1259 4147 
z
M 628 4666 
L 2241 4666 
Q 2963 4666 3353 4366 
Q 3744 4066 3744 3513 
Q 3744 3084 3544 2831 
Q 3344 2578 2956 2516 
Q 3422 2416 3680 2098 
Q 3938 1781 3938 1306 
Q 3938 681 3513 340 
Q 3088 0 2303 0 
L 628 0 
L 628 4666 
z
" transform="scale(0.015625)"/>
      </defs>
      <use xlink:href="#DejaVuSans-44"/>
      <use xlink:href="#DejaVuSans-69" x="77.001953"/>
      <use xlink:href="#DejaVuSans-72" x="104.785156"/>
      <use xlink:href="#DejaVuSans-65" x="143.648438"/>
      <use xlink:href="#DejaVuSans-63" x="205.171875"/>
      <use xlink:href="#DejaVuSans-74" x="260.152344"/>
      <use xlink:href="#DejaVuSans-69" x="299.361328"/>
      <use xlink:href="#DejaVuSans-76" x="327.144531"/>
      <use xlink:href="#DejaVuSans-69" x="386.324219"/>
      <use xlink:href="#DejaVuSans-74" x="414.107422"/>
      <use xlink:href="#DejaVuSans-79" x="453.316406"/>
      <use xlink:href="#DejaVuSans-20" x="512.496094"/>
      <use xlink:href="#DejaVuSans-28" x="544.283203"/>
      <use xlink:href="#DejaVuSans-64" x="583.296875"/>
      <use xlink:href="#DejaVuSans-42" x="646.773438"/>
      <use xlink:href="#DejaVuSans-29" x="715.376953"/>
     </g>
    </g>
   </g>
   <g id="line2d_31">
    <path d="M 73.832727 182.076971 
L 75.636364 182.512722 
L 77.44 183.289757 
L 79.243636 184.388883 
L 81.047273 185.784454 
L 82.850909 187.444259 
L 85.556364 190.342603 
L 89.163636 194.715506 
L 94.574545 201.424326 
L 97.28 204.392935 
L 99.083636 206.099242 
L 100.887273 207.539613 
L 102.690909 208.692821 
L 104.494545 209.560474 
L 106.298182 210.169549 
L 108.101818 210.571271 
L 111.709091 211.044647 
L 114.414545 211.430957 
L 116.218182 211.841164 
L 118.021818 212.43547 
L 119.825455 213.24436 
L 121.629091 214.276881 
L 123.432727 215.521564 
L 126.138182 217.718288 
L 129.745455 221.015569 
L 134.254545 225.14241 
L 136.96 227.354438 
L 139.665455 229.22742 
L 141.469091 230.236817 
L 143.272727 231.019272 
L 145.076364 231.546002 
L 146.88 231.792723 
L 148.683636 231.74156 
L 150.487273 231.38016 
L 152.290909 230.697317 
L 154.094545 229.676213 
L 155.898182 228.287857 
L 157.701818 226.487877 
L 159.505455 224.219283 
L 161.309091 221.42219 
L 163.112727 218.048867 
L 164.916364 214.079638 
L 166.72 209.533704 
L 168.523636 204.470452 
L 171.229091 196.109894 
L 174.836364 184.102918 
L 182.952727 156.756907 
L 188.363636 139.4872 
L 193.774545 123.015236 
L 198.283636 109.969852 
L 201.890909 100.178194 
L 204.596364 93.326284 
L 207.301818 86.964936 
L 210.007273 81.136743 
L 212.712727 75.866751 
L 215.418182 71.166632 
L 218.123636 67.039892 
L 219.927273 64.607297 
L 221.730909 62.429346 
L 223.534545 60.506076 
L 225.338182 58.837859 
L 227.141818 57.425418 
L 228.945455 56.269771 
L 230.749091 55.372124 
L 232.552727 54.733742 
L 234.356364 54.355815 
L 236.16 54.239348 
L 237.963636 54.385057 
L 239.767273 54.79332 
L 241.570909 55.464138 
L 243.374545 56.397147 
L 245.178182 57.591645 
L 246.981818 59.046651 
L 248.785455 60.76096 
L 250.589091 62.73321 
L 252.392727 64.961912 
L 254.196364 67.445445 
L 256.901818 71.644474 
L 259.607273 76.404777 
L 262.312727 81.714477 
L 265.018182 87.554652 
L 267.723636 93.895752 
L 271.330909 103.05298 
L 274.938182 112.881145 
L 279.447273 125.854614 
L 285.76 144.829897 
L 292.072727 164.526912 
L 301.090909 192.995245 
L 303.796364 200.834272 
L 305.6 205.614342 
L 307.403636 209.93874 
L 309.207273 213.749582 
L 311.010909 217.024074 
L 312.814545 219.775527 
L 314.618182 222.044512 
L 316.421818 223.883423 
L 318.225455 225.340277 
L 320.029091 226.447075 
L 321.832727 227.215729 
L 323.636364 227.641786 
L 325.44 227.713947 
L 327.243636 227.425774 
L 329.047273 226.785403 
L 330.850909 225.820095 
L 332.654545 224.574845 
L 335.36 222.308916 
L 338.967273 218.875836 
L 343.476364 214.607091 
L 346.181818 212.39296 
L 347.985455 211.161909 
L 349.789091 210.168137 
L 351.592727 209.431407 
L 353.396364 208.953526 
L 355.2 208.715504 
L 357.003636 208.676106 
L 360.610909 208.922647 
L 363.316364 209.041719 
L 365.12 208.909098 
L 366.923636 208.50758 
L 368.727273 207.776412 
L 370.530909 206.684364 
L 372.334545 205.232188 
L 374.138182 203.450731 
L 375.941818 201.395725 
L 378.647273 197.964118 
L 384.058182 190.890877 
L 386.763636 187.779428 
L 388.567273 186.005599 
L 390.370909 184.523266 
L 392.174545 183.363754 
L 393.978182 182.548357 
L 395.781818 182.089421 
L 397.585455 181.991323 
L 398.487273 182.076971 
L 398.487273 182.076971 
" clip-path="url(#p634e843a3e)" style="fill: none; stroke-dasharray: 5.55,2.4; stroke-dashoffset: 0; stroke: #0000ff; stroke-width: 1.5"/>
   </g>
   <g id="line2d_32">
    <path d="M 73.832727 182.076971 
L 74.734545 182.118155 
L 75.636364 182.366432 
L 76.538182 182.823223 
L 77.44 183.49094 
L 78.341818 184.372971 
L 79.243636 185.473643 
L 80.145455 186.798147 
L 81.047273 188.352393 
L 82.850909 192.175728 
L 84.654545 196.990977 
L 86.458182 202.812361 
L 88.261818 209.540999 
L 91.869091 223.520897 
L 92.770909 226.14321 
L 93.672727 227.898996 
L 94.574545 228.56349 
L 95.476364 228.047088 
L 96.378182 226.432698 
L 97.28 223.942616 
L 99.083636 217.45662 
L 101.789091 207.210146 
L 103.592727 201.34699 
L 105.396364 196.612705 
L 106.298182 194.689552 
L 107.2 193.061623 
L 108.101818 191.724952 
L 109.003636 190.674171 
L 109.905455 189.902976 
L 110.807273 189.404243 
L 111.709091 189.169857 
L 112.610909 189.190308 
L 113.512727 189.454034 
L 114.414545 189.946525 
L 115.316364 190.649146 
L 117.12 192.580712 
L 121.629091 198.312221 
L 122.530909 199.060991 
L 123.432727 199.491577 
L 124.334545 199.544502 
L 125.236364 199.188467 
L 126.138182 198.426266 
L 127.04 197.294215 
L 127.941818 195.855323 
L 129.745455 192.378677 
L 132.450909 186.84608 
L 134.254545 183.640956 
L 135.156364 182.296046 
L 136.058182 181.152064 
L 136.96 180.222802 
L 137.861818 179.517122 
L 138.763636 179.039883 
L 139.665455 178.79257 
L 140.567273 178.773639 
L 141.469091 178.978616 
L 142.370909 179.399953 
L 143.272727 180.026666 
L 144.174545 180.843748 
L 145.978182 182.964208 
L 148.683636 186.874931 
L 150.487273 189.419671 
L 151.389091 190.495038 
L 152.290909 191.357035 
L 153.192727 191.953123 
L 154.094545 192.245498 
L 154.996364 192.216056 
L 155.898182 191.868538 
L 156.8 191.227188 
L 157.701818 190.332307 
L 159.505455 187.985892 
L 166.72 177.281766 
L 169.425455 173.937252 
L 173.934545 168.512888 
L 175.738182 166.040911 
L 177.541818 163.235001 
L 179.345455 160.027331 
L 181.149091 156.386838 
L 182.952727 152.317626 
L 185.658182 145.489876 
L 188.363636 137.97811 
L 192.872727 124.644646 
L 198.283636 108.737435 
L 201.890909 98.885957 
L 204.596364 92.077407 
L 207.301818 85.823242 
L 210.007273 80.143796 
L 212.712727 75.042395 
L 215.418182 70.51383 
L 218.123636 66.550158 
L 219.927273 64.217852 
L 221.730909 62.131671 
L 223.534545 60.290461 
L 225.338182 58.693533 
L 227.141818 57.340582 
L 228.945455 56.23159 
L 230.749091 55.366718 
L 232.552727 54.746217 
L 234.356364 54.37035 
L 236.16 54.239348 
L 237.963636 54.353378 
L 239.767273 54.712558 
L 241.570909 55.316984 
L 243.374545 56.166787 
L 245.178182 57.262213 
L 246.981818 58.603721 
L 248.785455 60.192082 
L 250.589091 62.02848 
L 252.392727 64.114592 
L 254.196364 66.452626 
L 256 69.045295 
L 258.705455 73.418565 
L 261.410909 78.382414 
L 264.116364 83.944655 
L 266.821818 90.104658 
L 269.527273 96.845188 
L 272.232727 104.121745 
L 275.84 114.50495 
L 285.76 143.727683 
L 288.465455 150.662488 
L 290.269091 154.784999 
L 292.072727 158.454971 
L 293.876364 161.660797 
L 295.68 164.427082 
L 297.483636 166.817138 
L 300.189091 169.920403 
L 304.698182 174.88585 
L 306.501818 177.150458 
L 308.305455 179.675638 
L 311.912727 185.282219 
L 313.716364 187.950352 
L 314.618182 189.095041 
L 315.52 190.039474 
L 316.421818 190.730549 
L 317.323636 191.124996 
L 318.225455 191.196063 
L 319.127273 190.93839 
L 320.029091 190.369609 
L 320.930909 189.528179 
L 322.734545 187.252493 
L 326.341818 182.077445 
L 328.145455 180.001182 
L 329.047273 179.211828 
L 329.949091 178.616278 
L 330.850909 178.229071 
L 331.752727 178.060591 
L 332.654545 178.117674 
L 333.556364 178.403983 
L 334.458182 178.920163 
L 335.36 179.663743 
L 336.261818 180.628791 
L 337.163636 181.805302 
L 338.967273 184.726586 
L 340.770909 188.224968 
L 343.476364 193.747275 
L 345.28 196.809484 
L 346.181818 197.921504 
L 347.083636 198.670518 
L 347.985455 199.02378 
L 348.887273 198.980355 
L 349.789091 198.571214 
L 350.690909 197.853479 
L 352.494545 195.793706 
L 355.2 192.28384 
L 357.003636 190.359247 
L 357.905455 189.640108 
L 358.807273 189.116579 
L 359.709091 188.806657 
L 360.610909 188.724311 
L 361.512727 188.880588 
L 362.414545 189.284474 
L 363.316364 189.943522 
L 364.218182 190.864262 
L 365.12 192.052388 
L 366.021818 193.512717 
L 366.923636 195.248845 
L 367.825455 197.262411 
L 369.629091 202.110109 
L 371.432727 207.957697 
L 375.04 220.843898 
L 375.941818 223.517607 
L 376.843636 225.526925 
L 377.745455 226.637452 
L 378.647273 226.697018 
L 379.549091 225.689223 
L 380.450909 223.739122 
L 381.352727 221.066933 
L 383.156364 214.527203 
L 385.861818 204.376705 
L 387.665455 198.428314 
L 389.469091 193.408453 
L 391.272727 189.348519 
L 393.076364 186.222031 
L 393.978182 184.996322 
L 394.88 183.989208 
L 395.781818 183.196591 
L 396.683636 182.615155 
L 397.585455 182.242453 
L 398.487273 182.076971 
L 398.487273 182.076971 
" clip-path="url(#p634e843a3e)" style="fill: none; stroke-dasharray: 5.55,2.4; stroke-dashoffset: 0; stroke: #ff0000; stroke-width: 1.5"/>
   </g>
   <g id="line2d_33">
    <path d="M 73.832727 192.40873 
L 75.641388 192.825497 
L 77.450048 193.410921 
L 80.163039 194.57595 
L 82.876029 196.031922 
L 86.49335 198.311372 
L 91.015001 201.508688 
L 97.345313 206.099395 
L 100.058303 207.736226 
L 101.866964 208.549357 
L 103.675624 209.062627 
L 105.484285 209.243719 
L 107.292945 209.111292 
L 109.101605 208.741309 
L 113.623257 207.651954 
L 115.431917 207.550813 
L 116.336247 207.642274 
L 117.240577 207.847495 
L 118.144908 208.178496 
L 119.049238 208.64539 
L 119.953568 209.256356 
L 120.857898 210.0176 
L 122.666559 212.005454 
L 124.475219 214.615581 
L 126.283879 217.813298 
L 128.09254 221.510854 
L 134.422851 235.350122 
L 135.327182 236.90095 
L 136.231512 238.21305 
L 137.135842 239.25735 
L 138.040172 240.018593 
L 138.944502 240.496879 
L 139.848833 240.707121 
L 140.753163 240.676565 
L 141.657493 240.441005 
L 142.561823 240.040547 
L 144.370484 238.904383 
L 152.509456 233.019434 
L 155.222446 231.085602 
L 157.031107 229.494184 
L 158.839767 227.447979 
L 160.648427 224.776479 
L 162.457088 221.363531 
L 164.265748 217.178555 
L 166.074409 212.283069 
L 167.883069 206.809064 
L 170.59606 197.874646 
L 181.448022 161.030431 
L 186.874004 143.869181 
L 192.299985 127.42204 
L 196.821636 114.270823 
L 200.438957 104.284326 
L 204.056278 94.95023 
L 206.769268 88.464889 
L 209.482259 82.47243 
L 212.195249 77.005049 
L 214.90824 72.08474 
L 217.621231 67.726352 
L 220.334221 63.940207 
L 222.142882 61.737859 
L 223.951542 59.79508 
L 225.760203 58.113441 
L 227.568863 56.694292 
L 229.377523 55.538769 
L 231.186184 54.64779 
L 232.994844 54.022052 
L 234.803505 53.662032 
L 236.612165 53.568 
L 238.420826 53.740048 
L 240.229486 54.178122 
L 242.038146 54.882073 
L 243.846807 55.851702 
L 245.655467 57.086804 
L 247.464128 58.587193 
L 249.272788 60.352702 
L 251.081448 62.383141 
L 252.890109 64.678194 
L 254.698769 67.237257 
L 257.41176 71.568167 
L 260.124751 76.482522 
L 262.837741 81.965094 
L 265.550732 87.98993 
L 268.263722 94.517677 
L 271.881043 103.909914 
L 275.498364 113.948851 
L 280.020015 127.195708 
L 284.541666 141.119646 
L 288.158987 152.836679 
L 291.776308 165.224787 
L 295.393629 178.368775 
L 305.341261 215.281244 
L 307.149921 220.817361 
L 308.958582 225.502268 
L 310.767242 229.235282 
L 311.671573 230.747514 
L 312.575903 232.041047 
L 314.384563 234.061924 
L 316.193224 235.510282 
L 318.001884 236.608027 
L 321.619205 238.416502 
L 325.236526 240.058231 
L 327.045186 240.618058 
L 327.949516 240.747918 
L 328.853847 240.736807 
L 329.758177 240.554299 
L 330.662507 240.173547 
L 331.566837 239.574255 
L 332.471167 238.745269 
L 333.375498 237.686286 
L 334.279828 236.408299 
L 336.088488 233.28922 
L 338.801479 227.716849 
L 342.4188 220.13015 
L 344.22746 216.77126 
L 346.036121 213.881428 
L 347.844781 211.526253 
L 349.653441 209.728964 
L 351.462102 208.47782 
L 353.270762 207.730016 
L 355.079423 207.413146 
L 356.888083 207.426108 
L 359.601074 207.781045 
L 362.314064 208.099507 
L 364.122725 208.063339 
L 365.931385 207.7184 
L 367.740046 207.031891 
L 369.548706 206.027832 
L 371.357366 204.773141 
L 374.974687 201.865032 
L 378.592008 198.946404 
L 381.304999 196.992706 
L 384.017989 195.328191 
L 386.73098 193.98627 
L 389.443971 192.987964 
L 391.252631 192.523887 
L 393.061291 192.228914 
L 394.869952 192.109178 
L 396.678612 192.168824 
L 398.487273 192.40873 
L 398.487273 192.40873 
" clip-path="url(#p634e843a3e)" style="fill: none; stroke: #0000ff; stroke-width: 1.5; stroke-linecap: square"/>
   </g>
   <g id="line2d_34">
    <path d="M 73.832727 192.40873 
L 74.737057 192.456353 
L 75.641388 192.747669 
L 76.545718 193.286006 
L 77.450048 194.07724 
L 78.354378 195.129986 
L 79.258709 196.455903 
L 80.163039 198.070122 
L 81.067369 199.991832 
L 81.971699 202.24506 
L 82.876029 204.859719 
L 83.78036 207.872992 
L 84.68469 211.331148 
L 85.58902 215.291911 
L 86.49335 219.827432 
L 87.39768 225.027719 
L 88.302011 231.003604 
L 89.206341 237.885912 
L 90.110671 245.809809 
L 91.919331 264.799711 
L 92.823662 274.565623 
L 93.727992 281.16929 
L 94.632322 280.736003 
L 95.536652 273.384435 
L 98.249643 243.113957 
L 99.153973 234.757513 
L 100.058303 227.461044 
L 100.962634 221.092971 
L 101.866964 215.527263 
L 102.771294 210.65801 
L 103.675624 206.399956 
L 104.579954 202.685438 
L 105.484285 199.460941 
L 106.388615 196.684105 
L 107.292945 194.321332 
L 108.197275 192.345901 
L 109.101605 190.736501 
L 110.005936 189.476042 
L 110.910266 188.550675 
L 111.814596 187.948926 
L 112.718926 187.660872 
L 113.623257 187.677292 
L 114.527587 187.988708 
L 115.431917 188.584235 
L 116.336247 189.450137 
L 117.240577 190.567977 
L 119.049238 193.447511 
L 123.570889 201.648178 
L 124.475219 202.681113 
L 125.379549 203.239553 
L 126.283879 203.245577 
L 127.18821 202.67408 
L 128.09254 201.559025 
L 128.99687 199.984941 
L 130.805531 195.933467 
L 133.518521 189.323851 
L 135.327182 185.508668 
L 136.231512 183.914253 
L 137.135842 182.558466 
L 138.040172 181.453052 
L 138.944502 180.603677 
L 139.848833 180.011247 
L 140.753163 179.672736 
L 141.657493 179.581576 
L 142.561823 179.727699 
L 143.466153 180.097262 
L 144.370484 180.672111 
L 145.274814 181.429043 
L 147.083474 183.36583 
L 150.700795 187.669537 
L 151.605125 188.501272 
L 152.509456 189.115441 
L 153.413786 189.465322 
L 154.318116 189.521228 
L 155.222446 189.274412 
L 156.126776 188.737798 
L 157.031107 187.943294 
L 158.839767 185.770225 
L 165.170079 176.949535 
L 166.978739 174.977923 
L 168.787399 173.314109 
L 171.50039 171.177832 
L 174.213381 169.026242 
L 176.022041 167.301838 
L 177.830701 165.16063 
L 179.639362 162.480261 
L 181.448022 159.187148 
L 183.256683 155.264085 
L 185.065343 150.74937 
L 186.874004 145.727903 
L 189.586994 137.505185 
L 199.534626 106.359576 
L 202.247617 98.77011 
L 204.960608 91.782099 
L 207.673598 85.410376 
L 210.386589 79.647089 
L 213.09958 74.476719 
L 215.81257 69.884768 
L 218.525561 65.861594 
L 220.334221 63.493209 
L 222.142882 61.375589 
L 223.951542 59.509298 
L 225.760203 57.895313 
L 227.568863 56.534811 
L 229.377523 55.428996 
L 231.186184 54.578964 
L 232.994844 53.985604 
L 234.803505 53.649545 
L 236.612165 53.571116 
L 238.420826 53.750341 
L 240.229486 54.186956 
L 242.038146 54.880448 
L 243.846807 55.830115 
L 245.655467 57.035162 
L 247.464128 58.494824 
L 249.272788 60.208532 
L 251.081448 62.176104 
L 252.890109 64.397975 
L 254.698769 66.875426 
L 257.41176 71.076294 
L 260.124751 75.870952 
L 262.837741 81.278515 
L 265.550732 87.3213 
L 268.263722 94.017982 
L 270.976713 101.371157 
L 273.689704 109.348213 
L 277.307025 120.780979 
L 284.541666 144.198557 
L 287.254657 151.998382 
L 289.063317 156.57192 
L 290.871978 160.549404 
L 292.680638 163.897887 
L 294.489299 166.634786 
L 296.297959 168.828913 
L 298.106619 170.595751 
L 300.81961 172.780962 
L 303.532601 174.917242 
L 305.341261 176.573444 
L 307.149921 178.544778 
L 308.958582 180.8738 
L 311.671573 184.90586 
L 314.384563 188.937441 
L 315.288893 190.068727 
L 316.193224 191.000829 
L 317.097554 191.682103 
L 318.001884 192.072881 
L 318.906214 192.15182 
L 319.810544 191.919966 
L 320.714875 191.401276 
L 321.619205 190.639465 
L 323.427865 188.624201 
L 326.140856 185.33096 
L 327.949516 183.590866 
L 328.853847 182.976423 
L 329.758177 182.568783 
L 330.662507 182.388147 
L 331.566837 182.450054 
L 332.471167 182.765981 
L 333.375498 183.343659 
L 334.279828 184.187044 
L 335.184158 185.295883 
L 336.088488 186.664795 
L 337.897149 190.125933 
L 339.705809 194.349732 
L 342.4188 200.993317 
L 343.32313 202.862912 
L 344.22746 204.336353 
L 345.13179 205.29038 
L 346.036121 205.642518 
L 346.940451 205.371515 
L 347.844781 204.523057 
L 348.749111 203.197794 
L 350.557772 199.651762 
L 353.270762 193.951435 
L 355.079423 190.87624 
L 355.983753 189.694433 
L 356.888083 188.782045 
L 357.792413 188.154371 
L 358.696743 187.822536 
L 359.601074 187.795285 
L 360.505404 188.08035 
L 361.409734 188.685541 
L 362.314064 189.619658 
L 363.218395 190.893307 
L 364.122725 192.519729 
L 365.027055 194.515692 
L 365.931385 196.902547 
L 366.835715 199.707552 
L 367.740046 202.965596 
L 368.644376 206.721513 
L 369.548706 211.033261 
L 370.453036 215.976343 
L 371.357366 221.649978 
L 372.261697 228.185562 
L 373.166027 235.757379 
L 374.070357 244.592274 
L 374.974687 254.960401 
L 377.687678 292.405052 
L 378.592008 295.488 
L 379.496338 287.080721 
L 381.304999 261.94391 
L 382.209329 251.327084 
L 383.113659 242.339155 
L 384.017989 234.708521 
L 384.92232 228.18069 
L 385.82665 222.554296 
L 386.73098 217.675875 
L 387.63531 213.428804 
L 388.53964 209.723759 
L 389.443971 206.491593 
L 390.348301 203.678237 
L 391.252631 201.241053 
L 392.156961 199.146236 
L 393.061291 197.366927 
L 393.965622 195.881843 
L 394.869952 194.674272 
L 395.774282 193.731332 
L 396.678612 193.043438 
L 397.582943 192.603913 
L 398.487273 192.40873 
L 398.487273 192.40873 
" clip-path="url(#p634e843a3e)" style="fill: none; stroke: #ff0000; stroke-width: 1.5; stroke-linecap: square"/>
   </g>
   <g id="patch_3">
    <path d="M 57.6 307.584 
L 57.6 41.472 
" style="fill: none; stroke: #000000; stroke-width: 0.8; stroke-linejoin: miter; stroke-linecap: square"/>
   </g>
   <g id="patch_4">
    <path d="M 414.72 307.584 
L 414.72 41.472 
" style="fill: none; stroke: #000000; stroke-width: 0.8; stroke-linejoin: miter; stroke-linecap: square"/>
   </g>
   <g id="patch_5">
    <path d="M 57.6 307.584 
L 414.72 307.584 
" style="fill: none; stroke: #000000; stroke-width: 0.8; stroke-linejoin: miter; stroke-linecap: square"/>
   </g>
   <g id="patch_6">
    <path d="M 57.6 41.472 
L 414.72 41.472 
" style="fill: none; stroke: #000000; stroke-width: 0.8; stroke-linejoin: miter; stroke-linecap: square"/>
   </g>
   <g id="text_18">
    <!-- Antenna Directivity -->
    <g transform="translate(178.270312 35.472) scale(0.12 -0.12)">
     <defs>
      <path id="DejaVuSans-61" d="M 2194 1759 
Q 1497 1759 1228 1600 
Q 959 1441 959 1056 
Q 959 750 1161 570 
Q 1363 391 1709 391 
Q 2188 391 2477 730 
Q 2766 1069 2766 1631 
L 2766 1759 
L 2194 1759 
z
M 3341 1997 
L 3341 0 
L 2766 0 
L 2766 531 
Q 2569 213 2275 61 
Q 1981 -91 1556 -91 
Q 1019 -91 701 211 
Q 384 513 384 1019 
Q 384 1609 779 1909 
Q 1175 2209 1959 2209 
L 2766 2209 
L 2766 2266 
Q 2766 2663 2505 2880 
Q 2244 3097 1772 3097 
Q 1472 3097 1187 3025 
Q 903 2953 641 2809 
L 641 3341 
Q 956 3463 1253 3523 
Q 1550 3584 1831 3584 
Q 2591 3584 2966 3190 
Q 3341 2797 3341 1997 
z
" transform="scale(0.015625)"/>
     </defs>
     <use xlink:href="#DejaVuSans-41"/>
     <use xlink:href="#DejaVuSans-6e" x="68.408203"/>
     <use xlink:href="#DejaVuSans-74" x="131.787109"/>
     <use xlink:href="#DejaVuSans-65" x="170.996094"/>
     <use xlink:href="#DejaVuSans-6e" x="232.519531"/>
     <use xlink:href="#DejaVuSans-6e" x="295.898438"/>
     <use xlink:href="#DejaVuSans-61" x="359.277344"/>
     <use xlink:href="#DejaVuSans-20" x="420.556641"/>
     <use xlink:href="#DejaVuSans-44" x="452.34375"/>
     <use xlink:href="#DejaVuSans-69" x="529.345703"/>
     <use xlink:href="#DejaVuSans-72" x="557.128906"/>
     <use xlink:href="#DejaVuSans-65" x="595.992188"/>
     <use xlink:href="#DejaVuSans-63" x="657.515625"/>
     <use xlink:href="#DejaVuSans-74" x="712.496094"/>
     <use xlink:href="#DejaVuSans-69" x="751.705078"/>
     <use xlink:href="#DejaVuSans-76" x="779.488281"/>
     <use xlink:href="#DejaVuSans-69" x="838.667969"/>
     <use xlink:href="#DejaVuSans-74" x="866.451172"/>
     <use xlink:href="#DejaVuSans-79" x="905.660156"/>
    </g>
   </g>
   <g id="legend_1">
    <g id="patch_7">
     <path d="M 155.193594 302.584 
L 317.126406 302.584 
Q 319.126406 302.584 319.126406 300.584 
L 319.126406 242.8715 
Q 319.126406 240.8715 317.126406 240.8715 
L 155.193594 240.8715 
Q 153.193594 240.8715 153.193594 242.8715 
L 153.193594 300.584 
Q 153.193594 302.584 155.193594 302.584 
z
" style="fill: #ffffff; opacity: 0.8; stroke: #cccccc; stroke-linejoin: miter"/>
    </g>
    <g id="line2d_35">
     <path d="M 157.193594 248.969937 
L 167.193594 248.969937 
L 177.193594 248.969937 
" style="fill: none; stroke-dasharray: 5.55,2.4; stroke-dashoffset: 0; stroke: #0000ff; stroke-width: 1.5"/>
    </g>
    <g id="text_19">
     <!-- HFSS Elevation Φ=0 -->
     <g transform="translate(185.193594 252.469937) scale(0.1 -0.1)">
      <defs>
       <path id="DejaVuSans-48" d="M 628 4666 
L 1259 4666 
L 1259 2753 
L 3553 2753 
L 3553 4666 
L 4184 4666 
L 4184 0 
L 3553 0 
L 3553 2222 
L 1259 2222 
L 1259 0 
L 628 0 
L 628 4666 
z
" transform="scale(0.015625)"/>
       <path id="DejaVuSans-46" d="M 628 4666 
L 3309 4666 
L 3309 4134 
L 1259 4134 
L 1259 2759 
L 3109 2759 
L 3109 2228 
L 1259 2228 
L 1259 0 
L 628 0 
L 628 4666 
z
" transform="scale(0.015625)"/>
       <path id="DejaVuSans-53" d="M 3425 4513 
L 3425 3897 
Q 3066 4069 2747 4153 
Q 2428 4238 2131 4238 
Q 1616 4238 1336 4038 
Q 1056 3838 1056 3469 
Q 1056 3159 1242 3001 
Q 1428 2844 1947 2747 
L 2328 2669 
Q 3034 2534 3370 2195 
Q 3706 1856 3706 1288 
Q 3706 609 3251 259 
Q 2797 -91 1919 -91 
Q 1588 -91 1214 -16 
Q 841 59 441 206 
L 441 856 
Q 825 641 1194 531 
Q 1563 422 1919 422 
Q 2459 422 2753 634 
Q 3047 847 3047 1241 
Q 3047 1584 2836 1778 
Q 2625 1972 2144 2069 
L 1759 2144 
Q 1053 2284 737 2584 
Q 422 2884 422 3419 
Q 422 4038 858 4394 
Q 1294 4750 2059 4750 
Q 2388 4750 2728 4690 
Q 3069 4631 3425 4513 
z
" transform="scale(0.015625)"/>
       <path id="DejaVuSans-45" d="M 628 4666 
L 3578 4666 
L 3578 4134 
L 1259 4134 
L 1259 2753 
L 3481 2753 
L 3481 2222 
L 1259 2222 
L 1259 531 
L 3634 531 
L 3634 0 
L 628 0 
L 628 4666 
z
" transform="scale(0.015625)"/>
       <path id="DejaVuSans-6f" d="M 1959 3097 
Q 1497 3097 1228 2736 
Q 959 2375 959 1747 
Q 959 1119 1226 758 
Q 1494 397 1959 397 
Q 2419 397 2687 759 
Q 2956 1122 2956 1747 
Q 2956 2369 2687 2733 
Q 2419 3097 1959 3097 
z
M 1959 3584 
Q 2709 3584 3137 3096 
Q 3566 2609 3566 1747 
Q 3566 888 3137 398 
Q 2709 -91 1959 -91 
Q 1206 -91 779 398 
Q 353 888 353 1747 
Q 353 2609 779 3096 
Q 1206 3584 1959 3584 
z
" transform="scale(0.015625)"/>
       <path id="DejaVuSans-3a6" d="M 2206 3644 
Q 1738 3578 1431 3306 
Q 1025 2947 1025 2328 
Q 1025 1713 1431 1353 
Q 1738 1081 2206 1016 
L 2206 3644 
z
M 2838 1016 
Q 3306 1081 3613 1353 
Q 4013 1713 4013 2328 
Q 4013 2947 3613 3306 
Q 3306 3578 2838 3644 
L 2838 1016 
z
M 2206 494 
Q 1444 563 950 981 
Q 359 1481 359 2328 
Q 359 3175 950 3678 
Q 1441 4100 2206 4169 
L 2206 4666 
L 2838 4666 
L 2838 4169 
Q 3600 4097 4091 3678 
Q 4678 3175 4678 2328 
Q 4678 1484 4091 981 
Q 3600 563 2838 491 
L 2838 0 
L 2206 0 
L 2206 494 
z
" transform="scale(0.015625)"/>
       <path id="DejaVuSans-3d" d="M 678 2906 
L 4684 2906 
L 4684 2381 
L 678 2381 
L 678 2906 
z
M 678 1631 
L 4684 1631 
L 4684 1100 
L 678 1100 
L 678 1631 
z
" transform="scale(0.015625)"/>
      </defs>
      <use xlink:href="#DejaVuSans-48"/>
      <use xlink:href="#DejaVuSans-46" x="75.195312"/>
      <use xlink:href="#DejaVuSans-53" x="130.964844"/>
      <use xlink:href="#DejaVuSans-53" x="194.441406"/>
      <use xlink:href="#DejaVuSans-20" x="257.917969"/>
      <use xlink:href="#DejaVuSans-45" x="289.705078"/>
      <use xlink:href="#DejaVuSans-6c" x="352.888672"/>
      <use xlink:href="#DejaVuSans-65" x="380.671875"/>
      <use xlink:href="#DejaVuSans-76" x="442.195312"/>
      <use xlink:href="#DejaVuSans-61" x="501.375"/>
      <use xlink:href="#DejaVuSans-74" x="562.654297"/>
      <use xlink:href="#DejaVuSans-69" x="601.863281"/>
      <use xlink:href="#DejaVuSans-6f" x="629.646484"/>
      <use xlink:href="#DejaVuSans-6e" x="690.828125"/>
      <use xlink:href="#DejaVuSans-20" x="754.207031"/>
      <use xlink:href="#DejaVuSans-3a6" x="785.994141"/>
      <use xlink:href="#DejaVuSans-3d" x="864.705078"/>
      <use xlink:href="#DejaVuSans-30" x="948.494141"/>
     </g>
    </g>
    <g id="line2d_36">
     <path d="M 157.193594 263.648062 
L 167.193594 263.648062 
L 177.193594 263.648062 
" style="fill: none; stroke-dasharray: 5.55,2.4; stroke-dashoffset: 0; stroke: #ff0000; stroke-width: 1.5"/>
    </g>
    <g id="text_20">
     <!-- HFSS Elevation Φ=90 -->
     <g transform="translate(185.193594 267.148062) scale(0.1 -0.1)">
      <defs>
       <path id="DejaVuSans-39" d="M 703 97 
L 703 672 
Q 941 559 1184 500 
Q 1428 441 1663 441 
Q 2288 441 2617 861 
Q 2947 1281 2994 2138 
Q 2813 1869 2534 1725 
Q 2256 1581 1919 1581 
Q 1219 1581 811 2004 
Q 403 2428 403 3163 
Q 403 3881 828 4315 
Q 1253 4750 1959 4750 
Q 2769 4750 3195 4129 
Q 3622 3509 3622 2328 
Q 3622 1225 3098 567 
Q 2575 -91 1691 -91 
Q 1453 -91 1209 -44 
Q 966 3 703 97 
z
M 1959 2075 
Q 2384 2075 2632 2365 
Q 2881 2656 2881 3163 
Q 2881 3666 2632 3958 
Q 2384 4250 1959 4250 
Q 1534 4250 1286 3958 
Q 1038 3666 1038 3163 
Q 1038 2656 1286 2365 
Q 1534 2075 1959 2075 
z
" transform="scale(0.015625)"/>
      </defs>
      <use xlink:href="#DejaVuSans-48"/>
      <use xlink:href="#DejaVuSans-46" x="75.195312"/>
      <use xlink:href="#DejaVuSans-53" x="130.964844"/>
      <use xlink:href="#DejaVuSans-53" x="194.441406"/>
      <use xlink:href="#DejaVuSans-20" x="257.917969"/>
      <use xlink:href="#DejaVuSans-45" x="289.705078"/>
      <use xlink:href="#DejaVuSans-6c" x="352.888672"/>
      <use xlink:href="#DejaVuSans-65" x="380.671875"/>
      <use xlink:href="#DejaVuSans-76" x="442.195312"/>
      <use xlink:href="#DejaVuSans-61" x="501.375"/>
      <use xlink:href="#DejaVuSans-74" x="562.654297"/>
      <use xlink:href="#DejaVuSans-69" x="601.863281"/>
      <use xlink:href="#DejaVuSans-6f" x="629.646484"/>
      <use xlink:href="#DejaVuSans-6e" x="690.828125"/>
      <use xlink:href="#DejaVuSans-20" x="754.207031"/>
      <use xlink:href="#DejaVuSans-3a6" x="785.994141"/>
      <use xlink:href="#DejaVuSans-3d" x="864.705078"/>
      <use xlink:href="#DejaVuSans-39" x="948.494141"/>
      <use xlink:href="#DejaVuSans-30" x="1012.117188"/>
     </g>
    </g>
    <g id="line2d_37">
     <path d="M 157.193594 278.326187 
L 167.193594 278.326187 
L 177.193594 278.326187 
" style="fill: none; stroke: #0000ff; stroke-width: 1.5; stroke-linecap: square"/>
    </g>
    <g id="text_21">
     <!-- WaveFEM Elevation Φ=0 -->
     <g transform="translate(185.193594 281.826187) scale(0.1 -0.1)">
      <defs>
       <path id="DejaVuSans-57" d="M 213 4666 
L 850 4666 
L 1831 722 
L 2809 4666 
L 3519 4666 
L 4500 722 
L 5478 4666 
L 6119 4666 
L 4947 0 
L 4153 0 
L 3169 4050 
L 2175 0 
L 1381 0 
L 213 4666 
z
" transform="scale(0.015625)"/>
       <path id="DejaVuSans-4d" d="M 628 4666 
L 1569 4666 
L 2759 1491 
L 3956 4666 
L 4897 4666 
L 4897 0 
L 4281 0 
L 4281 4097 
L 3078 897 
L 2444 897 
L 1241 4097 
L 1241 0 
L 628 0 
L 628 4666 
z
" transform="scale(0.015625)"/>
      </defs>
      <use xlink:href="#DejaVuSans-57"/>
      <use xlink:href="#DejaVuSans-61" x="92.501953"/>
      <use xlink:href="#DejaVuSans-76" x="153.78125"/>
      <use xlink:href="#DejaVuSans-65" x="212.960938"/>
      <use xlink:href="#DejaVuSans-46" x="274.484375"/>
      <use xlink:href="#DejaVuSans-45" x="332.003906"/>
      <use xlink:href="#DejaVuSans-4d" x="395.1875"/>
      <use xlink:href="#DejaVuSans-20" x="481.466797"/>
      <use xlink:href="#DejaVuSans-45" x="513.253906"/>
      <use xlink:href="#DejaVuSans-6c" x="576.4375"/>
      <use xlink:href="#DejaVuSans-65" x="604.220703"/>
      <use xlink:href="#DejaVuSans-76" x="665.744141"/>
      <use xlink:href="#DejaVuSans-61" x="724.923828"/>
      <use xlink:href="#DejaVuSans-74" x="786.203125"/>
      <use xlink:href="#DejaVuSans-69" x="825.412109"/>
      <use xlink:href="#DejaVuSans-6f" x="853.195312"/>
      <use xlink:href="#DejaVuSans-6e" x="914.376953"/>
      <use xlink:href="#DejaVuSans-20" x="977.755859"/>
      <use xlink:href="#DejaVuSans-3a6" x="1009.542969"/>
      <use xlink:href="#DejaVuSans-3d" x="1088.253906"/>
      <use xlink:href="#DejaVuSans-30" x="1172.042969"/>
     </g>
    </g>
    <g id="line2d_38">
     <path d="M 157.193594 293.004312 
L 167.193594 293.004312 
L 177.193594 293.004312 
" style="fill: none; stroke: #ff0000; stroke-width: 1.5; stroke-linecap: square"/>
    </g>
    <g id="text_22">
     <!-- WaveFEM Elevation Φ=90 -->
     <g transform="translate(185.193594 296.504312) scale(0.1 -0.1)">
      <use xlink:href="#DejaVuSans-57"/>
      <use xlink:href="#DejaVuSans-61" x="92.501953"/>
      <use xlink:href="#DejaVuSans-76" x="153.78125"/>
      <use xlink:href="#DejaVuSans-65" x="212.960938"/>
      <use xlink:href="#DejaVuSans-46" x="274.484375"/>
      <use xlink:href="#DejaVuSans-45" x="332.003906"/>
      <use xlink:href="#DejaVuSans-4d" x="395.1875"/>
      <use xlink:href="#DejaVuSans-20" x="481.466797"/>
      <use xlink:href="#DejaVuSans-45" x="513.253906"/>
      <use xlink:href="#DejaVuSans-6c" x="576.4375"/>
      <use xlink:href="#DejaVuSans-65" x="604.220703"/>
      <use xlink:href="#DejaVuSans-76" x="665.744141"/>
      <use xlink:href="#DejaVuSans-61" x="724.923828"/>
      <use xlink:href="#DejaVuSans-74" x="786.203125"/>
      <use xlink:href="#DejaVuSans-69" x="825.412109"/>
      <use xlink:href="#DejaVuSans-6f" x="853.195312"/>
      <use xlink:href="#DejaVuSans-6e" x="914.376953"/>
      <use xlink:href="#DejaVuSans-20" x="977.755859"/>
      <use xlink:href="#DejaVuSans-3a6" x="1009.542969"/>
      <use xlink:href="#DejaVuSans-3d" x="1088.253906"/>
      <use xlink:href="#DejaVuSans-39" x="1172.042969"/>
      <use xlink:href="#DejaVuSans-30" x="1235.666016"/>
     </g>
    </g>
   </g>
  </g>
 </g>
 <defs>
  <clipPath id="p634e843a3e">
   <rect x="57.6" y="41.472" width="357.12" height="266.112"/>
  </clipPath>
 </defs>
</svg>
