<?xml version="1.0" encoding="utf-8" standalone="no"?>
<!DOCTYPE svg PUBLIC "-//W3C//DTD SVG 1.1//EN"
  "http://www.w3.org/Graphics/SVG/1.1/DTD/svg11.dtd">
<svg xmlns:xlink="http://www.w3.org/1999/xlink" width="460.8pt" height="345.6pt" viewBox="0 0 460.8 345.6" xmlns="http://www.w3.org/2000/svg" version="1.1">
 <metadata>
  <rdf:RDF xmlns:dc="http://purl.org/dc/elements/1.1/" xmlns:cc="http://creativecommons.org/ns#" xmlns:rdf="http://www.w3.org/1999/02/22-rdf-syntax-ns#">
   <cc:Work>
    <dc:type rdf:resource="http://purl.org/dc/dcmitype/StillImage"/>
    <dc:date>2025-08-03T16:00:55.594971</dc:date>
    <dc:format>image/svg+xml</dc:format>
    <dc:creator>
     <cc:Agent>
      <dc:title>Matplotlib v3.9.4, https://matplotlib.org/</dc:title>
     </cc:Agent>
    </dc:creator>
   </cc:Work>
  </rdf:RDF>
 </metadata>
 <defs>
  <style type="text/css">*{stroke-linejoin: round; stroke-linecap: butt}</style>
 </defs>
 <g id="figure_1">
  <g id="patch_1">
   <path d="M 0 345.6 
L 460.8 345.6 
L 460.8 0 
L 0 0 
z
" style="fill: #ffffff"/>
  </g>
  <g id="axes_1">
   <g id="patch_2">
    <path d="M 57.6 307.584 
L 414.72 307.584 
L 414.72 41.472 
L 57.6 41.472 
z
" style="fill: #ffffff"/>
   </g>
   <g id="matplotlib.axis_1">
    <g id="xtick_1">
     <g id="line2d_1">
      <defs>
       <path id="m84e229604e" d="M 0 0 
L 0 3.5 
" style="stroke: #000000; stroke-width: 0.8"/>
      </defs>
      <g>
       <use xlink:href="#m84e229604e" x="100.887273" y="307.584" style="stroke: #000000; stroke-width: 0.8"/>
      </g>
     </g>
     <g id="text_1">
      <!-- −150 -->
      <g transform="translate(87.153679 322.182437) scale(0.1 -0.1)">
       <defs>
        <path id="DejaVuSans-2212" d="M 678 2272 
L 4684 2272 
L 4684 1741 
L 678 1741 
L 678 2272 
z
" transform="scale(0.015625)"/>
        <path id="DejaVuSans-31" d="M 794 531 
L 1825 531 
L 1825 4091 
L 703 3866 
L 703 4441 
L 1819 4666 
L 2450 4666 
L 2450 531 
L 3481 531 
L 3481 0 
L 794 0 
L 794 531 
z
" transform="scale(0.015625)"/>
        <path id="DejaVuSans-35" d="M 691 4666 
L 3169 4666 
L 3169 4134 
L 1269 4134 
L 1269 2991 
Q 1406 3038 1543 3061 
Q 1681 3084 1819 3084 
Q 2600 3084 3056 2656 
Q 3513 2228 3513 1497 
Q 3513 744 3044 326 
Q 2575 -91 1722 -91 
Q 1428 -91 1123 -41 
Q 819 9 494 109 
L 494 744 
Q 775 591 1075 516 
Q 1375 441 1709 441 
Q 2250 441 2565 725 
Q 2881 1009 2881 1497 
Q 2881 1984 2565 2268 
Q 2250 2553 1709 2553 
Q 1456 2553 1204 2497 
Q 953 2441 691 2322 
L 691 4666 
z
" transform="scale(0.015625)"/>
        <path id="DejaVuSans-30" d="M 2034 4250 
Q 1547 4250 1301 3770 
Q 1056 3291 1056 2328 
Q 1056 1369 1301 889 
Q 1547 409 2034 409 
Q 2525 409 2770 889 
Q 3016 1369 3016 2328 
Q 3016 3291 2770 3770 
Q 2525 4250 2034 4250 
z
M 2034 4750 
Q 2819 4750 3233 4129 
Q 3647 3509 3647 2328 
Q 3647 1150 3233 529 
Q 2819 -91 2034 -91 
Q 1250 -91 836 529 
Q 422 1150 422 2328 
Q 422 3509 836 4129 
Q 1250 4750 2034 4750 
z
" transform="scale(0.015625)"/>
       </defs>
       <use xlink:href="#DejaVuSans-2212"/>
       <use xlink:href="#DejaVuSans-31" x="83.789062"/>
       <use xlink:href="#DejaVuSans-35" x="147.412109"/>
       <use xlink:href="#DejaVuSans-30" x="211.035156"/>
      </g>
     </g>
    </g>
    <g id="xtick_2">
     <g id="line2d_2">
      <g>
       <use xlink:href="#m84e229604e" x="145.978182" y="307.584" style="stroke: #000000; stroke-width: 0.8"/>
      </g>
     </g>
     <g id="text_2">
      <!-- −100 -->
      <g transform="translate(132.244588 322.182437) scale(0.1 -0.1)">
       <use xlink:href="#DejaVuSans-2212"/>
       <use xlink:href="#DejaVuSans-31" x="83.789062"/>
       <use xlink:href="#DejaVuSans-30" x="147.412109"/>
       <use xlink:href="#DejaVuSans-30" x="211.035156"/>
      </g>
     </g>
    </g>
    <g id="xtick_3">
     <g id="line2d_3">
      <g>
       <use xlink:href="#m84e229604e" x="191.069091" y="307.584" style="stroke: #000000; stroke-width: 0.8"/>
      </g>
     </g>
     <g id="text_3">
      <!-- −50 -->
      <g transform="translate(180.516747 322.182437) scale(0.1 -0.1)">
       <use xlink:href="#DejaVuSans-2212"/>
       <use xlink:href="#DejaVuSans-35" x="83.789062"/>
       <use xlink:href="#DejaVuSans-30" x="147.412109"/>
      </g>
     </g>
    </g>
    <g id="xtick_4">
     <g id="line2d_4">
      <g>
       <use xlink:href="#m84e229604e" x="236.16" y="307.584" style="stroke: #000000; stroke-width: 0.8"/>
      </g>
     </g>
     <g id="text_4">
      <!-- 0 -->
      <g transform="translate(232.97875 322.182437) scale(0.1 -0.1)">
       <use xlink:href="#DejaVuSans-30"/>
      </g>
     </g>
    </g>
    <g id="xtick_5">
     <g id="line2d_5">
      <g>
       <use xlink:href="#m84e229604e" x="281.250909" y="307.584" style="stroke: #000000; stroke-width: 0.8"/>
      </g>
     </g>
     <g id="text_5">
      <!-- 50 -->
      <g transform="translate(274.888409 322.182437) scale(0.1 -0.1)">
       <use xlink:href="#DejaVuSans-35"/>
       <use xlink:href="#DejaVuSans-30" x="63.623047"/>
      </g>
     </g>
    </g>
    <g id="xtick_6">
     <g id="line2d_6">
      <g>
       <use xlink:href="#m84e229604e" x="326.341818" y="307.584" style="stroke: #000000; stroke-width: 0.8"/>
      </g>
     </g>
     <g id="text_6">
      <!-- 100 -->
      <g transform="translate(316.798068 322.182437) scale(0.1 -0.1)">
       <use xlink:href="#DejaVuSans-31"/>
       <use xlink:href="#DejaVuSans-30" x="63.623047"/>
       <use xlink:href="#DejaVuSans-30" x="127.246094"/>
      </g>
     </g>
    </g>
    <g id="xtick_7">
     <g id="line2d_7">
      <g>
       <use xlink:href="#m84e229604e" x="371.432727" y="307.584" style="stroke: #000000; stroke-width: 0.8"/>
      </g>
     </g>
     <g id="text_7">
      <!-- 150 -->
      <g transform="translate(361.888977 322.182437) scale(0.1 -0.1)">
       <use xlink:href="#DejaVuSans-31"/>
       <use xlink:href="#DejaVuSans-35" x="63.623047"/>
       <use xlink:href="#DejaVuSans-30" x="127.246094"/>
      </g>
     </g>
    </g>
    <g id="text_8">
     <!-- Angle (deg) -->
     <g transform="translate(207.015469 335.860562) scale(0.1 -0.1)">
      <defs>
       <path id="DejaVuSans-41" d="M 2188 4044 
L 1331 1722 
L 3047 1722 
L 2188 4044 
z
M 1831 4666 
L 2547 4666 
L 4325 0 
L 3669 0 
L 3244 1197 
L 1141 1197 
L 716 0 
L 50 0 
L 1831 4666 
z
" transform="scale(0.015625)"/>
       <path id="DejaVuSans-6e" d="M 3513 2113 
L 3513 0 
L 2938 0 
L 2938 2094 
Q 2938 2591 2744 2837 
Q 2550 3084 2163 3084 
Q 1697 3084 1428 2787 
Q 1159 2491 1159 1978 
L 1159 0 
L 581 0 
L 581 3500 
L 1159 3500 
L 1159 2956 
Q 1366 3272 1645 3428 
Q 1925 3584 2291 3584 
Q 2894 3584 3203 3211 
Q 3513 2838 3513 2113 
z
" transform="scale(0.015625)"/>
       <path id="DejaVuSans-67" d="M 2906 1791 
Q 2906 2416 2648 2759 
Q 2391 3103 1925 3103 
Q 1463 3103 1205 2759 
Q 947 2416 947 1791 
Q 947 1169 1205 825 
Q 1463 481 1925 481 
Q 2391 481 2648 825 
Q 2906 1169 2906 1791 
z
M 3481 434 
Q 3481 -459 3084 -895 
Q 2688 -1331 1869 -1331 
Q 1566 -1331 1297 -1286 
Q 1028 -1241 775 -1147 
L 775 -588 
Q 1028 -725 1275 -790 
Q 1522 -856 1778 -856 
Q 2344 -856 2625 -561 
Q 2906 -266 2906 331 
L 2906 616 
Q 2728 306 2450 153 
Q 2172 0 1784 0 
Q 1141 0 747 490 
Q 353 981 353 1791 
Q 353 2603 747 3093 
Q 1141 3584 1784 3584 
Q 2172 3584 2450 3431 
Q 2728 3278 2906 2969 
L 2906 3500 
L 3481 3500 
L 3481 434 
z
" transform="scale(0.015625)"/>
       <path id="DejaVuSans-6c" d="M 603 4863 
L 1178 4863 
L 1178 0 
L 603 0 
L 603 4863 
z
" transform="scale(0.015625)"/>
       <path id="DejaVuSans-65" d="M 3597 1894 
L 3597 1613 
L 953 1613 
Q 991 1019 1311 708 
Q 1631 397 2203 397 
Q 2534 397 2845 478 
Q 3156 559 3463 722 
L 3463 178 
Q 3153 47 2828 -22 
Q 2503 -91 2169 -91 
Q 1331 -91 842 396 
Q 353 884 353 1716 
Q 353 2575 817 3079 
Q 1281 3584 2069 3584 
Q 2775 3584 3186 3129 
Q 3597 2675 3597 1894 
z
M 3022 2063 
Q 3016 2534 2758 2815 
Q 2500 3097 2075 3097 
Q 1594 3097 1305 2825 
Q 1016 2553 972 2059 
L 3022 2063 
z
" transform="scale(0.015625)"/>
       <path id="DejaVuSans-20" transform="scale(0.015625)"/>
       <path id="DejaVuSans-28" d="M 1984 4856 
Q 1566 4138 1362 3434 
Q 1159 2731 1159 2009 
Q 1159 1288 1364 580 
Q 1569 -128 1984 -844 
L 1484 -844 
Q 1016 -109 783 600 
Q 550 1309 550 2009 
Q 550 2706 781 3412 
Q 1013 4119 1484 4856 
L 1984 4856 
z
" transform="scale(0.015625)"/>
       <path id="DejaVuSans-64" d="M 2906 2969 
L 2906 4863 
L 3481 4863 
L 3481 0 
L 2906 0 
L 2906 525 
Q 2725 213 2448 61 
Q 2172 -91 1784 -91 
Q 1150 -91 751 415 
Q 353 922 353 1747 
Q 353 2572 751 3078 
Q 1150 3584 1784 3584 
Q 2172 3584 2448 3432 
Q 2725 3281 2906 2969 
z
M 947 1747 
Q 947 1113 1208 752 
Q 1469 391 1925 391 
Q 2381 391 2643 752 
Q 2906 1113 2906 1747 
Q 2906 2381 2643 2742 
Q 2381 3103 1925 3103 
Q 1469 3103 1208 2742 
Q 947 2381 947 1747 
z
" transform="scale(0.015625)"/>
       <path id="DejaVuSans-29" d="M 513 4856 
L 1013 4856 
Q 1481 4119 1714 3412 
Q 1947 2706 1947 2009 
Q 1947 1309 1714 600 
Q 1481 -109 1013 -844 
L 513 -844 
Q 928 -128 1133 580 
Q 1338 1288 1338 2009 
Q 1338 2731 1133 3434 
Q 928 4138 513 4856 
z
" transform="scale(0.015625)"/>
      </defs>
      <use xlink:href="#DejaVuSans-41"/>
      <use xlink:href="#DejaVuSans-6e" x="68.408203"/>
      <use xlink:href="#DejaVuSans-67" x="131.787109"/>
      <use xlink:href="#DejaVuSans-6c" x="195.263672"/>
      <use xlink:href="#DejaVuSans-65" x="223.046875"/>
      <use xlink:href="#DejaVuSans-20" x="284.570312"/>
      <use xlink:href="#DejaVuSans-28" x="316.357422"/>
      <use xlink:href="#DejaVuSans-64" x="355.371094"/>
      <use xlink:href="#DejaVuSans-65" x="418.847656"/>
      <use xlink:href="#DejaVuSans-67" x="480.371094"/>
      <use xlink:href="#DejaVuSans-29" x="543.847656"/>
     </g>
    </g>
   </g>
   <g id="matplotlib.axis_2">
    <g id="ytick_1">
     <g id="line2d_8">
      <defs>
       <path id="mb23e8b11d2" d="M 0 0 
L -3.5 0 
" style="stroke: #000000; stroke-width: 0.8"/>
      </defs>
      <g>
       <use xlink:href="#mb23e8b11d2" x="57.6" y="288.711181" style="stroke: #000000; stroke-width: 0.8"/>
      </g>
     </g>
     <g id="text_9">
      <!-- −25 -->
      <g transform="translate(29.495313 292.5104) scale(0.1 -0.1)">
       <defs>
        <path id="DejaVuSans-32" d="M 1228 531 
L 3431 531 
L 3431 0 
L 469 0 
L 469 531 
Q 828 903 1448 1529 
Q 2069 2156 2228 2338 
Q 2531 2678 2651 2914 
Q 2772 3150 2772 3378 
Q 2772 3750 2511 3984 
Q 2250 4219 1831 4219 
Q 1534 4219 1204 4116 
Q 875 4013 500 3803 
L 500 4441 
Q 881 4594 1212 4672 
Q 1544 4750 1819 4750 
Q 2544 4750 2975 4387 
Q 3406 4025 3406 3419 
Q 3406 3131 3298 2873 
Q 3191 2616 2906 2266 
Q 2828 2175 2409 1742 
Q 1991 1309 1228 531 
z
" transform="scale(0.015625)"/>
       </defs>
       <use xlink:href="#DejaVuSans-2212"/>
       <use xlink:href="#DejaVuSans-32" x="83.789062"/>
       <use xlink:href="#DejaVuSans-35" x="147.412109"/>
      </g>
     </g>
    </g>
    <g id="ytick_2">
     <g id="line2d_9">
      <g>
       <use xlink:href="#mb23e8b11d2" x="57.6" y="256.650923" style="stroke: #000000; stroke-width: 0.8"/>
      </g>
     </g>
     <g id="text_10">
      <!-- −20 -->
      <g transform="translate(29.495313 260.450142) scale(0.1 -0.1)">
       <use xlink:href="#DejaVuSans-2212"/>
       <use xlink:href="#DejaVuSans-32" x="83.789062"/>
       <use xlink:href="#DejaVuSans-30" x="147.412109"/>
      </g>
     </g>
    </g>
    <g id="ytick_3">
     <g id="line2d_10">
      <g>
       <use xlink:href="#mb23e8b11d2" x="57.6" y="224.590666" style="stroke: #000000; stroke-width: 0.8"/>
      </g>
     </g>
     <g id="text_11">
      <!-- −15 -->
      <g transform="translate(29.495313 228.389884) scale(0.1 -0.1)">
       <use xlink:href="#DejaVuSans-2212"/>
       <use xlink:href="#DejaVuSans-31" x="83.789062"/>
       <use xlink:href="#DejaVuSans-35" x="147.412109"/>
      </g>
     </g>
    </g>
    <g id="ytick_4">
     <g id="line2d_11">
      <g>
       <use xlink:href="#mb23e8b11d2" x="57.6" y="192.530408" style="stroke: #000000; stroke-width: 0.8"/>
      </g>
     </g>
     <g id="text_12">
      <!-- −10 -->
      <g transform="translate(29.495313 196.329627) scale(0.1 -0.1)">
       <use xlink:href="#DejaVuSans-2212"/>
       <use xlink:href="#DejaVuSans-31" x="83.789062"/>
       <use xlink:href="#DejaVuSans-30" x="147.412109"/>
      </g>
     </g>
    </g>
    <g id="ytick_5">
     <g id="line2d_12">
      <g>
       <use xlink:href="#mb23e8b11d2" x="57.6" y="160.47015" style="stroke: #000000; stroke-width: 0.8"/>
      </g>
     </g>
     <g id="text_13">
      <!-- −5 -->
      <g transform="translate(35.857813 164.269369) scale(0.1 -0.1)">
       <use xlink:href="#DejaVuSans-2212"/>
       <use xlink:href="#DejaVuSans-35" x="83.789062"/>
      </g>
     </g>
    </g>
    <g id="ytick_6">
     <g id="line2d_13">
      <g>
       <use xlink:href="#mb23e8b11d2" x="57.6" y="128.409892" style="stroke: #000000; stroke-width: 0.8"/>
      </g>
     </g>
     <g id="text_14">
      <!-- 0 -->
      <g transform="translate(44.2375 132.209111) scale(0.1 -0.1)">
       <use xlink:href="#DejaVuSans-30"/>
      </g>
     </g>
    </g>
    <g id="ytick_7">
     <g id="line2d_14">
      <g>
       <use xlink:href="#mb23e8b11d2" x="57.6" y="96.349635" style="stroke: #000000; stroke-width: 0.8"/>
      </g>
     </g>
     <g id="text_15">
      <!-- 5 -->
      <g transform="translate(44.2375 100.148853) scale(0.1 -0.1)">
       <use xlink:href="#DejaVuSans-35"/>
      </g>
     </g>
    </g>
    <g id="ytick_8">
     <g id="line2d_15">
      <g>
       <use xlink:href="#mb23e8b11d2" x="57.6" y="64.289377" style="stroke: #000000; stroke-width: 0.8"/>
      </g>
     </g>
     <g id="text_16">
      <!-- 10 -->
      <g transform="translate(37.875 68.088596) scale(0.1 -0.1)">
       <use xlink:href="#DejaVuSans-31"/>
       <use xlink:href="#DejaVuSans-30" x="63.623047"/>
      </g>
     </g>
    </g>
    <g id="text_17">
     <!-- Directivity (dB) -->
     <g transform="translate(23.415625 212.248312) rotate(-90) scale(0.1 -0.1)">
      <defs>
       <path id="DejaVuSans-44" d="M 1259 4147 
L 1259 519 
L 2022 519 
Q 2988 519 3436 956 
Q 3884 1394 3884 2338 
Q 3884 3275 3436 3711 
Q 2988 4147 2022 4147 
L 1259 4147 
z
M 628 4666 
L 1925 4666 
Q 3281 4666 3915 4102 
Q 4550 3538 4550 2338 
Q 4550 1131 3912 565 
Q 3275 0 1925 0 
L 628 0 
L 628 4666 
z
" transform="scale(0.015625)"/>
       <path id="DejaVuSans-69" d="M 603 3500 
L 1178 3500 
L 1178 0 
L 603 0 
L 603 3500 
z
M 603 4863 
L 1178 4863 
L 1178 4134 
L 603 4134 
L 603 4863 
z
" transform="scale(0.015625)"/>
       <path id="DejaVuSans-72" d="M 2631 2963 
Q 2534 3019 2420 3045 
Q 2306 3072 2169 3072 
Q 1681 3072 1420 2755 
Q 1159 2438 1159 1844 
L 1159 0 
L 581 0 
L 581 3500 
L 1159 3500 
L 1159 2956 
Q 1341 3275 1631 3429 
Q 1922 3584 2338 3584 
Q 2397 3584 2469 3576 
Q 2541 3569 2628 3553 
L 2631 2963 
z
" transform="scale(0.015625)"/>
       <path id="DejaVuSans-63" d="M 3122 3366 
L 3122 2828 
Q 2878 2963 2633 3030 
Q 2388 3097 2138 3097 
Q 1578 3097 1268 2742 
Q 959 2388 959 1747 
Q 959 1106 1268 751 
Q 1578 397 2138 397 
Q 2388 397 2633 464 
Q 2878 531 3122 666 
L 3122 134 
Q 2881 22 2623 -34 
Q 2366 -91 2075 -91 
Q 1284 -91 818 406 
Q 353 903 353 1747 
Q 353 2603 823 3093 
Q 1294 3584 2113 3584 
Q 2378 3584 2631 3529 
Q 2884 3475 3122 3366 
z
" transform="scale(0.015625)"/>
       <path id="DejaVuSans-74" d="M 1172 4494 
L 1172 3500 
L 2356 3500 
L 2356 3053 
L 1172 3053 
L 1172 1153 
Q 1172 725 1289 603 
Q 1406 481 1766 481 
L 2356 481 
L 2356 0 
L 1766 0 
Q 1100 0 847 248 
Q 594 497 594 1153 
L 594 3053 
L 172 3053 
L 172 3500 
L 594 3500 
L 594 4494 
L 1172 4494 
z
" transform="scale(0.015625)"/>
       <path id="DejaVuSans-76" d="M 191 3500 
L 800 3500 
L 1894 563 
L 2988 3500 
L 3597 3500 
L 2284 0 
L 1503 0 
L 191 3500 
z
" transform="scale(0.015625)"/>
       <path id="DejaVuSans-79" d="M 2059 -325 
Q 1816 -950 1584 -1140 
Q 1353 -1331 966 -1331 
L 506 -1331 
L 506 -850 
L 844 -850 
Q 1081 -850 1212 -737 
Q 1344 -625 1503 -206 
L 1606 56 
L 191 3500 
L 800 3500 
L 1894 763 
L 2988 3500 
L 3597 3500 
L 2059 -325 
z
" transform="scale(0.015625)"/>
       <path id="DejaVuSans-42" d="M 1259 2228 
L 1259 519 
L 2272 519 
Q 2781 519 3026 730 
Q 3272 941 3272 1375 
Q 3272 1813 3026 2020 
Q 2781 2228 2272 2228 
L 1259 2228 
z
M 1259 4147 
L 1259 2741 
L 2194 2741 
Q 2656 2741 2882 2914 
Q 3109 3088 3109 3444 
Q 3109 3797 2882 3972 
Q 2656 4147 2194 4147 
L 1259 4147 
z
M 628 4666 
L 2241 4666 
Q 2963 4666 3353 4366 
Q 3744 4066 3744 3513 
Q 3744 3084 3544 2831 
Q 3344 2578 2956 2516 
Q 3422 2416 3680 2098 
Q 3938 1781 3938 1306 
Q 3938 681 3513 340 
Q 3088 0 2303 0 
L 628 0 
L 628 4666 
z
" transform="scale(0.015625)"/>
      </defs>
      <use xlink:href="#DejaVuSans-44"/>
      <use xlink:href="#DejaVuSans-69" x="77.001953"/>
      <use xlink:href="#DejaVuSans-72" x="104.785156"/>
      <use xlink:href="#DejaVuSans-65" x="143.648438"/>
      <use xlink:href="#DejaVuSans-63" x="205.171875"/>
      <use xlink:href="#DejaVuSans-74" x="260.152344"/>
      <use xlink:href="#DejaVuSans-69" x="299.361328"/>
      <use xlink:href="#DejaVuSans-76" x="327.144531"/>
      <use xlink:href="#DejaVuSans-69" x="386.324219"/>
      <use xlink:href="#DejaVuSans-74" x="414.107422"/>
      <use xlink:href="#DejaVuSans-79" x="453.316406"/>
      <use xlink:href="#DejaVuSans-20" x="512.496094"/>
      <use xlink:href="#DejaVuSans-28" x="544.283203"/>
      <use xlink:href="#DejaVuSans-64" x="583.296875"/>
      <use xlink:href="#DejaVuSans-42" x="646.773438"/>
      <use xlink:href="#DejaVuSans-29" x="715.376953"/>
     </g>
    </g>
   </g>
   <g id="line2d_16">
    <path d="M 73.832727 185.290597 
L 75.636364 185.738828 
L 77.44 186.538117 
L 79.243636 187.668722 
L 81.047273 189.104263 
L 82.850909 190.811605 
L 85.556364 193.792958 
L 89.163636 198.291101 
L 94.574545 205.192064 
L 97.28 208.245694 
L 99.083636 210.00087 
L 100.887273 211.482494 
L 102.690909 212.668729 
L 104.494545 213.561232 
L 106.298182 214.187751 
L 108.101818 214.600979 
L 111.709091 215.087912 
L 114.414545 215.485287 
L 116.218182 215.907242 
L 118.021818 216.518569 
L 119.825455 217.350626 
L 121.629091 218.412719 
L 123.432727 219.693049 
L 126.138182 221.952688 
L 129.745455 225.344403 
L 134.254545 229.589439 
L 136.96 231.864819 
L 139.665455 233.791443 
L 141.469091 234.82975 
L 143.272727 235.634614 
L 145.076364 236.17643 
L 146.88 236.430217 
L 148.683636 236.377589 
L 150.487273 236.005839 
L 152.290909 235.303439 
L 154.094545 234.25309 
L 155.898182 232.824971 
L 157.701818 230.97344 
L 159.505455 228.639873 
L 161.309091 225.762671 
L 163.112727 222.292735 
L 164.916364 218.209826 
L 166.72 213.533696 
L 168.523636 208.325432 
L 171.229091 199.725425 
L 174.836364 187.374567 
L 182.952727 159.245361 
L 188.363636 141.481047 
L 193.774545 124.537323 
L 198.283636 111.118316 
L 201.890909 101.046223 
L 204.596364 93.998073 
L 207.301818 87.454535 
L 210.007273 81.459422 
L 212.712727 76.038496 
L 215.418182 71.203764 
L 218.123636 66.958834 
L 219.927273 64.456569 
L 221.730909 62.216241 
L 223.534545 60.237889 
L 225.338182 58.521893 
L 227.141818 57.068999 
L 228.945455 55.880254 
L 230.749091 54.956899 
L 232.552727 54.300233 
L 234.356364 53.911483 
L 236.16 53.79168 
L 237.963636 53.941562 
L 239.767273 54.361518 
L 241.570909 55.051548 
L 243.374545 56.011278 
L 245.178182 57.239988 
L 246.981818 58.736665 
L 248.785455 60.500073 
L 250.589091 62.528808 
L 252.392727 64.821341 
L 254.196364 67.376003 
L 256.901818 71.695292 
L 259.607273 76.591932 
L 262.312727 82.053702 
L 265.018182 88.06114 
L 267.723636 94.583851 
L 271.330909 104.003344 
L 274.938182 114.112989 
L 279.447273 127.45802 
L 285.76 146.97676 
L 292.072727 167.237901 
L 301.090909 196.521572 
L 303.796364 204.585111 
L 305.6 209.502083 
L 307.403636 213.950332 
L 309.207273 217.870317 
L 311.010909 221.238591 
L 312.814545 224.068847 
L 314.618182 226.402815 
L 316.421818 228.294394 
L 318.225455 229.792972 
L 320.029091 230.931469 
L 321.832727 231.722137 
L 323.636364 232.160396 
L 325.44 232.234625 
L 327.243636 231.938198 
L 329.047273 231.279487 
L 330.850909 230.286532 
L 332.654545 229.005618 
L 335.36 226.674793 
L 338.967273 223.143388 
L 343.476364 218.752386 
L 346.181818 216.474841 
L 347.985455 215.208533 
L 349.789091 214.186299 
L 351.592727 213.428469 
L 353.396364 212.936902 
L 355.2 212.692062 
L 357.003636 212.651536 
L 360.610909 212.905139 
L 363.316364 213.02762 
L 365.12 212.891201 
L 366.923636 212.478183 
L 368.727273 211.726075 
L 370.530909 210.60275 
L 372.334545 209.108984 
L 374.138182 207.276505 
L 375.941818 205.162644 
L 378.647273 201.632754 
L 384.058182 194.356935 
L 386.763636 191.156373 
L 388.567273 189.331741 
L 390.370909 187.806954 
L 392.174545 186.614234 
L 393.978182 185.775484 
L 395.781818 185.303403 
L 397.585455 185.202496 
L 398.487273 185.290597 
L 398.487273 185.290597 
" clip-path="url(#p5453e90cfc)" style="fill: none; stroke-dasharray: 5.55,2.4; stroke-dashoffset: 0; stroke: #0000ff; stroke-width: 1.5"/>
   </g>
   <g id="line2d_17">
    <path d="M 73.832727 185.290597 
L 74.734545 185.33296 
L 75.636364 185.588348 
L 76.538182 186.058222 
L 77.44 186.745062 
L 78.341818 187.652355 
L 79.243636 188.78455 
L 80.145455 190.146988 
L 81.047273 191.745748 
L 82.850909 195.678584 
L 84.654545 200.631743 
L 86.458182 206.619852 
L 88.261818 213.5412 
L 91.869091 227.921484 
L 92.770909 230.618901 
L 93.672727 232.424973 
L 94.574545 233.108498 
L 95.476364 232.577307 
L 96.378182 230.91668 
L 97.28 228.355282 
L 99.083636 221.683525 
L 101.789091 211.14359 
L 103.592727 205.112513 
L 105.396364 200.242637 
L 106.298182 198.264404 
L 107.2 196.589851 
L 108.101818 195.214898 
L 109.003636 194.134023 
L 109.905455 193.34074 
L 110.807273 192.827723 
L 111.709091 192.586625 
L 112.610909 192.607661 
L 113.512727 192.878941 
L 114.414545 193.385536 
L 115.316364 194.10828 
L 116.218182 195.022277 
L 118.021818 197.285276 
L 120.727273 200.973041 
L 121.629091 201.990828 
L 122.530909 202.761042 
L 123.432727 203.203961 
L 124.334545 203.258401 
L 125.236364 202.892169 
L 126.138182 202.108139 
L 127.04 200.943665 
L 127.941818 199.463563 
L 129.745455 195.887346 
L 132.450909 190.196294 
L 134.254545 186.899374 
L 135.156364 185.515946 
L 136.058182 184.339201 
L 136.96 183.383324 
L 137.861818 182.657433 
L 138.763636 182.166526 
L 139.665455 181.91213 
L 140.567273 181.892656 
L 141.469091 182.103504 
L 142.370909 182.536909 
L 143.272727 183.18157 
L 144.174545 184.022054 
L 145.978182 186.203245 
L 148.683636 190.225971 
L 150.487273 192.843593 
L 151.389091 193.949759 
L 152.290909 194.836444 
L 153.192727 195.449603 
L 154.094545 195.750352 
L 154.996364 195.720067 
L 155.898182 195.362597 
L 156.8 194.702878 
L 157.701818 193.782367 
L 159.505455 191.36875 
L 166.72 180.358056 
L 169.425455 176.917755 
L 173.934545 171.338036 
L 175.738182 168.795261 
L 177.541818 165.908989 
L 179.345455 162.609451 
L 181.149091 158.864693 
L 182.952727 154.678939 
L 185.658182 147.65564 
L 188.363636 139.928736 
L 192.872727 126.213399 
L 198.283636 109.850602 
L 201.890909 99.716977 
L 204.596364 92.713428 
L 207.301818 86.280143 
L 210.007273 80.438036 
L 212.712727 75.19053 
L 215.418182 70.532266 
L 218.123636 66.455074 
L 219.927273 64.055971 
L 221.730909 61.910041 
L 223.534545 60.016099 
L 225.338182 58.373434 
L 227.141818 56.981734 
L 228.945455 55.84098 
L 230.749091 54.951338 
L 232.552727 54.313066 
L 234.356364 53.926434 
L 236.16 53.79168 
L 237.963636 53.908976 
L 239.767273 54.278443 
L 241.570909 54.90018 
L 243.374545 55.774321 
L 245.178182 56.901121 
L 246.981818 58.28105 
L 248.785455 59.914902 
L 250.589091 61.803895 
L 252.392727 63.949753 
L 254.196364 66.354749 
L 256 69.021672 
L 258.705455 73.520193 
L 261.410909 78.626208 
L 264.116364 84.347753 
L 266.821818 90.684179 
L 269.527273 97.617759 
L 272.232727 105.102718 
L 275.84 115.7833 
L 285.76 145.842978 
L 288.465455 152.976397 
L 290.269091 157.216977 
L 292.072727 160.992058 
L 293.876364 164.2897 
L 295.68 167.135212 
L 297.483636 169.593719 
L 300.189091 172.785863 
L 304.698182 177.89352 
L 306.501818 180.222987 
L 308.305455 182.820489 
L 311.912727 188.587643 
L 313.716364 191.332192 
L 314.618182 192.509666 
L 315.52 193.481147 
L 316.421818 194.192015 
L 317.323636 194.597759 
L 318.225455 194.670862 
L 319.127273 194.405808 
L 320.029091 193.820737 
L 320.930909 192.955209 
L 322.734545 190.614347 
L 326.341818 185.291084 
L 328.145455 183.155357 
L 329.047273 182.343395 
L 329.949091 181.730789 
L 330.850909 181.332492 
L 331.752727 181.159187 
L 332.654545 181.217904 
L 333.556364 181.512414 
L 334.458182 182.043378 
L 335.36 182.808253 
L 336.261818 183.800941 
L 337.163636 185.011147 
L 338.967273 188.016097 
L 340.770909 191.614674 
L 343.476364 197.295141 
L 345.28 200.445052 
L 346.181818 201.588921 
L 347.083636 202.359386 
L 347.985455 202.722765 
L 348.887273 202.678097 
L 349.789091 202.257238 
L 350.690909 201.518947 
L 352.494545 199.400181 
L 355.2 195.789793 
L 357.003636 193.810079 
L 357.905455 193.070343 
L 358.807273 192.53182 
L 359.709091 192.213022 
L 360.610909 192.128318 
L 361.512727 192.289071 
L 362.414545 192.704524 
L 363.316364 193.382448 
L 364.218182 194.329557 
L 365.12 195.551712 
L 366.021818 197.053865 
L 366.923636 198.839715 
L 367.825455 200.910951 
L 369.629091 205.897488 
L 371.432727 211.912551 
L 375.04 225.167816 
L 375.941818 227.9181 
L 376.843636 229.984965 
L 377.745455 231.127298 
L 378.647273 231.18857 
L 379.549091 230.151912 
L 380.450909 228.145959 
L 381.352727 225.397239 
L 383.156364 218.67021 
L 385.861818 208.229 
L 387.665455 202.110245 
L 389.469091 196.946614 
L 391.272727 192.770403 
L 393.076364 189.554372 
L 393.978182 188.293559 
L 394.88 187.257601 
L 395.781818 186.442283 
L 396.683636 185.844194 
L 397.585455 185.460819 
L 398.487273 185.290597 
L 398.487273 185.290597 
" clip-path="url(#p5453e90cfc)" style="fill: none; stroke-dasharray: 5.55,2.4; stroke-dashoffset: 0; stroke: #ff0000; stroke-width: 1.5"/>
   </g>
   <g id="line2d_18">
    <path d="M 73.832727 205.250759 
L 76.545718 204.856941 
L 79.258709 204.709903 
L 81.971699 204.819402 
L 84.68469 205.20261 
L 87.39768 205.884614 
L 90.110671 206.891154 
L 92.823662 208.231417 
L 95.536652 209.871734 
L 102.771294 214.62703 
L 104.579954 215.514273 
L 106.388615 216.136305 
L 108.197275 216.465969 
L 110.005936 216.524182 
L 112.718926 216.264671 
L 116.336247 215.874546 
L 118.144908 215.938328 
L 119.953568 216.315735 
L 121.762228 217.082934 
L 123.570889 218.288065 
L 125.379549 219.949157 
L 127.18821 222.051391 
L 128.99687 224.542917 
L 131.709861 228.792073 
L 135.327182 234.571667 
L 137.135842 237.058848 
L 138.944502 239.030374 
L 139.848833 239.787622 
L 140.753163 240.386608 
L 141.657493 240.831436 
L 142.561823 241.132355 
L 144.370484 241.366328 
L 146.179144 241.238739 
L 148.892135 240.686801 
L 152.509456 239.675064 
L 154.318116 239.002981 
L 156.126776 238.061434 
L 157.031107 237.432688 
L 157.935437 236.664707 
L 158.839767 235.73219 
L 159.744097 234.611916 
L 160.648427 233.284434 
L 161.552758 231.7356 
L 163.361418 227.950157 
L 165.170079 223.277648 
L 166.978739 217.837227 
L 169.69173 208.629424 
L 174.213381 191.963969 
L 180.543692 168.738458 
L 185.065343 153.045448 
L 189.586994 138.098444 
L 194.108645 123.820264 
L 198.630296 110.307069 
L 202.247617 100.219343 
L 204.960608 93.176267 
L 207.673598 86.643719 
L 210.386589 80.663262 
L 213.09958 75.262245 
L 215.81257 70.456017 
L 218.525561 66.251288 
L 220.334221 63.783148 
L 222.142882 61.582769 
L 223.951542 59.649672 
L 225.760203 57.983354 
L 227.568863 56.583397 
L 229.377523 55.449519 
L 231.186184 54.581583 
L 232.994844 53.979576 
L 234.803505 53.643575 
L 236.612165 53.57372 
L 238.420826 53.770189 
L 240.229486 54.233193 
L 242.038146 54.962984 
L 243.846807 55.95987 
L 245.655467 57.224246 
L 247.464128 58.756606 
L 249.272788 60.557543 
L 251.081448 62.627708 
L 252.890109 64.967727 
L 254.698769 67.578044 
L 257.41176 72.000211 
L 260.124751 77.02714 
L 262.837741 82.648854 
L 265.550732 88.845362 
L 268.263722 95.583737 
L 271.881043 105.327914 
L 275.498364 115.807979 
L 280.020015 129.720271 
L 284.541666 144.370611 
L 289.063317 159.777254 
L 293.584968 176.066598 
L 299.91528 200.036781 
L 303.532601 213.353958 
L 305.341261 219.429068 
L 307.149921 224.837868 
L 308.958582 229.385035 
L 310.767242 232.945462 
L 311.671573 234.34708 
L 312.575903 235.507642 
L 313.480233 236.44478 
L 314.384563 237.181804 
L 315.288893 237.74588 
L 317.097554 238.471666 
L 318.906214 238.847413 
L 323.427865 239.321467 
L 327.949516 239.683519 
L 329.758177 239.54949 
L 331.566837 239.038061 
L 332.471167 238.59733 
L 333.375498 238.017053 
L 334.279828 237.29177 
L 336.088488 235.416108 
L 337.897149 233.051732 
L 340.610139 228.94946 
L 344.22746 223.46169 
L 346.036121 221.083203 
L 347.844781 219.097848 
L 349.653441 217.567217 
L 351.462102 216.517213 
L 353.270762 215.941882 
L 355.079423 215.80582 
L 356.888083 216.045479 
L 358.696743 216.570568 
L 365.027055 218.90789 
L 366.835715 219.210671 
L 368.644376 219.196413 
L 370.453036 218.851801 
L 372.261697 218.20777 
L 374.070357 217.325335 
L 376.783348 215.714817 
L 384.92232 210.591461 
L 388.53964 208.66993 
L 391.252631 207.448768 
L 393.965622 206.436186 
L 396.678612 205.64705 
L 398.487273 205.250759 
L 398.487273 205.250759 
" clip-path="url(#p5453e90cfc)" style="fill: none; stroke: #0000ff; stroke-width: 1.5; stroke-linecap: square"/>
   </g>
   <g id="line2d_19">
    <path d="M 73.832727 205.250759 
L 74.737057 205.514302 
L 75.641388 206.071879 
L 76.545718 206.929644 
L 77.450048 208.097146 
L 78.354378 209.587641 
L 79.258709 211.418549 
L 80.163039 213.612051 
L 81.067369 216.195851 
L 81.971699 219.204087 
L 82.876029 222.678328 
L 83.78036 226.668445 
L 84.68469 231.232793 
L 85.58902 236.436252 
L 86.49335 242.342545 
L 88.302011 256.344728 
L 90.110671 271.643528 
L 91.015001 277.279514 
L 91.919331 278.961793 
L 92.823662 275.738055 
L 93.727992 268.890126 
L 96.440983 244.016704 
L 98.249643 230.26504 
L 100.058303 219.326388 
L 101.866964 210.726134 
L 103.675624 204.059011 
L 104.579954 201.358232 
L 105.484285 199.043492 
L 106.388615 197.094498 
L 107.292945 195.495151 
L 108.197275 194.232815 
L 109.101605 193.297646 
L 110.005936 192.681993 
L 110.910266 192.379779 
L 111.814596 192.385845 
L 112.718926 192.695166 
L 113.623257 193.301867 
L 114.527587 194.197913 
L 115.431917 195.371355 
L 116.336247 196.803928 
L 118.144908 200.321685 
L 121.762228 208.058096 
L 122.666559 209.453597 
L 123.570889 210.327174 
L 124.475219 210.550534 
L 125.379549 210.056904 
L 126.283879 208.860002 
L 127.18821 207.050309 
L 128.09254 204.770725 
L 130.805531 196.690044 
L 132.614191 191.509724 
L 134.422851 187.176016 
L 135.327182 185.411345 
L 136.231512 183.936679 
L 137.135842 182.759407 
L 138.040172 181.882084 
L 138.944502 181.303618 
L 139.848833 181.019911 
L 140.753163 181.024087 
L 141.657493 181.30633 
L 142.561823 181.853401 
L 143.466153 182.64784 
L 144.370484 183.666871 
L 146.179144 186.252797 
L 150.700795 193.469705 
L 151.605125 194.47149 
L 152.509456 195.15505 
L 153.413786 195.475343 
L 154.318116 195.415734 
L 155.222446 194.990207 
L 156.126776 194.239942 
L 157.031107 193.225457 
L 158.839767 190.684807 
L 162.457088 185.25117 
L 164.265748 182.949862 
L 166.074409 181.049329 
L 167.883069 179.495354 
L 173.30905 175.397792 
L 175.117711 173.573847 
L 176.926371 171.219886 
L 178.735032 168.222577 
L 180.543692 164.536942 
L 182.352352 160.186471 
L 184.161013 155.250965 
L 186.874004 147.011384 
L 191.395655 132.146213 
L 195.917306 117.347929 
L 199.534626 106.282643 
L 202.247617 98.615003 
L 204.960608 91.544461 
L 207.673598 85.090094 
L 210.386589 79.255722 
L 213.09958 74.037503 
L 215.81257 69.428248 
L 218.525561 65.419785 
L 220.334221 63.077322 
L 222.142882 60.996233 
L 223.951542 59.174635 
L 225.760203 57.61089 
L 227.568863 56.303611 
L 229.377523 55.251638 
L 231.186184 54.454016 
L 232.994844 53.909964 
L 234.803505 53.618857 
L 236.612165 53.580206 
L 238.420826 53.79366 
L 240.229486 54.259015 
L 242.038146 54.976245 
L 243.846807 55.945544 
L 245.655467 57.16737 
L 247.464128 58.642499 
L 249.272788 60.372064 
L 251.081448 62.357584 
L 252.890109 64.600959 
L 254.698769 67.104425 
L 257.41176 71.352765 
L 260.124751 76.200463 
L 262.837741 81.654523 
L 265.550732 87.717342 
L 268.263722 94.382039 
L 270.976713 101.625509 
L 274.594034 112.093059 
L 279.115685 126.119464 
L 284.541666 143.07495 
L 287.254657 150.875712 
L 289.063317 155.581158 
L 290.871978 159.783836 
L 292.680638 163.425514 
L 294.489299 166.491883 
L 296.297959 169.020666 
L 298.106619 171.102013 
L 300.81961 173.686862 
L 304.436931 177.001063 
L 306.245591 178.953969 
L 308.054252 181.248136 
L 309.862912 183.905345 
L 315.288893 192.382304 
L 316.193224 193.36449 
L 317.097554 194.052355 
L 318.001884 194.394002 
L 318.906214 194.359941 
L 319.810544 193.949148 
L 320.714875 193.190168 
L 321.619205 192.136892 
L 323.427865 189.440236 
L 326.140856 185.07155 
L 327.949516 182.675786 
L 328.853847 181.763239 
L 329.758177 181.07896 
L 330.662507 180.643559 
L 331.566837 180.472826 
L 332.471167 180.578706 
L 333.375498 180.970005 
L 334.279828 181.652786 
L 335.184158 182.630464 
L 336.088488 183.903552 
L 336.992818 185.469002 
L 337.897149 187.319063 
L 339.705809 191.807127 
L 341.514469 197.125126 
L 344.22746 205.440384 
L 345.13179 207.835634 
L 346.036121 209.796765 
L 346.940451 211.188683 
L 347.844781 211.922648 
L 348.749111 211.97904 
L 349.653441 211.412651 
L 350.557772 210.337656 
L 351.462102 208.900157 
L 355.983753 200.86755 
L 356.888083 199.702647 
L 357.792413 198.794758 
L 358.696743 198.165135 
L 359.601074 197.828679 
L 360.505404 197.796398 
L 361.409734 198.077266 
L 362.314064 198.679659 
L 363.218395 199.612497 
L 364.122725 200.886206 
L 365.027055 202.513623 
L 365.931385 204.510891 
L 366.835715 206.898473 
L 367.740046 209.702335 
L 368.644376 212.955415 
L 369.548706 216.699499 
L 370.453036 220.987623 
L 371.357366 225.887111 
L 372.261697 231.483219 
L 373.166027 237.882757 
L 374.070357 245.215247 
L 374.974687 253.62317 
L 376.783348 273.889722 
L 377.687678 284.833006 
L 378.592008 293.456014 
L 379.496338 295.488 
L 380.400669 289.683566 
L 383.113659 259.755101 
L 384.017989 251.348308 
L 384.92232 244.059965 
L 385.82665 237.750042 
L 386.73098 232.278681 
L 387.63531 227.52682 
L 388.53964 223.398032 
L 389.443971 219.815464 
L 390.348301 216.7181 
L 391.252631 214.0575 
L 392.156961 211.795193 
L 393.061291 209.9007 
L 393.965622 208.350032 
L 394.869952 207.124577 
L 395.774282 206.210277 
L 396.678612 205.597033 
L 397.582943 205.278287 
L 398.487273 205.250759 
L 398.487273 205.250759 
" clip-path="url(#p5453e90cfc)" style="fill: none; stroke: #ff0000; stroke-width: 1.5; stroke-linecap: square"/>
   </g>
   <g id="patch_3">
    <path d="M 57.6 307.584 
L 57.6 41.472 
" style="fill: none; stroke: #000000; stroke-width: 0.8; stroke-linejoin: miter; stroke-linecap: square"/>
   </g>
   <g id="patch_4">
    <path d="M 414.72 307.584 
L 414.72 41.472 
" style="fill: none; stroke: #000000; stroke-width: 0.8; stroke-linejoin: miter; stroke-linecap: square"/>
   </g>
   <g id="patch_5">
    <path d="M 57.6 307.584 
L 414.72 307.584 
" style="fill: none; stroke: #000000; stroke-width: 0.8; stroke-linejoin: miter; stroke-linecap: square"/>
   </g>
   <g id="patch_6">
    <path d="M 57.6 41.472 
L 414.72 41.472 
" style="fill: none; stroke: #000000; stroke-width: 0.8; stroke-linejoin: miter; stroke-linecap: square"/>
   </g>
   <g id="text_18">
    <!-- Antenna Directivity -->
    <g transform="translate(178.270312 35.472) scale(0.12 -0.12)">
     <defs>
      <path id="DejaVuSans-61" d="M 2194 1759 
Q 1497 1759 1228 1600 
Q 959 1441 959 1056 
Q 959 750 1161 570 
Q 1363 391 1709 391 
Q 2188 391 2477 730 
Q 2766 1069 2766 1631 
L 2766 1759 
L 2194 1759 
z
M 3341 1997 
L 3341 0 
L 2766 0 
L 2766 531 
Q 2569 213 2275 61 
Q 1981 -91 1556 -91 
Q 1019 -91 701 211 
Q 384 513 384 1019 
Q 384 1609 779 1909 
Q 1175 2209 1959 2209 
L 2766 2209 
L 2766 2266 
Q 2766 2663 2505 2880 
Q 2244 3097 1772 3097 
Q 1472 3097 1187 3025 
Q 903 2953 641 2809 
L 641 3341 
Q 956 3463 1253 3523 
Q 1550 3584 1831 3584 
Q 2591 3584 2966 3190 
Q 3341 2797 3341 1997 
z
" transform="scale(0.015625)"/>
     </defs>
     <use xlink:href="#DejaVuSans-41"/>
     <use xlink:href="#DejaVuSans-6e" x="68.408203"/>
     <use xlink:href="#DejaVuSans-74" x="131.787109"/>
     <use xlink:href="#DejaVuSans-65" x="170.996094"/>
     <use xlink:href="#DejaVuSans-6e" x="232.519531"/>
     <use xlink:href="#DejaVuSans-6e" x="295.898438"/>
     <use xlink:href="#DejaVuSans-61" x="359.277344"/>
     <use xlink:href="#DejaVuSans-20" x="420.556641"/>
     <use xlink:href="#DejaVuSans-44" x="452.34375"/>
     <use xlink:href="#DejaVuSans-69" x="529.345703"/>
     <use xlink:href="#DejaVuSans-72" x="557.128906"/>
     <use xlink:href="#DejaVuSans-65" x="595.992188"/>
     <use xlink:href="#DejaVuSans-63" x="657.515625"/>
     <use xlink:href="#DejaVuSans-74" x="712.496094"/>
     <use xlink:href="#DejaVuSans-69" x="751.705078"/>
     <use xlink:href="#DejaVuSans-76" x="779.488281"/>
     <use xlink:href="#DejaVuSans-69" x="838.667969"/>
     <use xlink:href="#DejaVuSans-74" x="866.451172"/>
     <use xlink:href="#DejaVuSans-79" x="905.660156"/>
    </g>
   </g>
   <g id="legend_1">
    <g id="patch_7">
     <path d="M 155.193594 302.584 
L 317.126406 302.584 
Q 319.126406 302.584 319.126406 300.584 
L 319.126406 242.8715 
Q 319.126406 240.8715 317.126406 240.8715 
L 155.193594 240.8715 
Q 153.193594 240.8715 153.193594 242.8715 
L 153.193594 300.584 
Q 153.193594 302.584 155.193594 302.584 
z
" style="fill: #ffffff; opacity: 0.8; stroke: #cccccc; stroke-linejoin: miter"/>
    </g>
    <g id="line2d_20">
     <path d="M 157.193594 248.969937 
L 167.193594 248.969937 
L 177.193594 248.969937 
" style="fill: none; stroke-dasharray: 5.55,2.4; stroke-dashoffset: 0; stroke: #0000ff; stroke-width: 1.5"/>
    </g>
    <g id="text_19">
     <!-- HFSS Elevation Φ=0 -->
     <g transform="translate(185.193594 252.469937) scale(0.1 -0.1)">
      <defs>
       <path id="DejaVuSans-48" d="M 628 4666 
L 1259 4666 
L 1259 2753 
L 3553 2753 
L 3553 4666 
L 4184 4666 
L 4184 0 
L 3553 0 
L 3553 2222 
L 1259 2222 
L 1259 0 
L 628 0 
L 628 4666 
z
" transform="scale(0.015625)"/>
       <path id="DejaVuSans-46" d="M 628 4666 
L 3309 4666 
L 3309 4134 
L 1259 4134 
L 1259 2759 
L 3109 2759 
L 3109 2228 
L 1259 2228 
L 1259 0 
L 628 0 
L 628 4666 
z
" transform="scale(0.015625)"/>
       <path id="DejaVuSans-53" d="M 3425 4513 
L 3425 3897 
Q 3066 4069 2747 4153 
Q 2428 4238 2131 4238 
Q 1616 4238 1336 4038 
Q 1056 3838 1056 3469 
Q 1056 3159 1242 3001 
Q 1428 2844 1947 2747 
L 2328 2669 
Q 3034 2534 3370 2195 
Q 3706 1856 3706 1288 
Q 3706 609 3251 259 
Q 2797 -91 1919 -91 
Q 1588 -91 1214 -16 
Q 841 59 441 206 
L 441 856 
Q 825 641 1194 531 
Q 1563 422 1919 422 
Q 2459 422 2753 634 
Q 3047 847 3047 1241 
Q 3047 1584 2836 1778 
Q 2625 1972 2144 2069 
L 1759 2144 
Q 1053 2284 737 2584 
Q 422 2884 422 3419 
Q 422 4038 858 4394 
Q 1294 4750 2059 4750 
Q 2388 4750 2728 4690 
Q 3069 4631 3425 4513 
z
" transform="scale(0.015625)"/>
       <path id="DejaVuSans-45" d="M 628 4666 
L 3578 4666 
L 3578 4134 
L 1259 4134 
L 1259 2753 
L 3481 2753 
L 3481 2222 
L 1259 2222 
L 1259 531 
L 3634 531 
L 3634 0 
L 628 0 
L 628 4666 
z
" transform="scale(0.015625)"/>
       <path id="DejaVuSans-6f" d="M 1959 3097 
Q 1497 3097 1228 2736 
Q 959 2375 959 1747 
Q 959 1119 1226 758 
Q 1494 397 1959 397 
Q 2419 397 2687 759 
Q 2956 1122 2956 1747 
Q 2956 2369 2687 2733 
Q 2419 3097 1959 3097 
z
M 1959 3584 
Q 2709 3584 3137 3096 
Q 3566 2609 3566 1747 
Q 3566 888 3137 398 
Q 2709 -91 1959 -91 
Q 1206 -91 779 398 
Q 353 888 353 1747 
Q 353 2609 779 3096 
Q 1206 3584 1959 3584 
z
" transform="scale(0.015625)"/>
       <path id="DejaVuSans-3a6" d="M 2206 3644 
Q 1738 3578 1431 3306 
Q 1025 2947 1025 2328 
Q 1025 1713 1431 1353 
Q 1738 1081 2206 1016 
L 2206 3644 
z
M 2838 1016 
Q 3306 1081 3613 1353 
Q 4013 1713 4013 2328 
Q 4013 2947 3613 3306 
Q 3306 3578 2838 3644 
L 2838 1016 
z
M 2206 494 
Q 1444 563 950 981 
Q 359 1481 359 2328 
Q 359 3175 950 3678 
Q 1441 4100 2206 4169 
L 2206 4666 
L 2838 4666 
L 2838 4169 
Q 3600 4097 4091 3678 
Q 4678 3175 4678 2328 
Q 4678 1484 4091 981 
Q 3600 563 2838 491 
L 2838 0 
L 2206 0 
L 2206 494 
z
" transform="scale(0.015625)"/>
       <path id="DejaVuSans-3d" d="M 678 2906 
L 4684 2906 
L 4684 2381 
L 678 2381 
L 678 2906 
z
M 678 1631 
L 4684 1631 
L 4684 1100 
L 678 1100 
L 678 1631 
z
" transform="scale(0.015625)"/>
      </defs>
      <use xlink:href="#DejaVuSans-48"/>
      <use xlink:href="#DejaVuSans-46" x="75.195312"/>
      <use xlink:href="#DejaVuSans-53" x="130.964844"/>
      <use xlink:href="#DejaVuSans-53" x="194.441406"/>
      <use xlink:href="#DejaVuSans-20" x="257.917969"/>
      <use xlink:href="#DejaVuSans-45" x="289.705078"/>
      <use xlink:href="#DejaVuSans-6c" x="352.888672"/>
      <use xlink:href="#DejaVuSans-65" x="380.671875"/>
      <use xlink:href="#DejaVuSans-76" x="442.195312"/>
      <use xlink:href="#DejaVuSans-61" x="501.375"/>
      <use xlink:href="#DejaVuSans-74" x="562.654297"/>
      <use xlink:href="#DejaVuSans-69" x="601.863281"/>
      <use xlink:href="#DejaVuSans-6f" x="629.646484"/>
      <use xlink:href="#DejaVuSans-6e" x="690.828125"/>
      <use xlink:href="#DejaVuSans-20" x="754.207031"/>
      <use xlink:href="#DejaVuSans-3a6" x="785.994141"/>
      <use xlink:href="#DejaVuSans-3d" x="864.705078"/>
      <use xlink:href="#DejaVuSans-30" x="948.494141"/>
     </g>
    </g>
    <g id="line2d_21">
     <path d="M 157.193594 263.648062 
L 167.193594 263.648062 
L 177.193594 263.648062 
" style="fill: none; stroke-dasharray: 5.55,2.4; stroke-dashoffset: 0; stroke: #ff0000; stroke-width: 1.5"/>
    </g>
    <g id="text_20">
     <!-- HFSS Elevation Φ=90 -->
     <g transform="translate(185.193594 267.148062) scale(0.1 -0.1)">
      <defs>
       <path id="DejaVuSans-39" d="M 703 97 
L 703 672 
Q 941 559 1184 500 
Q 1428 441 1663 441 
Q 2288 441 2617 861 
Q 2947 1281 2994 2138 
Q 2813 1869 2534 1725 
Q 2256 1581 1919 1581 
Q 1219 1581 811 2004 
Q 403 2428 403 3163 
Q 403 3881 828 4315 
Q 1253 4750 1959 4750 
Q 2769 4750 3195 4129 
Q 3622 3509 3622 2328 
Q 3622 1225 3098 567 
Q 2575 -91 1691 -91 
Q 1453 -91 1209 -44 
Q 966 3 703 97 
z
M 1959 2075 
Q 2384 2075 2632 2365 
Q 2881 2656 2881 3163 
Q 2881 3666 2632 3958 
Q 2384 4250 1959 4250 
Q 1534 4250 1286 3958 
Q 1038 3666 1038 3163 
Q 1038 2656 1286 2365 
Q 1534 2075 1959 2075 
z
" transform="scale(0.015625)"/>
      </defs>
      <use xlink:href="#DejaVuSans-48"/>
      <use xlink:href="#DejaVuSans-46" x="75.195312"/>
      <use xlink:href="#DejaVuSans-53" x="130.964844"/>
      <use xlink:href="#DejaVuSans-53" x="194.441406"/>
      <use xlink:href="#DejaVuSans-20" x="257.917969"/>
      <use xlink:href="#DejaVuSans-45" x="289.705078"/>
      <use xlink:href="#DejaVuSans-6c" x="352.888672"/>
      <use xlink:href="#DejaVuSans-65" x="380.671875"/>
      <use xlink:href="#DejaVuSans-76" x="442.195312"/>
      <use xlink:href="#DejaVuSans-61" x="501.375"/>
      <use xlink:href="#DejaVuSans-74" x="562.654297"/>
      <use xlink:href="#DejaVuSans-69" x="601.863281"/>
      <use xlink:href="#DejaVuSans-6f" x="629.646484"/>
      <use xlink:href="#DejaVuSans-6e" x="690.828125"/>
      <use xlink:href="#DejaVuSans-20" x="754.207031"/>
      <use xlink:href="#DejaVuSans-3a6" x="785.994141"/>
      <use xlink:href="#DejaVuSans-3d" x="864.705078"/>
      <use xlink:href="#DejaVuSans-39" x="948.494141"/>
      <use xlink:href="#DejaVuSans-30" x="1012.117188"/>
     </g>
    </g>
    <g id="line2d_22">
     <path d="M 157.193594 278.326187 
L 167.193594 278.326187 
L 177.193594 278.326187 
" style="fill: none; stroke: #0000ff; stroke-width: 1.5; stroke-linecap: square"/>
    </g>
    <g id="text_21">
     <!-- WaveFEM Elevation Φ=0 -->
     <g transform="translate(185.193594 281.826187) scale(0.1 -0.1)">
      <defs>
       <path id="DejaVuSans-57" d="M 213 4666 
L 850 4666 
L 1831 722 
L 2809 4666 
L 3519 4666 
L 4500 722 
L 5478 4666 
L 6119 4666 
L 4947 0 
L 4153 0 
L 3169 4050 
L 2175 0 
L 1381 0 
L 213 4666 
z
" transform="scale(0.015625)"/>
       <path id="DejaVuSans-4d" d="M 628 4666 
L 1569 4666 
L 2759 1491 
L 3956 4666 
L 4897 4666 
L 4897 0 
L 4281 0 
L 4281 4097 
L 3078 897 
L 2444 897 
L 1241 4097 
L 1241 0 
L 628 0 
L 628 4666 
z
" transform="scale(0.015625)"/>
      </defs>
      <use xlink:href="#DejaVuSans-57"/>
      <use xlink:href="#DejaVuSans-61" x="92.501953"/>
      <use xlink:href="#DejaVuSans-76" x="153.78125"/>
      <use xlink:href="#DejaVuSans-65" x="212.960938"/>
      <use xlink:href="#DejaVuSans-46" x="274.484375"/>
      <use xlink:href="#DejaVuSans-45" x="332.003906"/>
      <use xlink:href="#DejaVuSans-4d" x="395.1875"/>
      <use xlink:href="#DejaVuSans-20" x="481.466797"/>
      <use xlink:href="#DejaVuSans-45" x="513.253906"/>
      <use xlink:href="#DejaVuSans-6c" x="576.4375"/>
      <use xlink:href="#DejaVuSans-65" x="604.220703"/>
      <use xlink:href="#DejaVuSans-76" x="665.744141"/>
      <use xlink:href="#DejaVuSans-61" x="724.923828"/>
      <use xlink:href="#DejaVuSans-74" x="786.203125"/>
      <use xlink:href="#DejaVuSans-69" x="825.412109"/>
      <use xlink:href="#DejaVuSans-6f" x="853.195312"/>
      <use xlink:href="#DejaVuSans-6e" x="914.376953"/>
      <use xlink:href="#DejaVuSans-20" x="977.755859"/>
      <use xlink:href="#DejaVuSans-3a6" x="1009.542969"/>
      <use xlink:href="#DejaVuSans-3d" x="1088.253906"/>
      <use xlink:href="#DejaVuSans-30" x="1172.042969"/>
     </g>
    </g>
    <g id="line2d_23">
     <path d="M 157.193594 293.004312 
L 167.193594 293.004312 
L 177.193594 293.004312 
" style="fill: none; stroke: #ff0000; stroke-width: 1.5; stroke-linecap: square"/>
    </g>
    <g id="text_22">
     <!-- WaveFEM Elevation Φ=90 -->
     <g transform="translate(185.193594 296.504312) scale(0.1 -0.1)">
      <use xlink:href="#DejaVuSans-57"/>
      <use xlink:href="#DejaVuSans-61" x="92.501953"/>
      <use xlink:href="#DejaVuSans-76" x="153.78125"/>
      <use xlink:href="#DejaVuSans-65" x="212.960938"/>
      <use xlink:href="#DejaVuSans-46" x="274.484375"/>
      <use xlink:href="#DejaVuSans-45" x="332.003906"/>
      <use xlink:href="#DejaVuSans-4d" x="395.1875"/>
      <use xlink:href="#DejaVuSans-20" x="481.466797"/>
      <use xlink:href="#DejaVuSans-45" x="513.253906"/>
      <use xlink:href="#DejaVuSans-6c" x="576.4375"/>
      <use xlink:href="#DejaVuSans-65" x="604.220703"/>
      <use xlink:href="#DejaVuSans-76" x="665.744141"/>
      <use xlink:href="#DejaVuSans-61" x="724.923828"/>
      <use xlink:href="#DejaVuSans-74" x="786.203125"/>
      <use xlink:href="#DejaVuSans-69" x="825.412109"/>
      <use xlink:href="#DejaVuSans-6f" x="853.195312"/>
      <use xlink:href="#DejaVuSans-6e" x="914.376953"/>
      <use xlink:href="#DejaVuSans-20" x="977.755859"/>
      <use xlink:href="#DejaVuSans-3a6" x="1009.542969"/>
      <use xlink:href="#DejaVuSans-3d" x="1088.253906"/>
      <use xlink:href="#DejaVuSans-39" x="1172.042969"/>
      <use xlink:href="#DejaVuSans-30" x="1235.666016"/>
     </g>
    </g>
   </g>
  </g>
 </g>
 <defs>
  <clipPath id="p5453e90cfc">
   <rect x="57.6" y="41.472" width="357.12" height="266.112"/>
  </clipPath>
 </defs>
</svg>
