<?xml version="1.0" encoding="UTF-8" standalone="no"?>
<!-- Created with Inkscape (http://www.inkscape.org/) -->

<svg
   width="300"
   height="300"
   viewBox="0 0 79.374998 79.375"
   version="1.1"
   id="svg1"
   xml:space="preserve"
   sodipodi:docname="semiconductor.svg"
   inkscape:version="1.4.2 (f4327f4, 2025-05-13)"
   xmlns:inkscape="http://www.inkscape.org/namespaces/inkscape"
   xmlns:sodipodi="http://sodipodi.sourceforge.net/DTD/sodipodi-0.dtd"
   xmlns="http://www.w3.org/2000/svg"
   xmlns:svg="http://www.w3.org/2000/svg"><sodipodi:namedview
     id="namedview1"
     pagecolor="#ffffff"
     bordercolor="#666666"
     borderopacity="1.0"
     inkscape:showpageshadow="2"
     inkscape:pageopacity="0.0"
     inkscape:pagecheckerboard="0"
     inkscape:deskcolor="#d1d1d1"
     inkscape:document-units="px"
     showguides="false"
     inkscape:zoom="1.9021172"
     inkscape:cx="158.24471"
     inkscape:cy="121.18075"
     inkscape:window-width="1920"
     inkscape:window-height="1009"
     inkscape:window-x="-8"
     inkscape:window-y="-8"
     inkscape:window-maximized="1"
     inkscape:current-layer="layer2" /><defs
     id="defs1"><inkscape:path-effect
       effect="perspective-envelope"
       up_left_point="27.975404,35.001784"
       up_right_point="93.178567,56.238588"
       down_left_point="15.276615,45.078981"
       down_right_point="81.997242,65.138083"
       id="path-effect7"
       is_visible="true"
       lpeversion="1"
       deform_type="perspective"
       horizontal_mirror="false"
       vertical_mirror="false"
       overflow_perspective="false" /><inkscape:path-effect
       effect="perspective-envelope"
       up_left_point="27.689444,33.944073"
       up_right_point="46.548392,40.240016"
       down_left_point="15.259323,43.964494"
       down_right_point="34.393574,49.706087"
       id="path-effect6"
       is_visible="true"
       lpeversion="1"
       deform_type="perspective"
       horizontal_mirror="false"
       vertical_mirror="false"
       overflow_perspective="false" /><inkscape:path-effect
       effect="envelope"
       id="path-effect4"
       is_visible="true"
       lpeversion="1"
       yy="true"
       xx="true"
       bendpath1="M 16.165693,60.087561 H 26.888526"
       bendpath2="m 26.888526,60.087561 v 7.973648"
       bendpath3="M 16.165693,68.061209 H 26.888526"
       bendpath4="m 16.165693,60.087561 v 7.973648" /><inkscape:path-effect
       effect="perspective-envelope"
       up_left_point="16.165693,60.087561"
       up_right_point="26.888526,60.087561"
       down_left_point="16.165693,68.061209"
       down_right_point="26.888526,68.061209"
       id="path-effect3"
       is_visible="true"
       lpeversion="1"
       deform_type="envelope_deformation"
       horizontal_mirror="false"
       vertical_mirror="false"
       overflow_perspective="false" /><inkscape:path-effect
       effect="bounding_box"
       linkedpath=""
       id="path-effect2"
       is_visible="true"
       lpeversion="1.3"
       visualbounds="false" /><inkscape:path-effect
       effect="envelope"
       id="path-effect1"
       is_visible="true"
       lpeversion="1"
       yy="true"
       xx="true"
       bendpath1="M 16.165693,60.087561 H 26.888526"
       bendpath2="m 26.888526,60.087561 v 7.973648"
       bendpath3="M 16.165693,68.061209 H 26.888526"
       bendpath4="m 16.165693,60.087561 v 7.973648" /><inkscape:path-effect
       effect="bounding_box"
       linkedpath=""
       id="path-effect5"
       is_visible="true"
       lpeversion="1.3"
       visualbounds="false" /></defs><g
     inkscape:groupmode="layer"
     id="layer2"
     inkscape:label="Layer 2" /><g
     inkscape:groupmode="layer"
     id="layer3"
     inkscape:label="IC2"
     style="opacity:1"><g
       id="g35"
       inkscape:label="Box"
       transform="matrix(2.1426391,0,0,2.1426391,-70.537462,-95.06928)"
       style="opacity:1"><path
         style="display:inline;opacity:1;fill:#181818;fill-opacity:1;stroke:#000000;stroke-width:0.264583px;stroke-linecap:butt;stroke-linejoin:miter;stroke-opacity:1"
         d="m 35.187029,72.659095 v -5.563976 l 19.334815,5.772624 v 5.842174 z"
         id="path19-6" /><path
         style="display:inline;opacity:1;fill:#181818;fill-opacity:1;stroke:#000000;stroke-width:0.264583px;stroke-linecap:butt;stroke-linejoin:miter;stroke-opacity:1"
         d="m 54.521844,72.867743 12.588494,-9.667407 v 5.563976 l -12.588494,9.945605 z"
         id="path20-3" /><path
         style="display:inline;opacity:1;fill:#181818;fill-opacity:1;stroke:#000000;stroke-width:0.264583px;stroke-linecap:butt;stroke-linejoin:miter;stroke-opacity:1"
         d="M 67.110338,63.200336 47.705974,57.079963 35.187029,67.095119 54.521844,72.867743 Z"
         id="path21-6" /></g><g
       id="g37"
       style="fill:#ffd000;fill-opacity:1"
       inkscape:label="leads"
       transform="matrix(2.1426391,0,0,2.1426391,-27.706291,-68.474132)"><path
         style="fill:#ffd000;fill-opacity:1;stroke:none;stroke-width:0.264583px;stroke-linecap:butt;stroke-linejoin:miter;stroke-opacity:1"
         d="m 37.17428,58.426203 v 1.462227 l 0.966917,-0.712885 v -1.491893 l -2.295138,-0.751086 -0.938922,0.712887 z"
         id="path35"
         sodipodi:nodetypes="ccccccc" /><path
         style="fill:#ffd000;fill-opacity:1;stroke:none;stroke-width:0.264583px;stroke-linecap:butt;stroke-linejoin:miter;stroke-opacity:1"
         d="m 38.812156,57.168386 v 1.462227 l 0.966916,-0.712885 v -1.491893 l -2.295137,-0.751086 -0.938923,0.712887 z"
         id="path35-0"
         sodipodi:nodetypes="ccccccc" /><path
         style="fill:#ffd000;fill-opacity:1;stroke:none;stroke-width:0.264583px;stroke-linecap:butt;stroke-linejoin:miter;stroke-opacity:1"
         d="m 40.30786,56.019752 v 1.462227 l 0.966916,-0.712885 v -1.491893 l -2.295137,-0.751086 -0.938923,0.712887 z"
         id="path35-0-2"
         sodipodi:nodetypes="ccccccc" /><path
         style="fill:#ffd000;fill-opacity:1;stroke:none;stroke-width:0.264583px;stroke-linecap:butt;stroke-linejoin:miter;stroke-opacity:1"
         d="m 41.898125,54.798499 v 1.462227 l 0.966916,-0.712885 v -1.491893 l -2.295137,-0.751086 -0.938923,0.712887 z"
         id="path35-0-2-5"
         sodipodi:nodetypes="ccccccc" /><path
         style="fill:#ffd000;fill-opacity:1;stroke:none;stroke-width:0.264583px;stroke-linecap:butt;stroke-linejoin:miter;stroke-opacity:1"
         d="m 43.455963,53.602148 v 1.462227 l 0.966916,-0.712885 v -1.491893 l -2.295137,-0.751086 -0.938923,0.712887 z"
         id="path35-0-2-5-2"
         sodipodi:nodetypes="ccccccc" /><path
         style="opacity:1;fill:#ffd000;fill-opacity:1;stroke:none;stroke-width:0.264583;stroke-linecap:butt;stroke-linejoin:miter;stroke-dasharray:none;stroke-opacity:1"
         d="m 42.681579,49.387939 -1.262853,1.119976 -1.364913,-0.452073 1.277897,-1.093669 z"
         id="path37"
         sodipodi:nodetypes="ccccc" /><path
         style="fill:#ffd000;fill-opacity:1;stroke:none;stroke-width:0.264583;stroke-linecap:butt;stroke-linejoin:miter;stroke-dasharray:none;stroke-opacity:1"
         d="m 40.231491,48.615151 -1.262853,1.119976 -1.364913,-0.452073 1.277897,-1.093669 z"
         id="path37-6"
         sodipodi:nodetypes="ccccc" /><path
         style="opacity:1;fill:#ffd000;fill-opacity:1;stroke:none;stroke-width:0.264583;stroke-linecap:butt;stroke-linejoin:miter;stroke-dasharray:none;stroke-opacity:1"
         d="M 37.570969,47.775989 36.308116,48.895966 34.943203,48.443893 36.2211,47.350224 Z"
         id="path37-6-7"
         sodipodi:nodetypes="ccccc" /><path
         style="opacity:1;fill:#ffd000;fill-opacity:1;stroke:none;stroke-width:0.264583;stroke-linecap:butt;stroke-linejoin:miter;stroke-dasharray:none;stroke-opacity:1"
         d="m 35.060818,46.984257 -1.262853,1.119977 -1.364913,-0.452073 1.277897,-1.093669 z"
         id="path37-6-7-5"
         sodipodi:nodetypes="ccccc" /><path
         style="opacity:1;fill:#ffd000;fill-opacity:1;stroke:none;stroke-width:0.264583;stroke-linecap:butt;stroke-linejoin:miter;stroke-dasharray:none;stroke-opacity:1"
         d="m 32.582559,46.202584 -1.262853,1.119977 -1.364913,-0.452073 1.277897,-1.093669 z"
         id="path37-6-7-5-8"
         sodipodi:nodetypes="ccccc"
         inkscape:label="path37-6-7-5-8" /><path
         style="fill:#ffd000;fill-opacity:1;stroke:none;stroke-width:0.264583px;stroke-linecap:butt;stroke-linejoin:miter;stroke-opacity:1"
         d="m 25.481843,46.455005 c -0.10178,0.08142 1.459744,0.474702 1.459744,0.474702 l -1.00636,0.822301 -1.505111,-0.455621 z"
         id="path38"
         sodipodi:nodetypes="ccccc" /><path
         style="opacity:1;fill:#ffd000;fill-opacity:1;stroke:none;stroke-width:0.264583px;stroke-linecap:butt;stroke-linejoin:miter;stroke-opacity:1"
         d="m 23.890641,47.727966 c -0.10178,0.08142 1.459744,0.474702 1.459744,0.474702 l -1.00636,0.822301 -1.505111,-0.455621 z"
         id="path38-3"
         sodipodi:nodetypes="ccccc" /><path
         style="opacity:1;fill:#ffd000;fill-opacity:1;stroke:none;stroke-width:0.264583px;stroke-linecap:butt;stroke-linejoin:miter;stroke-opacity:1"
         d="m 22.22611,49.05959 c -0.10178,0.08142 1.459744,0.474702 1.459744,0.474702 l -1.00636,0.822301 -1.505111,-0.455621 z"
         id="path38-3-5"
         sodipodi:nodetypes="ccccc" /><path
         style="opacity:1;fill:#ffd000;fill-opacity:1;stroke:none;stroke-width:0.264583px;stroke-linecap:butt;stroke-linejoin:miter;stroke-opacity:1"
         d="m 20.641885,50.326971 c -0.10178,0.08142 1.459744,0.474702 1.459744,0.474702 l -1.00636,0.822301 -1.505111,-0.455621 z"
         id="path38-3-5-0"
         sodipodi:nodetypes="ccccc" /><path
         style="fill:#ffd000;fill-opacity:1;stroke:none;stroke-width:0.264583px;stroke-linecap:butt;stroke-linejoin:miter;stroke-opacity:1"
         d="m 28.496208,46.993457 c -0.10178,0.08142 13.309803,4.313617 13.309803,4.313617 l -8.286496,6.829383 -12.963831,-4.488303 z"
         id="path38-3-5-0-4"
         sodipodi:nodetypes="ccccc" /><path
         style="opacity:1;fill:#ffd000;fill-opacity:1;stroke:none;stroke-width:0.264583px;stroke-linecap:butt;stroke-linejoin:miter;stroke-opacity:1"
         d="m 19.037148,51.61076 c -0.10178,0.08142 1.459744,0.474702 1.459744,0.474702 l -1.00636,0.822301 -1.505111,-0.455621 z"
         id="path38-3-5-0-6"
         sodipodi:nodetypes="ccccc" /><path
         style="fill:#ffd000;fill-opacity:1;stroke:none;stroke-width:0.264583px;stroke-linecap:butt;stroke-linejoin:miter;stroke-opacity:1"
         d="m 19.11456,55.852384 v 1.097571 l 0.958121,0.315082 0.03203,-1.117031 1.031582,-1.049811 -0.869371,-0.286893 z"
         id="path39"
         sodipodi:nodetypes="ccccccc" /><path
         style="opacity:1;fill:#ffd000;fill-opacity:1;stroke:none;stroke-width:0.264583px;stroke-linecap:butt;stroke-linejoin:miter;stroke-opacity:1"
         d="m 21.696066,56.62312 v 1.097571 l 0.958121,0.315082 0.03203,-1.117031 1.031582,-1.049811 -0.869371,-0.286893 z"
         id="path39-4"
         sodipodi:nodetypes="ccccccc" /><path
         style="opacity:1;fill:#ffd000;fill-opacity:1;stroke:none;stroke-width:0.264583px;stroke-linecap:butt;stroke-linejoin:miter;stroke-opacity:1"
         d="m 24.312363,57.404244 v 1.097571 l 0.958121,0.315082 0.03203,-1.117031 1.031582,-1.049811 -0.869371,-0.286893 z"
         id="path39-4-8"
         sodipodi:nodetypes="ccccccc" /><path
         style="opacity:1;fill:#ffd000;fill-opacity:1;stroke:none;stroke-width:0.264583px;stroke-linecap:butt;stroke-linejoin:miter;stroke-opacity:1"
         d="m 26.761574,58.135484 v 1.097571 l 0.958121,0.315082 0.03203,-1.117031 1.031582,-1.049811 -0.869371,-0.286893 z"
         id="path39-4-8-7"
         sodipodi:nodetypes="ccccccc" /><path
         style="opacity:1;fill:#ffd000;fill-opacity:1;stroke:none;stroke-width:0.264583px;stroke-linecap:butt;stroke-linejoin:miter;stroke-opacity:1"
         d="m 29.297376,58.892575 v 1.097571 l 0.958121,0.315082 0.03203,-1.117031 1.031582,-1.049811 -0.869371,-0.286893 z"
         id="path39-4-8-7-7"
         sodipodi:nodetypes="ccccccc" /></g><path
       style="opacity:1;fill:none;fill-opacity:1;stroke:#000000;stroke-width:0.566906px;stroke-linecap:butt;stroke-linejoin:miter;stroke-opacity:1"
       d="M 46.283171,61.059996 73.255771,40.346232 31.679226,27.232481 4.8556438,48.691346 Z"
       id="path36" /></g><g
     inkscape:label="IC1"
     inkscape:groupmode="layer"
     id="layer1"
     style="opacity:1"><g
       id="g34"
       inkscape:label="Box"
       transform="matrix(2.1426391,0,0,2.1426391,-27.706291,-68.474132)"><path
         style="display:inline;fill:#181818;fill-opacity:1;stroke:#000000;stroke-width:0.264583px;stroke-linecap:butt;stroke-linejoin:miter;stroke-opacity:1"
         d="m 15.440031,50.701725 v -5.563976 l 19.334815,5.772624 v 5.842174 z"
         id="path19" /><path
         style="display:inline;fill:#181818;fill-opacity:1;stroke:#000000;stroke-width:0.264583px;stroke-linecap:butt;stroke-linejoin:miter;stroke-opacity:1"
         d="M 34.774846,50.910373 47.36334,41.242966 v 5.563976 l -12.588494,9.945605 z"
         id="path20" /><path
         style="display:inline;opacity:1;fill:#181818;fill-opacity:1;stroke:#000000;stroke-width:0.264583px;stroke-linecap:butt;stroke-linejoin:miter;stroke-opacity:1"
         d="M 47.36334,41.242966 27.958976,35.122593 15.440031,45.137749 34.774846,50.910373 Z"
         id="path21" /></g><g
       id="g33"
       inkscape:label="Leads"
       transform="matrix(2.1426391,0,0,2.1426391,-27.706291,-68.474132)"><path
         style="opacity:1;fill:#ffd000;fill-opacity:1;stroke:#000000;stroke-width:0.132292;stroke-linecap:butt;stroke-linejoin:miter;stroke-dasharray:none;stroke-opacity:1"
         d="m 29.384548,55.065654 v -0.833448 l 1.340069,0.442611 v 0.810212 z"
         id="path32" /><path
         style="opacity:1;fill:#ffd000;fill-opacity:1;stroke:#000000;stroke-width:0.132292;stroke-linecap:butt;stroke-linejoin:miter;stroke-dasharray:none;stroke-opacity:1"
         d="M 26.9688,54.309648 V 53.4762 l 1.340069,0.442611 v 0.810212 z"
         id="path32-2" /><path
         style="opacity:1;fill:#ffd000;fill-opacity:1;stroke:#000000;stroke-width:0.132292;stroke-linecap:butt;stroke-linejoin:miter;stroke-dasharray:none;stroke-opacity:1"
         d="m 24.437404,53.517448 v -0.833447 l 1.340069,0.442611 v 0.810212 z"
         id="path32-2-0" /><path
         style="opacity:1;fill:#ffd000;fill-opacity:1;stroke:#000000;stroke-width:0.132292;stroke-linecap:butt;stroke-linejoin:miter;stroke-dasharray:none;stroke-opacity:1"
         d="m 21.88326,52.718131 v -0.833447 l 1.340069,0.442611 v 0.810212 z"
         id="path32-2-0-1" /><path
         style="opacity:1;fill:#ffd000;fill-opacity:1;stroke:#000000;stroke-width:0.132292;stroke-linecap:butt;stroke-linejoin:miter;stroke-dasharray:none;stroke-opacity:1"
         d="m 19.294256,51.907903 v -0.833447 l 1.340069,0.442611 v 0.810212 z"
         id="path32-2-0-1-4" /><path
         style="opacity:1;fill:#ffd000;fill-opacity:1;stroke:#000000;stroke-width:0.132292;stroke-linecap:butt;stroke-linejoin:miter;stroke-dasharray:none;stroke-opacity:1"
         d="m 37.902747,54.281331 c 0.01159,-0.0092 0,-0.823695 0,-0.823695 l 0.85035,-0.676212 v 0.828085 z"
         id="path33" /><path
         style="opacity:1;fill:#ffd000;fill-opacity:1;stroke:#000000;stroke-width:0.132292;stroke-linecap:butt;stroke-linejoin:miter;stroke-dasharray:none;stroke-opacity:1"
         d="m 39.567512,52.966077 c 0.01159,-0.0092 0,-0.823695 0,-0.823695 l 0.85035,-0.676212 v 0.828085 z"
         id="path33-6" /><path
         style="opacity:1;fill:#ffd000;fill-opacity:1;stroke:#000000;stroke-width:0.132292;stroke-linecap:butt;stroke-linejoin:miter;stroke-dasharray:none;stroke-opacity:1"
         d="m 41.069093,51.779745 c 0.01159,-0.0092 0,-0.823695 0,-0.823695 l 0.85035,-0.676212 v 0.828085 z"
         id="path33-6-6" /><path
         style="opacity:1;fill:#ffd000;fill-opacity:1;stroke:#000000;stroke-width:0.132292;stroke-linecap:butt;stroke-linejoin:miter;stroke-dasharray:none;stroke-opacity:1"
         d="m 42.563862,50.598794 c 0.01159,-0.0092 0,-0.823695 0,-0.823695 l 0.85035,-0.676212 v 0.828085 z"
         id="path33-6-6-2" /><path
         style="opacity:1;fill:#ffd000;fill-opacity:1;stroke:#000000;stroke-width:0.132292;stroke-linecap:butt;stroke-linejoin:miter;stroke-dasharray:none;stroke-opacity:1"
         d="m 44.074172,49.405567 c 0.01159,-0.0092 0,-0.823695 0,-0.823695 l 0.85035,-0.676212 v 0.828085 z"
         id="path33-6-6-2-9" /></g><path
       d="m 25.658146,47.901983 -2.077918,-0.625825 0.72422,-5.031973 -2.286726,-0.710221 -4.815158,3.821378 -1.648536,-0.496504 12.144186,-9.637088 3.385328,1.100714 c 0.725231,0.235804 1.279641,0.470326 1.664155,0.703725 0.389224,0.22872 0.654569,0.501205 0.796395,0.817425 0.157309,0.356824 0.146305,0.739697 -0.03272,1.148775 -0.168196,0.406185 -0.571019,0.862206 -1.208599,1.368343 -0.862649,0.684806 -1.802377,1.19083 -2.820373,1.518439 -1.014264,0.323874 -2.052045,0.483944 -3.114329,0.47981 z m 4.8736,-7.979834 c 0.343959,-0.273028 0.586058,-0.533724 0.726348,-0.782174 0.15108,-0.25111 0.178909,-0.493954 0.08337,-0.728632 -0.07431,-0.198018 -0.240076,-0.371542 -0.497457,-0.520578 -0.252285,-0.153486 -0.593741,-0.299667 -1.024656,-0.438574 l -1.890472,-0.609403 -4.569362,3.626311 1.637127,0.512805 c 0.510995,0.160061 0.999155,0.26519 1.464705,0.315556 0.470304,0.04602 0.958674,0.01435 1.465226,-0.09489 0.468393,-0.103101 0.904113,-0.252071 1.307344,-0.446917 0.413804,-0.197331 0.846369,-0.475146 1.297824,-0.833503 z m 14.524726,2.494546 -5.819452,-1.875357 -3.343543,2.654856 5.039162,1.589494 -1.388174,1.102496 -5.052308,-1.579306 -5.710099,4.53396 -1.581593,-0.476342 11.890313,-9.440536 7.351314,2.390227 z m -1.18137,10.971845 -7.705752,-2.320807 1.642066,-1.304273 3.028332,-0.627059 c 1.010482,-0.206608 1.978208,-0.422512 2.903505,-0.647731 1.937744,-0.466553 3.365157,-0.868014 4.286619,-1.205317 0.925383,-0.340959 1.716533,-0.772598 2.37438,-1.295249 0.600843,-0.477364 0.87815,-0.911234 0.831888,-1.30204 -0.03616,-0.393878 -0.395877,-0.701303 -1.080438,-0.922288 -0.455683,-0.147101 -1.033164,-0.240388 -1.732911,-0.279732 -0.701155,-0.03942 -1.479923,-0.0043 -2.336487,0.105617 l -0.07607,-0.0244 1.64802,-1.309018 c 0.54172,-0.02906 1.185429,-0.0072 1.930427,0.06551 0.748348,0.07415 1.399538,0.201585 1.953964,0.382135 1.140169,0.371299 1.742992,0.889618 1.812014,1.554957 0.07402,0.659641 -0.377056,1.376628 -1.353155,2.152181 -0.439007,0.348811 -0.904182,0.657754 -1.395675,0.926911 -0.481568,0.266738 -0.997512,0.502757 -1.548014,0.708098 -0.515275,0.193759 -1.060755,0.372605 -1.636586,0.536554 -0.571398,0.165676 -1.234837,0.340333 -1.990703,0.524043 -1.084673,0.266069 -2.173698,0.514832 -3.267193,0.74626 -1.090667,0.227792 -2.108847,0.438757 -3.054099,0.632797 l 6.090107,1.850658 z m 12.87187,0.418983 c -0.977996,0.777414 -2.156429,1.312966 -3.538165,1.607238 -1.380751,0.296572 -2.630348,0.277479 -3.74941,-0.05896 -1.192941,-0.35865 -1.827737,-0.900478 -1.900522,-1.625708 -0.06801,-0.72563 0.399426,-1.487667 1.402387,-2.284648 0.637746,-0.506772 1.391799,-0.909252 2.261282,-1.207151 0.873426,-0.301569 1.782751,-0.471753 2.727136,-0.510789 l 0.04611,-0.03664 c -0.259605,-0.445337 -0.336869,-0.868162 -0.231281,-1.268054 0.110606,-0.398755 0.458858,-0.831042 1.044653,-1.296539 0.863236,-0.685961 1.919476,-1.148864 3.166325,-1.388272 1.243616,-0.238788 2.378647,-0.190398 3.404477,0.143716 1.069679,0.348397 1.648416,0.841615 1.739336,1.479571 0.0907,0.636423 -0.282127,1.286405 -1.118354,1.951118 -0.511895,0.406903 -1.166773,0.759997 -1.965331,1.059538 -0.794431,0.295862 -1.625095,0.462658 -2.492752,0.500188 l -0.04579,0.03639 c 0.370137,0.454019 0.509561,0.913771 0.419072,1.379661 -0.09037,0.46527 -0.480059,0.971557 -1.169179,1.519343 z m 3.825631,-4.934481 c 0.543784,-0.432224 0.777051,-0.83946 0.699729,-1.222151 -0.06755,-0.385766 -0.408763,-0.678243 -1.024653,-0.877353 -0.607689,-0.196459 -1.261329,-0.236261 -1.960653,-0.118931 -0.695528,0.119073 -1.304987,0.386332 -1.827606,0.801654 -0.368918,0.293176 -0.591617,0.578716 -0.668049,0.856463 -0.06638,0.275024 -0.0047,0.559092 0.18481,0.852029 0.08797,0.130005 0.225544,0.306801 0.412594,0.530242 0.19166,0.224688 0.398877,0.425777 0.621634,0.603322 0.8147,-0.116446 1.493687,-0.289218 2.037792,-0.518354 0.543712,-0.228969 1.051751,-0.531237 1.524402,-0.906921 z m -5.462661,4.590369 c 0.467523,-0.371612 0.741859,-0.699152 0.823065,-0.982785 0.09119,-0.286382 -0.0064,-0.631706 -0.293337,-1.036471 -0.116009,-0.160227 -0.261632,-0.321335 -0.436931,-0.483345 -0.175473,-0.16218 -0.402953,-0.383158 -0.682661,-0.663166 -0.690284,0.06167 -1.385608,0.221426 -2.08565,0.479391 -0.695856,0.25976 -1.31585,0.605733 -1.85946,1.03773 -0.692362,0.550207 -1.034527,1.074787 -1.026482,1.573088 0.008,0.497457 0.36409,0.852539 1.066792,1.065453 0.715533,0.216801 1.476095,0.237581 2.282145,0.06299 0.809601,-0.172826 1.546782,-0.523723 2.212519,-1.052885 z m 11.066473,3.213154 -1.544266,-0.475356 -3.136645,2.49422 -1.357453,-0.408836 3.144956,-2.500676 -5.072224,-1.561329 1.743226,-1.38579 11.412832,-3.418508 1.272466,0.413733 -6.80956,5.414873 1.540634,0.478176 z m -1.692638,-1.845426 5.042209,-4.009255 -9.129669,2.740604 z m 16.615983,-0.414074 -13.89224,5.998701 -1.480394,-0.445863 14.585641,-6.199842 -5.725289,-1.845107 1.300816,-1.034546 6.84633,2.226035 z m 1.931933,9.897672 c -0.796952,0.0536 -1.61204,0.06547 -2.445569,0.03547 -0.826457,-0.03258 -1.536473,-0.137923 -2.129531,-0.316269 -0.766452,-0.230488 -1.354962,-0.534789 -1.764557,-0.91309 -0.410631,-0.379259 -0.610091,-0.82327 -0.597583,-1.331986 0.01294,-0.514843 0.2475,-1.091517 0.703991,-1.729784 0.461791,-0.642743 1.167997,-1.342374 2.118246,-2.098404 1.739535,-1.383997 3.56936,-2.328552 5.484262,-2.832372 1.916991,-0.504396 3.661494,-0.499102 5.231359,0.01203 0.545384,0.177569 1.025714,0.41756 1.44118,0.719746 0.423578,0.299063 0.78569,0.69325 1.086472,1.182112 l -1.687224,1.342904 -0.115098,-0.03678 c -0.01727,-0.13373 -0.05836,-0.315249 -0.123299,-0.544679 -0.065,-0.229662 -0.15699,-0.43336 -0.275993,-0.61105 -0.146488,-0.213521 -0.36031,-0.419382 -0.641657,-0.617618 -0.272663,-0.200983 -0.647985,-0.378687 -1.126353,-0.533111 -1.080806,-0.348898 -2.32998,-0.316126 -3.746744,0.100275 -1.411226,0.415024 -2.783889,1.152592 -4.115322,2.211963 -1.404447,1.117464 -2.161006,2.091203 -2.269368,2.919512 -0.103235,0.822288 0.423412,1.408054 1.575772,1.757703 0.420921,0.127716 0.884706,0.218142 1.391252,0.271372 0.510063,0.05447 0.993496,0.07194 1.450509,0.05251 l 2.628418,-2.091904 -2.598902,-0.806471 1.259493,-1.002288 3.855791,1.207271 z"
       id="text6"
       style="font-size:10.5833px;line-height:1.25;display:inline;opacity:1;fill:#ffffff;fill-opacity:1;stroke:none;stroke-width:0.264583;stroke-opacity:1"
       aria-label="RF2847G"
       inkscape:original-d="m 18.368692,70.036537 h -1.32808 l -2.573478,-3.059235 h -1.441768 v 3.059235 h -1.02319 v -7.694596 h 2.154901 q 0.697629,0 1.162716,0.09302 0.465086,0.08785 0.837155,0.320393 0.418578,0.263549 0.651121,0.666624 0.237711,0.397907 0.237711,1.012855 0,0.831988 -0.418578,1.395259 -0.418578,0.558104 -1.152381,0.842323 z m -2.392611,-5.52936 q 0,-0.330729 -0.118855,-0.583942 -0.113688,-0.258382 -0.382405,-0.434081 -0.222208,-0.149861 -0.527098,-0.206705 -0.30489,-0.06201 -0.7183,-0.06201 h -1.204057 v 2.904207 h 1.033526 q 0.485757,0 0.84749,-0.08268 0.361734,-0.08785 0.614948,-0.320393 0.232543,-0.217041 0.341063,-0.496092 0.113688,-0.28422 0.113688,-0.7183 z m 8.299209,-1.255734 h -3.891223 v 2.170403 h 3.343455 v 0.909503 h -3.343455 v 3.705188 h -1.02319 v -7.694596 h 4.914413 z m 6.175315,6.785094 h -5.208968 v -1.080034 q 0.542601,-0.465086 1.085201,-0.930173 0.547769,-0.465086 1.018023,-0.925005 0.992184,-0.961178 1.359086,-1.52445 0.366901,-0.568439 0.366901,-1.224727 0,-0.599445 -0.397907,-0.935341 -0.39274,-0.341063 -1.100705,-0.341063 -0.470254,0 -1.018022,0.165364 -0.547768,0.165364 -1.069699,0.506427 h -0.05168 v -1.085201 q 0.366901,-0.180867 0.976681,-0.330728 0.614948,-0.149862 1.188555,-0.149862 1.183386,0 1.855178,0.573607 0.671791,0.568439 0.671791,1.54512 0,0.439249 -0.113688,0.821653 -0.10852,0.377237 -0.32556,0.7183 -0.201538,0.320393 -0.475422,0.630451 -0.268716,0.310057 -0.656288,0.687294 -0.552936,0.542601 -1.142046,1.054196 -0.589109,0.506427 -1.100704,0.940508 h 4.139269 z m 6.785092,-2.144565 q 0,0.997352 -0.780312,1.658808 -0.775144,0.661456 -1.953362,0.661456 -1.250566,0 -1.994704,-0.645953 -0.738971,-0.645953 -0.738971,-1.65364 0,-0.640786 0.372069,-1.157549 0.372069,-0.52193 1.049028,-0.82682 v -0.03101 Q 32.56933,65.56654 32.269608,65.1738 q -0.294555,-0.392739 -0.294555,-0.981849 0,-0.868161 0.713133,-1.446935 0.713132,-0.578774 1.813837,-0.578774 1.15238,0 1.839675,0.552936 0.687294,0.552936 0.687294,1.405594 0,0.52193 -0.32556,1.028358 -0.325561,0.50126 -0.956011,0.785479 v 0.03101 q 0.723467,0.310058 1.105872,0.764809 0.382404,0.454751 0.382404,1.157548 z M 36.01097,64.135107 q 0,-0.552936 -0.428913,-0.878496 -0.423746,-0.330728 -1.085202,-0.330728 -0.651121,0 -1.069699,0.310057 -0.41341,0.310058 -0.41341,0.837156 0,0.372069 0.206705,0.645953 0.211873,0.268717 0.635618,0.48059 0.191202,0.09302 0.547769,0.242878 0.361733,0.149861 0.702797,0.248046 0.511595,-0.341063 0.707965,-0.707965 0.19637,-0.366901 0.19637,-0.847491 z m 0.160196,3.85505 q 0,-0.475422 -0.211873,-0.759641 -0.206705,-0.289387 -0.816485,-0.578774 -0.242878,-0.113688 -0.532265,-0.211873 -0.289387,-0.09819 -0.769977,-0.273884 -0.465086,0.253213 -0.749306,0.687294 -0.279051,0.434081 -0.279051,0.981849 0,0.69763 0.480589,1.152381 0.480589,0.454751 1.21956,0.454751 0.754473,0 1.204057,-0.387572 0.454751,-0.387572 0.454751,-1.064531 z m 7.911637,-0.118855 h -1.142046 v 2.165235 h -0.992184 v -2.165235 h -3.684518 v -1.188555 l 3.725859,-4.340806 h 0.950843 v 4.70254 h 1.142046 z m -2.13423,-0.826821 v -3.472645 l -2.981721,3.472645 z m 8.707452,-3.550159 -3.482981,6.542215 h -1.105872 l 3.705189,-6.790261 h -4.382148 v -0.904335 h 5.265812 z m 8.11834,5.973776 q -0.630451,0.289387 -1.379756,0.506428 -0.744139,0.211872 -1.441768,0.211872 -0.899167,0 -1.648473,-0.248046 -0.749306,-0.248046 -1.276404,-0.744138 -0.532266,-0.50126 -0.821653,-1.250566 -0.289387,-0.754473 -0.289387,-1.76216 0,-1.844843 1.074867,-2.909374 1.080034,-1.069699 2.96105,-1.069699 0.656288,0 1.338415,0.160196 0.687294,0.155029 1.477941,0.532266 v 1.214392 h -0.09302 q -0.160196,-0.124023 -0.465086,-0.32556 -0.30489,-0.201538 -0.599445,-0.335896 -0.356566,-0.160196 -0.811318,-0.263549 -0.449583,-0.10852 -1.02319,-0.10852 -1.291906,0 -2.04638,0.831988 -0.749306,0.82682 -0.749306,2.24275 0,1.493444 0.78548,2.325432 0.785479,0.82682 2.139397,0.82682 0.496092,0 0.987017,-0.09819 0.496092,-0.09819 0.868161,-0.253213 V 67.065147 H 55.699624 V 66.16598 h 3.074738 z"
       inkscape:path-effect="#path-effect7"
       transform="matrix(0.45401937,0,0,0.45401937,15.487289,0.57049963)"
       inkscape:label="IC Label" /></g></svg>
