<?xml version="1.0" encoding="utf-8" standalone="no"?>
<!DOCTYPE svg PUBLIC "-//W3C//DTD SVG 1.1//EN"
  "http://www.w3.org/Graphics/SVG/1.1/DTD/svg11.dtd">
<svg xmlns:xlink="http://www.w3.org/1999/xlink" width="460.8pt" height="345.6pt" viewBox="0 0 460.8 345.6" xmlns="http://www.w3.org/2000/svg" version="1.1">
 <metadata>
  <rdf:RDF xmlns:dc="http://purl.org/dc/elements/1.1/" xmlns:cc="http://creativecommons.org/ns#" xmlns:rdf="http://www.w3.org/1999/02/22-rdf-syntax-ns#">
   <cc:Work>
    <dc:type rdf:resource="http://purl.org/dc/dcmitype/StillImage"/>
    <dc:date>2025-07-19T17:00:55.821620</dc:date>
    <dc:format>image/svg+xml</dc:format>
    <dc:creator>
     <cc:Agent>
      <dc:title>Matplotlib v3.9.4, https://matplotlib.org/</dc:title>
     </cc:Agent>
    </dc:creator>
   </cc:Work>
  </rdf:RDF>
 </metadata>
 <defs>
  <style type="text/css">*{stroke-linejoin: round; stroke-linecap: butt}</style>
 </defs>
 <g id="figure_1">
  <g id="patch_1">
   <path d="M 0 345.6 
L 460.8 345.6 
L 460.8 0 
L 0 0 
z
" style="fill: #ffffff"/>
  </g>
  <g id="axes_1">
   <g id="patch_2">
    <path d="M 57.6 307.584 
L 414.72 307.584 
L 414.72 41.472 
L 57.6 41.472 
z
" style="fill: #ffffff"/>
   </g>
   <g id="matplotlib.axis_1">
    <g id="xtick_1">
     <g id="line2d_1">
      <defs>
       <path id="mb958a5bd51" d="M 0 0 
L 0 3.5 
" style="stroke: #000000; stroke-width: 0.8"/>
      </defs>
      <g>
       <use xlink:href="#mb958a5bd51" x="57.6" y="307.584" style="stroke: #000000; stroke-width: 0.8"/>
      </g>
     </g>
     <g id="text_1">
      <!-- 10 -->
      <g transform="translate(51.2375 322.182437) scale(0.1 -0.1)">
       <defs>
        <path id="DejaVuSans-31" d="M 794 531 
L 1825 531 
L 1825 4091 
L 703 3866 
L 703 4441 
L 1819 4666 
L 2450 4666 
L 2450 531 
L 3481 531 
L 3481 0 
L 794 0 
L 794 531 
z
" transform="scale(0.015625)"/>
        <path id="DejaVuSans-30" d="M 2034 4250 
Q 1547 4250 1301 3770 
Q 1056 3291 1056 2328 
Q 1056 1369 1301 889 
Q 1547 409 2034 409 
Q 2525 409 2770 889 
Q 3016 1369 3016 2328 
Q 3016 3291 2770 3770 
Q 2525 4250 2034 4250 
z
M 2034 4750 
Q 2819 4750 3233 4129 
Q 3647 3509 3647 2328 
Q 3647 1150 3233 529 
Q 2819 -91 2034 -91 
Q 1250 -91 836 529 
Q 422 1150 422 2328 
Q 422 3509 836 4129 
Q 1250 4750 2034 4750 
z
" transform="scale(0.015625)"/>
       </defs>
       <use xlink:href="#DejaVuSans-31"/>
       <use xlink:href="#DejaVuSans-30" x="63.623047"/>
      </g>
     </g>
    </g>
    <g id="xtick_2">
     <g id="line2d_2">
      <g>
       <use xlink:href="#mb958a5bd51" x="102.24" y="307.584" style="stroke: #000000; stroke-width: 0.8"/>
      </g>
     </g>
     <g id="text_2">
      <!-- 10.25 -->
      <g transform="translate(87.925938 322.182437) scale(0.1 -0.1)">
       <defs>
        <path id="DejaVuSans-2e" d="M 684 794 
L 1344 794 
L 1344 0 
L 684 0 
L 684 794 
z
" transform="scale(0.015625)"/>
        <path id="DejaVuSans-32" d="M 1228 531 
L 3431 531 
L 3431 0 
L 469 0 
L 469 531 
Q 828 903 1448 1529 
Q 2069 2156 2228 2338 
Q 2531 2678 2651 2914 
Q 2772 3150 2772 3378 
Q 2772 3750 2511 3984 
Q 2250 4219 1831 4219 
Q 1534 4219 1204 4116 
Q 875 4013 500 3803 
L 500 4441 
Q 881 4594 1212 4672 
Q 1544 4750 1819 4750 
Q 2544 4750 2975 4387 
Q 3406 4025 3406 3419 
Q 3406 3131 3298 2873 
Q 3191 2616 2906 2266 
Q 2828 2175 2409 1742 
Q 1991 1309 1228 531 
z
" transform="scale(0.015625)"/>
        <path id="DejaVuSans-35" d="M 691 4666 
L 3169 4666 
L 3169 4134 
L 1269 4134 
L 1269 2991 
Q 1406 3038 1543 3061 
Q 1681 3084 1819 3084 
Q 2600 3084 3056 2656 
Q 3513 2228 3513 1497 
Q 3513 744 3044 326 
Q 2575 -91 1722 -91 
Q 1428 -91 1123 -41 
Q 819 9 494 109 
L 494 744 
Q 775 591 1075 516 
Q 1375 441 1709 441 
Q 2250 441 2565 725 
Q 2881 1009 2881 1497 
Q 2881 1984 2565 2268 
Q 2250 2553 1709 2553 
Q 1456 2553 1204 2497 
Q 953 2441 691 2322 
L 691 4666 
z
" transform="scale(0.015625)"/>
       </defs>
       <use xlink:href="#DejaVuSans-31"/>
       <use xlink:href="#DejaVuSans-30" x="63.623047"/>
       <use xlink:href="#DejaVuSans-2e" x="127.246094"/>
       <use xlink:href="#DejaVuSans-32" x="159.033203"/>
       <use xlink:href="#DejaVuSans-35" x="222.65625"/>
      </g>
     </g>
    </g>
    <g id="xtick_3">
     <g id="line2d_3">
      <g>
       <use xlink:href="#mb958a5bd51" x="146.88" y="307.584" style="stroke: #000000; stroke-width: 0.8"/>
      </g>
     </g>
     <g id="text_3">
      <!-- 10.5 -->
      <g transform="translate(135.747188 322.182437) scale(0.1 -0.1)">
       <use xlink:href="#DejaVuSans-31"/>
       <use xlink:href="#DejaVuSans-30" x="63.623047"/>
       <use xlink:href="#DejaVuSans-2e" x="127.246094"/>
       <use xlink:href="#DejaVuSans-35" x="159.033203"/>
      </g>
     </g>
    </g>
    <g id="xtick_4">
     <g id="line2d_4">
      <g>
       <use xlink:href="#mb958a5bd51" x="191.52" y="307.584" style="stroke: #000000; stroke-width: 0.8"/>
      </g>
     </g>
     <g id="text_4">
      <!-- 10.75 -->
      <g transform="translate(177.205937 322.182437) scale(0.1 -0.1)">
       <defs>
        <path id="DejaVuSans-37" d="M 525 4666 
L 3525 4666 
L 3525 4397 
L 1831 0 
L 1172 0 
L 2766 4134 
L 525 4134 
L 525 4666 
z
" transform="scale(0.015625)"/>
       </defs>
       <use xlink:href="#DejaVuSans-31"/>
       <use xlink:href="#DejaVuSans-30" x="63.623047"/>
       <use xlink:href="#DejaVuSans-2e" x="127.246094"/>
       <use xlink:href="#DejaVuSans-37" x="159.033203"/>
       <use xlink:href="#DejaVuSans-35" x="222.65625"/>
      </g>
     </g>
    </g>
    <g id="xtick_5">
     <g id="line2d_5">
      <g>
       <use xlink:href="#mb958a5bd51" x="236.16" y="307.584" style="stroke: #000000; stroke-width: 0.8"/>
      </g>
     </g>
     <g id="text_5">
      <!-- 11 -->
      <g transform="translate(229.7975 322.182437) scale(0.1 -0.1)">
       <use xlink:href="#DejaVuSans-31"/>
       <use xlink:href="#DejaVuSans-31" x="63.623047"/>
      </g>
     </g>
    </g>
    <g id="xtick_6">
     <g id="line2d_6">
      <g>
       <use xlink:href="#mb958a5bd51" x="280.8" y="307.584" style="stroke: #000000; stroke-width: 0.8"/>
      </g>
     </g>
     <g id="text_6">
      <!-- 11.25 -->
      <g transform="translate(266.485937 322.182437) scale(0.1 -0.1)">
       <use xlink:href="#DejaVuSans-31"/>
       <use xlink:href="#DejaVuSans-31" x="63.623047"/>
       <use xlink:href="#DejaVuSans-2e" x="127.246094"/>
       <use xlink:href="#DejaVuSans-32" x="159.033203"/>
       <use xlink:href="#DejaVuSans-35" x="222.65625"/>
      </g>
     </g>
    </g>
    <g id="xtick_7">
     <g id="line2d_7">
      <g>
       <use xlink:href="#mb958a5bd51" x="325.44" y="307.584" style="stroke: #000000; stroke-width: 0.8"/>
      </g>
     </g>
     <g id="text_7">
      <!-- 11.5 -->
      <g transform="translate(314.307188 322.182437) scale(0.1 -0.1)">
       <use xlink:href="#DejaVuSans-31"/>
       <use xlink:href="#DejaVuSans-31" x="63.623047"/>
       <use xlink:href="#DejaVuSans-2e" x="127.246094"/>
       <use xlink:href="#DejaVuSans-35" x="159.033203"/>
      </g>
     </g>
    </g>
    <g id="xtick_8">
     <g id="line2d_8">
      <g>
       <use xlink:href="#mb958a5bd51" x="370.08" y="307.584" style="stroke: #000000; stroke-width: 0.8"/>
      </g>
     </g>
     <g id="text_8">
      <!-- 11.75 -->
      <g transform="translate(355.765937 322.182437) scale(0.1 -0.1)">
       <use xlink:href="#DejaVuSans-31"/>
       <use xlink:href="#DejaVuSans-31" x="63.623047"/>
       <use xlink:href="#DejaVuSans-2e" x="127.246094"/>
       <use xlink:href="#DejaVuSans-37" x="159.033203"/>
       <use xlink:href="#DejaVuSans-35" x="222.65625"/>
      </g>
     </g>
    </g>
    <g id="xtick_9">
     <g id="line2d_9">
      <g>
       <use xlink:href="#mb958a5bd51" x="414.72" y="307.584" style="stroke: #000000; stroke-width: 0.8"/>
      </g>
     </g>
     <g id="text_9">
      <!-- 12 -->
      <g transform="translate(408.3575 322.182437) scale(0.1 -0.1)">
       <use xlink:href="#DejaVuSans-31"/>
       <use xlink:href="#DejaVuSans-32" x="63.623047"/>
      </g>
     </g>
    </g>
    <g id="text_10">
     <!-- Frequency (GHz) -->
     <g transform="translate(194.581094 335.860562) scale(0.1 -0.1)">
      <defs>
       <path id="DejaVuSans-46" d="M 628 4666 
L 3309 4666 
L 3309 4134 
L 1259 4134 
L 1259 2759 
L 3109 2759 
L 3109 2228 
L 1259 2228 
L 1259 0 
L 628 0 
L 628 4666 
z
" transform="scale(0.015625)"/>
       <path id="DejaVuSans-72" d="M 2631 2963 
Q 2534 3019 2420 3045 
Q 2306 3072 2169 3072 
Q 1681 3072 1420 2755 
Q 1159 2438 1159 1844 
L 1159 0 
L 581 0 
L 581 3500 
L 1159 3500 
L 1159 2956 
Q 1341 3275 1631 3429 
Q 1922 3584 2338 3584 
Q 2397 3584 2469 3576 
Q 2541 3569 2628 3553 
L 2631 2963 
z
" transform="scale(0.015625)"/>
       <path id="DejaVuSans-65" d="M 3597 1894 
L 3597 1613 
L 953 1613 
Q 991 1019 1311 708 
Q 1631 397 2203 397 
Q 2534 397 2845 478 
Q 3156 559 3463 722 
L 3463 178 
Q 3153 47 2828 -22 
Q 2503 -91 2169 -91 
Q 1331 -91 842 396 
Q 353 884 353 1716 
Q 353 2575 817 3079 
Q 1281 3584 2069 3584 
Q 2775 3584 3186 3129 
Q 3597 2675 3597 1894 
z
M 3022 2063 
Q 3016 2534 2758 2815 
Q 2500 3097 2075 3097 
Q 1594 3097 1305 2825 
Q 1016 2553 972 2059 
L 3022 2063 
z
" transform="scale(0.015625)"/>
       <path id="DejaVuSans-71" d="M 947 1747 
Q 947 1113 1208 752 
Q 1469 391 1925 391 
Q 2381 391 2643 752 
Q 2906 1113 2906 1747 
Q 2906 2381 2643 2742 
Q 2381 3103 1925 3103 
Q 1469 3103 1208 2742 
Q 947 2381 947 1747 
z
M 2906 525 
Q 2725 213 2448 61 
Q 2172 -91 1784 -91 
Q 1150 -91 751 415 
Q 353 922 353 1747 
Q 353 2572 751 3078 
Q 1150 3584 1784 3584 
Q 2172 3584 2448 3432 
Q 2725 3281 2906 2969 
L 2906 3500 
L 3481 3500 
L 3481 -1331 
L 2906 -1331 
L 2906 525 
z
" transform="scale(0.015625)"/>
       <path id="DejaVuSans-75" d="M 544 1381 
L 544 3500 
L 1119 3500 
L 1119 1403 
Q 1119 906 1312 657 
Q 1506 409 1894 409 
Q 2359 409 2629 706 
Q 2900 1003 2900 1516 
L 2900 3500 
L 3475 3500 
L 3475 0 
L 2900 0 
L 2900 538 
Q 2691 219 2414 64 
Q 2138 -91 1772 -91 
Q 1169 -91 856 284 
Q 544 659 544 1381 
z
M 1991 3584 
L 1991 3584 
z
" transform="scale(0.015625)"/>
       <path id="DejaVuSans-6e" d="M 3513 2113 
L 3513 0 
L 2938 0 
L 2938 2094 
Q 2938 2591 2744 2837 
Q 2550 3084 2163 3084 
Q 1697 3084 1428 2787 
Q 1159 2491 1159 1978 
L 1159 0 
L 581 0 
L 581 3500 
L 1159 3500 
L 1159 2956 
Q 1366 3272 1645 3428 
Q 1925 3584 2291 3584 
Q 2894 3584 3203 3211 
Q 3513 2838 3513 2113 
z
" transform="scale(0.015625)"/>
       <path id="DejaVuSans-63" d="M 3122 3366 
L 3122 2828 
Q 2878 2963 2633 3030 
Q 2388 3097 2138 3097 
Q 1578 3097 1268 2742 
Q 959 2388 959 1747 
Q 959 1106 1268 751 
Q 1578 397 2138 397 
Q 2388 397 2633 464 
Q 2878 531 3122 666 
L 3122 134 
Q 2881 22 2623 -34 
Q 2366 -91 2075 -91 
Q 1284 -91 818 406 
Q 353 903 353 1747 
Q 353 2603 823 3093 
Q 1294 3584 2113 3584 
Q 2378 3584 2631 3529 
Q 2884 3475 3122 3366 
z
" transform="scale(0.015625)"/>
       <path id="DejaVuSans-79" d="M 2059 -325 
Q 1816 -950 1584 -1140 
Q 1353 -1331 966 -1331 
L 506 -1331 
L 506 -850 
L 844 -850 
Q 1081 -850 1212 -737 
Q 1344 -625 1503 -206 
L 1606 56 
L 191 3500 
L 800 3500 
L 1894 763 
L 2988 3500 
L 3597 3500 
L 2059 -325 
z
" transform="scale(0.015625)"/>
       <path id="DejaVuSans-20" transform="scale(0.015625)"/>
       <path id="DejaVuSans-28" d="M 1984 4856 
Q 1566 4138 1362 3434 
Q 1159 2731 1159 2009 
Q 1159 1288 1364 580 
Q 1569 -128 1984 -844 
L 1484 -844 
Q 1016 -109 783 600 
Q 550 1309 550 2009 
Q 550 2706 781 3412 
Q 1013 4119 1484 4856 
L 1984 4856 
z
" transform="scale(0.015625)"/>
       <path id="DejaVuSans-47" d="M 3809 666 
L 3809 1919 
L 2778 1919 
L 2778 2438 
L 4434 2438 
L 4434 434 
Q 4069 175 3628 42 
Q 3188 -91 2688 -91 
Q 1594 -91 976 548 
Q 359 1188 359 2328 
Q 359 3472 976 4111 
Q 1594 4750 2688 4750 
Q 3144 4750 3555 4637 
Q 3966 4525 4313 4306 
L 4313 3634 
Q 3963 3931 3569 4081 
Q 3175 4231 2741 4231 
Q 1884 4231 1454 3753 
Q 1025 3275 1025 2328 
Q 1025 1384 1454 906 
Q 1884 428 2741 428 
Q 3075 428 3337 486 
Q 3600 544 3809 666 
z
" transform="scale(0.015625)"/>
       <path id="DejaVuSans-48" d="M 628 4666 
L 1259 4666 
L 1259 2753 
L 3553 2753 
L 3553 4666 
L 4184 4666 
L 4184 0 
L 3553 0 
L 3553 2222 
L 1259 2222 
L 1259 0 
L 628 0 
L 628 4666 
z
" transform="scale(0.015625)"/>
       <path id="DejaVuSans-7a" d="M 353 3500 
L 3084 3500 
L 3084 2975 
L 922 459 
L 3084 459 
L 3084 0 
L 275 0 
L 275 525 
L 2438 3041 
L 353 3041 
L 353 3500 
z
" transform="scale(0.015625)"/>
       <path id="DejaVuSans-29" d="M 513 4856 
L 1013 4856 
Q 1481 4119 1714 3412 
Q 1947 2706 1947 2009 
Q 1947 1309 1714 600 
Q 1481 -109 1013 -844 
L 513 -844 
Q 928 -128 1133 580 
Q 1338 1288 1338 2009 
Q 1338 2731 1133 3434 
Q 928 4138 513 4856 
z
" transform="scale(0.015625)"/>
      </defs>
      <use xlink:href="#DejaVuSans-46"/>
      <use xlink:href="#DejaVuSans-72" x="50.269531"/>
      <use xlink:href="#DejaVuSans-65" x="89.132812"/>
      <use xlink:href="#DejaVuSans-71" x="150.65625"/>
      <use xlink:href="#DejaVuSans-75" x="214.132812"/>
      <use xlink:href="#DejaVuSans-65" x="277.511719"/>
      <use xlink:href="#DejaVuSans-6e" x="339.035156"/>
      <use xlink:href="#DejaVuSans-63" x="402.414062"/>
      <use xlink:href="#DejaVuSans-79" x="457.394531"/>
      <use xlink:href="#DejaVuSans-20" x="516.574219"/>
      <use xlink:href="#DejaVuSans-28" x="548.361328"/>
      <use xlink:href="#DejaVuSans-47" x="587.375"/>
      <use xlink:href="#DejaVuSans-48" x="664.865234"/>
      <use xlink:href="#DejaVuSans-7a" x="740.060547"/>
      <use xlink:href="#DejaVuSans-29" x="792.550781"/>
     </g>
    </g>
   </g>
   <g id="matplotlib.axis_2">
    <g id="ytick_1">
     <g id="line2d_10">
      <defs>
       <path id="m93670e53d3" d="M 0 0 
L -3.5 0 
" style="stroke: #000000; stroke-width: 0.8"/>
      </defs>
      <g>
       <use xlink:href="#m93670e53d3" x="57.6" y="294.040184" style="stroke: #000000; stroke-width: 0.8"/>
      </g>
     </g>
     <g id="text_11">
      <!-- −70 -->
      <g transform="translate(29.495313 297.839403) scale(0.1 -0.1)">
       <defs>
        <path id="DejaVuSans-2212" d="M 678 2272 
L 4684 2272 
L 4684 1741 
L 678 1741 
L 678 2272 
z
" transform="scale(0.015625)"/>
       </defs>
       <use xlink:href="#DejaVuSans-2212"/>
       <use xlink:href="#DejaVuSans-37" x="83.789062"/>
       <use xlink:href="#DejaVuSans-30" x="147.412109"/>
      </g>
     </g>
    </g>
    <g id="ytick_2">
     <g id="line2d_11">
      <g>
       <use xlink:href="#m93670e53d3" x="57.6" y="259.687015" style="stroke: #000000; stroke-width: 0.8"/>
      </g>
     </g>
     <g id="text_12">
      <!-- −60 -->
      <g transform="translate(29.495313 263.486233) scale(0.1 -0.1)">
       <defs>
        <path id="DejaVuSans-36" d="M 2113 2584 
Q 1688 2584 1439 2293 
Q 1191 2003 1191 1497 
Q 1191 994 1439 701 
Q 1688 409 2113 409 
Q 2538 409 2786 701 
Q 3034 994 3034 1497 
Q 3034 2003 2786 2293 
Q 2538 2584 2113 2584 
z
M 3366 4563 
L 3366 3988 
Q 3128 4100 2886 4159 
Q 2644 4219 2406 4219 
Q 1781 4219 1451 3797 
Q 1122 3375 1075 2522 
Q 1259 2794 1537 2939 
Q 1816 3084 2150 3084 
Q 2853 3084 3261 2657 
Q 3669 2231 3669 1497 
Q 3669 778 3244 343 
Q 2819 -91 2113 -91 
Q 1303 -91 875 529 
Q 447 1150 447 2328 
Q 447 3434 972 4092 
Q 1497 4750 2381 4750 
Q 2619 4750 2861 4703 
Q 3103 4656 3366 4563 
z
" transform="scale(0.015625)"/>
       </defs>
       <use xlink:href="#DejaVuSans-2212"/>
       <use xlink:href="#DejaVuSans-36" x="83.789062"/>
       <use xlink:href="#DejaVuSans-30" x="147.412109"/>
      </g>
     </g>
    </g>
    <g id="ytick_3">
     <g id="line2d_12">
      <g>
       <use xlink:href="#m93670e53d3" x="57.6" y="225.333845" style="stroke: #000000; stroke-width: 0.8"/>
      </g>
     </g>
     <g id="text_13">
      <!-- −50 -->
      <g transform="translate(29.495313 229.133064) scale(0.1 -0.1)">
       <use xlink:href="#DejaVuSans-2212"/>
       <use xlink:href="#DejaVuSans-35" x="83.789062"/>
       <use xlink:href="#DejaVuSans-30" x="147.412109"/>
      </g>
     </g>
    </g>
    <g id="ytick_4">
     <g id="line2d_13">
      <g>
       <use xlink:href="#m93670e53d3" x="57.6" y="190.980676" style="stroke: #000000; stroke-width: 0.8"/>
      </g>
     </g>
     <g id="text_14">
      <!-- −40 -->
      <g transform="translate(29.495313 194.779895) scale(0.1 -0.1)">
       <defs>
        <path id="DejaVuSans-34" d="M 2419 4116 
L 825 1625 
L 2419 1625 
L 2419 4116 
z
M 2253 4666 
L 3047 4666 
L 3047 1625 
L 3713 1625 
L 3713 1100 
L 3047 1100 
L 3047 0 
L 2419 0 
L 2419 1100 
L 313 1100 
L 313 1709 
L 2253 4666 
z
" transform="scale(0.015625)"/>
       </defs>
       <use xlink:href="#DejaVuSans-2212"/>
       <use xlink:href="#DejaVuSans-34" x="83.789062"/>
       <use xlink:href="#DejaVuSans-30" x="147.412109"/>
      </g>
     </g>
    </g>
    <g id="ytick_5">
     <g id="line2d_14">
      <g>
       <use xlink:href="#m93670e53d3" x="57.6" y="156.627506" style="stroke: #000000; stroke-width: 0.8"/>
      </g>
     </g>
     <g id="text_15">
      <!-- −30 -->
      <g transform="translate(29.495313 160.426725) scale(0.1 -0.1)">
       <defs>
        <path id="DejaVuSans-33" d="M 2597 2516 
Q 3050 2419 3304 2112 
Q 3559 1806 3559 1356 
Q 3559 666 3084 287 
Q 2609 -91 1734 -91 
Q 1441 -91 1130 -33 
Q 819 25 488 141 
L 488 750 
Q 750 597 1062 519 
Q 1375 441 1716 441 
Q 2309 441 2620 675 
Q 2931 909 2931 1356 
Q 2931 1769 2642 2001 
Q 2353 2234 1838 2234 
L 1294 2234 
L 1294 2753 
L 1863 2753 
Q 2328 2753 2575 2939 
Q 2822 3125 2822 3475 
Q 2822 3834 2567 4026 
Q 2313 4219 1838 4219 
Q 1578 4219 1281 4162 
Q 984 4106 628 3988 
L 628 4550 
Q 988 4650 1302 4700 
Q 1616 4750 1894 4750 
Q 2613 4750 3031 4423 
Q 3450 4097 3450 3541 
Q 3450 3153 3228 2886 
Q 3006 2619 2597 2516 
z
" transform="scale(0.015625)"/>
       </defs>
       <use xlink:href="#DejaVuSans-2212"/>
       <use xlink:href="#DejaVuSans-33" x="83.789062"/>
       <use xlink:href="#DejaVuSans-30" x="147.412109"/>
      </g>
     </g>
    </g>
    <g id="ytick_6">
     <g id="line2d_15">
      <g>
       <use xlink:href="#m93670e53d3" x="57.6" y="122.274337" style="stroke: #000000; stroke-width: 0.8"/>
      </g>
     </g>
     <g id="text_16">
      <!-- −20 -->
      <g transform="translate(29.495313 126.073556) scale(0.1 -0.1)">
       <use xlink:href="#DejaVuSans-2212"/>
       <use xlink:href="#DejaVuSans-32" x="83.789062"/>
       <use xlink:href="#DejaVuSans-30" x="147.412109"/>
      </g>
     </g>
    </g>
    <g id="ytick_7">
     <g id="line2d_16">
      <g>
       <use xlink:href="#m93670e53d3" x="57.6" y="87.921168" style="stroke: #000000; stroke-width: 0.8"/>
      </g>
     </g>
     <g id="text_17">
      <!-- −10 -->
      <g transform="translate(29.495313 91.720386) scale(0.1 -0.1)">
       <use xlink:href="#DejaVuSans-2212"/>
       <use xlink:href="#DejaVuSans-31" x="83.789062"/>
       <use xlink:href="#DejaVuSans-30" x="147.412109"/>
      </g>
     </g>
    </g>
    <g id="ytick_8">
     <g id="line2d_17">
      <g>
       <use xlink:href="#m93670e53d3" x="57.6" y="53.567998" style="stroke: #000000; stroke-width: 0.8"/>
      </g>
     </g>
     <g id="text_18">
      <!-- 0 -->
      <g transform="translate(44.2375 57.367217) scale(0.1 -0.1)">
       <use xlink:href="#DejaVuSans-30"/>
      </g>
     </g>
    </g>
    <g id="text_19">
     <!-- Magnitude (dB) -->
     <g transform="translate(23.415625 213.113156) rotate(-90) scale(0.1 -0.1)">
      <defs>
       <path id="DejaVuSans-4d" d="M 628 4666 
L 1569 4666 
L 2759 1491 
L 3956 4666 
L 4897 4666 
L 4897 0 
L 4281 0 
L 4281 4097 
L 3078 897 
L 2444 897 
L 1241 4097 
L 1241 0 
L 628 0 
L 628 4666 
z
" transform="scale(0.015625)"/>
       <path id="DejaVuSans-61" d="M 2194 1759 
Q 1497 1759 1228 1600 
Q 959 1441 959 1056 
Q 959 750 1161 570 
Q 1363 391 1709 391 
Q 2188 391 2477 730 
Q 2766 1069 2766 1631 
L 2766 1759 
L 2194 1759 
z
M 3341 1997 
L 3341 0 
L 2766 0 
L 2766 531 
Q 2569 213 2275 61 
Q 1981 -91 1556 -91 
Q 1019 -91 701 211 
Q 384 513 384 1019 
Q 384 1609 779 1909 
Q 1175 2209 1959 2209 
L 2766 2209 
L 2766 2266 
Q 2766 2663 2505 2880 
Q 2244 3097 1772 3097 
Q 1472 3097 1187 3025 
Q 903 2953 641 2809 
L 641 3341 
Q 956 3463 1253 3523 
Q 1550 3584 1831 3584 
Q 2591 3584 2966 3190 
Q 3341 2797 3341 1997 
z
" transform="scale(0.015625)"/>
       <path id="DejaVuSans-67" d="M 2906 1791 
Q 2906 2416 2648 2759 
Q 2391 3103 1925 3103 
Q 1463 3103 1205 2759 
Q 947 2416 947 1791 
Q 947 1169 1205 825 
Q 1463 481 1925 481 
Q 2391 481 2648 825 
Q 2906 1169 2906 1791 
z
M 3481 434 
Q 3481 -459 3084 -895 
Q 2688 -1331 1869 -1331 
Q 1566 -1331 1297 -1286 
Q 1028 -1241 775 -1147 
L 775 -588 
Q 1028 -725 1275 -790 
Q 1522 -856 1778 -856 
Q 2344 -856 2625 -561 
Q 2906 -266 2906 331 
L 2906 616 
Q 2728 306 2450 153 
Q 2172 0 1784 0 
Q 1141 0 747 490 
Q 353 981 353 1791 
Q 353 2603 747 3093 
Q 1141 3584 1784 3584 
Q 2172 3584 2450 3431 
Q 2728 3278 2906 2969 
L 2906 3500 
L 3481 3500 
L 3481 434 
z
" transform="scale(0.015625)"/>
       <path id="DejaVuSans-69" d="M 603 3500 
L 1178 3500 
L 1178 0 
L 603 0 
L 603 3500 
z
M 603 4863 
L 1178 4863 
L 1178 4134 
L 603 4134 
L 603 4863 
z
" transform="scale(0.015625)"/>
       <path id="DejaVuSans-74" d="M 1172 4494 
L 1172 3500 
L 2356 3500 
L 2356 3053 
L 1172 3053 
L 1172 1153 
Q 1172 725 1289 603 
Q 1406 481 1766 481 
L 2356 481 
L 2356 0 
L 1766 0 
Q 1100 0 847 248 
Q 594 497 594 1153 
L 594 3053 
L 172 3053 
L 172 3500 
L 594 3500 
L 594 4494 
L 1172 4494 
z
" transform="scale(0.015625)"/>
       <path id="DejaVuSans-64" d="M 2906 2969 
L 2906 4863 
L 3481 4863 
L 3481 0 
L 2906 0 
L 2906 525 
Q 2725 213 2448 61 
Q 2172 -91 1784 -91 
Q 1150 -91 751 415 
Q 353 922 353 1747 
Q 353 2572 751 3078 
Q 1150 3584 1784 3584 
Q 2172 3584 2448 3432 
Q 2725 3281 2906 2969 
z
M 947 1747 
Q 947 1113 1208 752 
Q 1469 391 1925 391 
Q 2381 391 2643 752 
Q 2906 1113 2906 1747 
Q 2906 2381 2643 2742 
Q 2381 3103 1925 3103 
Q 1469 3103 1208 2742 
Q 947 2381 947 1747 
z
" transform="scale(0.015625)"/>
       <path id="DejaVuSans-42" d="M 1259 2228 
L 1259 519 
L 2272 519 
Q 2781 519 3026 730 
Q 3272 941 3272 1375 
Q 3272 1813 3026 2020 
Q 2781 2228 2272 2228 
L 1259 2228 
z
M 1259 4147 
L 1259 2741 
L 2194 2741 
Q 2656 2741 2882 2914 
Q 3109 3088 3109 3444 
Q 3109 3797 2882 3972 
Q 2656 4147 2194 4147 
L 1259 4147 
z
M 628 4666 
L 2241 4666 
Q 2963 4666 3353 4366 
Q 3744 4066 3744 3513 
Q 3744 3084 3544 2831 
Q 3344 2578 2956 2516 
Q 3422 2416 3680 2098 
Q 3938 1781 3938 1306 
Q 3938 681 3513 340 
Q 3088 0 2303 0 
L 628 0 
L 628 4666 
z
" transform="scale(0.015625)"/>
      </defs>
      <use xlink:href="#DejaVuSans-4d"/>
      <use xlink:href="#DejaVuSans-61" x="86.279297"/>
      <use xlink:href="#DejaVuSans-67" x="147.558594"/>
      <use xlink:href="#DejaVuSans-6e" x="211.035156"/>
      <use xlink:href="#DejaVuSans-69" x="274.414062"/>
      <use xlink:href="#DejaVuSans-74" x="302.197266"/>
      <use xlink:href="#DejaVuSans-75" x="341.40625"/>
      <use xlink:href="#DejaVuSans-64" x="404.785156"/>
      <use xlink:href="#DejaVuSans-65" x="468.261719"/>
      <use xlink:href="#DejaVuSans-20" x="529.785156"/>
      <use xlink:href="#DejaVuSans-28" x="561.572266"/>
      <use xlink:href="#DejaVuSans-64" x="600.585938"/>
      <use xlink:href="#DejaVuSans-42" x="664.0625"/>
      <use xlink:href="#DejaVuSans-29" x="732.666016"/>
     </g>
    </g>
   </g>
   <g id="line2d_18">
    <path d="M 57.6 295.488 
L 65.960669 288.320242 
L 74.321338 280.82659 
L 81.487625 274.115985 
L 88.653913 267.111282 
L 95.820201 259.780576 
L 102.986488 252.086328 
L 108.958395 245.364795 
L 114.930301 238.329404 
L 120.902207 230.944175 
L 126.874114 223.166282 
L 131.651639 216.626942 
L 136.429164 209.77199 
L 141.206689 202.564091 
L 145.984214 194.958501 
L 150.761739 186.900899 
L 155.539264 178.324337 
L 159.122408 171.501657 
L 162.705552 164.296665 
L 166.288696 156.656256 
L 169.871839 148.515009 
L 173.454983 139.791369 
L 177.038127 130.382885 
L 180.621271 120.161637 
L 184.204415 108.975773 
L 187.787559 96.682554 
L 191.370702 83.315533 
L 194.953846 69.727283 
L 196.148227 65.593296 
L 197.342609 61.930474 
L 198.53699 58.907901 
L 199.731371 56.628779 
L 200.925753 55.088269 
L 202.120134 54.17757 
L 203.314515 53.730913 
L 204.508896 53.580248 
L 206.897659 53.663178 
L 210.480803 53.82665 
L 214.063946 53.731357 
L 218.841472 53.570157 
L 223.618997 53.679797 
L 230.785284 53.923825 
L 235.562809 53.816787 
L 242.729097 53.570653 
L 248.701003 53.675711 
L 253.478528 53.695149 
L 258.256054 53.586591 
L 259.450435 53.700598 
L 260.644816 53.986826 
L 261.839197 54.533364 
L 263.033579 55.434856 
L 264.22796 56.774714 
L 265.422341 58.603561 
L 266.616722 60.923322 
L 267.811104 63.685814 
L 270.199866 70.186651 
L 279.754916 98.43103 
L 283.33806 107.842344 
L 286.921204 116.460183 
L 290.504348 124.371896 
L 294.087492 131.669054 
L 297.670635 138.432665 
L 301.253779 144.730946 
L 304.836923 150.620591 
L 308.420067 156.148733 
L 312.003211 161.35478 
L 316.780736 167.851788 
L 321.558261 173.899955 
L 326.335786 179.55256 
L 331.113311 184.853638 
L 335.890836 189.84002 
L 340.668361 194.542843 
L 346.640268 200.062736 
L 352.612174 205.224778 
L 358.58408 210.06584 
L 364.555987 214.617173 
L 370.527893 218.905513 
L 376.499799 222.953917 
L 383.666087 227.523318 
L 390.832375 231.80586 
L 397.998662 235.827249 
L 405.16495 239.609731 
L 413.525619 243.7464 
L 414.72 244.314562 
L 414.72 244.314562 
" clip-path="url(#p3ec18a27e3)" style="fill: none; stroke-dasharray: 5.55,2.4; stroke-dashoffset: 0; stroke: #0000ff; stroke-width: 1.5"/>
   </g>
   <g id="line2d_19">
    <path d="M 57.6 53.568113 
L 178.232508 53.676776 
L 183.010033 53.852062 
L 186.593177 54.206448 
L 188.98194 54.721856 
L 190.176321 55.146156 
L 191.370702 55.752123 
L 192.565084 56.625663 
L 193.759465 57.893037 
L 194.953846 59.73475 
L 196.148227 62.396826 
L 197.342609 66.19206 
L 198.53699 71.488354 
L 199.731371 78.705979 
L 200.925753 88.397137 
L 202.120134 101.585963 
L 203.314515 121.069009 
L 204.508896 159.920753 
L 205.703278 151.550206 
L 206.897659 129.072147 
L 208.09204 119.90092 
L 209.286421 115.666034 
L 210.480803 114.210847 
L 211.675184 114.746174 
L 212.869565 117.003668 
L 214.063946 121.029214 
L 215.258328 127.201838 
L 216.452709 136.516561 
L 217.64709 151.804436 
L 218.841472 187.628396 
L 220.035853 178.988198 
L 221.230234 149.3324 
L 222.424615 135.418811 
L 223.618997 126.674387 
L 224.813378 120.638919 
L 226.007759 116.337794 
L 227.20214 113.288697 
L 228.396522 111.224151 
L 229.590903 109.98906 
L 230.785284 109.496583 
L 231.979666 109.708004 
L 233.174047 110.624672 
L 234.368428 112.288006 
L 235.562809 114.787621 
L 236.757191 118.281715 
L 237.951572 123.041949 
L 239.145953 129.558134 
L 240.340334 138.823131 
L 241.534716 153.361217 
L 242.729097 184.230217 
L 243.923478 190.230531 
L 245.11786 156.191827 
L 246.312241 141.593808 
L 247.506622 132.851234 
L 248.701003 127.232479 
L 249.895385 123.781967 
L 251.089766 122.156221 
L 252.284147 122.360687 
L 253.478528 124.760542 
L 254.67291 130.379463 
L 255.867291 142.182551 
L 257.061672 173.534727 
L 258.256054 153.614501 
L 259.450435 124.136598 
L 260.644816 107.095127 
L 261.839197 94.901331 
L 263.033579 85.503096 
L 264.22796 78.081706 
L 265.422341 72.220734 
L 266.616722 67.647324 
L 267.811104 64.136965 
L 269.005485 61.484786 
L 270.199866 59.505097 
L 271.394247 58.038102 
L 272.588629 56.953866 
L 273.78301 56.151535 
L 274.977391 55.555383 
L 277.366154 54.774229 
L 279.754916 54.324799 
L 283.33806 53.966108 
L 288.115585 53.753152 
L 297.670635 53.618905 
L 325.141405 53.571816 
L 414.72 53.568342 
L 414.72 53.568342 
" clip-path="url(#p3ec18a27e3)" style="fill: none; stroke-dasharray: 5.55,2.4; stroke-dashoffset: 0; stroke: #ff0000; stroke-width: 1.5"/>
   </g>
   <g id="line2d_20">
    <path d="M 57.6 291.254354 
L 65.6352 284.266217 
L 73.6704 276.966056 
L 80.8128 270.187167 
L 87.9552 263.10591 
L 95.0976 255.688923 
L 101.3472 248.892841 
L 107.5968 241.778506 
L 113.8464 234.309202 
L 119.2032 227.591487 
L 124.56 220.548278 
L 129.9168 213.140787 
L 135.2736 205.322489 
L 139.7376 198.452998 
L 144.2016 191.219609 
L 148.6656 183.574599 
L 153.1296 175.459606 
L 157.5936 166.802119 
L 161.1648 159.424719 
L 164.736 151.583174 
L 168.3072 143.204581 
L 171.8784 134.197544 
L 175.4496 124.447206 
L 178.128 116.562661 
L 180.8064 108.114475 
L 183.4848 99.043183 
L 187.056 85.980302 
L 191.52 69.119139 
L 193.3056 63.190924 
L 194.1984 60.674339 
L 195.0912 58.543979 
L 195.984 56.835437 
L 196.8768 55.548439 
L 197.7696 54.647356 
L 198.6624 54.07082 
L 199.5552 53.745731 
L 200.448 53.600044 
L 202.2336 53.609327 
L 206.6976 53.888442 
L 210.2688 53.800646 
L 216.5184 53.568415 
L 220.9824 53.694747 
L 228.1248 53.932043 
L 232.5888 53.827888 
L 240.624 53.57077 
L 245.9808 53.698273 
L 250.4448 53.75034 
L 256.6944 53.611872 
L 258.48 53.950858 
L 259.3728 54.318693 
L 260.2656 54.870936 
L 261.1584 55.645404 
L 262.0512 56.673054 
L 262.944 57.972987 
L 263.8368 59.548925 
L 265.6224 63.464601 
L 267.408 68.177064 
L 270.0864 76.046501 
L 275.4432 91.98024 
L 279.0144 101.781254 
L 282.5856 110.771879 
L 286.1568 119.012916 
L 289.728 126.594684 
L 293.2992 133.603634 
L 296.8704 140.114363 
L 300.4416 146.189271 
L 304.0128 151.88021 
L 308.4768 158.519064 
L 312.9408 164.694431 
L 317.4048 170.462755 
L 321.8688 175.870483 
L 326.3328 180.956293 
L 330.7968 185.752745 
L 336.1536 191.165232 
L 341.5104 196.241205 
L 346.8672 201.014737 
L 352.224 205.514786 
L 358.4736 210.452128 
L 364.7232 215.084629 
L 370.9728 219.441024 
L 377.2224 223.546011 
L 384.3648 227.956882 
L 391.5072 232.094824 
L 398.6496 235.983631 
L 406.6848 240.086366 
L 414.72 243.925388 
L 414.72 243.925388 
" clip-path="url(#p3ec18a27e3)" style="fill: none; stroke: #0000ff; stroke-width: 1.5; stroke-linecap: square"/>
   </g>
   <g id="line2d_21">
    <path d="M 57.6 53.568 
L 174.5568 53.677363 
L 179.9136 53.889121 
L 182.592 54.15466 
L 184.3776 54.470074 
L 186.1632 54.990456 
L 187.9488 55.871137 
L 188.8416 56.527483 
L 189.7344 57.393907 
L 190.6272 58.540013 
L 191.52 60.055439 
L 192.4128 62.052071 
L 193.3056 64.664113 
L 194.1984 68.045762 
L 195.0912 72.369023 
L 195.984 77.829375 
L 196.8768 84.674674 
L 197.7696 93.287197 
L 198.6624 104.398161 
L 199.5552 119.751733 
L 200.448 145.237596 
L 201.3408 179.958758 
L 202.2336 141.446935 
L 203.1264 126.848529 
L 204.0192 119.169778 
L 204.912 114.7196 
L 205.8048 112.201788 
L 206.6976 111.028845 
L 207.5904 110.90374 
L 208.4832 111.677301 
L 209.376 113.292033 
L 210.2688 115.76195 
L 211.1616 119.174255 
L 212.0544 123.714318 
L 212.9472 129.732944 
L 213.84 137.921766 
L 214.7328 149.856227 
L 215.6256 170.40184 
L 216.5184 209.993594 
L 217.4112 168.149825 
L 218.304 149.24084 
L 219.1968 138.103749 
L 220.0896 130.435184 
L 220.9824 124.769601 
L 221.8752 120.43507 
L 222.768 117.06868 
L 223.6608 114.45354 
L 224.5536 112.451415 
L 225.4464 110.970863 
L 226.3392 109.950698 
L 227.232 109.35088 
L 228.1248 109.147371 
L 229.0176 109.329328 
L 229.9104 109.897879 
L 230.8032 110.866148 
L 231.696 112.26056 
L 232.5888 114.123737 
L 233.4816 116.519761 
L 234.3744 119.54342 
L 235.2672 123.336766 
L 236.16 128.120277 
L 237.0528 134.255886 
L 237.9456 142.3857 
L 238.8384 153.751029 
L 239.7312 170.435767 
L 240.624 181.74162 
L 241.5168 164.783551 
L 242.4096 150.263479 
L 243.3024 140.4379 
L 244.1952 133.417118 
L 245.088 128.225533 
L 245.9808 124.362663 
L 246.8736 121.559576 
L 247.7664 119.676194 
L 248.6592 118.658298 
L 249.552 118.52404 
L 250.4448 119.371736 
L 251.3376 121.414684 
L 252.2304 125.071195 
L 253.1232 131.209808 
L 254.016 141.996586 
L 254.9088 165.934644 
L 255.8016 184.478343 
L 256.6944 140.557128 
L 257.5872 121.333028 
L 258.48 108.404997 
L 259.3728 98.542009 
L 260.2656 90.588739 
L 261.1584 84.008798 
L 262.0512 78.511503 
L 262.944 73.916865 
L 263.8368 70.096337 
L 264.7296 66.944749 
L 265.6224 64.367825 
L 266.5152 62.278095 
L 267.408 60.594903 
L 268.3008 59.245756 
L 269.1936 58.167478 
L 270.0864 57.306586 
L 271.872 56.068548 
L 273.6576 55.271262 
L 275.4432 54.750252 
L 278.1216 54.275388 
L 281.6928 53.945871 
L 287.0496 53.731714 
L 296.8704 53.613138 
L 327.2256 53.570737 
L 414.72 53.568041 
L 414.72 53.568041 
" clip-path="url(#p3ec18a27e3)" style="fill: none; stroke: #ff0000; stroke-width: 1.5; stroke-linecap: square"/>
   </g>
   <g id="patch_3">
    <path d="M 57.6 307.584 
L 57.6 41.472 
" style="fill: none; stroke: #000000; stroke-width: 0.8; stroke-linejoin: miter; stroke-linecap: square"/>
   </g>
   <g id="patch_4">
    <path d="M 414.72 307.584 
L 414.72 41.472 
" style="fill: none; stroke: #000000; stroke-width: 0.8; stroke-linejoin: miter; stroke-linecap: square"/>
   </g>
   <g id="patch_5">
    <path d="M 57.6 307.584 
L 414.72 307.584 
" style="fill: none; stroke: #000000; stroke-width: 0.8; stroke-linejoin: miter; stroke-linecap: square"/>
   </g>
   <g id="patch_6">
    <path d="M 57.6 41.472 
L 414.72 41.472 
" style="fill: none; stroke: #000000; stroke-width: 0.8; stroke-linejoin: miter; stroke-linecap: square"/>
   </g>
   <g id="text_20">
    <!-- S-Parameters -->
    <g transform="translate(195.845625 35.472) scale(0.12 -0.12)">
     <defs>
      <path id="DejaVuSans-53" d="M 3425 4513 
L 3425 3897 
Q 3066 4069 2747 4153 
Q 2428 4238 2131 4238 
Q 1616 4238 1336 4038 
Q 1056 3838 1056 3469 
Q 1056 3159 1242 3001 
Q 1428 2844 1947 2747 
L 2328 2669 
Q 3034 2534 3370 2195 
Q 3706 1856 3706 1288 
Q 3706 609 3251 259 
Q 2797 -91 1919 -91 
Q 1588 -91 1214 -16 
Q 841 59 441 206 
L 441 856 
Q 825 641 1194 531 
Q 1563 422 1919 422 
Q 2459 422 2753 634 
Q 3047 847 3047 1241 
Q 3047 1584 2836 1778 
Q 2625 1972 2144 2069 
L 1759 2144 
Q 1053 2284 737 2584 
Q 422 2884 422 3419 
Q 422 4038 858 4394 
Q 1294 4750 2059 4750 
Q 2388 4750 2728 4690 
Q 3069 4631 3425 4513 
z
" transform="scale(0.015625)"/>
      <path id="DejaVuSans-2d" d="M 313 2009 
L 1997 2009 
L 1997 1497 
L 313 1497 
L 313 2009 
z
" transform="scale(0.015625)"/>
      <path id="DejaVuSans-50" d="M 1259 4147 
L 1259 2394 
L 2053 2394 
Q 2494 2394 2734 2622 
Q 2975 2850 2975 3272 
Q 2975 3691 2734 3919 
Q 2494 4147 2053 4147 
L 1259 4147 
z
M 628 4666 
L 2053 4666 
Q 2838 4666 3239 4311 
Q 3641 3956 3641 3272 
Q 3641 2581 3239 2228 
Q 2838 1875 2053 1875 
L 1259 1875 
L 1259 0 
L 628 0 
L 628 4666 
z
" transform="scale(0.015625)"/>
      <path id="DejaVuSans-6d" d="M 3328 2828 
Q 3544 3216 3844 3400 
Q 4144 3584 4550 3584 
Q 5097 3584 5394 3201 
Q 5691 2819 5691 2113 
L 5691 0 
L 5113 0 
L 5113 2094 
Q 5113 2597 4934 2840 
Q 4756 3084 4391 3084 
Q 3944 3084 3684 2787 
Q 3425 2491 3425 1978 
L 3425 0 
L 2847 0 
L 2847 2094 
Q 2847 2600 2669 2842 
Q 2491 3084 2119 3084 
Q 1678 3084 1418 2786 
Q 1159 2488 1159 1978 
L 1159 0 
L 581 0 
L 581 3500 
L 1159 3500 
L 1159 2956 
Q 1356 3278 1631 3431 
Q 1906 3584 2284 3584 
Q 2666 3584 2933 3390 
Q 3200 3197 3328 2828 
z
" transform="scale(0.015625)"/>
      <path id="DejaVuSans-73" d="M 2834 3397 
L 2834 2853 
Q 2591 2978 2328 3040 
Q 2066 3103 1784 3103 
Q 1356 3103 1142 2972 
Q 928 2841 928 2578 
Q 928 2378 1081 2264 
Q 1234 2150 1697 2047 
L 1894 2003 
Q 2506 1872 2764 1633 
Q 3022 1394 3022 966 
Q 3022 478 2636 193 
Q 2250 -91 1575 -91 
Q 1294 -91 989 -36 
Q 684 19 347 128 
L 347 722 
Q 666 556 975 473 
Q 1284 391 1588 391 
Q 1994 391 2212 530 
Q 2431 669 2431 922 
Q 2431 1156 2273 1281 
Q 2116 1406 1581 1522 
L 1381 1569 
Q 847 1681 609 1914 
Q 372 2147 372 2553 
Q 372 3047 722 3315 
Q 1072 3584 1716 3584 
Q 2034 3584 2315 3537 
Q 2597 3491 2834 3397 
z
" transform="scale(0.015625)"/>
     </defs>
     <use xlink:href="#DejaVuSans-53"/>
     <use xlink:href="#DejaVuSans-2d" x="63.476562"/>
     <use xlink:href="#DejaVuSans-50" x="99.560547"/>
     <use xlink:href="#DejaVuSans-61" x="155.363281"/>
     <use xlink:href="#DejaVuSans-72" x="216.642578"/>
     <use xlink:href="#DejaVuSans-61" x="257.755859"/>
     <use xlink:href="#DejaVuSans-6d" x="319.035156"/>
     <use xlink:href="#DejaVuSans-65" x="416.447266"/>
     <use xlink:href="#DejaVuSans-74" x="477.970703"/>
     <use xlink:href="#DejaVuSans-65" x="517.179688"/>
     <use xlink:href="#DejaVuSans-72" x="578.703125"/>
     <use xlink:href="#DejaVuSans-73" x="619.816406"/>
    </g>
   </g>
   <g id="legend_1">
    <g id="patch_7">
     <path d="M 140.746719 302.584 
L 331.573281 302.584 
Q 333.573281 302.584 333.573281 300.584 
L 333.573281 241.759 
Q 333.573281 239.759 331.573281 239.759 
L 140.746719 239.759 
Q 138.746719 239.759 138.746719 241.759 
L 138.746719 300.584 
Q 138.746719 302.584 140.746719 302.584 
z
" style="fill: #ffffff; opacity: 0.8; stroke: #cccccc; stroke-linejoin: miter"/>
    </g>
    <g id="line2d_22">
     <path d="M 142.746719 247.857437 
L 152.746719 247.857437 
L 162.746719 247.857437 
" style="fill: none; stroke-dasharray: 5.55,2.4; stroke-dashoffset: 0; stroke: #0000ff; stroke-width: 1.5"/>
    </g>
    <g id="text_21">
     <!-- waveguide_filter_wavefem, S21 -->
     <g transform="translate(170.746719 251.357437) scale(0.1 -0.1)">
      <defs>
       <path id="DejaVuSans-77" d="M 269 3500 
L 844 3500 
L 1563 769 
L 2278 3500 
L 2956 3500 
L 3675 769 
L 4391 3500 
L 4966 3500 
L 4050 0 
L 3372 0 
L 2619 2869 
L 1863 0 
L 1184 0 
L 269 3500 
z
" transform="scale(0.015625)"/>
       <path id="DejaVuSans-76" d="M 191 3500 
L 800 3500 
L 1894 563 
L 2988 3500 
L 3597 3500 
L 2284 0 
L 1503 0 
L 191 3500 
z
" transform="scale(0.015625)"/>
       <path id="DejaVuSans-5f" d="M 3263 -1063 
L 3263 -1509 
L -63 -1509 
L -63 -1063 
L 3263 -1063 
z
" transform="scale(0.015625)"/>
       <path id="DejaVuSans-66" d="M 2375 4863 
L 2375 4384 
L 1825 4384 
Q 1516 4384 1395 4259 
Q 1275 4134 1275 3809 
L 1275 3500 
L 2222 3500 
L 2222 3053 
L 1275 3053 
L 1275 0 
L 697 0 
L 697 3053 
L 147 3053 
L 147 3500 
L 697 3500 
L 697 3744 
Q 697 4328 969 4595 
Q 1241 4863 1831 4863 
L 2375 4863 
z
" transform="scale(0.015625)"/>
       <path id="DejaVuSans-6c" d="M 603 4863 
L 1178 4863 
L 1178 0 
L 603 0 
L 603 4863 
z
" transform="scale(0.015625)"/>
       <path id="DejaVuSans-2c" d="M 750 794 
L 1409 794 
L 1409 256 
L 897 -744 
L 494 -744 
L 750 256 
L 750 794 
z
" transform="scale(0.015625)"/>
      </defs>
      <use xlink:href="#DejaVuSans-77"/>
      <use xlink:href="#DejaVuSans-61" x="81.787109"/>
      <use xlink:href="#DejaVuSans-76" x="143.066406"/>
      <use xlink:href="#DejaVuSans-65" x="202.246094"/>
      <use xlink:href="#DejaVuSans-67" x="263.769531"/>
      <use xlink:href="#DejaVuSans-75" x="327.246094"/>
      <use xlink:href="#DejaVuSans-69" x="390.625"/>
      <use xlink:href="#DejaVuSans-64" x="418.408203"/>
      <use xlink:href="#DejaVuSans-65" x="481.884766"/>
      <use xlink:href="#DejaVuSans-5f" x="543.408203"/>
      <use xlink:href="#DejaVuSans-66" x="593.408203"/>
      <use xlink:href="#DejaVuSans-69" x="628.613281"/>
      <use xlink:href="#DejaVuSans-6c" x="656.396484"/>
      <use xlink:href="#DejaVuSans-74" x="684.179688"/>
      <use xlink:href="#DejaVuSans-65" x="723.388672"/>
      <use xlink:href="#DejaVuSans-72" x="784.912109"/>
      <use xlink:href="#DejaVuSans-5f" x="826.025391"/>
      <use xlink:href="#DejaVuSans-77" x="876.025391"/>
      <use xlink:href="#DejaVuSans-61" x="957.8125"/>
      <use xlink:href="#DejaVuSans-76" x="1019.091797"/>
      <use xlink:href="#DejaVuSans-65" x="1078.271484"/>
      <use xlink:href="#DejaVuSans-66" x="1139.794922"/>
      <use xlink:href="#DejaVuSans-65" x="1175"/>
      <use xlink:href="#DejaVuSans-6d" x="1236.523438"/>
      <use xlink:href="#DejaVuSans-2c" x="1333.935547"/>
      <use xlink:href="#DejaVuSans-20" x="1365.722656"/>
      <use xlink:href="#DejaVuSans-53" x="1397.509766"/>
      <use xlink:href="#DejaVuSans-32" x="1460.986328"/>
      <use xlink:href="#DejaVuSans-31" x="1524.609375"/>
     </g>
    </g>
    <g id="line2d_23">
     <path d="M 142.746719 262.813687 
L 152.746719 262.813687 
L 162.746719 262.813687 
" style="fill: none; stroke-dasharray: 5.55,2.4; stroke-dashoffset: 0; stroke: #ff0000; stroke-width: 1.5"/>
    </g>
    <g id="text_22">
     <!-- waveguide_filter_wavefem, S11 -->
     <g transform="translate(170.746719 266.313687) scale(0.1 -0.1)">
      <use xlink:href="#DejaVuSans-77"/>
      <use xlink:href="#DejaVuSans-61" x="81.787109"/>
      <use xlink:href="#DejaVuSans-76" x="143.066406"/>
      <use xlink:href="#DejaVuSans-65" x="202.246094"/>
      <use xlink:href="#DejaVuSans-67" x="263.769531"/>
      <use xlink:href="#DejaVuSans-75" x="327.246094"/>
      <use xlink:href="#DejaVuSans-69" x="390.625"/>
      <use xlink:href="#DejaVuSans-64" x="418.408203"/>
      <use xlink:href="#DejaVuSans-65" x="481.884766"/>
      <use xlink:href="#DejaVuSans-5f" x="543.408203"/>
      <use xlink:href="#DejaVuSans-66" x="593.408203"/>
      <use xlink:href="#DejaVuSans-69" x="628.613281"/>
      <use xlink:href="#DejaVuSans-6c" x="656.396484"/>
      <use xlink:href="#DejaVuSans-74" x="684.179688"/>
      <use xlink:href="#DejaVuSans-65" x="723.388672"/>
      <use xlink:href="#DejaVuSans-72" x="784.912109"/>
      <use xlink:href="#DejaVuSans-5f" x="826.025391"/>
      <use xlink:href="#DejaVuSans-77" x="876.025391"/>
      <use xlink:href="#DejaVuSans-61" x="957.8125"/>
      <use xlink:href="#DejaVuSans-76" x="1019.091797"/>
      <use xlink:href="#DejaVuSans-65" x="1078.271484"/>
      <use xlink:href="#DejaVuSans-66" x="1139.794922"/>
      <use xlink:href="#DejaVuSans-65" x="1175"/>
      <use xlink:href="#DejaVuSans-6d" x="1236.523438"/>
      <use xlink:href="#DejaVuSans-2c" x="1333.935547"/>
      <use xlink:href="#DejaVuSans-20" x="1365.722656"/>
      <use xlink:href="#DejaVuSans-53" x="1397.509766"/>
      <use xlink:href="#DejaVuSans-31" x="1460.986328"/>
      <use xlink:href="#DejaVuSans-31" x="1524.609375"/>
     </g>
    </g>
    <g id="line2d_24">
     <path d="M 142.746719 277.769937 
L 152.746719 277.769937 
L 162.746719 277.769937 
" style="fill: none; stroke: #0000ff; stroke-width: 1.5; stroke-linecap: square"/>
    </g>
    <g id="text_23">
     <!-- waveguide_filter_hfss, S21 -->
     <g transform="translate(170.746719 281.269937) scale(0.1 -0.1)">
      <defs>
       <path id="DejaVuSans-68" d="M 3513 2113 
L 3513 0 
L 2938 0 
L 2938 2094 
Q 2938 2591 2744 2837 
Q 2550 3084 2163 3084 
Q 1697 3084 1428 2787 
Q 1159 2491 1159 1978 
L 1159 0 
L 581 0 
L 581 4863 
L 1159 4863 
L 1159 2956 
Q 1366 3272 1645 3428 
Q 1925 3584 2291 3584 
Q 2894 3584 3203 3211 
Q 3513 2838 3513 2113 
z
" transform="scale(0.015625)"/>
      </defs>
      <use xlink:href="#DejaVuSans-77"/>
      <use xlink:href="#DejaVuSans-61" x="81.787109"/>
      <use xlink:href="#DejaVuSans-76" x="143.066406"/>
      <use xlink:href="#DejaVuSans-65" x="202.246094"/>
      <use xlink:href="#DejaVuSans-67" x="263.769531"/>
      <use xlink:href="#DejaVuSans-75" x="327.246094"/>
      <use xlink:href="#DejaVuSans-69" x="390.625"/>
      <use xlink:href="#DejaVuSans-64" x="418.408203"/>
      <use xlink:href="#DejaVuSans-65" x="481.884766"/>
      <use xlink:href="#DejaVuSans-5f" x="543.408203"/>
      <use xlink:href="#DejaVuSans-66" x="593.408203"/>
      <use xlink:href="#DejaVuSans-69" x="628.613281"/>
      <use xlink:href="#DejaVuSans-6c" x="656.396484"/>
      <use xlink:href="#DejaVuSans-74" x="684.179688"/>
      <use xlink:href="#DejaVuSans-65" x="723.388672"/>
      <use xlink:href="#DejaVuSans-72" x="784.912109"/>
      <use xlink:href="#DejaVuSans-5f" x="826.025391"/>
      <use xlink:href="#DejaVuSans-68" x="876.025391"/>
      <use xlink:href="#DejaVuSans-66" x="939.404297"/>
      <use xlink:href="#DejaVuSans-73" x="974.609375"/>
      <use xlink:href="#DejaVuSans-73" x="1026.708984"/>
      <use xlink:href="#DejaVuSans-2c" x="1078.808594"/>
      <use xlink:href="#DejaVuSans-20" x="1110.595703"/>
      <use xlink:href="#DejaVuSans-53" x="1142.382812"/>
      <use xlink:href="#DejaVuSans-32" x="1205.859375"/>
      <use xlink:href="#DejaVuSans-31" x="1269.482422"/>
     </g>
    </g>
    <g id="line2d_25">
     <path d="M 142.746719 292.726187 
L 152.746719 292.726187 
L 162.746719 292.726187 
" style="fill: none; stroke: #ff0000; stroke-width: 1.5; stroke-linecap: square"/>
    </g>
    <g id="text_24">
     <!-- waveguide_filter_hfss, S11 -->
     <g transform="translate(170.746719 296.226187) scale(0.1 -0.1)">
      <use xlink:href="#DejaVuSans-77"/>
      <use xlink:href="#DejaVuSans-61" x="81.787109"/>
      <use xlink:href="#DejaVuSans-76" x="143.066406"/>
      <use xlink:href="#DejaVuSans-65" x="202.246094"/>
      <use xlink:href="#DejaVuSans-67" x="263.769531"/>
      <use xlink:href="#DejaVuSans-75" x="327.246094"/>
      <use xlink:href="#DejaVuSans-69" x="390.625"/>
      <use xlink:href="#DejaVuSans-64" x="418.408203"/>
      <use xlink:href="#DejaVuSans-65" x="481.884766"/>
      <use xlink:href="#DejaVuSans-5f" x="543.408203"/>
      <use xlink:href="#DejaVuSans-66" x="593.408203"/>
      <use xlink:href="#DejaVuSans-69" x="628.613281"/>
      <use xlink:href="#DejaVuSans-6c" x="656.396484"/>
      <use xlink:href="#DejaVuSans-74" x="684.179688"/>
      <use xlink:href="#DejaVuSans-65" x="723.388672"/>
      <use xlink:href="#DejaVuSans-72" x="784.912109"/>
      <use xlink:href="#DejaVuSans-5f" x="826.025391"/>
      <use xlink:href="#DejaVuSans-68" x="876.025391"/>
      <use xlink:href="#DejaVuSans-66" x="939.404297"/>
      <use xlink:href="#DejaVuSans-73" x="974.609375"/>
      <use xlink:href="#DejaVuSans-73" x="1026.708984"/>
      <use xlink:href="#DejaVuSans-2c" x="1078.808594"/>
      <use xlink:href="#DejaVuSans-20" x="1110.595703"/>
      <use xlink:href="#DejaVuSans-53" x="1142.382812"/>
      <use xlink:href="#DejaVuSans-31" x="1205.859375"/>
      <use xlink:href="#DejaVuSans-31" x="1269.482422"/>
     </g>
    </g>
   </g>
  </g>
 </g>
 <defs>
  <clipPath id="p3ec18a27e3">
   <rect x="57.6" y="41.472" width="357.12" height="266.112"/>
  </clipPath>
 </defs>
</svg>
