<?xml version="1.0" encoding="UTF-8" standalone="no"?>
<!-- Created with Inkscape (http://www.inkscape.org/) -->

<svg
   width="70mm"
   height="70mm"
   viewBox="0 0 69.999999 70"
   version="1.1"
   id="svg1"
   xml:space="preserve"
   sodipodi:docname="fast.svg"
   inkscape:version="1.4.2 (f4327f4, 2025-05-13)"
   xmlns:inkscape="http://www.inkscape.org/namespaces/inkscape"
   xmlns:sodipodi="http://sodipodi.sourceforge.net/DTD/sodipodi-0.dtd"
   xmlns="http://www.w3.org/2000/svg"
   xmlns:svg="http://www.w3.org/2000/svg"><sodipodi:namedview
     id="namedview1"
     pagecolor="#ffffff"
     bordercolor="#666666"
     borderopacity="1.0"
     inkscape:showpageshadow="2"
     inkscape:pageopacity="0.0"
     inkscape:pagecheckerboard="0"
     inkscape:deskcolor="#d1d1d1"
     inkscape:document-units="mm"
     inkscape:zoom="2.8756734"
     inkscape:cx="140.83658"
     inkscape:cy="122.57998"
     inkscape:window-width="1920"
     inkscape:window-height="1009"
     inkscape:window-x="-8"
     inkscape:window-y="-8"
     inkscape:window-maximized="1"
     inkscape:current-layer="layer1" /><defs
     id="defs1" /><g
     inkscape:label="Layer 1"
     inkscape:groupmode="layer"
     id="layer1"
     transform="translate(-68.173235,-115.21839)"><path
       style="fill:#1e88e5;fill-opacity:1;stroke:#000000;stroke-width:0.5;stroke-linecap:square;stroke-linejoin:round;stroke-dasharray:none;stroke-opacity:1"
       d="m 82.263392,131.17228 c 2.024163,1.10409 16.377327,19.13754 16.377327,19.13754 L 82.815437,169.8154 H 69.198336 l 15.825279,-19.32156 c 0,0 -16.561339,-19.68959 -15.825279,-19.50558 0.73606,0.18402 13.065056,0.18402 13.065056,0.18402 z"
       id="path10" /><path
       style="fill:#1e88e5;fill-opacity:1;stroke:#000000;stroke-width:0.5;stroke-linecap:square;stroke-linejoin:round;stroke-dasharray:none;stroke-opacity:1"
       d="m 101.51711,130.98884 c 2.02416,1.10409 16.37732,19.13754 16.37732,19.13754 l -15.82527,19.50558 H 88.45204 l 15.82529,-19.32156 c 0,0 -16.56135,-19.68959 -15.82529,-19.50558 0.73606,0.18402 13.06507,0.18402 13.06507,0.18402 z"
       id="path10-4" /><path
       style="fill:#1e88e5;fill-opacity:1;stroke:#000000;stroke-width:0.5;stroke-linecap:square;stroke-linejoin:round;stroke-dasharray:none;stroke-opacity:1"
       d="m 121.2584,130.52929 c 2.02416,1.10409 16.37732,19.13754 16.37732,19.13754 l -15.82528,19.50558 h -13.6171 l 15.82528,-19.32156 c 0,0 -16.56134,-19.68959 -15.82528,-19.50558 0.73606,0.18402 13.06506,0.18402 13.06506,0.18402 z"
       id="path10-1" /></g></svg>
